<svg width="57" height="36" viewBox="0 0 57 36" fill="none" xmlns="http://www.w3.org/2000/svg">
<path opacity="0.1" d="M14.128 35.48C11.472 35.48 9.072 34.808 6.928 33.464C4.816 32.12 3.152 30.168 1.936 27.608C0.72 25.016 0.112 21.88 0.112 18.2C0.112 14.52 0.72 11.4 1.936 8.84C3.152 6.248 4.816 4.28 6.928 2.936C9.072 1.592 11.472 0.919998 14.128 0.919998C16.816 0.919998 19.216 1.592 21.328 2.936C23.44 4.28 25.104 6.248 26.32 8.84C27.568 11.4 28.192 14.52 28.192 18.2C28.192 21.88 27.568 25.016 26.32 27.608C25.104 30.168 23.44 32.12 21.328 33.464C19.216 34.808 16.816 35.48 14.128 35.48ZM14.128 30.056C15.696 30.056 17.056 29.64 18.208 28.808C19.36 27.944 20.256 26.632 20.896 24.872C21.568 23.112 21.904 20.888 21.904 18.2C21.904 15.48 21.568 13.256 20.896 11.528C20.256 9.768 19.36 8.472 18.208 7.64C17.056 6.776 15.696 6.344 14.128 6.344C12.624 6.344 11.28 6.776 10.096 7.64C8.944 8.472 8.032 9.768 7.36 11.528C6.72 13.256 6.4 15.48 6.4 18.2C6.4 20.888 6.72 23.112 7.36 24.872C8.032 26.632 8.944 27.944 10.096 28.808C11.28 29.64 12.624 30.056 14.128 30.056ZM31.93 35V30.824L45.274 18.152C46.394 17.096 47.226 16.168 47.77 15.368C48.314 14.568 48.666 13.832 48.826 13.16C49.018 12.456 49.114 11.8 49.114 11.192C49.114 9.656 48.586 8.472 47.53 7.64C46.474 6.776 44.922 6.344 42.874 6.344C41.242 6.344 39.754 6.632 38.41 7.208C37.098 7.784 35.962 8.664 35.002 9.848L30.634 6.488C31.946 4.728 33.706 3.368 35.914 2.408C38.154 1.416 40.65 0.919998 43.402 0.919998C45.834 0.919998 47.946 1.32 49.738 2.12C51.562 2.888 52.954 3.992 53.914 5.432C54.906 6.872 55.402 8.584 55.402 10.568C55.402 11.656 55.258 12.744 54.97 13.832C54.682 14.888 54.138 16.008 53.338 17.192C52.538 18.376 51.37 19.704 49.834 21.176L38.362 32.072L37.066 29.72H56.698V35H31.93Z" fill="#282828"/>
</svg>
