<svg width="56" height="36" viewBox="0 0 56 36" fill="none" xmlns="http://www.w3.org/2000/svg">
<path opacity="0.1" d="M14.128 35.48C11.472 35.48 9.072 34.808 6.928 33.464C4.816 32.12 3.152 30.168 1.936 27.608C0.72 25.016 0.112 21.88 0.112 18.2C0.112 14.52 0.72 11.4 1.936 8.84C3.152 6.248 4.816 4.28 6.928 2.936C9.072 1.592 11.472 0.919998 14.128 0.919998C16.816 0.919998 19.216 1.592 21.328 2.936C23.44 4.28 25.104 6.248 26.32 8.84C27.568 11.4 28.192 14.52 28.192 18.2C28.192 21.88 27.568 25.016 26.32 27.608C25.104 30.168 23.44 32.12 21.328 33.464C19.216 34.808 16.816 35.48 14.128 35.48ZM14.128 30.056C15.696 30.056 17.056 29.64 18.208 28.808C19.36 27.944 20.256 26.632 20.896 24.872C21.568 23.112 21.904 20.888 21.904 18.2C21.904 15.48 21.568 13.256 20.896 11.528C20.256 9.768 19.36 8.472 18.208 7.64C17.056 6.776 15.696 6.344 14.128 6.344C12.624 6.344 11.28 6.776 10.096 7.64C8.944 8.472 8.032 9.768 7.36 11.528C6.72 13.256 6.4 15.48 6.4 18.2C6.4 20.888 6.72 23.112 7.36 24.872C8.032 26.632 8.944 27.944 10.096 28.808C11.28 29.64 12.624 30.056 14.128 30.056ZM42.5001 35.48C40.1321 35.48 37.8121 35.144 35.5401 34.472C33.3001 33.768 31.4121 32.808 29.8761 31.592L32.5641 26.744C33.7801 27.736 35.2521 28.536 36.9801 29.144C38.7081 29.752 40.5161 30.056 42.4041 30.056C44.6441 30.056 46.3881 29.608 47.6361 28.712C48.8841 27.784 49.5081 26.536 49.5081 24.968C49.5081 23.432 48.9321 22.216 47.7801 21.32C46.6281 20.424 44.7721 19.976 42.2121 19.976H39.1401V15.704L48.7401 4.28L49.5561 6.632H31.5081V1.4H54.4041V5.576L44.8041 17L41.5401 15.08H43.4121C47.5401 15.08 50.6281 16.008 52.6761 17.864C54.7561 19.688 55.7961 22.04 55.7961 24.92C55.7961 26.808 55.3161 28.552 54.3561 30.152C53.3961 31.752 51.9241 33.048 49.9401 34.04C47.9881 35 45.5081 35.48 42.5001 35.48Z" fill="#282828"/>
</svg>
