<svg width="60" height="36" viewBox="0 0 60 36" fill="none" xmlns="http://www.w3.org/2000/svg">
<path opacity="0.1" d="M14.128 35.48C11.472 35.48 9.072 34.808 6.928 33.464C4.816 32.12 3.152 30.168 1.936 27.608C0.72 25.016 0.112 21.88 0.112 18.2C0.112 14.52 0.72 11.4 1.936 8.84C3.152 6.248 4.816 4.28 6.928 2.936C9.072 1.592 11.472 0.919998 14.128 0.919998C16.816 0.919998 19.216 1.592 21.328 2.936C23.44 4.28 25.104 6.248 26.32 8.84C27.568 11.4 28.192 14.52 28.192 18.2C28.192 21.88 27.568 25.016 26.32 27.608C25.104 30.168 23.44 32.12 21.328 33.464C19.216 34.808 16.816 35.48 14.128 35.48ZM14.128 30.056C15.696 30.056 17.056 29.64 18.208 28.808C19.36 27.944 20.256 26.632 20.896 24.872C21.568 23.112 21.904 20.888 21.904 18.2C21.904 15.48 21.568 13.256 20.896 11.528C20.256 9.768 19.36 8.472 18.208 7.64C17.056 6.776 15.696 6.344 14.128 6.344C12.624 6.344 11.28 6.776 10.096 7.64C8.944 8.472 8.032 9.768 7.36 11.528C6.72 13.256 6.4 15.48 6.4 18.2C6.4 20.888 6.72 23.112 7.36 24.872C8.032 26.632 8.944 27.944 10.096 28.808C11.28 29.64 12.624 30.056 14.128 30.056ZM46.9529 35.48C43.9129 35.48 41.3049 34.84 39.1289 33.56C36.9529 32.248 35.2889 30.36 34.1369 27.896C32.9849 25.432 32.4089 22.392 32.4089 18.776C32.4089 14.936 33.0969 11.688 34.4729 9.032C35.8809 6.376 37.8169 4.36 40.2809 2.984C42.7769 1.608 45.6409 0.919998 48.8729 0.919998C50.5689 0.919998 52.1849 1.096 53.7209 1.448C55.2889 1.8 56.6169 2.344 57.7049 3.08L55.4009 7.784C54.4729 7.176 53.4649 6.76 52.3769 6.536C51.3209 6.28 50.2009 6.152 49.0169 6.152C45.8489 6.152 43.3369 7.128 41.4809 9.08C39.6249 11.032 38.6969 13.912 38.6969 17.72C38.6969 18.328 38.7129 19.048 38.7449 19.88C38.7769 20.68 38.8889 21.496 39.0809 22.328L37.1609 20.216C37.7369 18.904 38.5209 17.816 39.5129 16.952C40.5369 16.056 41.7369 15.384 43.1129 14.936C44.5209 14.488 46.0409 14.264 47.6729 14.264C49.8809 14.264 51.8489 14.696 53.5769 15.56C55.3049 16.392 56.6809 17.592 57.7049 19.16C58.7289 20.696 59.2409 22.504 59.2409 24.584C59.2409 26.792 58.6969 28.712 57.6089 30.344C56.5209 31.976 55.0489 33.24 53.1929 34.136C51.3369 35.032 49.2569 35.48 46.9529 35.48ZM46.6169 30.584C47.8969 30.584 49.0329 30.36 50.0249 29.912C51.0169 29.432 51.7849 28.76 52.3289 27.896C52.9049 27.032 53.1929 26.024 53.1929 24.872C53.1929 23.112 52.5849 21.72 51.3689 20.696C50.1529 19.672 48.5209 19.16 46.4729 19.16C45.1289 19.16 43.9449 19.416 42.9209 19.928C41.9289 20.408 41.1289 21.08 40.5209 21.944C39.9449 22.808 39.6569 23.8 39.6569 24.92C39.6569 25.944 39.9289 26.888 40.4729 27.752C41.0169 28.616 41.8009 29.304 42.8249 29.816C43.8809 30.328 45.1449 30.584 46.6169 30.584Z" fill="#282828"/>
</svg>
