<svg width="200" height="38" viewBox="0 0 200 38" fill="none" xmlns="http://www.w3.org/2000/svg">
<mask id="mask0_564_13282" style="mask-type:luminance" maskUnits="userSpaceOnUse" x="0" y="-1" width="200" height="39">
<path d="M200 -0.00195312H0V37.3314H200V-0.00195312Z" fill="white"/>
</mask>
<g mask="url(#mask0_564_13282)">
<path d="M31.1595 24.3758C31.7656 24.3758 32.008 25.0709 32.008 26.5769C31.9451 27.6048 31.6115 28.6009 31.0383 29.4728C30.2793 30.6438 29.3391 31.6984 28.2499 32.6005C27.1224 33.5441 25.8561 34.3246 24.4917 34.9173C23.2477 35.5089 21.8804 35.8257 20.4911 35.844C18.6724 35.844 17.5815 34.3381 16.9752 31.3262C16.1261 32.7169 14.9151 33.8742 13.4596 34.6856C11.7316 35.6338 9.75052 36.0769 7.76165 35.9598C6.73012 35.9853 5.70256 35.8282 4.73084 35.4964C3.74881 35.1101 2.84592 34.561 2.06373 33.8748C1.3876 33.2062 0.852523 32.4197 0.487717 31.558C0.141019 30.7097 -0.0238852 29.8037 0.00278873 28.8936C0.00278873 23.4493 1.94251 19.1632 5.70069 16.0354C6.96837 14.8646 8.50419 13.992 10.1863 13.487C11.5983 13.068 13.0725 12.8724 14.5505 12.9078C15.8533 12.8862 17.1423 13.1643 18.3088 13.7188C18.7939 12.792 19.2787 12.3287 19.8848 12.3287C20.5245 12.3175 21.1544 12.478 21.7033 12.792C22.2992 13.0305 22.8361 13.3856 23.2793 13.8346C24.1673 14.5268 24.7336 15.5258 24.8553 16.6148C24.2492 17.889 23.5219 19.1632 22.7944 20.4374C22.4319 22.5033 22.3099 24.6012 22.4307 26.6926C22.4307 29.357 22.7944 30.747 23.5219 30.747C24.2492 30.747 26.5525 29.1253 29.8259 25.766C30.432 24.7234 30.9169 24.3758 31.1595 24.3758ZM7.39795 27.272C7.39795 29.7045 8.3678 30.9786 10.3075 30.9786C11.3733 30.9476 12.4101 30.64 13.307 30.089C14.2039 29.5381 14.9272 28.7645 15.3992 27.851C15.8532 27.0241 16.2581 26.1733 16.6116 25.3026C16.5677 22.1885 16.8931 19.0797 17.5815 16.0354C14.8632 16.5606 12.3719 17.8518 10.4287 19.7424C9.43987 20.7526 8.65849 21.9314 8.12533 23.2176C7.63905 24.5185 7.39292 25.8904 7.39795 27.272Z" fill="#0084C3"/>
<path d="M53.3299 21.1075C53.3299 20.0631 52.7242 19.4828 51.3918 19.4828C50.5842 19.4828 49.6151 20.2951 48.4846 21.9196C47.4222 23.527 46.6444 25.2914 46.1831 27.1415V27.2576C46.217 28.3928 46.3794 29.5211 46.6675 30.6228C46.9452 31.4097 47.1082 32.2297 47.152 33.0595C47.152 34.1039 45.6984 35.1483 42.9124 36.3087C42.5255 36.4517 42.1158 36.5301 41.7011 36.5408C41.3095 36.5321 40.9295 36.4109 40.611 36.1927C40.3007 35.9616 40.086 35.6327 40.0054 35.2644C39.6583 34.1744 39.4948 33.0384 39.5207 31.8992C39.5207 30.5067 39.5207 29.1143 39.6419 27.8377C39.763 26.5612 39.763 25.401 39.8842 24.3566C40.0054 23.3122 40.0054 22.3839 40.1264 21.4556C40.2174 20.8018 40.2579 20.1423 40.2476 19.4828C40.2476 18.4386 39.763 17.8583 38.673 17.8583C37.5827 17.8583 36.3714 19.0187 35.039 21.3395C33.9099 23.0176 33.205 24.9247 32.9796 26.9095C32.9614 28.201 33.1243 29.4888 33.4642 30.7388C33.7418 31.5259 33.905 32.3458 33.9487 33.1756C33.9487 34.2199 32.4952 35.2644 29.7091 36.4247C29.322 36.5678 28.9124 36.6461 28.4978 36.6568C28.1062 36.6483 27.7263 36.527 27.4075 36.3087C27.0972 36.0778 26.8827 35.7487 26.8019 35.3803C26.4619 34.1304 26.299 32.8425 26.3174 31.5511C26.2171 28.2526 26.4198 24.952 26.9231 21.6876C27.4324 18.6703 28.5871 15.7864 30.3148 13.2167C30.5303 12.8565 30.8186 12.5409 31.1626 12.2884C31.5339 12.0649 31.9443 11.9077 32.3739 11.8242C33.4642 11.8242 34.5543 12.6365 35.4023 14.3771C35.6758 14.7679 35.8804 15.1992 36.0079 15.6535C36.5982 14.756 37.4368 14.033 38.4306 13.5648C39.4016 13.0667 40.4791 12.7888 41.58 12.7525C43.0083 12.7366 44.3911 13.2333 45.4562 14.145C45.9615 14.565 46.3735 15.078 46.6675 15.6535C46.965 16.2286 47.0907 16.8711 47.0308 17.5102V18.0904C47.8498 16.9343 48.9799 16.012 50.3015 15.4215C51.6299 14.8274 53.0751 14.511 54.5412 14.4931C55.2763 14.4554 56.013 14.5339 56.7215 14.7252C57.4286 14.9575 58.0854 15.3114 58.6596 15.7695C59.1292 16.1939 59.5004 16.7078 59.7498 17.278C59.9976 17.8679 60.1211 18.499 60.1133 19.1347C60.1133 20.2951 59.992 21.5716 59.871 22.732C59.7499 23.8924 59.3863 24.8207 59.1442 25.7491C58.9019 26.6774 58.6596 27.4896 58.4174 28.1859C58.2772 28.7571 58.1962 29.34 58.175 29.9264C58.175 30.2745 58.2963 30.5067 58.5386 30.5067C59.2313 30.389 59.8674 30.0639 60.3554 29.5783C61.0823 28.9982 61.809 28.3019 62.5358 27.6058L64.5951 25.633C65.2007 25.0527 65.6854 24.7047 65.9275 24.7047C66.412 24.7047 66.6543 25.2848 66.6543 26.3292C66.6543 28.534 65.443 30.7388 63.1415 32.9435C61.1663 34.9099 58.4772 36.0734 55.6312 36.1927C53.2086 36.1927 51.9972 34.1039 51.9972 29.9264C52.0199 28.4391 52.2232 26.9592 52.603 25.517C53.0036 24.0751 53.2472 22.5974 53.3299 21.1075Z" fill="#0084C3"/>
<path d="M80.9362 31.6583C79.8429 33.0754 78.3818 34.1943 76.6976 34.9043C75.0405 35.6839 73.2156 36.0809 71.3692 36.0635C67.615 36.0635 64.9508 35.1362 63.013 33.2813C62.1064 32.3869 61.4052 31.3206 60.9542 30.1513C60.4522 28.977 60.2449 27.7065 60.3489 26.4415C60.222 22.8158 61.5676 19.2839 64.103 16.5875C65.3185 15.2213 66.8537 14.1489 68.5838 13.4575C70.3101 12.7675 72.1626 12.4129 74.0334 12.4141C75.5568 12.4094 77.0705 12.6444 78.5142 13.1098C80.452 13.9213 81.4206 14.6167 81.4206 15.3123C81.4206 16.0079 80.0885 16.1239 77.3032 16.1239C76.0164 16.1193 74.7412 16.3555 73.549 16.8194C72.342 17.2673 71.2632 17.9823 70.4004 18.9062C69.458 19.7959 68.7161 20.8613 68.2205 22.0362C67.7952 23.2679 67.6708 24.5769 67.8572 25.8619C67.8544 27.1711 68.325 28.441 69.1893 29.4557C69.6716 29.9427 70.2472 30.3362 70.8848 30.6149C71.5424 30.8523 72.2406 30.9703 72.9434 30.9627C74.3397 31.0145 75.7234 30.6933 76.94 30.0353C75.7794 29.3342 74.8545 28.3281 74.2756 27.1371C73.6261 25.9625 73.3324 24.6374 73.428 23.3115C73.3944 21.7605 74.004 20.2598 75.1233 19.1381C75.6957 18.5363 76.3982 18.0615 77.1821 17.7469C77.9873 17.4261 78.8533 17.2681 79.7253 17.2831C80.4684 17.2141 81.2181 17.3146 81.9128 17.5766C82.6076 17.8386 83.2274 18.2546 83.7216 18.7902C84.5372 19.911 84.961 21.2502 84.9326 22.6158C84.8912 24.3395 84.4789 26.0365 83.7216 27.6009H83.964C84.6624 27.5981 85.3536 27.4635 85.9977 27.205C86.6418 26.9463 87.2263 26.5687 87.7181 26.0938L88.808 25.0503L89.1713 24.7026C89.2924 24.5867 89.4134 24.5867 89.6557 24.5867C90.1401 24.5867 90.3824 25.1663 90.3824 26.2097C90.4405 27.0366 90.3166 27.8659 90.019 28.6442C89.7087 29.4042 89.21 30.0806 88.5657 30.6149C87.4532 31.5259 86.0333 32.0202 84.5693 32.0062C83.3496 31.9999 82.1332 31.8835 80.9362 31.6583ZM80.573 26.0938C81.0953 25.0413 81.384 23.8965 81.4206 22.7318C81.4206 21.6885 81.0574 21.1089 80.3309 21.1089C80.1652 21.131 80.0094 21.1969 79.881 21.2994C79.7528 21.4018 79.6568 21.5366 79.6041 21.6885C79.4084 22.0445 79.3242 22.447 79.362 22.8477C79.365 23.4443 79.4884 24.0347 79.7253 24.5867C79.7537 24.8795 79.8433 25.1638 79.989 25.4227C80.1346 25.6817 80.3332 25.9099 80.573 26.0938Z" fill="#0084C3"/>
<path d="M194.861 36.2336C195.87 36.2336 196.855 35.9461 197.695 35.4078C198.534 34.8696 199.187 34.1044 199.574 33.2093C199.959 32.3141 200.059 31.329 199.863 30.3788C199.667 29.4285 199.181 28.5556 198.469 27.8705C197.754 27.1853 196.846 26.7186 195.857 26.5297C194.867 26.3406 193.841 26.4377 192.91 26.8085C191.978 27.1792 191.181 27.8072 190.621 28.6128C190.059 29.4185 189.761 30.3656 189.761 31.3345C189.81 32.619 190.363 33.8384 191.309 34.7473C192.255 35.6562 193.523 36.1872 194.861 36.2336Z" fill="#87D6F7"/>
<path d="M143.012 25.2594C143.617 25.2594 143.86 25.9557 143.86 27.4645C143.756 28.5037 143.381 29.5011 142.769 30.3658C142.009 31.539 141.069 32.5954 139.98 33.4991C138.852 34.4445 137.585 35.2266 136.22 35.8202C135.02 36.4122 133.692 36.7299 132.34 36.7486C131.324 36.7535 130.324 36.5142 129.43 36.0523C128.683 35.6089 128.092 34.9623 127.732 34.1955C127.126 33.151 126.762 31.0621 126.277 27.9286C126.041 25.7827 125.677 23.6517 125.185 21.5457C124.328 21.4169 123.528 21.0541 122.881 20.5011C122.546 20.3214 122.288 20.0334 122.154 19.6889C122.016 19.3551 121.934 19.0026 121.911 18.6443C121.86 18.3163 121.948 17.9825 122.154 17.7159L122.881 17.0195C123.642 16.6885 124.472 16.5295 125.307 16.5554C126.151 16.5686 126.981 16.7673 127.732 17.1357C128.658 16.4275 129.439 15.5619 130.036 14.5825C130.676 13.3198 130.968 11.9216 130.885 10.5206C130.892 9.77137 130.769 9.02618 130.521 8.31558C130.221 7.61234 129.766 6.97909 129.187 6.45873C127.71 5.34456 125.848 4.80569 123.973 4.95004C122.175 4.90689 120.379 5.10216 118.637 5.5303C117.559 5.84654 116.506 6.23432 115.484 6.69084C114.635 7.15505 113.786 7.50321 113.059 7.85136C112.458 8.16529 111.799 8.3625 111.118 8.43163C110.512 8.43163 110.27 8.19953 110.27 7.85136C110.417 7.16173 110.752 6.52138 111.24 5.99452C112.017 5.03541 112.96 4.21108 114.029 3.5574C117.008 1.6811 120.46 0.605074 124.022 0.441753C127.584 0.278433 131.127 1.03382 134.28 2.62896C135.689 3.3589 136.863 4.44217 137.676 5.76241C138.516 7.08529 138.899 8.62902 138.767 10.1724C138.881 12.6453 138.063 15.0751 136.464 17.0195C134.984 18.8174 133.011 20.1841 130.764 20.9654C131.294 22.0821 131.701 23.249 131.976 24.447C132.34 25.7235 132.582 26.7681 132.946 27.8126C133.183 28.7085 133.551 29.5679 134.039 30.3658C134.203 30.6253 134.407 30.8598 134.644 31.0621C134.887 31.2942 135.129 31.2942 135.493 31.4102C136.251 31.2703 136.959 30.9511 137.555 30.4818C138.408 29.8782 139.183 29.1767 139.859 28.3929C140.587 27.6965 141.313 27.0002 141.92 26.3039C142.283 25.4914 142.769 25.2594 143.012 25.2594ZM121.184 7.85136C121.669 7.85136 121.79 8.43163 121.79 9.47612C121.769 10.5241 121.688 11.5702 121.547 12.6096C121.317 14.3833 120.911 16.1321 120.335 17.8319C119.547 20.3425 118.939 22.9017 118.516 25.4914V32.5707C118.602 33.2994 118.431 34.0347 118.031 34.6598C117.635 35.2729 117.095 35.7895 116.454 36.1685L114.635 36.9807C114.022 37.2293 113.36 37.3481 112.695 37.3289C111.24 37.3289 110.633 35.8202 110.633 32.6867C110.79 28.6919 111.566 24.7415 112.937 20.9654C114.008 17.1833 115.598 13.5541 117.667 10.1724C118.052 9.58905 118.545 9.07778 119.122 8.66374C119.391 8.40214 119.712 8.1953 120.066 8.05569C120.42 7.91606 120.8 7.84657 121.184 7.85136Z" fill="#87D6F7"/>
<path d="M186.364 25.2731C186.97 25.2731 187.212 25.9687 187.212 27.476C187.108 28.5143 186.732 29.5107 186.122 30.3744C185.363 31.5466 184.422 32.602 183.334 33.5048C182.206 34.4494 180.94 35.2306 179.576 35.8238C178.203 36.4176 176.718 36.7335 175.211 36.7512C174.547 36.759 173.888 36.6407 173.272 36.4035C172.659 36.1967 172.115 35.8363 171.696 35.3599C170.84 34.4779 170.363 33.318 170.363 32.1135C170.378 30.7794 170.582 29.4532 170.968 28.1716C171.454 26.6644 171.818 25.1571 172.302 23.534C173.344 20.6095 173.995 17.571 174.242 14.4906C174.22 13.9047 174.14 13.3222 173.999 12.7515C173.904 12.5444 173.731 12.3789 173.514 12.2878C173.286 12.1933 173.036 12.1536 172.787 12.1718C171.503 12.326 170.33 12.9492 169.514 13.911C168.287 15.2828 167.192 16.7572 166.242 18.3167C164.07 22.0126 162.826 26.1402 162.606 30.3744L162.847 31.7658C162.948 32.223 162.988 32.6903 162.968 33.1571C162.979 33.7322 162.811 34.2972 162.484 34.7803C162.227 35.2798 161.854 35.7162 161.394 36.0556C160.424 36.8784 159.172 37.3323 157.878 37.331C157.519 37.3396 157.172 37.215 156.908 36.9831C156.639 36.7638 156.432 36.4851 156.302 36.1715C155.916 35.3303 155.71 34.4235 155.696 33.5048C155.811 32.0578 156.054 30.6226 156.423 29.2151C156.908 27.36 157.514 25.389 158.12 23.418C159.696 17.9688 160.544 13.911 160.544 11.2443C160.563 10.1445 160.399 9.04886 160.06 7.99797C159.882 7.61334 159.587 7.28973 159.211 7.07043C159.039 6.95111 158.84 6.86867 158.631 6.82867C158.422 6.78866 158.206 6.79203 157.999 6.83855C156.18 6.83855 154.363 8.1139 152.666 10.5486C150.968 12.9835 149.272 16.8094 147.939 22.0267C147.575 23.418 147.332 24.5774 147.09 25.5051V26.4326C147.599 28.3322 147.923 30.2727 148.06 32.2296C148.148 32.9747 147.999 33.7282 147.63 34.3906C147.263 35.0527 146.694 35.5928 145.998 35.9396L144.179 36.7512C143.564 36.9886 142.904 37.1067 142.24 37.099C140.543 37.099 139.695 35.5919 139.695 32.4615C139.695 29.331 140.543 23.418 142.24 14.4906C142.846 11.2443 143.21 9.50519 143.21 9.04142C143.21 6.49073 142.483 5.09943 141.15 5.09943C140.682 5.1055 140.223 5.22518 139.816 5.44726C139.432 5.74475 139.028 6.01595 138.604 6.25885C138.171 6.53195 137.766 6.84242 137.392 7.18637C136.992 7.42359 136.528 7.54446 136.059 7.53419C135.574 7.53419 135.331 7.07043 135.331 6.25885C135.328 5.36135 135.579 4.47983 136.059 3.70814C136.502 2.95945 137.124 2.32325 137.876 1.8531C139.6 0.657445 141.69 0.0454491 143.816 0.113988C146.846 0.113988 148.666 1.50527 149.151 4.17191C149.296 5.01529 149.378 5.86783 149.394 6.72261C151.818 2.31686 154.968 -0.00195312 158.847 -0.00195312C162.968 -0.00195312 165.394 1.8531 165.878 5.67914C166.079 6.82798 166.162 7.99314 166.12 9.15735V9.50519C168.302 6.60666 170.847 5.21538 173.878 5.21538C178.122 5.21538 180.182 7.65014 180.182 12.5196C180.184 15.0298 179.818 17.5279 179.091 19.9399C178.364 22.8383 177.879 24.8094 177.636 26.0847C177.347 27.0275 177.184 28.0014 177.152 28.9832C177.152 30.2586 177.636 30.8383 178.486 30.8383C179.334 30.8383 181.515 29.2151 184.91 25.8528C185.36 25.5894 185.85 25.3938 186.364 25.2731Z" fill="#87D6F7"/>
<path d="M114.74 18.8143C115.588 18.8143 116.073 19.6263 116.073 21.1347C116.074 22.8521 115.703 24.551 114.982 26.1239C114.157 27.9953 113.009 29.7209 111.587 31.2291C109.993 32.9671 108.057 34.3867 105.888 35.4061C103.389 36.6638 100.585 37.2645 97.7636 37.1465C94.7198 37.1522 91.7816 36.0774 89.5183 34.1298C87.2143 32.1574 86.0019 29.2566 86.0019 25.4277C85.9627 21.9191 86.5365 18.429 87.6995 15.1014C88.6628 12.2126 90.1395 9.50432 92.0647 7.09557C93.7699 5.11055 95.8211 3.42263 98.1275 2.10643C100.125 0.902483 102.436 0.259276 104.797 0.25C108.434 0.25 110.253 1.75835 110.253 4.89107C110.367 6.38148 110.03 7.87179 109.283 9.18405C108.556 10.2283 107.949 10.8084 107.222 10.8084C106.767 10.7982 106.317 10.7199 105.888 10.5764C105.455 10.4031 105.079 10.1227 104.797 9.76418C104.515 9.40561 104.138 9.12529 103.705 8.95199C103.305 8.71459 102.842 8.59365 102.371 8.60392C101.523 8.60392 99.2188 8.48789 97.2787 11.5046C96.5219 12.5284 95.948 13.6654 95.5811 14.8694C94.4704 17.6883 93.8955 20.6747 93.8835 23.6874C94.0275 24.7578 94.3908 25.7903 94.9526 26.7262C95.5143 27.6619 96.2636 28.4823 97.1575 29.1406C98.2253 29.8346 99.5078 30.1617 100.795 30.0689C101.944 29.9657 103.061 29.6461 104.081 29.1283C105.1 28.6106 106.003 27.905 106.737 27.0522L110.011 23.5713C111.102 22.411 112.072 21.2509 112.921 20.2066C113.648 19.3945 114.255 18.8143 114.74 18.8143Z" fill="#87D6F7"/>
</g>
</svg>
