<svg width="72" height="72" viewBox="0 0 72 72" fill="none" xmlns="http://www.w3.org/2000/svg">
<path d="M68.8866 11.3798V61.1413C68.888 62.0205 68.7161 62.8914 68.3806 63.7042C68.0452 64.5169 67.5528 65.2555 66.9317 65.8778C66.3105 66.5001 65.5728 66.9938 64.7607 67.3307C63.9486 67.6677 63.078 67.8412 62.1987 67.8414H14.4981C13.6178 67.8424 12.7459 67.6698 11.9325 67.3334C11.119 66.997 10.3799 66.5034 9.75751 65.8809C9.13512 65.2583 8.64167 64.5191 8.30542 63.7056C7.96917 62.8921 7.79673 62.0202 7.79798 61.1399V11.3798C7.79691 10.4996 7.96948 9.62787 8.30581 8.81449C8.64214 8.00112 9.13562 7.26208 9.75799 6.63971C10.3804 6.01733 11.1194 5.52385 11.9328 5.18752C12.7462 4.85119 13.6179 4.67862 14.4981 4.67969H62.1987C63.078 4.67987 63.9486 4.85338 64.7607 5.19031C65.5728 5.52723 66.3105 6.02095 66.9317 6.64324C67.5528 7.26552 68.0452 8.00416 68.3806 8.8169C68.7161 9.62963 68.888 10.5005 68.8866 11.3798Z" fill="#282828"/>
<path d="M62.2006 68.5202H14.4986C12.542 68.5176 10.6663 67.7392 9.28292 66.3555C7.89953 64.9719 7.12142 63.0961 7.11926 61.1395V11.3807C7.12142 9.4241 7.89953 7.54825 9.28292 6.16461C10.6663 4.78097 12.542 4.00252 14.4986 4H62.2006C66.2625 4 69.5664 7.31064 69.5664 11.3807V61.1395C69.5664 65.2095 66.2612 68.5202 62.2006 68.5202ZM14.4986 5.35849C12.9021 5.36029 11.3715 5.99539 10.2427 7.12442C9.11395 8.25345 8.47919 9.78417 8.47775 11.3807V61.1395C8.47919 62.736 9.11395 64.2667 10.2427 65.3957C11.3715 66.5248 12.9021 67.1599 14.4986 67.1617H62.2006C63.7953 67.1581 65.3235 66.522 66.4497 65.3929C67.5759 64.2639 68.2082 62.7342 68.2079 61.1395V11.3807C68.2082 9.78597 67.5759 8.25626 66.4497 7.12723C65.3235 5.9982 63.7953 5.36209 62.2006 5.35849H14.4986Z" fill="#282828"/>
<path d="M64.7683 11.3798V61.1413C64.7697 62.0205 64.5978 62.8914 64.2624 63.7042C63.9269 64.5169 63.4345 65.2555 62.8134 65.8778C62.1922 66.5001 61.4545 66.9938 60.6424 67.3307C59.8303 67.6677 58.9597 67.8412 58.0804 67.8414H10.3798C9.49949 67.8424 8.62764 67.6698 7.81418 67.3334C7.00071 66.997 6.26162 66.5034 5.63923 65.8809C5.01684 65.2583 4.52338 64.5191 4.18713 63.7056C3.85088 62.8921 3.67844 62.0202 3.67969 61.1399V11.3798C3.67862 10.4996 3.85119 9.62787 4.18752 8.81449C4.52385 8.00112 5.01734 7.26208 5.63971 6.63971C6.26208 6.01733 7.00112 5.52385 7.81449 5.18752C8.62787 4.85119 9.4996 4.67862 10.3798 4.67969H58.0804C58.9597 4.67987 59.8303 4.85338 60.6424 5.19031C61.4545 5.52723 62.1922 6.02095 62.8134 6.64324C63.4345 7.26552 63.9269 8.00416 64.2624 8.8169C64.5978 9.62963 64.7697 10.5005 64.7683 11.3798Z" fill="white"/>
<path d="M58.08 68.5202H10.3793C8.42274 68.5176 6.54704 67.7392 5.16365 66.3555C3.78027 64.9719 3.00216 63.0961 3 61.1395V11.3807C3.00216 9.4241 3.78027 7.54825 5.16365 6.16461C6.54704 4.78097 8.42274 4.00252 10.3793 4H58.08C62.1419 4 65.4471 7.31064 65.4471 11.3807V61.1395C65.4471 65.2095 62.1419 68.5202 58.08 68.5202ZM10.3793 5.35849C8.78281 5.36029 7.25223 5.99539 6.12346 7.12442C4.99468 8.25345 4.35993 9.78417 4.35849 11.3807V61.1395C4.35993 62.736 4.99468 64.2667 6.12346 65.3957C7.25223 66.5248 8.78281 67.1599 10.3793 67.1617H58.08C59.6749 67.1584 61.2034 66.5225 62.33 65.3934C63.4565 64.2643 64.089 62.7344 64.0886 61.1395V11.3807C64.089 9.78574 63.4565 8.25582 62.33 7.12675C61.2034 5.99768 59.6749 5.36173 58.08 5.35849H10.3793Z" fill="#282828"/>
<path d="M64.7683 11.3798V16.1168H3.67969V11.3798C3.67862 10.4996 3.85119 9.62787 4.18752 8.81449C4.52385 8.00112 5.01733 7.26208 5.63971 6.63971C6.26208 6.01733 7.00112 5.52385 7.81449 5.18752C8.62787 4.85119 9.4996 4.67862 10.3798 4.67969H58.0804C58.9597 4.67987 59.8303 4.85338 60.6424 5.19031C61.4545 5.52723 62.1922 6.02095 62.8134 6.64324C63.4345 7.26552 63.9269 8.00416 64.2624 8.8169C64.5978 9.62963 64.7697 10.5005 64.7683 11.3798Z" fill="#282828"/>
<path d="M64.7679 16.7956H3.67925C3.4991 16.7956 3.32633 16.7241 3.19895 16.5967C3.07156 16.4693 3 16.2965 3 16.1164V11.3807C3.00216 9.4241 3.78027 7.54825 5.16365 6.16461C6.54704 4.78097 8.42274 4.00252 10.3793 4H58.08C62.1419 4 65.4471 7.31064 65.4471 11.3807V16.1164C65.4471 16.2965 65.3755 16.4693 65.2482 16.5967C65.1208 16.7241 64.948 16.7956 64.7679 16.7956ZM4.35849 15.4371H64.0886V11.3807C64.089 9.78574 63.4565 8.25582 62.33 7.12675C61.2034 5.99768 59.6749 5.36173 58.08 5.35849H10.3793C8.78281 5.36029 7.25223 5.99539 6.12346 7.12442C4.99468 8.25345 4.35993 9.78417 4.35849 11.3807V15.4371Z" fill="#282828"/>
<path d="M10.6524 11.9904C11.537 11.9904 12.2541 11.2733 12.2541 10.3888C12.2541 9.5042 11.537 8.78711 10.6524 8.78711C9.76787 8.78711 9.05078 9.5042 9.05078 10.3888C9.05078 11.2733 9.76787 11.9904 10.6524 11.9904Z" fill="white"/>
<path d="M16.2 11.9904C17.0846 11.9904 17.8017 11.2733 17.8017 10.3888C17.8017 9.5042 17.0846 8.78711 16.2 8.78711C15.3155 8.78711 14.5984 9.5042 14.5984 10.3888C14.5984 11.2733 15.3155 11.9904 16.2 11.9904Z" fill="white"/>
<path d="M21.7497 11.9904C22.6343 11.9904 23.3514 11.2733 23.3514 10.3888C23.3514 9.5042 22.6343 8.78711 21.7497 8.78711C20.8652 8.78711 20.1481 9.5042 20.1481 10.3888C20.1481 11.2733 20.8652 11.9904 21.7497 11.9904Z" fill="white"/>
<path d="M38.3122 11.0694H34.9377C34.7576 11.0694 34.5848 10.9979 34.4574 10.8705C34.33 10.7431 34.2585 10.5703 34.2585 10.3902C34.2585 10.21 34.33 10.0373 34.4574 9.90988C34.5848 9.7825 34.7576 9.71094 34.9377 9.71094H38.3136C38.4937 9.71094 38.6665 9.7825 38.7939 9.90988C38.9213 10.0373 38.9928 10.21 38.9928 10.3902C38.9928 10.5703 38.9213 10.7431 38.7939 10.8705C38.6665 10.9979 38.4937 11.0694 38.3136 11.0694H38.3122ZM59.3946 11.0694H42.1459C41.9657 11.0694 41.793 10.9979 41.6656 10.8705C41.5382 10.7431 41.4666 10.5703 41.4666 10.3902C41.4666 10.21 41.5382 10.0373 41.6656 9.90988C41.793 9.7825 41.9657 9.71094 42.1459 9.71094H59.3946C59.5748 9.71094 59.7475 9.7825 59.8749 9.90988C60.0023 10.0373 60.0739 10.21 60.0739 10.3902C60.0739 10.5703 60.0023 10.7431 59.8749 10.8705C59.7475 10.9979 59.5748 11.0694 59.3946 11.0694ZM16.7041 62.2492H13.6094C13.4293 62.2492 13.2565 62.1776 13.1291 62.0503C13.0017 61.9229 12.9302 61.7501 12.9302 61.57C12.9302 61.3898 13.0017 61.217 13.1291 61.0897C13.2565 60.9623 13.4293 60.8907 13.6094 60.8907H16.7027C16.8829 60.8907 17.0556 60.9623 17.183 61.0897C17.3104 61.217 17.3819 61.3898 17.3819 61.57C17.3819 61.7501 17.3104 61.9229 17.183 62.0503C17.0556 62.1776 16.8829 62.2492 16.7027 62.2492H16.7041ZM43.7407 62.2492H20.1573C19.9772 62.2492 19.8044 62.1776 19.677 62.0503C19.5497 61.9229 19.4781 61.7501 19.4781 61.57C19.4781 61.3898 19.5497 61.217 19.677 61.0897C19.8044 60.9623 19.9772 60.8907 20.1573 60.8907H43.7407C43.9209 60.8907 44.0937 60.9623 44.221 61.0897C44.3484 61.217 44.42 61.3898 44.42 61.57C44.42 61.7501 44.3484 61.9229 44.221 62.0503C44.0937 62.1776 43.9209 62.2492 43.7407 62.2492ZM54.8355 62.2492H48.4955C48.3153 62.2492 48.1425 62.1776 48.0152 62.0503C47.8878 61.9229 47.8162 61.7501 47.8162 61.57C47.8162 61.3898 47.8878 61.217 48.0152 61.0897C48.1425 60.9623 48.3153 60.8907 48.4955 60.8907H54.8355C55.0157 60.8907 55.1885 60.9623 55.3158 61.0897C55.4432 61.217 55.5148 61.3898 55.5148 61.57C55.5148 61.7501 55.4432 61.9229 55.3158 62.0503C55.1885 62.1776 55.0157 62.2492 54.8355 62.2492ZM23.2506 55.1375H13.6094C13.4293 55.1375 13.2565 55.0659 13.1291 54.9386C13.0017 54.8112 12.9302 54.6384 12.9302 54.4583C12.9302 54.2781 13.0017 54.1053 13.1291 53.978C13.2565 53.8506 13.4293 53.779 13.6094 53.779H23.2493C23.4294 53.779 23.6022 53.8506 23.7296 53.978C23.857 54.1053 23.9285 54.2781 23.9285 54.4583C23.9285 54.6384 23.857 54.8112 23.7296 54.9386C23.6022 55.0659 23.4308 55.1375 23.2506 55.1375ZM40.5714 55.1375H27.4389C27.2587 55.1375 27.0859 55.0659 26.9586 54.9386C26.8312 54.8112 26.7596 54.6384 26.7596 54.4583C26.7596 54.2781 26.8312 54.1053 26.9586 53.978C27.0859 53.8506 27.2587 53.779 27.4389 53.779H40.5714C40.7515 53.779 40.9243 53.8506 41.0517 53.978C41.1791 54.1053 41.2506 54.2781 41.2506 54.4583C41.2506 54.6384 41.1791 54.8112 41.0517 54.9386C40.9243 55.0659 40.7515 55.1375 40.5714 55.1375ZM54.8355 55.1375H43.7407C43.5606 55.1375 43.3878 55.0659 43.2604 54.9386C43.1331 54.8112 43.0615 54.6384 43.0615 54.4583C43.0615 54.2781 43.1331 54.1053 43.2604 53.978C43.3878 53.8506 43.5606 53.779 43.7407 53.779H54.8355C55.0157 53.779 55.1885 53.8506 55.3158 53.978C55.4432 54.1053 55.5148 54.2781 55.5148 54.4583C55.5148 54.6384 55.4432 54.8112 55.3158 54.9386C55.1885 55.0659 55.0157 55.1375 54.8355 55.1375Z" fill="#282828"/>
<path d="M33.3248 48.3615C40.5132 48.3615 46.3405 42.5341 46.3405 35.3458C46.3405 28.1574 40.5132 22.3301 33.3248 22.3301C26.1364 22.3301 20.3091 28.1574 20.3091 35.3458C20.3091 42.5341 26.1364 48.3615 33.3248 48.3615Z" fill="#86CBE8"/>
<path d="M33.3271 49.04C25.7753 49.04 19.6322 42.8969 19.6322 35.3464C19.6322 27.796 25.7753 21.6501 33.3258 21.6501C40.8763 21.6501 47.0207 27.7946 47.0207 35.3451C47.0207 42.8956 40.8776 49.04 33.3271 49.04ZM33.3271 23.0086C26.5238 23.0086 20.9907 28.5431 20.9907 35.3451C20.9907 42.1471 26.5238 47.6815 33.3258 47.6815C40.1291 47.6815 45.6622 42.1471 45.6622 35.3464C45.6622 28.5458 40.1291 23.0086 33.3271 23.0086Z" fill="#282828"/>
<path d="M30.9259 40.8986C30.4504 40.8986 29.975 40.7166 29.6109 40.3539L27.0298 37.7727C26.681 37.4242 26.485 36.9513 26.4849 36.4582C26.4847 35.9651 26.6805 35.4922 27.0291 35.1434C27.3777 34.7946 27.8505 34.5986 28.3436 34.5985C28.8367 34.5984 29.3097 34.7941 29.6584 35.1427L30.9259 36.4102L36.9956 30.3391C37.3442 29.9903 37.8171 29.7943 38.3102 29.7942C38.8033 29.7941 39.2762 29.9898 39.625 30.3384C39.9738 30.687 40.1698 31.1598 40.1699 31.6529C40.17 32.146 39.9743 32.619 39.6257 32.9678L32.2396 40.3539C32.0672 40.5265 31.8624 40.6633 31.6369 40.7566C31.4115 40.8498 31.1699 40.899 30.9259 40.8986Z" fill="white"/>
</svg>
