<svg width="72" height="72" viewBox="0 0 72 72" fill="none" xmlns="http://www.w3.org/2000/svg">
<path d="M53.9866 3.39673H42.0048V68.6043H53.9731C58.4833 68.6043 62.1512 64.9364 62.1512 60.4262V11.5613C62.1512 7.05107 58.4968 3.39673 53.9866 3.39673Z" fill="#282828"/>
<path d="M53.9729 69.2831H42.0046C41.8244 69.2831 41.6516 69.2115 41.5243 69.0841C41.3969 68.9567 41.3253 68.784 41.3253 68.6038V3.39629C41.3253 3.21614 41.3969 3.04337 41.5243 2.91599C41.6516 2.7886 41.8244 2.71704 42.0046 2.71704H53.9865C58.8634 2.71704 62.8302 6.68383 62.8302 11.5608V60.4257C62.8277 62.7741 61.8937 65.0255 60.2332 66.686C58.5727 68.3466 56.3212 69.2806 53.9729 69.2831ZM42.6838 67.9246H53.9729C55.961 67.9224 57.8671 67.1317 59.273 65.7258C60.6788 64.32 61.4696 62.4139 61.4717 60.4257V11.5608C61.4696 9.57626 60.6803 7.6736 59.277 6.2703C57.8737 4.86701 55.971 4.07769 53.9865 4.07553H42.6838V67.9246Z" fill="#282828"/>
<path d="M58.0754 11.5613V60.4262C58.0754 64.9364 54.4075 68.6043 49.8973 68.6043H18.0271C13.5169 68.6043 9.849 64.9364 9.849 60.4262V11.5748C9.849 7.06465 13.5169 3.39673 18.0271 3.39673H49.9109C54.4211 3.39673 58.0754 7.05107 58.0754 11.5613Z" fill="#F2F2F2"/>
<path d="M49.8973 69.2831H18.0272C15.6788 69.2806 13.4274 68.3466 11.7668 66.686C10.1063 65.0255 9.17232 62.7741 9.1698 60.4257V11.5744C9.17232 9.22606 10.1063 6.97461 11.7668 5.31408C13.4274 3.65355 15.6788 2.71956 18.0272 2.71704H49.9109C54.7879 2.71704 58.7547 6.68383 58.7547 11.5608V60.4257C58.7522 62.7741 57.8182 65.0255 56.1577 66.686C54.4971 68.3466 52.2457 69.2806 49.8973 69.2831ZM18.0272 4.07553C16.039 4.07769 14.1329 4.86844 12.727 6.27428C11.3212 7.68013 10.5304 9.58624 10.5283 11.5744V60.4257C10.5301 62.414 11.3207 64.3203 12.7266 65.7262C14.1326 67.1322 16.0389 67.9228 18.0272 67.9246H49.8973C51.8855 67.9224 53.7916 67.1317 55.1975 65.7258C56.6033 64.32 57.3941 62.4139 57.3962 60.4257V11.5608C57.3941 9.57626 56.6047 7.6736 55.2014 6.2703C53.7981 4.86701 51.8955 4.07769 49.9109 4.07553H18.0272Z" fill="#282828"/>
<path d="M52.6414 12.9193V59.0672C52.6414 60.5751 51.4052 61.8114 49.8973 61.8114H18.0271C16.5192 61.8114 15.283 60.5751 15.283 59.0672V12.9329C15.283 11.4249 16.5192 10.1887 18.0271 10.1887H49.9109C51.4188 10.1887 52.6414 11.4114 52.6414 12.9193Z" fill="white"/>
<path d="M49.8973 62.4907H18.0272C16.1389 62.4907 14.6038 60.9556 14.6038 59.0673V12.9329C14.6038 11.0446 16.1389 9.50953 18.0272 9.50953H49.9109C50.8149 9.5106 51.6816 9.8702 52.3208 10.5094C52.9601 11.1487 53.3197 12.0153 53.3207 12.9193V59.0673C53.3207 60.9556 51.7856 62.4907 49.8973 62.4907ZM18.0272 10.868C16.8887 10.868 15.9623 11.7945 15.9623 12.9329V59.0673C15.9623 60.2057 16.8887 61.1322 18.0272 61.1322H49.8973C51.0358 61.1322 51.9623 60.2057 51.9623 59.0673V12.9193C51.9623 11.7891 51.0412 10.868 49.9109 10.868H18.0272ZM39.6937 66.2564H28.2294C28.0493 66.2564 27.8765 66.1848 27.7491 66.0574C27.6217 65.9301 27.5502 65.7573 27.5502 65.5771C27.5502 65.397 27.6217 65.2242 27.7491 65.0968C27.8765 64.9695 28.0493 64.8979 28.2294 64.8979H39.6924C39.8725 64.8979 40.0453 64.9695 40.1727 65.0968C40.3 65.2242 40.3716 65.397 40.3716 65.5771C40.3716 65.7573 40.3 65.9301 40.1727 66.0574C40.0453 66.1848 39.8739 66.2564 39.6937 66.2564ZM29.1953 7.37534H26.8438C26.6636 7.37534 26.4908 7.30377 26.3635 7.17639C26.2361 7.04901 26.1645 6.87624 26.1645 6.69609C26.1645 6.51594 26.2361 6.34318 26.3635 6.21579C26.4908 6.08841 26.6636 6.01685 26.8438 6.01685H29.1967C29.3768 6.01685 29.5496 6.08841 29.677 6.21579C29.8043 6.34318 29.8759 6.51594 29.8759 6.69609C29.8759 6.87624 29.8043 7.04901 29.677 7.17639C29.5496 7.30377 29.3768 7.37534 29.1967 7.37534H29.1953ZM35.1387 7.37534H32.7858C32.6057 7.37534 32.4329 7.30377 32.3055 7.17639C32.1781 7.04901 32.1066 6.87624 32.1066 6.69609C32.1066 6.51594 32.1781 6.34318 32.3055 6.21579C32.4329 6.08841 32.6057 6.01685 32.7858 6.01685H35.1387C35.3189 6.01685 35.4916 6.08841 35.619 6.21579C35.7464 6.34318 35.8179 6.51594 35.8179 6.69609C35.8179 6.87624 35.7464 7.04901 35.619 7.17639C35.4916 7.30377 35.3189 7.37534 35.1387 7.37534ZM41.0821 7.37534H38.7306C38.5504 7.37534 38.3776 7.30377 38.2503 7.17639C38.1229 7.04901 38.0513 6.87624 38.0513 6.69609C38.0513 6.51594 38.1229 6.34318 38.2503 6.21579C38.3776 6.08841 38.5504 6.01685 38.7306 6.01685H41.0835C41.2636 6.01685 41.4364 6.08841 41.5638 6.21579C41.6911 6.34318 41.7627 6.51594 41.7627 6.69609C41.7627 6.87624 41.6911 7.04901 41.5638 7.17639C41.4364 7.30377 41.2636 7.37534 41.0835 7.37534H41.0821Z" fill="#282828"/>
<path d="M31.7072 45.7337H20.717C20.5368 45.7337 20.364 45.6622 20.2367 45.5348C20.1093 45.4074 20.0377 45.2346 20.0377 45.0545C20.0377 44.8743 20.1093 44.7016 20.2367 44.5742C20.364 44.4468 20.5368 44.3752 20.717 44.3752H31.7072C31.8873 44.3752 32.0601 44.4468 32.1875 44.5742C32.3148 44.7016 32.3864 44.8743 32.3864 45.0545C32.3864 45.2346 32.3148 45.4074 32.1875 45.5348C32.0601 45.6622 31.8873 45.7337 31.7072 45.7337ZM42.5139 45.7337H36.2173C36.0372 45.7337 35.8644 45.6622 35.737 45.5348C35.6097 45.4074 35.5381 45.2346 35.5381 45.0545C35.5381 44.8743 35.6097 44.7016 35.737 44.5742C35.8644 44.4468 36.0372 44.3752 36.2173 44.3752H42.5139C42.6941 44.3752 42.8669 44.4468 42.9942 44.5742C43.1216 44.7016 43.1932 44.8743 43.1932 45.0545C43.1932 45.2346 43.1216 45.4074 42.9942 45.5348C42.8669 45.6622 42.6941 45.7337 42.5139 45.7337ZM47.2075 45.7337H45.1032C44.9231 45.7337 44.7503 45.6622 44.6229 45.5348C44.4955 45.4074 44.424 45.2346 44.424 45.0545C44.424 44.8743 44.4955 44.7016 44.6229 44.5742C44.7503 44.4468 44.9231 44.3752 45.1032 44.3752H47.2075C47.3877 44.3752 47.5604 44.4468 47.6878 44.5742C47.8152 44.7016 47.8868 44.8743 47.8868 45.0545C47.8868 45.2346 47.8152 45.4074 47.6878 45.5348C47.5604 45.6622 47.3877 45.7337 47.2075 45.7337ZM23.7736 41.1244H20.717C20.5368 41.1244 20.364 41.0528 20.2367 40.9254C20.1093 40.798 20.0377 40.6253 20.0377 40.4451C20.0377 40.265 20.1093 40.0922 20.2367 39.9648C20.364 39.8374 20.5368 39.7659 20.717 39.7659H23.7736C23.9537 39.7659 24.1265 39.8374 24.2539 39.9648C24.3813 40.0922 24.4528 40.265 24.4528 40.4451C24.4528 40.6253 24.3813 40.798 24.2539 40.9254C24.1265 41.0528 23.9537 41.1244 23.7736 41.1244ZM31.7072 41.1244H26.4661C26.286 41.1244 26.1132 41.0528 25.9858 40.9254C25.8584 40.798 25.7869 40.6253 25.7869 40.4451C25.7869 40.265 25.8584 40.0922 25.9858 39.9648C26.1132 39.8374 26.286 39.7659 26.4661 39.7659H31.7072C31.8873 39.7659 32.0601 39.8374 32.1875 39.9648C32.3148 40.0922 32.3864 40.265 32.3864 40.4451C32.3864 40.6253 32.3148 40.798 32.1875 40.9254C32.0601 41.0528 31.8873 41.1244 31.7072 41.1244ZM47.2075 41.1244H36.2173C36.0372 41.1244 35.8644 41.0528 35.737 40.9254C35.6097 40.798 35.5381 40.6253 35.5381 40.4451C35.5381 40.265 35.6097 40.0922 35.737 39.9648C35.8644 39.8374 36.0372 39.7659 36.2173 39.7659H47.2075C47.3877 39.7659 47.5604 39.8374 47.6878 39.9648C47.8152 40.0922 47.8868 40.265 47.8868 40.4451C47.8868 40.6253 47.8152 40.798 47.6878 40.9254C47.5604 41.0528 47.3877 41.1244 47.2075 41.1244Z" fill="#282828"/>
<path d="M40.9042 51.582V54.7745C40.9042 55.6575 40.1842 56.3775 39.3011 56.3775H28.6234C27.7404 56.3775 27.0204 55.6575 27.0204 54.7745V51.582C27.0204 50.699 27.7404 49.979 28.6234 49.979H39.3011C40.1842 49.979 40.9042 50.699 40.9042 51.582Z" fill="#86CBE8"/>
<path d="M39.3012 57.057H28.6235C27.3655 57.057 26.3412 56.0327 26.3412 54.7748V51.5823C26.3412 50.3244 27.3655 49.3 28.6235 49.3H39.3012C40.5592 49.3 41.5835 50.3244 41.5835 51.5823V54.7748C41.5835 56.0327 40.5592 57.057 39.3012 57.057ZM28.6235 50.6585C28.3786 50.6589 28.1438 50.7563 27.9706 50.9295C27.7975 51.1027 27.7 51.3374 27.6997 51.5823V54.7748C27.6997 55.2842 28.114 55.6985 28.6235 55.6985H39.3012C39.8106 55.6985 40.225 55.2842 40.225 54.7748V51.5823C40.2246 51.3374 40.1272 51.1027 39.954 50.9295C39.7808 50.7563 39.5461 50.6589 39.3012 50.6585H28.6235Z" fill="#282828"/>
<path d="M33.9625 35.9997C39.5895 35.9997 44.1512 31.438 44.1512 25.811C44.1512 20.1839 39.5895 15.6223 33.9625 15.6223C28.3354 15.6223 23.7738 20.1839 23.7738 25.811C23.7738 31.438 28.3354 35.9997 33.9625 35.9997Z" fill="white"/>
<path d="M33.9623 36.6792C27.97 36.6792 23.0944 31.8036 23.0944 25.8113C23.0944 19.819 27.97 14.9434 33.9623 14.9434C39.9546 14.9434 44.8302 19.819 44.8302 25.8113C44.8302 31.8036 39.9546 36.6792 33.9623 36.6792ZM33.9623 16.3018C28.7185 16.3018 24.4529 20.5675 24.4529 25.8113C24.4529 31.0551 28.7185 35.3207 33.9623 35.3207C39.2061 35.3207 43.4717 31.0551 43.4717 25.8113C43.4717 20.5675 39.2061 16.3018 33.9623 16.3018Z" fill="#282828"/>
<path d="M40.9842 33.0724V33.1879C39.0942 34.9957 36.5776 36.0016 33.9622 35.9945C32.554 35.9956 31.1609 35.7046 29.8708 35.1399C28.5808 34.5752 27.4219 33.7491 26.4674 32.7138C26.5572 30.8182 27.3854 29.0331 28.7747 27.7405C30.164 26.4478 32.004 25.7503 33.9011 25.7971C35.7982 25.844 37.6016 26.6316 38.9254 27.9912C40.2492 29.3509 40.9882 31.1747 40.9842 33.0724Z" fill="#FFDDAB"/>
<path d="M33.9624 36.6736C32.461 36.6709 30.9762 36.3588 29.6008 35.757C28.2253 35.1552 26.9885 34.2764 25.9676 33.1755C25.9064 33.1091 25.859 33.0312 25.8282 32.9463C25.7974 32.8614 25.7838 32.7712 25.7883 32.681C25.8851 30.6438 26.7633 28.7222 28.2404 27.3157C29.7174 25.9093 31.6796 25.1262 33.7192 25.1292C35.8253 25.1313 37.8445 25.9688 39.3339 27.4579C40.8233 28.9471 41.6611 30.9662 41.6636 33.0723V33.1877C41.6638 33.2794 41.6453 33.3701 41.6094 33.4544C41.5734 33.5387 41.5207 33.6148 41.4544 33.6781C39.4382 35.6077 36.7531 36.6813 33.9624 36.6736ZM27.1645 32.4623C28.0525 33.3639 29.1106 34.0802 30.2775 34.5699C31.4444 35.0596 32.6969 35.3129 33.9624 35.3151C36.3029 35.3217 38.5625 34.4585 40.3024 32.8929C40.2537 31.1788 39.5389 29.5511 38.3098 28.3552C37.0807 27.1593 35.434 26.4894 33.7192 26.4876C32.0779 26.4853 30.4951 27.097 29.2821 28.2027C28.0691 29.3083 27.3137 30.8278 27.1645 32.4623Z" fill="#282828"/>
<path d="M37.6639 23.8194V25.3001C37.6447 26.3321 37.2213 27.3154 36.4847 28.0385C35.7481 28.7615 34.7571 29.1666 33.725 29.1666C32.6928 29.1666 31.7018 28.7615 30.9652 28.0385C30.2286 27.3154 29.8052 26.3321 29.786 25.3001V23.8194C29.7842 23.0398 30.0141 22.2772 30.4465 21.6285C30.8789 20.9798 31.4944 20.4743 32.2148 20.1762C32.9351 19.878 33.7278 19.8007 34.4922 19.954C35.2566 20.1073 35.9582 20.4843 36.5078 21.0372C37.2183 21.7477 37.6639 22.7353 37.6639 23.8194Z" fill="#FFDDAB"/>
<path d="M33.7259 29.9195C32.5016 29.9181 31.3278 29.4312 30.462 28.5656C29.5961 27.7 29.1089 26.5263 29.1071 25.302V23.8213C29.1071 21.2741 31.1801 19.2024 33.7259 19.2024C34.9554 19.2024 36.1142 19.6833 36.989 20.5582C37.8639 21.433 38.3448 22.5905 38.3448 23.8199V25.302C38.3448 27.8478 36.2717 29.9195 33.7259 29.9195ZM33.7259 20.5595C32.8614 20.5602 32.0326 20.904 31.4213 21.5153C30.81 22.1265 30.4663 22.9554 30.4655 23.8199V25.302C30.4655 27.0993 31.9286 28.5624 33.7259 28.5624C35.5232 28.5624 36.9863 27.0993 36.9863 25.302V23.8213C36.9863 22.9532 36.6467 22.1367 36.0286 21.5186C35.4105 20.9005 34.5926 20.5609 33.7259 20.5609V20.5595Z" fill="#282828"/>
<path d="M37.6397 23.5725C37.5832 22.618 37.1809 21.7168 36.508 21.0375C35.9745 20.4998 35.2967 20.1281 34.5565 19.9674C33.8162 19.8067 33.0453 19.8639 32.3369 20.132C31.6285 20.4002 31.0129 20.8678 30.5646 21.4784C30.1162 22.0889 29.8544 22.8163 29.8107 23.5725H37.6397Z" fill="#717170"/>
<path d="M37.6383 24.2533H29.8107C29.7176 24.2539 29.6255 24.2352 29.54 24.1985C29.4545 24.1618 29.3775 24.1079 29.3138 24.04C29.2502 23.9721 29.2012 23.8919 29.1701 23.8042C29.1389 23.7165 29.1262 23.6234 29.1328 23.5305C29.2065 22.3613 29.7218 21.2638 30.5743 20.4602C31.4269 19.6566 32.5529 19.207 33.7245 19.2024C34.8976 19.2024 36.0264 19.6507 36.8799 20.4555C37.7334 21.2603 38.2472 22.3608 38.3162 23.5319C38.3221 23.6244 38.309 23.7172 38.2776 23.8045C38.2462 23.8917 38.1972 23.9716 38.1336 24.0391C38.07 24.1067 37.9933 24.1604 37.9081 24.197C37.8229 24.2336 37.731 24.2523 37.6383 24.2519V24.2533ZM30.6163 22.8948H36.8354C36.6399 22.2211 36.2308 21.6293 35.6697 21.2083C35.1086 20.7874 34.4259 20.5602 33.7245 20.5609C32.2668 20.5609 31.017 21.539 30.6163 22.8948Z" fill="#282828"/>
</svg>
