<svg width="118" height="97" viewBox="0 0 118 97" fill="none" xmlns="http://www.w3.org/2000/svg">
<path d="M118 1.5C118 0.671573 117.328 0 116.5 0C115.672 0 115 0.671573 115 1.5H118ZM0 88L15.0607 96.5543L14.9386 79.2343L0 88ZM5.98696 89.4578C6.8153 89.4459 7.47712 88.7647 7.46517 87.9363C7.45322 87.108 6.77203 86.4462 5.94369 86.4581L5.98696 89.4578ZM17.8166 86.0864C16.9892 86.1276 16.3519 86.8317 16.393 87.6591C16.4342 88.4865 17.1383 89.1239 17.9657 89.0827L17.8166 86.0864ZM29.9359 88.225C30.7606 88.1463 31.3652 87.4139 31.2864 86.5892C31.2076 85.7645 30.4752 85.1599 29.6506 85.2386L29.9359 88.225ZM41.404 83.7823C40.5853 83.9092 40.0245 84.6757 40.1514 85.4944C40.2783 86.313 41.0448 86.8738 41.8635 86.7469L41.404 83.7823ZM53.6843 84.4758C54.4911 84.2877 54.9927 83.4812 54.8047 82.6744C54.6166 81.8676 53.8102 81.366 53.0034 81.5541L53.6843 84.4758ZM64.3378 78.3524C63.5529 78.6175 63.1315 79.4686 63.3966 80.2535C63.6617 81.0384 64.5128 81.4598 65.2977 81.1947L64.3378 78.3524ZM76.5215 76.6469C77.2679 76.2873 77.5814 75.3908 77.2218 74.6445C76.8622 73.8982 75.9657 73.5847 75.2193 73.9443L76.5215 76.6469ZM85.3432 68.1089C84.6603 68.5778 84.4868 69.5116 84.9558 70.1945C85.4248 70.8774 86.3585 71.0509 87.0414 70.5819L85.3432 68.1089ZM96.4409 62.837C97.0299 62.2545 97.0351 61.3048 96.4526 60.7158C95.8701 60.1267 94.9203 60.1215 94.3313 60.704L96.4409 62.837ZM101.789 51.7898C101.32 52.4725 101.492 53.4064 102.175 53.8757C102.858 54.3451 103.792 54.1723 104.261 53.4896L101.789 51.7898ZM110.224 42.8638C110.565 42.1086 110.229 41.2203 109.473 40.8798C108.718 40.5393 107.83 40.8755 107.489 41.6307L110.224 42.8638ZM111.431 30.6301C111.21 31.4286 111.679 32.2547 112.478 32.4751C113.276 32.6954 114.102 32.2267 114.323 31.4282L111.431 30.6301ZM116.775 19.5783C116.893 18.7583 116.324 17.9977 115.504 17.8794C114.684 17.761 113.924 18.3298 113.805 19.1497L116.775 19.5783ZM114.876 7.41656C114.841 8.24423 115.484 8.94377 116.311 8.97902C117.139 9.01427 117.838 8.37188 117.874 7.5442L114.876 7.41656ZM17.9657 89.0827C22.0122 88.8814 26.0071 88.6004 29.9359 88.225L29.6506 85.2386C25.772 85.6092 21.8228 85.8871 17.8166 86.0864L17.9657 89.0827ZM41.8635 86.7469C45.9004 86.1212 49.8467 85.3702 53.6843 84.4758L53.0034 81.5541C49.2466 82.4297 45.3747 83.1668 41.404 83.7823L41.8635 86.7469ZM65.2977 81.1947C69.1946 79.8787 72.9438 78.3707 76.5215 76.6469L75.2193 73.9443C71.7634 75.6094 68.1295 77.0719 64.3378 78.3524L65.2977 81.1947ZM87.0414 70.5819C90.402 68.2743 93.5445 65.7016 96.4409 62.837L94.3313 60.704C91.5685 63.4365 88.5649 65.8966 85.3432 68.1089L87.0414 70.5819ZM104.261 53.4896C106.502 50.2302 108.497 46.695 110.224 42.8638L107.489 41.6307C105.834 45.3024 103.927 48.6811 101.789 51.7898L104.261 53.4896ZM114.323 31.4282C115.35 27.7055 116.171 23.7596 116.775 19.5783L113.805 19.1497C113.219 23.2143 112.422 27.0364 111.431 30.6301L114.323 31.4282ZM117.874 7.5442C117.958 5.57469 118 3.56028 118 1.5H115C115 3.51915 114.958 5.49098 114.876 7.41656L117.874 7.5442Z" fill="#166095"/>
</svg>
