<svg width="118" height="97" viewBox="0 0 118 97" fill="none" xmlns="http://www.w3.org/2000/svg">
<path d="M0 1.5C0 0.671573 0.67157 0 1.5 0C2.32843 0 3 0.671573 3 1.5H0ZM118 88L102.939 96.5543L103.061 79.2343L118 88ZM112.013 89.4578C111.185 89.4459 110.523 88.7647 110.535 87.9363C110.547 87.108 111.228 86.4462 112.056 86.4581L112.013 89.4578ZM100.183 86.0864C101.011 86.1276 101.648 86.8317 101.607 87.6591C101.566 88.4865 100.862 89.1239 100.034 89.0827L100.183 86.0864ZM88.0641 88.225C87.2394 88.1463 86.6348 87.4139 86.7136 86.5892C86.7924 85.7645 87.5248 85.1599 88.3494 85.2386L88.0641 88.225ZM76.596 83.7823C77.4147 83.9092 77.9755 84.6757 77.8486 85.4944C77.7217 86.313 76.9552 86.8738 76.1365 86.7469L76.596 83.7823ZM64.3157 84.4758C63.5089 84.2877 63.0073 83.4812 63.1953 82.6744C63.3834 81.8676 64.1898 81.366 64.9966 81.5541L64.3157 84.4758ZM53.6622 78.3524C54.4471 78.6175 54.8685 79.4686 54.6034 80.2535C54.3383 81.0384 53.4872 81.4598 52.7023 81.1947L53.6622 78.3524ZM41.4785 76.6469C40.7321 76.2873 40.4186 75.3908 40.7782 74.6445C41.1378 73.8982 42.0343 73.5847 42.7807 73.9443L41.4785 76.6469ZM32.6568 68.1089C33.3397 68.5778 33.5132 69.5116 33.0442 70.1945C32.5752 70.8774 31.6415 71.0509 30.9586 70.5819L32.6568 68.1089ZM21.5591 62.837C20.9701 62.2545 20.9649 61.3048 21.5474 60.7158C22.1299 60.1267 23.0797 60.1215 23.6687 60.704L21.5591 62.837ZM16.211 51.7898C16.6804 52.4725 16.5075 53.4064 15.8249 53.8757C15.1423 54.3451 14.2084 54.1723 13.739 53.4896L16.211 51.7898ZM7.77572 42.8638C7.43523 42.1086 7.77142 41.2203 8.52664 40.8798C9.28185 40.5393 10.1701 40.8755 10.5106 41.6307L7.77572 42.8638ZM6.56934 30.6301C6.78972 31.4286 6.32101 32.2547 5.52243 32.4751C4.72386 32.6954 3.89783 32.2267 3.67744 31.4282L6.56934 30.6301ZM1.22528 19.5783C1.10693 18.7583 1.67567 17.9977 2.49561 17.8794C3.31554 17.761 4.07616 18.3298 4.19451 19.1497L1.22528 19.5783ZM3.12355 7.41656C3.1588 8.24423 2.51641 8.94377 1.68874 8.97902C0.861053 9.01427 0.161522 8.37188 0.126266 7.5442L3.12355 7.41656ZM100.034 89.0827C95.9878 88.8814 91.9929 88.6004 88.0641 88.225L88.3494 85.2386C92.228 85.6092 96.1772 85.8871 100.183 86.0864L100.034 89.0827ZM76.1365 86.7469C72.0996 86.1212 68.1533 85.3702 64.3157 84.4758L64.9966 81.5541C68.7534 82.4297 72.6253 83.1668 76.596 83.7823L76.1365 86.7469ZM52.7023 81.1947C48.8054 79.8787 45.0562 78.3707 41.4785 76.6469L42.7807 73.9443C46.2366 75.6094 49.8705 77.0719 53.6622 78.3524L52.7023 81.1947ZM30.9586 70.5819C27.598 68.2743 24.4555 65.7016 21.5591 62.837L23.6687 60.704C26.4315 63.4365 29.4351 65.8966 32.6568 68.1089L30.9586 70.5819ZM13.739 53.4896C11.4978 50.2302 9.50304 46.695 7.77572 42.8638L10.5106 41.6307C12.166 45.3024 14.0734 48.6811 16.211 51.7898L13.739 53.4896ZM3.67744 31.4282C2.65009 27.7055 1.82882 23.7596 1.22528 19.5783L4.19451 19.1497C4.7812 23.2143 5.57756 27.0364 6.56934 30.6301L3.67744 31.4282ZM0.126266 7.5442C0.0423965 5.57469 0 3.56028 0 1.5H3C3 3.51915 3.04155 5.49098 3.12355 7.41656L0.126266 7.5442Z" fill="#166095"/>
</svg>
