<svg width="72" height="72" viewBox="0 0 72 72" fill="none" xmlns="http://www.w3.org/2000/svg">
<path d="M68.1295 34.1708C63.8503 29.3346 52.1265 17.6787 38.3243 17.6787C37.4412 17.6787 36.5691 17.729 35.7051 17.82V54.6636C36.5751 54.7563 37.4493 54.8035 38.3243 54.8049C52.1265 54.8049 63.8503 43.1626 68.1295 38.3128C69.1756 37.1309 69.1756 35.3663 68.1295 34.1708Z" fill="#282828"/>
<path d="M38.3248 55.486C37.4263 55.4848 36.5284 55.4363 35.635 55.3407C35.468 55.3232 35.3135 55.2446 35.2011 55.1199C35.0887 54.9952 35.0265 54.8334 35.0264 54.6655V17.8192C35.0265 17.6513 35.0887 17.4895 35.2011 17.3648C35.3135 17.2401 35.468 17.1615 35.635 17.144C36.552 17.0489 37.4567 17 38.3248 17C52.3281 17 64.1891 28.6925 68.6381 33.7217C69.2497 34.4191 69.5871 35.3151 69.5873 36.2428C69.5876 37.1704 69.2507 38.0666 68.6395 38.7644C64.2027 43.7908 52.3675 55.486 38.3248 55.486ZM36.3849 54.046C37.0424 54.1004 37.6931 54.1275 38.3248 54.1275C51.8146 54.1275 63.3074 42.7543 67.6206 37.8637C68.0136 37.4147 68.2302 36.8383 68.2302 36.2417C68.2302 35.645 68.0136 35.0686 67.6206 34.6196C63.2925 29.7291 51.7752 18.3585 38.3248 18.3585C37.6958 18.3585 37.0451 18.3857 36.3849 18.44V54.046Z" fill="#282828"/>
<path d="M64.0544 38.3142C59.7751 43.164 48.0513 54.8063 34.2491 54.8063C20.4604 54.8063 8.73663 43.164 4.45738 38.3142C3.41134 37.1323 3.41134 35.3663 4.45738 34.1708C8.73663 29.3346 20.4604 17.6787 34.2491 17.6787C48.0513 17.6787 59.7751 29.3346 64.0544 34.1708C65.1004 35.3663 65.1004 37.1323 64.0544 38.3142Z" fill="white"/>
<path d="M34.2491 55.486C20.2186 55.486 8.38345 43.7921 3.94797 38.763C3.33712 38.0657 3.00025 37.1703 3 36.2433C2.99975 35.3162 3.33613 34.4207 3.94662 33.723C8.39839 28.6925 20.258 17 34.2491 17C48.2524 17 60.1134 28.6925 64.5625 33.7217C65.8286 35.1671 65.8259 37.3352 64.5638 38.763C60.1256 43.7935 48.2918 55.486 34.2491 55.486ZM34.2491 18.3585C20.8096 18.3585 9.29363 29.7318 4.96548 34.6196C4.5728 35.0687 4.35638 35.6451 4.35638 36.2417C4.35638 36.8382 4.5728 37.4146 4.96548 37.8637C9.28141 42.7543 20.7729 54.1275 34.2491 54.1275C47.7389 54.1275 59.2317 42.7543 63.545 37.8637C63.9386 37.4145 64.1557 36.8376 64.1557 36.2403C64.1557 35.643 63.9386 35.0661 63.545 34.6169C59.2182 29.7318 47.7009 18.3585 34.2491 18.3585Z" fill="#282828"/>
<path d="M34.2554 51.4103C42.6322 51.4103 49.423 44.6195 49.423 36.2427C49.423 27.8659 42.6322 21.0752 34.2554 21.0752C25.8786 21.0752 19.0879 27.8659 19.0879 36.2427C19.0879 44.6195 25.8786 51.4103 34.2554 51.4103Z" fill="#86CBE8"/>
<path opacity="0.2" d="M34.2547 47.561C40.506 47.561 45.5737 42.4933 45.5737 36.242C45.5737 29.9908 40.506 24.9231 34.2547 24.9231C28.0035 24.9231 22.9358 29.9908 22.9358 36.242C22.9358 42.4933 28.0035 47.561 34.2547 47.561Z" fill="#282828"/>
<path d="M34.255 43.8263C38.443 43.8263 41.8381 40.4313 41.8381 36.2433C41.8381 32.0552 38.443 28.6602 34.255 28.6602C30.0669 28.6602 26.6719 32.0552 26.6719 36.2433C26.6719 40.4313 30.0669 43.8263 34.255 43.8263Z" fill="#282828"/>
<path d="M32.6484 35.3463C33.6117 35.3463 34.3927 34.5653 34.3927 33.602C34.3927 32.6386 33.6117 31.8577 32.6484 31.8577C31.685 31.8577 30.9041 32.6386 30.9041 33.602C30.9041 34.5653 31.685 35.3463 32.6484 35.3463Z" fill="white"/>
</svg>
