<svg width="616" height="96" viewBox="0 0 616 96" fill="none" xmlns="http://www.w3.org/2000/svg">
<path d="M615.5 48L595.5 59.547V36.453L615.5 48ZM2 50C0.895447 50 0 49.1046 0 48C0 46.8954 0.895447 46 2 46V50ZM609.601 50C608.496 50 607.601 49.1046 607.601 48C607.601 46.8954 608.496 46 609.601 46V50ZM597.803 46C598.907 46 599.803 46.8954 599.803 48C599.803 49.1046 598.907 50 597.803 50V46ZM586.005 50C584.9 50 584.005 49.1046 584.005 48C584.005 46.8954 584.9 46 586.005 46V50ZM574.207 46C575.311 46 576.207 46.8954 576.207 48C576.207 49.1046 575.311 50 574.207 50V46ZM562.409 50C561.304 50 560.409 49.1046 560.409 48C560.409 46.8954 561.304 46 562.409 46V50ZM550.611 46C551.715 46 552.611 46.8954 552.611 48C552.611 49.1046 551.715 50 550.611 50V46ZM538.812 50C537.708 50 536.812 49.1046 536.812 48C536.812 46.8954 537.708 46 538.812 46V50ZM527.014 46C528.119 46 529.014 46.8954 529.014 48C529.014 49.1046 528.119 50 527.014 50V46ZM515.216 50C514.112 50 513.216 49.1046 513.216 48C513.216 46.8954 514.112 46 515.216 46V50ZM503.418 46C504.523 46 505.418 46.8954 505.418 48C505.418 49.1046 504.523 50 503.418 50V46ZM491.62 50C490.516 50 489.62 49.1046 489.62 48C489.62 46.8954 490.516 46 491.62 46V50ZM479.822 46C480.927 46 481.822 46.8954 481.822 48C481.822 49.1046 480.927 50 479.822 50V46ZM468.024 50C466.919 50 466.024 49.1046 466.024 48C466.024 46.8954 466.919 46 468.024 46V50ZM456.226 46C457.331 46 458.226 46.8954 458.226 48C458.226 49.1046 457.331 50 456.226 50V46ZM444.428 50C443.323 50 442.428 49.1046 442.428 48C442.428 46.8954 443.323 46 444.428 46V50ZM432.63 46C433.734 46 434.63 46.8954 434.63 48C434.63 49.1046 433.734 50 432.63 50V46ZM420.832 50C419.727 50 418.832 49.1046 418.832 48C418.832 46.8954 419.727 46 420.832 46V50ZM409.034 46C410.138 46 411.034 46.8954 411.034 48C411.034 49.1046 410.138 50 409.034 50V46ZM397.236 50C396.131 50 395.236 49.1046 395.236 48C395.236 46.8954 396.131 46 397.236 46V50ZM385.437 46C386.542 46 387.437 46.8954 387.437 48C387.437 49.1046 386.542 50 385.437 50V46ZM373.639 50C372.535 50 371.639 49.1046 371.639 48C371.639 46.8954 372.535 46 373.639 46V50ZM361.841 46C362.946 46 363.841 46.8954 363.841 48C363.841 49.1046 362.946 50 361.841 50V46ZM350.043 50C348.939 50 348.043 49.1046 348.043 48C348.043 46.8954 348.939 46 350.043 46V50ZM338.245 46C339.35 46 340.245 46.8954 340.245 48C340.245 49.1046 339.35 50 338.245 50V46ZM326.447 50C325.343 50 324.447 49.1046 324.447 48C324.447 46.8954 325.343 46 326.447 46V50ZM314.649 46C315.754 46 316.649 46.8954 316.649 48C316.649 49.1046 315.754 50 314.649 50V46ZM302.851 50C301.746 50 300.851 49.1046 300.851 48C300.851 46.8954 301.746 46 302.851 46V50ZM291.053 46C292.157 46 293.053 46.8954 293.053 48C293.053 49.1046 292.157 50 291.053 50V46ZM279.255 50C278.15 50 277.255 49.1046 277.255 48C277.255 46.8954 278.15 46 279.255 46V50ZM267.457 46C268.561 46 269.457 46.8954 269.457 48C269.457 49.1046 268.561 50 267.457 50V46ZM255.659 50C254.554 50 253.659 49.1046 253.659 48C253.659 46.8954 254.554 46 255.659 46V50ZM243.861 46C244.965 46 245.861 46.8954 245.861 48C245.861 49.1046 244.965 50 243.861 50V46ZM232.063 50C230.958 50 230.063 49.1046 230.063 48C230.063 46.8954 230.958 46 232.063 46V50ZM220.264 46C221.369 46 222.264 46.8954 222.264 48C222.264 49.1046 221.369 50 220.264 50V46ZM208.466 50C207.362 50 206.466 49.1046 206.466 48C206.466 46.8954 207.362 46 208.466 46V50ZM196.668 46C197.773 46 198.668 46.8954 198.668 48C198.668 49.1046 197.773 50 196.668 50V46ZM184.87 50C183.766 50 182.87 49.1046 182.87 48C182.87 46.8954 183.766 46 184.87 46V50ZM173.072 46C174.177 46 175.072 46.8954 175.072 48C175.072 49.1046 174.177 50 173.072 50V46ZM161.274 50C160.17 50 159.274 49.1046 159.274 48C159.274 46.8954 160.17 46 161.274 46V50ZM149.476 46C150.581 46 151.476 46.8954 151.476 48C151.476 49.1046 150.581 50 149.476 50V46ZM137.678 50C136.573 50 135.678 49.1046 135.678 48C135.678 46.8954 136.573 46 137.678 46V50ZM125.88 46C126.985 46 127.88 46.8954 127.88 48C127.88 49.1046 126.985 50 125.88 50V46ZM114.082 50C112.977 50 112.082 49.1046 112.082 48C112.082 46.8954 112.977 46 114.082 46V50ZM102.284 46C103.388 46 104.284 46.8954 104.284 48C104.284 49.1046 103.388 50 102.284 50V46ZM90.4857 50C89.3812 50 88.4857 49.1046 88.4857 48C88.4857 46.8954 89.3812 46 90.4857 46V50ZM78.6876 46C79.7922 46 80.6876 46.8954 80.6876 48C80.6876 49.1046 79.7922 50 78.6876 50V46ZM66.8895 50C65.785 50 64.8895 49.1046 64.8895 48C64.8895 46.8954 65.785 46 66.8895 46V50ZM55.0914 46C56.196 46 57.0914 46.8954 57.0914 48C57.0914 49.1046 56.196 50 55.0914 50V46ZM43.2933 50C42.1887 50 41.2933 49.1046 41.2933 48C41.2933 46.8954 42.1887 46 43.2933 46V50ZM31.4952 46C32.5998 46 33.4952 46.8954 33.4952 48C33.4952 49.1046 32.5998 50 31.4952 50V46ZM19.6971 50C18.5926 50 17.6971 49.1046 17.6971 48C17.6971 46.8954 18.5926 46 19.6971 46V50ZM7.89905 46C9.00366 46 9.89905 46.8954 9.89905 48C9.89905 49.1046 9.00366 50 7.89905 50V46ZM597.803 50H586.005V46H597.803V50ZM574.207 50H562.409V46H574.207V50ZM550.611 50H538.812V46H550.611V50ZM527.014 50H515.216V46H527.014V50ZM503.418 50H491.62V46H503.418V50ZM479.822 50H468.024V46H479.822V50ZM456.226 50H444.428V46H456.226V50ZM432.63 50H420.832V46H432.63V50ZM409.034 50H397.236V46H409.034V50ZM385.437 50H373.639V46H385.437V50ZM361.841 50H350.043V46H361.841V50ZM338.245 50H326.447V46H338.245V50ZM314.649 50H302.851V46H314.649V50ZM291.053 50H279.255V46H291.053V50ZM267.457 50H255.659V46H267.457V50ZM243.861 50H232.063V46H243.861V50ZM220.264 50H208.466V46H220.264V50ZM196.668 50H184.87V46H196.668V50ZM173.072 50H161.274V46H173.072V50ZM149.476 50H137.678V46H149.476V50ZM125.88 50H114.082V46H125.88V50ZM102.284 50H90.4857V46H102.284V50ZM78.6876 50H66.8895V46H78.6876V50ZM55.0914 50H43.2933V46H55.0914V50ZM31.4952 50H19.6971V46H31.4952V50ZM7.89905 50H2V46H7.89905V50Z" fill="#86CBE8"/>
</svg>
