<svg width="1800" height="2018" viewBox="0 0 1800 2018" fill="none" xmlns="http://www.w3.org/2000/svg">
<path d="M30 60H1105C1138.14 60 1165 86.8629 1165 120V319C1165 352.137 1138.14 379 1105 379H575C508.726 379 455 432.726 455 499V713C455 779.274 508.726 833 575 833H1105C1138.14 833 1165 859.863 1165 893V1119C1165 1152.14 1138.14 1179 1105 1179H575C508.726 1179 455 1232.73 455 1299V1522C455 1588.27 508.726 1642 575 1642H1105C1138.14 1642 1165 1668.86 1165 1702V1898C1165 1964.27 1218.73 2018 1285 2018H1821.5C1838.07 2018 1851.5 2004.57 1851.5 1988C1851.5 1971.43 1838.07 1958 1821.5 1958H1285C1251.86 1958 1225 1931.14 1225 1898V1702C1225 1635.73 1171.27 1582 1105 1582H575C541.863 1582 515 1555.14 515 1522V1299C515 1265.86 541.863 1239 575 1239H1105C1171.27 1239 1225 1185.27 1225 1119V893C1225 826.726 1171.27 773 1105 773H575C541.863 773 515 746.137 515 713V499C515 465.863 541.863 439 575 439H1105C1171.27 439 1225 385.274 1225 319V120C1225 53.7258 1171.27 0 1105 0H30C13.4315 0 0 13.4315 0 30C0 46.5685 13.4314 60 30 60Z" fill="#DBF0F9"/>
</svg>
