<svg width="72" height="72" viewBox="0 0 72 72" fill="none" xmlns="http://www.w3.org/2000/svg">
<path d="M65.0991 18.3945V62.6541C65.0991 65.9416 62.4364 68.6043 59.1489 68.6043H16.927C13.6394 68.6043 10.9768 65.9416 10.9768 62.6541V9.34692C10.9768 6.05937 13.6394 3.39673 16.927 3.39673H50.1013C50.3187 3.39673 50.5225 3.47824 50.6719 3.62767L64.8681 17.8239C65.0176 17.9733 65.0991 18.1771 65.0991 18.3945Z" fill="#282828"/>
<path d="M59.1484 69.2831H16.9266C13.2722 69.2831 10.2971 66.308 10.2971 62.6536V9.34648C10.2971 5.69214 13.2722 2.71704 16.9266 2.71704H50.1009C50.5016 2.71704 50.8752 2.86919 51.151 3.14632L65.3472 17.3426C65.6244 17.617 65.7779 17.9906 65.7779 18.394V62.6536C65.7779 66.308 62.8028 69.2831 59.1484 69.2831ZM16.9266 4.07553C14.0194 4.07553 11.6556 6.43931 11.6556 9.34648V62.6536C11.6556 65.5608 14.0194 67.9246 16.9266 67.9246H59.1484C62.0556 67.9246 64.4194 65.5608 64.4194 62.6536V18.394C64.4194 18.3723 64.4153 18.3315 64.3895 18.3071L50.1906 4.10678L16.9266 4.07553Z" fill="#282828"/>
<path d="M61.0239 18.0548V62.6541C61.0239 63.4355 60.87 64.2092 60.5709 64.9311C60.2719 65.653 59.8336 66.309 59.2811 66.8615C58.7286 67.414 58.0726 67.8523 57.3507 68.1513C56.6288 68.4504 55.8551 68.6043 55.0737 68.6043H12.8518C12.0704 68.6043 11.2967 68.4504 10.5748 68.1513C9.85285 67.8523 9.19691 67.414 8.64438 66.8615C8.09186 66.309 7.65357 65.653 7.35454 64.9311C7.05552 64.2092 6.90161 63.4355 6.90161 62.6541V9.34692C6.90161 7.76883 7.5285 6.25538 8.64438 5.1395C9.76026 4.02362 11.2737 3.39673 12.8518 3.39673H46.3522C46.3603 3.39673 46.3685 3.39945 46.3753 3.40624L61.0239 18.0548Z" fill="white"/>
<path d="M55.0732 69.2831H12.8514C9.19702 69.2831 6.22192 66.308 6.22192 62.6536V9.34648C6.22192 5.69214 9.19702 2.71704 12.8514 2.71704H46.3517C46.5324 2.71704 46.7267 2.79855 46.8544 2.92489L61.503 17.5749C61.6305 17.7019 61.7023 17.8744 61.7027 18.0544V62.6536C61.7027 66.308 58.7276 69.2831 55.0732 69.2831ZM12.8514 4.07553C9.94419 4.07553 7.58041 6.43931 7.58041 9.34648V62.6536C7.58041 65.5608 9.94419 67.9246 12.8514 67.9246H55.0732C57.9804 67.9246 60.3442 65.5608 60.3442 62.6536V18.3356L46.0841 4.07553H12.8514Z" fill="#282828"/>
<path d="M26.4427 9.50913H17.2729C17.0927 9.50913 16.92 9.43756 16.7926 9.31018C16.6652 9.1828 16.5936 9.01003 16.5936 8.82988C16.5936 8.64973 16.6652 8.47696 16.7926 8.34958C16.92 8.2222 17.0927 8.15063 17.2729 8.15063H26.4427C26.6228 8.15063 26.7956 8.2222 26.923 8.34958C27.0504 8.47696 27.1219 8.64973 27.1219 8.82988C27.1219 9.01003 27.0504 9.1828 26.923 9.31018C26.7956 9.43756 26.6228 9.50913 26.4427 9.50913ZM14.7828 9.50913H12.3348C12.1546 9.50913 11.9818 9.43756 11.8545 9.31018C11.7271 9.1828 11.6555 9.01003 11.6555 8.82988C11.6555 8.64973 11.7271 8.47696 11.8545 8.34958C11.9818 8.2222 12.1546 8.15063 12.3348 8.15063H14.7828C14.9629 8.15063 15.1357 8.2222 15.2631 8.34958C15.3904 8.47696 15.462 8.64973 15.462 8.82988C15.462 9.01003 15.3904 9.1828 15.2631 9.31018C15.1357 9.43756 14.9629 9.50913 14.7828 9.50913ZM26.4427 13.9854H22.9894C22.8093 13.9854 22.6365 13.9138 22.5091 13.7864C22.3817 13.659 22.3102 13.4863 22.3102 13.3061C22.3102 13.126 22.3817 12.9532 22.5091 12.8258C22.6365 12.6984 22.8093 12.6269 22.9894 12.6269H26.4427C26.6228 12.6269 26.7956 12.6984 26.923 12.8258C27.0504 12.9532 27.1219 13.126 27.1219 13.3061C27.1219 13.4863 27.0504 13.659 26.923 13.7864C26.7956 13.9138 26.6228 13.9854 26.4427 13.9854ZM20.4993 13.9854H12.3348C12.1546 13.9854 11.9818 13.9138 11.8545 13.7864C11.7271 13.659 11.6555 13.4863 11.6555 13.3061C11.6555 13.126 11.7271 12.9532 11.8545 12.8258C11.9818 12.6984 12.1546 12.6269 12.3348 12.6269H20.4993C20.6794 12.6269 20.8522 12.6984 20.9796 12.8258C21.107 12.9532 21.1785 13.126 21.1785 13.3061C21.1785 13.4863 21.107 13.659 20.9796 13.7864C20.8522 13.9138 20.6794 13.9854 20.4993 13.9854ZM19.388 18.4616H12.3348C12.1546 18.4616 11.9818 18.39 11.8545 18.2626C11.7271 18.1352 11.6555 17.9625 11.6555 17.7823C11.6555 17.6022 11.7271 17.4294 11.8545 17.302C11.9818 17.1747 12.1546 17.1031 12.3348 17.1031H19.388C19.5682 17.1031 19.741 17.1747 19.8683 17.302C19.9957 17.4294 20.0673 17.6022 20.0673 17.7823C20.0673 17.9625 19.9957 18.1352 19.8683 18.2626C19.741 18.39 19.5682 18.4616 19.388 18.4616ZM16.4428 63.8487H13.3496C13.1694 63.8487 12.9966 63.7772 12.8693 63.6498C12.7419 63.5224 12.6703 63.3497 12.6703 63.1695C12.6703 62.9894 12.7419 62.8166 12.8693 62.6892C12.9966 62.5618 13.1694 62.4903 13.3496 62.4903H16.4428C16.623 62.4903 16.7958 62.5618 16.9231 62.6892C17.0505 62.8166 17.1221 62.9894 17.1221 63.1695C17.1221 63.3497 17.0505 63.5224 16.9231 63.6498C16.7958 63.7772 16.623 63.8487 16.4428 63.8487ZM43.4809 63.8487H19.8961C19.716 63.8487 19.5432 63.7772 19.4158 63.6498C19.2884 63.5224 19.2169 63.3497 19.2169 63.1695C19.2169 62.9894 19.2884 62.8166 19.4158 62.6892C19.5432 62.5618 19.716 62.4903 19.8961 62.4903H43.4795C43.6597 62.4903 43.8324 62.5618 43.9598 62.6892C44.0872 62.8166 44.1588 62.9894 44.1588 63.1695C44.1588 63.3497 44.0872 63.5224 43.9598 63.6498C43.8324 63.7772 43.661 63.8487 43.4809 63.8487ZM54.5743 63.8487H48.2356C48.0554 63.8487 47.8827 63.7772 47.7553 63.6498C47.6279 63.5224 47.5563 63.3497 47.5563 63.1695C47.5563 62.9894 47.6279 62.8166 47.7553 62.6892C47.8827 62.5618 48.0554 62.4903 48.2356 62.4903H54.5743C54.7545 62.4903 54.9272 62.5618 55.0546 62.6892C55.182 62.8166 55.2536 62.9894 55.2536 63.1695C55.2536 63.3497 55.182 63.5224 55.0546 63.6498C54.9272 63.7772 54.7545 63.8487 54.5743 63.8487ZM22.9894 56.7357H13.3496C13.1694 56.7357 12.9966 56.6641 12.8693 56.5367C12.7419 56.4094 12.6703 56.2366 12.6703 56.0564C12.6703 55.8763 12.7419 55.7035 12.8693 55.5761C12.9966 55.4488 13.1694 55.3772 13.3496 55.3772H22.9894C23.1696 55.3772 23.3423 55.4488 23.4697 55.5761C23.5971 55.7035 23.6687 55.8763 23.6687 56.0564C23.6687 56.2366 23.5971 56.4094 23.4697 56.5367C23.3423 56.6641 23.1696 56.7357 22.9894 56.7357ZM40.3102 56.7357H27.179C26.9988 56.7357 26.8261 56.6641 26.6987 56.5367C26.5713 56.4094 26.4997 56.2366 26.4997 56.0564C26.4997 55.8763 26.5713 55.7035 26.6987 55.5761C26.8261 55.4488 26.9988 55.3772 27.179 55.3772H40.3102C40.4903 55.3772 40.6631 55.4488 40.7905 55.5761C40.9178 55.7035 40.9894 55.8763 40.9894 56.0564C40.9894 56.2366 40.9178 56.4094 40.7905 56.5367C40.6631 56.6641 40.4903 56.7357 40.3102 56.7357ZM54.5743 56.7357H43.4809C43.3007 56.7357 43.128 56.6641 43.0006 56.5367C42.8732 56.4094 42.8016 56.2366 42.8016 56.0564C42.8016 55.8763 42.8732 55.7035 43.0006 55.5761C43.128 55.4488 43.3007 55.3772 43.4809 55.3772H54.5743C54.7545 55.3772 54.9272 55.4488 55.0546 55.5761C55.182 55.7035 55.2536 55.8763 55.2536 56.0564C55.2536 56.2366 55.182 56.4094 55.0546 56.5367C54.9272 56.6641 54.7545 56.7357 54.5743 56.7357Z" fill="#282828"/>
<path d="M33.0662 48.9426C40.944 48.9426 47.3303 42.5563 47.3303 34.6785C47.3303 26.8006 40.944 20.4143 33.0662 20.4143C25.1883 20.4143 18.802 26.8006 18.802 34.6785C18.802 42.5563 25.1883 48.9426 33.0662 48.9426Z" fill="#86CBE8"/>
<path d="M33.0657 49.6217C24.8251 49.6217 18.1223 42.9189 18.1223 34.6783C18.1223 26.4377 24.8251 19.7349 33.0657 19.7349C41.3063 19.7349 48.0091 26.439 48.0091 34.6783C48.0091 42.9175 41.305 49.6217 33.0657 49.6217ZM33.0657 21.0934C25.575 21.0934 19.4808 27.1889 19.4808 34.6783C19.4808 42.1676 25.575 48.2632 33.0657 48.2632C40.5564 48.2632 46.6506 42.169 46.6506 34.6783C46.6506 27.1875 40.5564 21.0934 33.0657 21.0934Z" fill="#282828"/>
<path d="M61.0236 18.0548H49.9791C47.9821 18.0548 46.3655 16.4382 46.3655 14.4277V3.39673L61.0236 18.0548Z" fill="#F2F2F2"/>
<path d="M61.0231 18.7335H49.9786C48.8387 18.7303 47.7467 18.2751 46.9419 17.4678C46.1372 16.6605 45.6854 15.567 45.6858 14.4271V3.39614C45.6858 3.2619 45.7256 3.13068 45.8002 3.01905C45.8747 2.90742 45.9807 2.82038 46.1047 2.76892C46.2287 2.71747 46.3651 2.7039 46.4968 2.72994C46.6285 2.75599 46.7495 2.82046 46.8446 2.91524L61.5027 17.5733C61.5972 17.6685 61.6615 17.7895 61.6875 17.9211C61.7134 18.0526 61.7 18.189 61.6487 18.3129C61.5975 18.4368 61.5108 18.5429 61.3995 18.6177C61.2882 18.6925 61.1573 18.7328 61.0231 18.7335ZM47.0443 5.03584V14.4271C47.0443 16.0518 48.3607 17.375 49.9786 17.375H59.3835L47.0443 5.03584Z" fill="#282828"/>
<path d="M30.4332 40.7634C29.9129 40.7634 29.3912 40.565 28.9932 40.1657L26.1634 37.3373C25.9655 37.1502 25.8071 36.9253 25.6976 36.6759C25.5881 36.4265 25.5297 36.1577 25.5258 35.8854C25.522 35.613 25.5728 35.3427 25.6752 35.0903C25.7776 34.8379 25.9296 34.6086 26.1221 34.416C26.3147 34.2233 26.5439 34.0713 26.7962 33.9687C27.0486 33.8662 27.3189 33.8153 27.5912 33.819C27.8636 33.8227 28.1324 33.881 28.3818 33.9904C28.6313 34.0998 28.8562 34.2581 29.0434 34.4559L30.4332 35.8443L37.0871 29.1918C37.2742 28.9938 37.4991 28.8354 37.7485 28.7259C37.9978 28.6164 38.2667 28.558 38.539 28.5542C38.8113 28.5503 39.0817 28.6011 39.3341 28.7035C39.5864 28.8059 39.8157 28.9579 40.0084 29.1505C40.201 29.343 40.3531 29.5722 40.4556 29.8245C40.5582 30.0769 40.6091 30.3472 40.6054 30.6195C40.6016 30.8919 40.5433 31.1607 40.4339 31.4102C40.3245 31.6596 40.1663 31.8846 39.9684 32.0718L31.8745 40.167C31.4765 40.565 30.9548 40.7647 30.4345 40.7647L30.4332 40.7634Z" fill="white"/>
</svg>
