<svg width="72" height="70" viewBox="0 0 72 70" fill="none" xmlns="http://www.w3.org/2000/svg">
<path d="M37.08 69.1755C49.5049 69.1755 59.5774 59.1031 59.5774 46.6781C59.5774 34.2531 49.5049 24.1807 37.08 24.1807C24.655 24.1807 14.5825 34.2531 14.5825 46.6781C14.5825 59.1031 24.655 69.1755 37.08 69.1755Z" fill="#282828"/>
<path d="M37.0813 69.8929C24.2804 69.8929 13.8655 59.4795 13.8655 46.6799C13.8567 43.63 14.453 40.6086 15.62 37.7908C16.7869 34.973 18.5013 32.4146 20.6639 30.2639C22.8145 28.1011 25.3727 26.3865 28.1906 25.2192C31.0085 24.052 34.0299 23.4555 37.0799 23.4641C49.8794 23.4641 60.2957 33.8775 60.2957 46.6785C60.3038 49.7281 59.7068 52.7491 58.5394 55.5664C57.3719 58.3838 55.6572 60.9415 53.4945 63.0916C51.3441 65.2543 48.786 66.9688 45.9684 68.136C43.1508 69.3033 40.1297 69.8999 37.0799 69.8915L37.0813 69.8929ZM37.0799 24.898C34.2184 24.8905 31.3839 25.4507 28.7404 26.546C26.0968 27.6413 23.6968 29.2501 21.6791 31.2792C19.6502 33.2968 18.0416 35.6969 16.9465 38.3405C15.8514 40.984 15.2916 43.8185 15.2994 46.6799C15.2994 58.6894 25.0705 68.459 37.0813 68.459C39.9428 68.4665 42.7773 67.9063 45.4209 66.811C48.0644 65.7157 50.4645 64.1069 52.4821 62.0778C54.5108 60.0601 56.1191 57.6599 57.214 55.0164C58.3088 52.3728 58.8684 49.5384 58.8604 46.6771C58.8604 34.6691 49.0908 24.898 37.0799 24.898Z" fill="#282828"/>
<path d="M32.2748 69.1755C44.6998 69.1755 54.7722 59.1031 54.7722 46.6781C54.7722 34.2531 44.6998 24.1807 32.2748 24.1807C19.8498 24.1807 9.77734 34.2531 9.77734 46.6781C9.77734 59.1031 19.8498 69.1755 32.2748 69.1755Z" fill="#86CBE8"/>
<path d="M32.2761 69.8929C19.4751 69.8929 9.06027 59.4795 9.06027 46.6799C9.06027 40.478 11.4751 34.649 15.8601 30.2639C18.0105 28.1013 20.5686 26.3867 23.3862 25.2195C26.2038 24.0523 29.2249 23.4556 32.2747 23.4641C45.0742 23.4641 55.4905 33.8775 55.4905 46.6785C55.4905 59.478 45.0757 69.8929 32.2761 69.8929ZM32.2761 24.898C26.4571 24.898 20.988 27.1637 16.8739 31.2792C14.8452 33.2969 13.2369 35.6971 12.1421 38.3406C11.0472 40.9842 10.4876 43.8186 10.4957 46.6799C10.4957 58.6894 20.2667 68.4589 32.2776 68.4589C44.2856 68.4589 54.0566 58.6894 54.0566 46.6771C54.0566 34.6691 44.2856 24.898 32.2761 24.898Z" fill="#282828"/>
<path d="M32.2747 63.5218C41.577 63.5218 49.118 55.9808 49.118 46.6785C49.118 37.3762 41.577 29.8351 32.2747 29.8351C22.9724 29.8351 15.4314 37.3762 15.4314 46.6785C15.4314 55.9808 22.9724 63.5218 32.2747 63.5218Z" fill="white"/>
<path d="M23.0873 47.3969H21.6605C21.4704 47.3969 21.288 47.3214 21.1535 47.1869C21.0191 47.0525 20.9435 46.8701 20.9435 46.6799C20.9435 46.4898 21.0191 46.3074 21.1535 46.1729C21.288 46.0385 21.4704 45.963 21.6605 45.963H23.0873C23.2775 45.963 23.4598 46.0385 23.5943 46.1729C23.7287 46.3074 23.8043 46.4898 23.8043 46.6799C23.8043 46.8701 23.7287 47.0525 23.5943 47.1869C23.4598 47.3214 23.2775 47.3969 23.0873 47.3969ZM42.8889 47.3955H41.4635C41.2734 47.3955 41.091 47.3199 40.9565 47.1855C40.8221 47.051 40.7465 46.8687 40.7465 46.6785C40.7465 46.4883 40.8221 46.306 40.9565 46.1715C41.091 46.0371 41.2734 45.9615 41.4635 45.9615H42.8889C43.079 45.9615 43.2614 46.0371 43.3959 46.1715C43.5303 46.306 43.6059 46.4883 43.6059 46.6785C43.6059 46.8687 43.5303 47.051 43.3959 47.1855C43.2614 47.3199 43.079 47.3955 42.8889 47.3955ZM28.0173 38.905C28.8992 37.9399 30.1338 37.4495 31.7241 37.4337V35.8564H32.8497V37.4108C34.4242 37.5212 35.6316 37.9844 36.4733 38.8032C37.3151 39.622 37.7567 40.7032 37.7955 42.0468H35.7205C35.6813 41.4982 35.5143 40.9664 35.233 40.4938C34.7354 39.6951 33.9424 39.2764 32.8497 39.2362V45.0008C34.6852 45.5141 35.9299 45.9959 36.5866 46.4476C37.6535 47.1904 38.1869 48.2888 38.1869 49.7443C38.1869 51.8465 37.5029 53.3407 36.1364 54.2269C35.3764 54.7173 34.2822 55.0414 32.8512 55.1991V57.5006H31.7241V55.1991C29.424 55.0485 27.8624 54.2355 27.0393 52.7571C26.589 51.9583 26.3639 50.8786 26.3639 49.5192H28.4632C28.5263 50.6018 28.6955 51.3919 28.9723 51.8909C29.4627 52.7843 30.3718 53.2862 31.6997 53.3966V46.9337C29.9933 46.6097 28.7314 46.0676 27.9169 45.3091C27.1024 44.5491 26.6951 43.498 26.6951 42.1543C26.6951 40.9527 27.1368 39.87 28.0173 38.905ZM29.6075 43.8507C30.1238 44.2924 30.8221 44.6007 31.7011 44.7756V39.2018C30.6644 39.2405 29.9273 39.5574 29.4885 40.1497C29.0497 40.7433 28.8289 41.3642 28.8289 42.0124C28.8289 42.7953 29.0884 43.4076 29.6075 43.8507ZM35.6488 51.9741C35.9184 51.4995 36.0532 50.9503 36.0532 50.3251C36.0532 49.3356 35.689 48.5857 34.9619 48.0723C34.5418 47.7712 33.8392 47.4873 32.8512 47.2177V53.4554C34.2019 53.3923 35.1355 52.899 35.6488 51.9741Z" fill="#282828"/>
<path d="M23.3325 60.7354V64.5583C23.3325 67.1366 18.8514 69.2316 13.3191 69.2316C7.79265 69.2316 3.31152 67.1366 3.31152 64.5583V60.7354C3.31152 63.3122 7.79266 65.4072 13.3206 65.4072C18.8514 65.4072 23.3325 63.3122 23.3325 60.7354Z" fill="#DBF0F9"/>
<path d="M13.3193 69.9478C7.30673 69.9478 2.59473 67.5817 2.59473 64.5589V60.7346C2.59473 60.5444 2.67027 60.362 2.80473 60.2276C2.93919 60.0931 3.12155 60.0176 3.31171 60.0176C3.50186 60.0176 3.68423 60.0931 3.81869 60.2276C3.95315 60.362 4.02869 60.5444 4.02869 60.7346C4.02869 62.6059 7.84446 64.6923 13.3208 64.6923C18.7985 64.6923 22.6157 62.6059 22.6157 60.7346C22.6157 60.5444 22.6912 60.362 22.8257 60.2276C22.9602 60.0931 23.1425 60.0176 23.3327 60.0176C23.5228 60.0176 23.7052 60.0931 23.8397 60.2276C23.9741 60.362 24.0497 60.5444 24.0497 60.7346V64.5589C24.0497 67.5817 19.3362 69.9478 13.3193 69.9478ZM4.02869 63.4663V64.5589C4.02869 66.4303 7.84446 68.5138 13.3208 68.5138C18.7985 68.5138 22.6157 66.4303 22.6157 64.5589V63.4663C20.7759 65.0694 17.3387 66.1248 13.3193 66.1248C9.30424 66.1248 5.86846 65.068 4.02869 63.4663Z" fill="#282828"/>
<path d="M23.3325 60.7356C23.3325 63.3124 18.8514 65.4075 13.3191 65.4075C7.79265 65.4075 3.31152 63.3124 3.31152 60.7356C3.31152 58.1516 7.79266 56.0623 13.3206 56.0623C18.8514 56.0623 23.3325 58.1516 23.3325 60.7356Z" fill="#DBF0F9"/>
<path d="M13.3193 66.1248C7.30673 66.1248 2.59473 63.7573 2.59473 60.7345C2.59473 57.7117 7.30673 55.3457 13.3208 55.3457C19.3362 55.3457 24.0497 57.7117 24.0497 60.7345C24.0497 63.7573 19.3362 66.1248 13.3193 66.1248ZM13.3193 56.7797C7.84446 56.7797 4.02869 58.8646 4.02869 60.7345C4.02869 62.6044 7.84446 64.6923 13.3208 64.6923C18.7985 64.6923 22.6157 62.6059 22.6157 60.7345C22.6157 58.8632 18.7985 56.7797 13.3193 56.7797Z" fill="#282828"/>
<path d="M21.5329 53.4755V57.2998C21.5329 59.8767 17.0518 61.9717 11.5195 61.9717C5.99447 61.9717 1.5119 59.8781 1.5119 57.2998V53.4755C1.5119 56.0537 5.99447 58.1488 11.521 58.1488C17.0518 58.1488 21.5329 56.0537 21.5329 53.4755Z" fill="#DBF0F9"/>
<path d="M11.5195 62.6901C5.50692 62.6901 0.794922 60.3212 0.794922 57.2984V53.4754C0.794922 53.2853 0.870461 53.1029 1.00492 52.9685C1.13938 52.834 1.32175 52.7585 1.5119 52.7585C1.70206 52.7585 1.88443 52.834 2.01889 52.9685C2.15335 53.1029 2.22888 53.2853 2.22888 53.4754C2.22888 55.3453 6.04466 57.4317 11.521 57.4317C16.9987 57.4317 20.8159 55.3453 20.8159 53.474C20.8159 53.2838 20.8914 53.1015 21.0259 52.967C21.1604 52.8326 21.3427 52.757 21.5329 52.757C21.723 52.757 21.9054 52.8326 22.0399 52.967C22.1743 53.1015 22.2499 53.2838 22.2499 53.474V57.2998C22.2499 60.3212 17.5364 62.6901 11.5195 62.6901ZM2.23032 56.2086V57.2984C2.23032 59.1697 6.04609 61.2561 11.5224 61.2561C17.0001 61.2561 20.8173 59.1697 20.8173 57.2984V56.2057C18.9776 57.8089 15.5404 58.8657 11.521 58.8657C7.50587 58.8657 4.07009 57.8103 2.23032 56.2086Z" fill="#282828"/>
<path d="M21.5329 53.4754C21.5329 56.0537 17.0518 58.1487 11.5195 58.1487C5.99447 58.1487 1.5119 56.0537 1.5119 53.4754C1.5119 50.8943 5.99447 48.8036 11.521 48.8036C17.0518 48.8036 21.5329 50.8929 21.5329 53.4754Z" fill="#DBF0F9"/>
<path d="M11.5195 58.866C5.50692 58.866 0.794922 56.4971 0.794922 53.4743C0.794922 50.4515 5.50692 48.0869 11.521 48.0869C17.5364 48.0869 22.2499 50.453 22.2499 53.4757C22.2499 56.4985 17.5364 58.866 11.5195 58.866ZM11.5195 49.5209C6.04466 49.5209 2.22888 51.6044 2.22888 53.4757C2.22888 55.3471 6.04466 57.432 11.521 57.432C16.9987 57.432 20.8159 55.3456 20.8159 53.4743C20.8159 51.603 16.9987 49.5209 11.5195 49.5209Z" fill="#282828"/>
<path d="M70.4868 60.7354V64.5583C70.4868 67.1366 66.0057 69.2316 60.4749 69.2316C54.9484 69.2316 50.4658 67.1366 50.4658 64.5583V60.7354C50.4658 63.3122 54.9484 65.4072 60.4749 65.4072C66.0057 65.4072 70.4868 63.3122 70.4868 60.7354Z" fill="#DBF0F9"/>
<path d="M60.4751 69.9478C54.461 69.9478 49.749 67.5817 49.749 64.5589V60.7346C49.749 60.5444 49.8246 60.362 49.959 60.2276C50.0935 60.0931 50.2758 60.0176 50.466 60.0176C50.6562 60.0176 50.8385 60.0931 50.973 60.2276C51.1074 60.362 51.183 60.5444 51.183 60.7346C51.183 62.6059 54.9988 64.6923 60.4751 64.6923C65.9528 64.6923 69.7714 62.6059 69.7714 60.7346C69.7714 60.5444 69.847 60.362 69.9814 60.2276C70.1159 60.0931 70.2983 60.0176 70.4884 60.0176C70.6786 60.0176 70.8609 60.0931 70.9954 60.2276C71.1299 60.362 71.2054 60.5444 71.2054 60.7346V64.5589C71.2054 67.5817 66.4905 69.9478 60.4751 69.9478ZM51.183 63.4663V64.5589C51.183 66.4303 54.9988 68.5138 60.4751 68.5138C65.9528 68.5138 69.7714 66.4303 69.7714 64.5589V63.4663C67.9317 65.0694 64.4945 66.1248 60.4751 66.1248C56.4571 66.1248 53.0228 65.068 51.183 63.4663Z" fill="#282828"/>
<path d="M70.4869 60.7356C70.4869 63.3124 66.0058 65.4075 60.475 65.4075C54.9485 65.4075 50.4659 63.3124 50.4659 60.7356C50.4659 58.1516 54.9485 56.0623 60.475 56.0623C66.0058 56.0623 70.4869 58.1516 70.4869 60.7356Z" fill="#DBF0F9"/>
<path d="M60.4751 66.1248C54.461 66.1248 49.749 63.7573 49.749 60.7345C49.749 57.7117 54.461 55.3457 60.4751 55.3457C66.4905 55.3457 71.2054 57.7117 71.2054 60.7345C71.2054 63.7573 66.4905 66.1248 60.4751 66.1248ZM60.4751 56.7797C54.9988 56.7797 51.183 58.8646 51.183 60.7345C51.183 62.6044 54.9988 64.6923 60.4751 64.6923C65.9528 64.6923 69.7714 62.6059 69.7714 60.7345C69.7714 58.8632 65.9528 56.7797 60.4751 56.7797Z" fill="#282828"/>
<path d="M68.6887 53.4755V57.2998C68.6887 59.8767 64.2062 61.9717 58.6754 61.9717C53.1489 61.9717 48.6663 59.8781 48.6663 57.2998V53.4755C48.6663 56.0537 53.1489 58.1488 58.6754 58.1488C64.2062 58.1488 68.6887 56.0537 68.6887 53.4755Z" fill="#DBF0F9"/>
<path d="M58.6754 62.6901C52.6613 62.6901 47.9493 60.3212 47.9493 57.2984V53.4754C47.9493 53.2853 48.0249 53.1029 48.1593 52.9685C48.2938 52.834 48.4762 52.7585 48.6663 52.7585C48.8565 52.7585 49.0388 52.834 49.1733 52.9685C49.3078 53.1029 49.3833 53.2853 49.3833 53.4754C49.3833 55.3453 53.1991 57.4317 58.6754 57.4317C64.1531 57.4317 67.9718 55.3453 67.9718 53.474C67.9718 53.2838 68.0473 53.1015 68.1818 52.967C68.3162 52.8326 68.4986 52.757 68.6887 52.757C68.8789 52.757 69.0613 52.8326 69.1957 52.967C69.3302 53.1015 69.4057 53.2838 69.4057 53.474V57.2998C69.4057 60.3212 64.6923 62.6901 58.6754 62.6901ZM49.3833 56.2086V57.2984C49.3833 59.1697 53.1991 61.2561 58.6754 61.2561C64.1531 61.2561 67.9718 59.1697 67.9718 57.2984V56.2057C66.132 57.8089 62.6948 58.8657 58.6754 58.8657C54.6574 58.8657 51.2231 57.8103 49.3833 56.2086Z" fill="#282828"/>
<path d="M68.6887 53.4754C68.6887 56.0537 64.2062 58.1487 58.6754 58.1487C53.1489 58.1487 48.6663 56.0537 48.6663 53.4754C48.6663 50.8943 53.1489 48.8036 58.6754 48.8036C64.2062 48.8036 68.6887 50.8929 68.6887 53.4754Z" fill="#DBF0F9"/>
<path d="M58.6753 58.866C52.6612 58.866 47.9492 56.4971 47.9492 53.4743C47.9492 50.4515 52.6612 48.0869 58.6753 48.0869C64.6922 48.0869 69.4056 50.453 69.4056 53.4757C69.4056 56.4985 64.6922 58.866 58.6753 58.866ZM58.6753 49.5209C53.199 49.5209 49.3832 51.6044 49.3832 53.4757C49.3832 55.3471 53.199 57.432 58.6753 57.432C64.153 57.432 67.9716 55.3456 67.9716 53.4743C67.9716 51.603 64.153 49.5209 58.6753 49.5209Z" fill="#282828"/>
<path d="M19.663 13.617H18.3939V19.9967C18.3939 20.5416 17.9494 20.9862 17.4045 20.9862H13.2231C12.6782 20.9862 12.2336 20.5416 12.2336 19.9967V13.6156H10.9632C10.7627 13.6153 10.566 13.5611 10.3937 13.4587C10.2214 13.3563 10.0797 13.2095 9.98356 13.0336C9.8874 12.8577 9.84029 12.6592 9.84713 12.4589C9.85398 12.2586 9.91454 12.0638 10.0225 11.8949L14.3688 5.13946C14.8062 4.45115 15.8028 4.45115 16.2473 5.13946L20.5951 11.8949C20.7041 12.0629 20.7659 12.2572 20.7738 12.4573C20.7817 12.6574 20.7356 12.856 20.6402 13.0321C20.5448 13.2082 20.4037 13.3553 20.2317 13.458C20.0598 13.5607 19.8633 13.6152 19.663 13.6156V13.617Z" fill="#86CBE8"/>
<path d="M17.4044 21.705H13.223C12.2823 21.705 11.5166 20.9379 11.5166 19.9986V14.3345H10.9645C10.6358 14.3373 10.3125 14.2504 10.0295 14.0832C9.7465 13.9159 9.5145 13.6746 9.35849 13.3852C9.03584 12.7973 9.05879 12.0789 9.42015 11.511L13.7679 4.75131C13.9317 4.49247 14.1582 4.27919 14.4265 4.13129C14.6947 3.98338 14.996 3.90564 15.3023 3.90527H15.308C15.9332 3.90527 16.5097 4.22075 16.8524 4.75131L21.1987 11.5081C21.3767 11.7845 21.4771 12.1036 21.4893 12.4321C21.5016 12.7606 21.4253 13.0863 21.2684 13.3751C21.1115 13.664 20.8798 13.9053 20.5976 14.0738C20.3154 14.2424 19.9931 14.3319 19.6644 14.333H19.1109V19.9972C19.1109 20.9379 18.3451 21.7036 17.4044 21.7036V21.705ZM15.308 5.33924C15.2416 5.33903 15.1748 5.35611 15.117 5.38879C15.0592 5.42147 15.0108 5.46864 14.9768 5.52565L10.6275 12.2839C10.5883 12.3447 10.5665 12.4151 10.5645 12.4874C10.5625 12.5597 10.5803 12.6311 10.6161 12.694C10.6497 12.7571 10.6999 12.8096 10.7614 12.8461C10.8228 12.8825 10.8931 12.9013 10.9645 12.9005H12.2336C12.4237 12.9005 12.6061 12.9761 12.7406 13.1105C12.875 13.245 12.9506 13.4273 12.9506 13.6175V19.9986C12.9506 20.1463 13.0753 20.2711 13.223 20.2711H17.4044C17.5521 20.2711 17.6769 20.1463 17.6769 19.9986V13.6175C17.6769 13.4273 17.7524 13.245 17.8869 13.1105C18.0214 12.9761 18.2037 12.9005 18.3939 12.9005H19.6644C19.7354 12.9011 19.8052 12.8821 19.8661 12.8457C19.9271 12.8093 19.9768 12.7568 20.01 12.694C20.0454 12.6311 20.0627 12.5596 20.0599 12.4875C20.0571 12.4153 20.0344 12.3453 19.9942 12.2853L15.6464 5.52708C15.6104 5.46987 15.5605 5.42275 15.5013 5.39014C15.4421 5.35753 15.3756 5.33907 15.308 5.33924Z" fill="#282828"/>
<path d="M58.3943 17.9461H57.1253V24.3273C57.1253 24.8722 56.6807 25.3167 56.1358 25.3167H51.953C51.4081 25.3167 50.9635 24.8722 50.9635 24.3273V17.9461H49.6945C49.4941 17.9456 49.2976 17.8912 49.1255 17.7887C48.9534 17.6862 48.8119 17.5394 48.716 17.3635C48.62 17.1877 48.573 16.9893 48.5799 16.7891C48.5868 16.5889 48.6474 16.3942 48.7552 16.2254L53.1001 9.46856C53.5389 8.78026 54.5355 8.78026 54.9801 9.46856L59.3264 16.224C59.4354 16.392 59.4972 16.5863 59.5051 16.7864C59.513 16.9865 59.4669 17.1851 59.3715 17.3612C59.2761 17.5373 59.135 17.6844 58.963 17.7871C58.7911 17.8898 58.5946 17.9443 58.3943 17.9447V17.9461Z" fill="white"/>
<path d="M56.1344 26.0323H51.9544C51.0123 26.0323 50.248 25.268 50.248 24.3258V18.6617H49.6945C49.0162 18.6617 48.4168 18.3075 48.0884 17.7153C47.7672 17.1274 47.7887 16.4075 48.1487 15.8411L52.4993 9.08139C52.6628 8.82295 52.8889 8.60994 53.1566 8.46206C53.4243 8.31417 53.7249 8.2362 54.0308 8.23535H54.0379C54.6631 8.23535 55.241 8.55082 55.5823 9.07995L59.9301 15.8368C60.1096 16.1128 60.2112 16.4322 60.2242 16.7612C60.2372 17.0903 60.1611 17.4167 60.0039 17.706C59.8468 17.9954 59.6144 18.2369 59.3313 18.4051C59.0483 18.5733 58.725 18.662 58.3957 18.6617H57.8422V24.3258C57.8422 25.268 57.0751 26.0323 56.1344 26.0323ZM54.0394 9.66931H54.0379C53.9718 9.66867 53.9066 9.68525 53.8487 9.71743C53.7909 9.74961 53.7425 9.79629 53.7081 9.85286L49.3589 16.6126C49.3197 16.6733 49.2979 16.7437 49.2959 16.816C49.2939 16.8883 49.3117 16.9598 49.3474 17.0227C49.3812 17.0854 49.4316 17.1377 49.493 17.1739C49.5545 17.21 49.6246 17.2287 49.6959 17.2277H50.965C51.1551 17.2277 51.3375 17.3033 51.4719 17.4377C51.6064 17.5722 51.6819 17.7546 51.6819 17.9447V24.3258C51.6819 24.4764 51.8053 24.5983 51.9544 24.5983H56.1358C56.2081 24.5983 56.2774 24.5696 56.3285 24.5185C56.3796 24.4674 56.4083 24.3981 56.4083 24.3258V17.9447C56.4083 17.7546 56.4838 17.5722 56.6183 17.4377C56.7527 17.3033 56.9351 17.2277 57.1253 17.2277H58.3957C58.4676 17.228 58.5382 17.2086 58.6 17.1718C58.6617 17.135 58.7122 17.082 58.7461 17.0186C58.78 16.9552 58.796 16.8838 58.7924 16.812C58.7888 16.7402 58.7657 16.6708 58.7256 16.6111L54.3792 9.85716C54.3433 9.79948 54.2932 9.75194 54.2337 9.71906C54.1742 9.68618 54.1073 9.66906 54.0394 9.66931Z" fill="#282828"/>
<path d="M38.825 9.76398H37.5574V16.1451C37.5574 16.69 37.1129 17.1346 36.568 17.1346H32.3866C31.8416 17.1346 31.3971 16.69 31.3971 16.1451V9.76255H30.1266C29.9263 9.76197 29.7298 9.70759 29.5577 9.60511C29.3855 9.50262 29.2441 9.35578 29.1481 9.17994C29.0521 9.0041 29.0051 8.80571 29.012 8.6055C29.019 8.40529 29.0795 8.2106 29.1874 8.04179L33.5323 1.28496C33.9711 0.596662 34.9677 0.596662 35.4122 1.28496L39.7586 8.04179C39.8676 8.2098 39.9293 8.40409 39.9373 8.60422C39.9452 8.80435 39.899 9.00292 39.8036 9.17903C39.7082 9.35515 39.5671 9.50229 39.3952 9.60497C39.2232 9.70766 39.0268 9.76209 38.8265 9.76255L38.825 9.76398Z" fill="#282828"/>
<path d="M36.5666 17.8515H32.3866C31.4444 17.8515 30.6801 17.0858 30.6801 16.1451V10.4795H30.1266C29.7981 10.4821 29.4752 10.3951 29.1924 10.2278C28.9097 10.0606 28.6779 9.8194 28.522 9.53025C28.1994 8.94232 28.2209 8.22534 28.5808 7.65749L32.9315 0.897795C33.095 0.63936 33.321 0.426345 33.5887 0.278462C33.8564 0.130579 34.1571 0.0526058 34.4629 0.0517578H34.4701C35.0953 0.0517578 35.6732 0.36723 36.0145 0.896362L40.3622 7.65319C40.542 7.92938 40.6438 8.24899 40.657 8.57825C40.6701 8.90752 40.5941 9.23422 40.4369 9.52386C40.2798 9.8135 40.0473 10.0553 39.7641 10.2238C39.4809 10.3922 39.1574 10.4811 38.8279 10.481H38.2744V16.1437C38.2744 17.0844 37.5087 17.8501 36.568 17.8501L36.5666 17.8515ZM34.4701 1.48715H34.4687C34.4025 1.48651 34.3373 1.50309 34.2795 1.53527C34.2216 1.56745 34.1732 1.61413 34.1389 1.6707L29.7911 8.42897C29.7519 8.49003 29.7301 8.56062 29.7281 8.63314C29.7261 8.70567 29.7439 8.77736 29.7796 8.84051C29.8135 8.90317 29.8639 8.95537 29.9253 8.99151C29.9867 9.02764 30.0568 9.04633 30.1281 9.04557H31.3971C31.5873 9.04557 31.7696 9.12111 31.9041 9.25557C32.0386 9.39003 32.1141 9.57239 32.1141 9.76255V16.1437C32.1141 16.2914 32.2403 16.4161 32.3866 16.4161H36.568C36.7157 16.4161 36.8404 16.2914 36.8404 16.1437V9.76255C36.8404 9.57239 36.916 9.39003 37.0504 9.25557C37.1849 9.12111 37.3673 9.04557 37.5574 9.04557H38.8279C39.0387 9.04557 39.1405 8.90217 39.1749 8.84051C39.2104 8.77704 39.2276 8.70496 39.2246 8.6323C39.2215 8.55964 39.1984 8.48925 39.1577 8.42897L34.8099 1.675C34.774 1.61732 34.7239 1.56978 34.6644 1.5369C34.605 1.50402 34.5381 1.4869 34.4701 1.48715Z" fill="#282828"/>
</svg>
