<svg width="68" height="68" viewBox="0 0 68 68" fill="none" xmlns="http://www.w3.org/2000/svg">
<path d="M58.2967 5.98843V62.0126C58.2967 64.553 56.2318 66.6043 53.7051 66.6043H10.2605C7.72014 66.6043 5.66882 64.553 5.66882 62.0126V5.98843C5.66882 3.44805 7.72014 1.39673 10.2605 1.39673H53.7051C56.2318 1.39673 58.2967 3.44805 58.2967 5.98843Z" fill="#282828"/>
<path d="M53.7049 67.2831H10.2603C7.35315 67.2831 4.98938 64.9193 4.98938 62.0121V5.98798C4.98938 3.08081 7.35315 0.717041 10.2603 0.717041H53.7049C56.612 0.717041 58.9758 3.08081 58.9758 5.98798V62.0121C58.9758 64.9193 56.612 67.2831 53.7049 67.2831ZM10.2603 2.07553C9.22301 2.07661 8.22849 2.48916 7.49499 3.22265C6.7615 3.95615 6.34895 4.95067 6.34787 5.98798V62.0121C6.34895 63.0494 6.7615 64.044 7.49499 64.7775C8.22849 65.511 9.22301 65.9235 10.2603 65.9246H53.7049C54.7422 65.9235 55.7367 65.511 56.4702 64.7775C57.2037 64.044 57.6162 63.0494 57.6173 62.0121V5.98798C57.6162 4.95067 57.2037 3.95615 56.4702 3.22265C55.7367 2.48916 54.7422 2.07661 53.7049 2.07553H10.2603Z" fill="#282828"/>
<path d="M54.2211 5.98843V62.0126C54.2211 64.553 52.1562 66.6043 49.6294 66.6043H6.18484C3.64446 66.6043 1.59314 64.553 1.59314 62.0126V5.98843C1.59314 3.44805 3.64446 1.39673 6.18484 1.39673H49.6294C52.1562 1.39673 54.2211 3.44805 54.2211 5.98843Z" fill="white"/>
<path d="M49.6294 67.2831H6.18488C3.27771 67.2831 0.91394 64.9193 0.91394 62.0121V5.98798C0.91394 3.08081 3.27771 0.717041 6.18488 0.717041H49.6294C52.5366 0.717041 54.9004 3.08081 54.9004 5.98798V62.0121C54.9004 64.9193 52.5366 67.2831 49.6294 67.2831ZM6.18488 2.07553C5.14757 2.07661 4.15305 2.48916 3.41955 3.22265C2.68606 3.95615 2.27351 4.95067 2.27243 5.98798V62.0121C2.27351 63.0494 2.68606 64.044 3.41955 64.7775C4.15305 65.511 5.14757 65.9235 6.18488 65.9246H49.6294C50.6667 65.9235 51.6613 65.511 52.3947 64.7775C53.1282 64.044 53.5408 63.0494 53.5419 62.0121V5.98798C53.5408 4.95067 53.1282 3.95615 52.3947 3.22265C51.6613 2.48916 50.6667 2.07661 49.6294 2.07553H6.18488Z" fill="#282828"/>
<path d="M48.7912 61.8432H34.8666C34.6865 61.8432 34.5137 61.7717 34.3863 61.6443C34.259 61.5169 34.1874 61.3441 34.1874 61.164C34.1874 60.9838 34.259 60.8111 34.3863 60.6837C34.5137 60.5563 34.6865 60.4847 34.8666 60.4847H48.7912C48.9713 60.4847 49.1441 60.5563 49.2715 60.6837C49.3989 60.8111 49.4704 60.9838 49.4704 61.164C49.4704 61.3441 49.3989 61.5169 49.2715 61.6443C49.1441 61.7717 48.9713 61.8432 48.7912 61.8432ZM48.7912 18.5414H15.394C15.2139 18.5414 15.0411 18.4698 14.9137 18.3424C14.7864 18.215 14.7148 18.0423 14.7148 17.8621C14.7148 17.682 14.7864 17.5092 14.9137 17.3818C15.0411 17.2544 15.2139 17.1829 15.394 17.1829H48.7912C48.9713 17.1829 49.1441 17.2544 49.2715 17.3818C49.3989 17.5092 49.4704 17.682 49.4704 17.8621C49.4704 18.0423 49.3989 18.215 49.2715 18.3424C49.1441 18.4698 48.9713 18.5414 48.7912 18.5414ZM12.7912 18.5414H7.03117C6.85103 18.5414 6.67826 18.4698 6.55088 18.3424C6.42349 18.215 6.35193 18.0423 6.35193 17.8621C6.35193 17.682 6.42349 17.5092 6.55088 17.3818C6.67826 17.2544 6.85103 17.1829 7.03117 17.1829H12.7912C12.9713 17.1829 13.1441 17.2544 13.2715 17.3818C13.3989 17.5092 13.4704 17.682 13.4704 17.8621C13.4704 18.0423 13.3989 18.215 13.2715 18.3424C13.1441 18.4698 12.9713 18.5414 12.7912 18.5414ZM48.7912 24.7564H34.8666C34.6865 24.7564 34.5137 24.6849 34.3863 24.5575C34.259 24.4301 34.1874 24.2573 34.1874 24.0772C34.1874 23.8971 34.259 23.7243 34.3863 23.5969C34.5137 23.4695 34.6865 23.398 34.8666 23.398H48.7912C48.9713 23.398 49.1441 23.4695 49.2715 23.5969C49.3989 23.7243 49.4704 23.8971 49.4704 24.0772C49.4704 24.2573 49.3989 24.4301 49.2715 24.5575C49.1441 24.6849 48.9713 24.7564 48.7912 24.7564ZM30.7912 24.7564H7.03117C6.85103 24.7564 6.67826 24.6849 6.55088 24.5575C6.42349 24.4301 6.35193 24.2573 6.35193 24.0772C6.35193 23.8971 6.42349 23.7243 6.55088 23.5969C6.67826 23.4695 6.85103 23.398 7.03117 23.398H30.7912C30.9713 23.398 31.1441 23.4695 31.2715 23.5969C31.3989 23.7243 31.4704 23.8971 31.4704 24.0772C31.4704 24.2573 31.3989 24.4301 31.2715 24.5575C31.1441 24.6849 30.9713 24.7564 30.7912 24.7564ZM48.7912 30.9702H26.262C26.0818 30.9702 25.9091 30.8986 25.7817 30.7712C25.6543 30.6439 25.5827 30.4711 25.5827 30.2909C25.5827 30.1108 25.6543 29.938 25.7817 29.8106C25.9091 29.6833 26.0818 29.6117 26.262 29.6117H48.7912C48.9713 29.6117 49.1441 29.6833 49.2715 29.8106C49.3989 29.938 49.4704 30.1108 49.4704 30.2909C49.4704 30.4711 49.3989 30.6439 49.2715 30.7712C49.1441 30.8986 48.9713 30.9702 48.7912 30.9702ZM23.6591 30.9702H7.03117C6.85103 30.9702 6.67826 30.8986 6.55088 30.7712C6.42349 30.6439 6.35193 30.4711 6.35193 30.2909C6.35193 30.1108 6.42349 29.938 6.55088 29.8106C6.67826 29.6833 6.85103 29.6117 7.03117 29.6117H23.6591C23.8392 29.6117 24.012 29.6833 24.1394 29.8106C24.2668 29.938 24.3383 30.1108 24.3383 30.2909C24.3383 30.4711 24.2668 30.6439 24.1394 30.7712C24.012 30.8986 23.8392 30.9702 23.6591 30.9702ZM48.7912 37.1866H44.4875C44.3073 37.1866 44.1346 37.1151 44.0072 36.9877C43.8798 36.8603 43.8082 36.6875 43.8082 36.5074C43.8082 36.3272 43.8798 36.1545 44.0072 36.0271C44.1346 35.8997 44.3073 35.8281 44.4875 35.8281H48.7898C48.97 35.8281 49.1427 35.8997 49.2701 36.0271C49.3975 36.1545 49.4691 36.3272 49.4691 36.5074C49.4691 36.6875 49.3975 36.8603 49.2701 36.9877C49.1427 37.1151 48.9713 37.1866 48.7912 37.1866ZM42.3383 37.1866H7.03117C6.85103 37.1866 6.67826 37.1151 6.55088 36.9877C6.42349 36.8603 6.35193 36.6875 6.35193 36.5074C6.35193 36.3272 6.42349 36.1545 6.55088 36.0271C6.67826 35.8997 6.85103 35.8281 7.03117 35.8281H42.3383C42.5185 35.8281 42.6913 35.8997 42.8186 36.0271C42.946 36.1545 43.0176 36.3272 43.0176 36.5074C43.0176 36.6875 42.946 36.8603 42.8186 36.9877C42.6913 37.1151 42.5185 37.1866 42.3383 37.1866ZM48.7912 43.4004H33.2799C33.0998 43.4004 32.927 43.3288 32.7996 43.2014C32.6722 43.074 32.6007 42.9013 32.6007 42.7211C32.6007 42.541 32.6722 42.3682 32.7996 42.2408C32.927 42.1134 33.0998 42.0419 33.2799 42.0419H48.7898C48.97 42.0419 49.1427 42.1134 49.2701 42.2408C49.3975 42.3682 49.4691 42.541 49.4691 42.7211C49.4691 42.9013 49.3975 43.074 49.2701 43.2014C49.1427 43.3288 48.9713 43.4004 48.7912 43.4004ZM30.7912 43.4004H7.03117C6.85103 43.4004 6.67826 43.3288 6.55088 43.2014C6.42349 43.074 6.35193 42.9013 6.35193 42.7211C6.35193 42.541 6.42349 42.3682 6.55088 42.2408C6.67826 42.1134 6.85103 42.0419 7.03117 42.0419H30.7912C30.9713 42.0419 31.1441 42.1134 31.2715 42.2408C31.3989 42.3682 31.4704 42.541 31.4704 42.7211C31.4704 42.9013 31.3989 43.074 31.2715 43.2014C31.1441 43.3288 30.9713 43.4004 30.7912 43.4004ZM28.7534 49.6168H7.03117C6.85103 49.6168 6.67826 49.5453 6.55088 49.4179C6.42349 49.2905 6.35193 49.1177 6.35193 48.9376C6.35193 48.7574 6.42349 48.5847 6.55088 48.4573C6.67826 48.3299 6.85103 48.2583 7.03117 48.2583H28.7534C28.9336 48.2583 29.1064 48.3299 29.2337 48.4573C29.3611 48.5847 29.4327 48.7574 29.4327 48.9376C29.4327 49.1177 29.3611 49.2905 29.2337 49.4179C29.1064 49.5453 28.9336 49.6168 28.7534 49.6168Z" fill="#282828"/>
<path d="M41.655 8.44693V11.3269C41.655 12.2235 40.935 12.9435 40.0384 12.9435H15.7758C14.8792 12.9435 14.1592 12.2235 14.1592 11.3269V8.44693C14.1592 7.55032 14.8792 6.83032 15.7758 6.83032H40.0384C40.935 6.83032 41.655 7.55032 41.655 8.44693Z" fill="#86CBE8"/>
<path d="M40.0383 13.6223H15.7757C14.5096 13.6223 13.4799 12.5926 13.4799 11.3265V8.44648C13.4799 7.18173 14.5096 6.15063 15.7757 6.15063H40.0383C41.3045 6.15063 42.3342 7.18173 42.3342 8.44648V11.3265C42.3342 12.5926 41.3045 13.6223 40.0383 13.6223ZM15.7757 7.50913C15.5271 7.50913 15.2887 7.60788 15.1129 7.78367C14.9371 7.95946 14.8383 8.19788 14.8383 8.44648V11.3265C14.8383 11.8522 15.25 12.2638 15.7757 12.2638H40.0383C40.5641 12.2638 40.9757 11.8522 40.9757 11.3265V8.44648C40.9757 8.19788 40.8769 7.95946 40.7012 7.78367C40.5254 7.60788 40.287 7.50913 40.0383 7.50913H15.7757Z" fill="#282828"/>
<path d="M12.7913 61.1642C15.0894 61.1642 16.9524 59.3012 16.9524 57.0031C16.9524 54.705 15.0894 52.842 12.7913 52.842C10.4932 52.842 8.63025 54.705 8.63025 57.0031C8.63025 59.3012 10.4932 61.1642 12.7913 61.1642Z" fill="#86CBE8"/>
<path d="M12.7912 61.8438C10.1232 61.8438 7.95093 59.6729 7.95093 57.0049C7.95093 54.3368 10.1232 52.1646 12.7912 52.1646C15.4593 52.1646 17.6302 54.3354 17.6302 57.0049C17.6302 59.6743 15.4593 61.8438 12.7912 61.8438ZM12.7912 53.523C10.8717 53.523 9.30942 55.0853 9.30942 57.0049C9.30942 58.9244 10.8717 60.4853 12.7912 60.4853C14.7108 60.4853 16.2717 58.923 16.2717 57.0049C16.2717 55.0867 14.7108 53.523 12.7912 53.523Z" fill="#282828"/>
<path d="M12.7912 58.3618C13.5415 58.3618 14.1497 57.7535 14.1497 57.0033C14.1497 56.253 13.5415 55.6448 12.7912 55.6448C12.041 55.6448 11.4327 56.253 11.4327 57.0033C11.4327 57.7535 12.041 58.3618 12.7912 58.3618Z" fill="#282828"/>
<path d="M41.9252 61.8494C41.822 61.8494 41.7513 61.8399 41.7146 61.8359C41.5585 61.809 41.4166 61.7285 41.3134 61.6082C41.2102 61.4879 41.1523 61.3354 41.1495 61.177C41.1495 61.1457 41.0463 58.1435 39.4242 57.6544C39.2014 57.5865 39.0805 57.6381 38.9881 57.706C38.3442 58.1598 37.9774 60.0209 37.9217 61.1974C37.9133 61.3773 37.8336 61.5466 37.7004 61.6678C37.5672 61.7891 37.3912 61.8525 37.2112 61.844C37.0313 61.8355 36.862 61.7559 36.7408 61.6227C36.6195 61.4894 36.5561 61.3135 36.5646 61.1335C36.5918 60.5494 36.801 57.5879 38.2029 56.5962C38.6784 56.262 39.2367 56.1791 39.8182 56.3544C41.7309 56.9331 42.2838 59.1773 42.4441 60.3836C43.334 60.0657 45.369 58.8431 48.2096 54.1346C48.2541 54.0552 48.3141 53.9855 48.386 53.9298C48.4579 53.874 48.5403 53.8333 48.6283 53.81C48.7163 53.7867 48.8081 53.7813 48.8982 53.7942C48.9883 53.807 49.0749 53.8379 49.1528 53.8849C49.2308 53.9319 49.2985 53.994 49.3519 54.0677C49.4054 54.1414 49.4435 54.225 49.464 54.3137C49.4844 54.4024 49.4869 54.4943 49.4712 54.5839C49.4555 54.6736 49.4219 54.7591 49.3724 54.8356C45.4654 61.3128 42.724 61.8494 41.9252 61.8494Z" fill="#282828"/>
<path d="M50.5819 48.886L48.7792 54.4843L50.5819 48.886Z" fill="white"/>
<path d="M48.7803 55.1653C48.6733 55.1653 48.5678 55.1401 48.4724 55.0915C48.377 55.043 48.2945 54.9727 48.2314 54.8862C48.1684 54.7997 48.1267 54.6996 48.1097 54.5939C48.0927 54.4883 48.1009 54.3801 48.1337 54.2782L49.9337 48.6786C49.9604 48.593 50.0039 48.5136 50.0615 48.4449C50.1191 48.3762 50.1897 48.3196 50.2693 48.2784C50.3489 48.2371 50.4358 48.212 50.5252 48.2045C50.6145 48.197 50.7044 48.2073 50.7898 48.2347C50.8751 48.2622 50.9542 48.3062 51.0224 48.3643C51.0906 48.4225 51.1467 48.4936 51.1873 48.5735C51.228 48.6534 51.2524 48.7405 51.2592 48.8299C51.266 48.9193 51.255 49.0091 51.2269 49.0942L49.4256 54.6926C49.3816 54.8295 49.2953 54.9489 49.179 55.0336C49.0628 55.1183 48.9227 55.164 48.7789 55.164L48.7803 55.1653Z" fill="#282828"/>
<path d="M66.2953 7.71054L65.0143 11.6896C64.9197 11.982 64.7684 12.2529 64.569 12.4868C64.3695 12.7207 64.1259 12.9129 63.8521 13.0525C63.5782 13.192 63.2795 13.2762 62.9731 13.3002C62.6667 13.3241 62.3586 13.2874 62.0664 13.1921C61.7738 13.0992 61.5026 12.9494 61.2682 12.7513C61.0338 12.5531 60.841 12.3105 60.7008 12.0375C60.5607 11.7645 60.4759 11.4664 60.4515 11.1605C60.427 10.8546 60.4634 10.5468 60.5584 10.255L61.8395 6.27598C61.9326 5.98296 62.0826 5.71118 62.2809 5.47623C62.4792 5.24128 62.7219 5.04778 62.9951 4.90681C63.2683 4.76585 63.5667 4.68019 63.8731 4.65474C64.1795 4.6293 64.4879 4.66457 64.7806 4.75854C65.396 4.95688 65.8728 5.3916 66.1527 5.9187C66.4176 6.45394 66.4923 7.09379 66.2953 7.7119V7.71054Z" fill="#F2F2F2"/>
<path d="M62.7864 13.9864C62.3112 13.9861 61.8428 13.8736 61.4192 13.6582C60.9957 13.4427 60.6289 13.1304 60.3488 12.7465C60.0687 12.3626 59.8831 11.918 59.8072 11.4489C59.7313 10.9798 59.7672 10.4994 59.9119 10.0467L61.1929 6.06771C61.3131 5.68984 61.5068 5.33942 61.7627 5.03653C62.0186 4.73363 62.3318 4.48423 62.6843 4.30262C63.0368 4.12101 63.4216 4.01076 63.8168 3.9782C64.212 3.94563 64.6097 3.99139 64.9872 4.11284C65.7452 4.35737 66.3729 4.88718 66.7519 5.60175C67.1166 6.32002 67.1844 7.15287 66.9407 7.92069L65.6597 11.8984C65.4627 12.5059 65.0782 13.0354 64.5615 13.4107C64.0448 13.7861 63.4224 13.9881 62.7837 13.9877L62.7864 13.9864ZM64.0634 5.32462C63.7117 5.32669 63.3697 5.44005 63.0863 5.64846C62.803 5.85687 62.5929 6.14962 62.4862 6.48477L61.2052 10.4624C60.9212 11.3454 61.3899 12.2611 62.2743 12.5464C62.693 12.6814 63.1481 12.6452 63.5401 12.4456C63.9322 12.246 64.2292 11.8993 64.3664 11.4813L65.6488 7.50228C65.7833 7.08386 65.7452 6.62877 65.5428 6.21986C65.3998 5.95109 65.1868 5.72592 64.9264 5.56811C64.6661 5.4103 64.3679 5.32571 64.0634 5.32326V5.32462Z" fill="#282828"/>
<path d="M66.1595 12.7968L55.2441 46.7074L48.0658 44.3966L58.9826 10.4846C59.2118 9.77939 59.7108 9.1935 60.3706 8.85496C61.0303 8.51642 61.7973 8.45274 62.5038 8.67785L64.3419 9.27015C65.0499 9.49737 65.6388 9.99611 65.9796 10.657C66.3203 11.3179 66.385 12.0869 66.1595 12.7954V12.7968Z" fill="#86CBE8"/>
<path d="M55.244 47.3864C55.1733 47.3863 55.1031 47.3748 55.0361 47.3524L47.8565 45.0416C47.685 44.9865 47.5424 44.8655 47.4601 44.7053C47.3779 44.545 47.3626 44.3586 47.4177 44.1871L58.3345 10.2792C58.4738 9.84406 58.698 9.44086 58.9941 9.09294C59.2903 8.74503 59.6525 8.45932 60.0598 8.25234C60.4651 8.04223 60.9081 7.9147 61.3631 7.87716C61.8181 7.83961 62.276 7.8928 62.7102 8.03363L64.5483 8.62457C65.434 8.90985 66.1581 9.52253 66.5847 10.3499C67.0112 11.1772 67.0887 12.1213 66.8047 13.0043L55.8893 46.915C55.8451 47.0518 55.7587 47.1711 55.6425 47.2558C55.5264 47.3404 55.3877 47.3862 55.244 47.3864ZM48.9216 43.9576L54.8052 45.8526L65.5128 12.5873C65.5982 12.3227 65.6301 12.0438 65.6068 11.7667C65.5835 11.4897 65.5054 11.22 65.377 10.9734C65.2496 10.724 65.0743 10.5023 64.861 10.3209C64.6476 10.1395 64.4006 10.0021 64.1339 9.91649L62.2945 9.32555C62.0299 9.24054 61.751 9.20878 61.474 9.2321C61.197 9.25542 60.9274 9.33335 60.6807 9.4614C60.1753 9.71951 59.8017 10.1583 59.6292 10.6949L48.9216 43.9576Z" fill="#282828"/>
<path d="M48.5725 51.5326C46.1027 47.9326 48.0657 44.3965 48.0657 44.3965L55.244 46.7059C55.244 46.7059 54.7753 50.7271 50.6577 52.2064C49.9011 52.4781 49.0275 52.1956 48.5725 51.5326Z" fill="#F2F2F2"/>
<path d="M50.0709 52.9864C49.268 52.9864 48.4774 52.5965 48.0128 51.9172C45.3352 48.0143 47.3838 44.2255 47.4721 44.0652C47.5479 43.9273 47.6695 43.8204 47.8159 43.7628C47.9623 43.7052 48.1242 43.7007 48.2736 43.75L55.4519 46.0594C55.6017 46.1075 55.7303 46.2061 55.8155 46.3384C55.9008 46.4707 55.9374 46.6285 55.9192 46.7849C55.8974 46.9669 55.35 51.2407 50.8873 52.8451C50.6224 52.9402 50.3453 52.9864 50.0709 52.9864ZM48.4353 45.2294C48.0427 46.2523 47.4327 48.6718 49.1322 51.1483C49.4147 51.56 49.9608 51.7393 50.4282 51.5667C53.2606 50.5479 54.1803 48.2276 54.4574 47.1666L48.4353 45.2294Z" fill="#282828"/>
<path d="M60.8072 17.1204L54.7225 36.0238L60.8072 17.1204Z" fill="white"/>
<path d="M54.7224 36.7036C54.6154 36.7036 54.5099 36.6783 54.4146 36.6298C54.3192 36.5813 54.2366 36.5109 54.1736 36.4244C54.1105 36.3379 54.0688 36.2378 54.0518 36.1322C54.0348 36.0265 54.0431 35.9183 54.0758 35.8165L60.1618 16.9117C60.1867 16.8238 60.229 16.7419 60.2862 16.6708C60.3434 16.5996 60.4144 16.5407 60.4949 16.4976C60.5754 16.4546 60.6637 16.4281 60.7547 16.42C60.8456 16.4118 60.9372 16.422 61.0241 16.4501C61.111 16.4781 61.1914 16.5234 61.2603 16.5832C61.3293 16.643 61.3856 16.7161 61.4257 16.7981C61.4658 16.8801 61.4889 16.9694 61.4938 17.0606C61.4986 17.1518 61.485 17.243 61.4538 17.3288L55.3677 36.2335C55.3236 36.3699 55.2373 36.4889 55.1214 36.5733C55.0055 36.6578 54.8658 36.7034 54.7224 36.7036Z" fill="#282828"/>
</svg>
