<svg width="616" height="96" viewBox="0 0 616 96" fill="none" xmlns="http://www.w3.org/2000/svg">
<path d="M0.5 48L20.5 59.547V36.453L0.5 48ZM614 50C615.105 50 616 49.1046 616 48C616 46.8954 615.105 46 614 46V50ZM6.39904 50C7.50361 50 8.39904 49.1046 8.39904 48C8.39904 46.8954 7.50361 46 6.39904 46V50ZM18.1971 46C17.0925 46 16.1971 46.8954 16.1971 48C16.1971 49.1046 17.0925 50 18.1971 50V46ZM29.9952 50C31.0998 50 31.9952 49.1046 31.9952 48C31.9952 46.8954 31.0998 46 29.9952 46V50ZM41.7933 46C40.6887 46 39.7933 46.8954 39.7933 48C39.7933 49.1046 40.6887 50 41.7933 50V46ZM53.5913 50C54.6959 50 55.5913 49.1046 55.5913 48C55.5913 46.8954 54.6959 46 53.5913 46V50ZM65.3894 46C64.2849 46 63.3894 46.8954 63.3894 48C63.3894 49.1046 64.2849 50 65.3894 50V46ZM77.1875 50C78.2921 50 79.1875 49.1046 79.1875 48C79.1875 46.8954 78.2921 46 77.1875 46V50ZM88.9856 46C87.881 46 86.9856 46.8954 86.9856 48C86.9856 49.1046 87.881 50 88.9856 50V46ZM100.784 50C101.888 50 102.784 49.1046 102.784 48C102.784 46.8954 101.888 46 100.784 46V50ZM112.582 46C111.477 46 110.582 46.8954 110.582 48C110.582 49.1046 111.477 50 112.582 50V46ZM124.38 50C125.484 50 126.38 49.1046 126.38 48C126.38 46.8954 125.484 46 124.38 46V50ZM136.178 46C135.073 46 134.178 46.8954 134.178 48C134.178 49.1046 135.073 50 136.178 50V46ZM147.976 50C149.081 50 149.976 49.1046 149.976 48C149.976 46.8954 149.081 46 147.976 46V50ZM159.774 46C158.669 46 157.774 46.8954 157.774 48C157.774 49.1046 158.669 50 159.774 50V46ZM171.572 50C172.677 50 173.572 49.1046 173.572 48C173.572 46.8954 172.677 46 171.572 46V50ZM183.37 46C182.266 46 181.37 46.8954 181.37 48C181.37 49.1046 182.266 50 183.37 50V46ZM195.168 50C196.273 50 197.168 49.1046 197.168 48C197.168 46.8954 196.273 46 195.168 46V50ZM206.966 46C205.862 46 204.966 46.8954 204.966 48C204.966 49.1046 205.862 50 206.966 50V46ZM218.764 50C219.869 50 220.764 49.1046 220.764 48C220.764 46.8954 219.869 46 218.764 46V50ZM230.563 46C229.458 46 228.563 46.8954 228.563 48C228.563 49.1046 229.458 50 230.563 50V46ZM242.361 50C243.465 50 244.361 49.1046 244.361 48C244.361 46.8954 243.465 46 242.361 46V50ZM254.159 46C253.054 46 252.159 46.8954 252.159 48C252.159 49.1046 253.054 50 254.159 50V46ZM265.957 50C267.061 50 267.957 49.1046 267.957 48C267.957 46.8954 267.061 46 265.957 46V50ZM277.755 46C276.65 46 275.755 46.8954 275.755 48C275.755 49.1046 276.65 50 277.755 50V46ZM289.553 50C290.657 50 291.553 49.1046 291.553 48C291.553 46.8954 290.657 46 289.553 46V50ZM301.351 46C300.246 46 299.351 46.8954 299.351 48C299.351 49.1046 300.246 50 301.351 50V46ZM313.149 50C314.254 50 315.149 49.1046 315.149 48C315.149 46.8954 314.254 46 313.149 46V50ZM324.947 46C323.843 46 322.947 46.8954 322.947 48C322.947 49.1046 323.843 50 324.947 50V46ZM336.745 50C337.85 50 338.745 49.1046 338.745 48C338.745 46.8954 337.85 46 336.745 46V50ZM348.543 46C347.439 46 346.543 46.8954 346.543 48C346.543 49.1046 347.439 50 348.543 50V46ZM360.341 50C361.446 50 362.341 49.1046 362.341 48C362.341 46.8954 361.446 46 360.341 46V50ZM372.139 46C371.035 46 370.139 46.8954 370.139 48C370.139 49.1046 371.035 50 372.139 50V46ZM383.937 50C385.042 50 385.937 49.1046 385.937 48C385.937 46.8954 385.042 46 383.937 46V50ZM395.736 46C394.631 46 393.736 46.8954 393.736 48C393.736 49.1046 394.631 50 395.736 50V46ZM407.534 50C408.638 50 409.534 49.1046 409.534 48C409.534 46.8954 408.638 46 407.534 46V50ZM419.332 46C418.227 46 417.332 46.8954 417.332 48C417.332 49.1046 418.227 50 419.332 50V46ZM431.13 50C432.234 50 433.13 49.1046 433.13 48C433.13 46.8954 432.234 46 431.13 46V50ZM442.928 46C441.823 46 440.928 46.8954 440.928 48C440.928 49.1046 441.823 50 442.928 50V46ZM454.726 50C455.83 50 456.726 49.1046 456.726 48C456.726 46.8954 455.83 46 454.726 46V50ZM466.524 46C465.419 46 464.524 46.8954 464.524 48C464.524 49.1046 465.419 50 466.524 50V46ZM478.322 50C479.427 50 480.322 49.1046 480.322 48C480.322 46.8954 479.427 46 478.322 46V50ZM490.12 46C489.015 46 488.12 46.8954 488.12 48C488.12 49.1046 489.015 50 490.12 50V46ZM501.918 50C503.023 50 503.918 49.1046 503.918 48C503.918 46.8954 503.023 46 501.918 46V50ZM513.716 46C512.612 46 511.716 46.8954 511.716 48C511.716 49.1046 512.612 50 513.716 50V46ZM525.514 50C526.619 50 527.514 49.1046 527.514 48C527.514 46.8954 526.619 46 525.514 46V50ZM537.312 46C536.208 46 535.312 46.8954 535.312 48C535.312 49.1046 536.208 50 537.312 50V46ZM549.11 50C550.215 50 551.11 49.1046 551.11 48C551.11 46.8954 550.215 46 549.11 46V50ZM560.909 46C559.804 46 558.909 46.8954 558.909 48C558.909 49.1046 559.804 50 560.909 50V46ZM572.707 50C573.811 50 574.707 49.1046 574.707 48C574.707 46.8954 573.811 46 572.707 46V50ZM584.505 46C583.4 46 582.505 46.8954 582.505 48C582.505 49.1046 583.4 50 584.505 50V46ZM596.303 50C597.407 50 598.303 49.1046 598.303 48C598.303 46.8954 597.407 46 596.303 46V50ZM608.101 46C606.996 46 606.101 46.8954 606.101 48C606.101 49.1046 606.996 50 608.101 50V46ZM18.1971 50H29.9952V46H18.1971V50ZM41.7933 50H53.5913V46H41.7933V50ZM65.3894 50H77.1875V46H65.3894V50ZM88.9856 50H100.784V46H88.9856V50ZM112.582 50H124.38V46H112.582V50ZM136.178 50H147.976V46H136.178V50ZM159.774 50H171.572V46H159.774V50ZM183.37 50H195.168V46H183.37V50ZM206.966 50H218.764V46H206.966V50ZM230.563 50H242.361V46H230.563V50ZM254.159 50H265.957V46H254.159V50ZM277.755 50H289.553V46H277.755V50ZM301.351 50H313.149V46H301.351V50ZM324.947 50H336.745V46H324.947V50ZM348.543 50H360.341V46H348.543V50ZM372.139 50H383.937V46H372.139V50ZM395.736 50H407.534V46H395.736V50ZM419.332 50H431.13V46H419.332V50ZM442.928 50H454.726V46H442.928V50ZM466.524 50H478.322V46H466.524V50ZM490.12 50H501.918V46H490.12V50ZM513.716 50H525.514V46H513.716V50ZM537.312 50H549.11V46H537.312V50ZM560.909 50H572.707V46H560.909V50ZM584.505 50H596.303V46H584.505V50ZM608.101 50H614V46H608.101V50Z" fill="#86CBE8"/>
</svg>
