<svg width="200" height="56" viewBox="0 0 200 56" fill="none" xmlns="http://www.w3.org/2000/svg">
<g clip-path="url(#clip0_564_13394)">
<path d="M158.746 17.1618L166.144 11.6328H141.369V44.7561H166.144V39.2225H148.446V30.7684H163.572V25.2394H148.446V17.1618H158.746Z" fill="#21A038"/>
<path d="M122.651 24.5322H114.068V17.1618H127.799L135.202 11.6328H106.992V44.7561H121.737C129.999 44.7561 134.77 40.9584 134.77 34.3457C134.77 28.0039 130.481 24.5322 122.651 24.5322ZM121.471 39.2225H114.068V30.0612H121.471C125.976 30.0612 128.065 31.5812 128.065 34.6717C128.065 37.7622 125.815 39.2225 121.471 39.2225Z" fill="#21A038"/>
<path d="M186.203 11.6328H172.743V44.7561H179.82V35.3743H186.258C194.836 35.3743 200.2 30.8235 200.2 23.5036C200.2 16.1836 194.836 11.6328 186.203 11.6328ZM186.042 29.8453H179.769V17.1618H186.042C190.602 17.1618 193.068 19.4395 193.068 23.5036C193.068 27.5676 190.602 29.8453 186.042 29.8453Z" fill="#21A038"/>
<path d="M94.8694 37.5996C92.9958 38.6328 90.9018 39.1747 88.7572 39.1747C82.3741 39.1747 77.7636 34.5642 77.7636 28.2224C77.7636 21.8806 82.3741 17.2701 88.7572 17.2701C91.0625 17.2196 93.3173 17.9773 95.1909 19.3319L100.288 15.5388L99.9667 15.2128C97.0186 12.5539 93.0463 11.1992 88.5414 11.1992C83.6645 11.1992 79.2101 12.88 75.9956 15.9154C72.7765 19.061 70.9534 23.4511 71.059 28.0065C71.0039 32.6125 72.7765 37.0577 75.9956 40.309C79.3709 43.5097 83.8758 45.3006 88.4909 45.1904C93.5836 45.1904 98.0334 43.3995 101.037 40.1482L96.4813 36.7317L94.8694 37.5996Z" fill="#21A038"/>
<path d="M48.9112 11.418C50.197 13.0987 51.2716 14.9402 52.1808 16.8918L27.4061 35.3753L17.0002 28.7626V20.8503L27.351 27.4079L48.9112 11.418Z" fill="#21A038"/>
<path d="M6.43354 28.2223C6.43354 27.8411 6.43354 27.5197 6.48865 27.1385L0.215751 26.8125C0.215751 27.2488 0.160645 27.7355 0.160645 28.1672C0.160645 35.758 3.21903 42.6417 8.15101 47.6288L12.6008 43.1285C8.79392 39.3353 6.43354 34.0773 6.43354 28.2223Z" fill="url(#paint0_linear_564_13394)"/>
<path d="M27.3507 7.07811C27.7273 7.07811 28.0487 7.07811 28.4253 7.13322L28.7467 0.791433C28.3151 0.791433 27.8329 0.736328 27.4058 0.736328C19.8976 0.736328 13.0875 3.82686 8.15088 8.81395L12.6007 13.3143C16.3571 9.46604 21.6105 7.07811 27.3507 7.07811Z" fill="url(#paint1_linear_564_13394)"/>
<path d="M27.3506 49.3651C26.9741 49.3651 26.6526 49.3651 26.276 49.31L25.9546 55.6517C26.3863 55.6517 26.8684 55.7069 27.2955 55.7069C34.8037 55.7069 41.6185 52.6163 46.5505 47.6292L42.1006 43.1289C38.3443 47.0322 33.1413 49.3651 27.3506 49.3651Z" fill="url(#paint2_linear_564_13394)"/>
<path d="M39.148 10.766L44.4565 6.80759C39.7909 3.01446 33.8394 0.681641 27.3507 0.681641V7.02342C31.75 7.07853 35.8233 8.43322 39.148 10.766Z" fill="url(#paint3_linear_564_13394)"/>
<path d="M54.5961 28.221C54.5961 26.5403 54.4354 24.9147 54.1645 23.2891L48.3186 27.6792C48.3186 27.8399 48.3186 28.0603 48.3186 28.221C48.3186 34.4572 45.6368 40.0413 41.4028 43.8895L45.6368 48.6057C51.1107 43.6186 54.5961 36.2987 54.5961 28.221Z" fill="#21A038"/>
<path d="M27.3507 49.363C21.1834 49.363 15.6591 46.6536 11.8522 42.3691L7.18652 46.6536C12.1736 52.2377 19.3604 55.7048 27.3507 55.7048V49.363Z" fill="url(#paint4_linear_564_13394)"/>
<path d="M13.3539 12.5521L9.11537 7.83594C3.59099 12.8781 0.160645 20.1429 0.160645 28.2206H6.43354C6.43354 22.0395 9.11537 16.4049 13.3539 12.5521Z" fill="url(#paint5_linear_564_13394)"/>
</g>
<defs>
<linearGradient id="paint0_linear_564_13394" x1="7.48208" y1="46.8577" x2="1.03956" y2="28.1507" gradientUnits="userSpaceOnUse">
<stop offset="0.1444" stop-color="#F2E913"/>
<stop offset="0.3037" stop-color="#E7E518"/>
<stop offset="0.5823" stop-color="#CADB26"/>
<stop offset="0.891" stop-color="#A3CD39"/>
</linearGradient>
<linearGradient id="paint1_linear_564_13394" x1="9.94013" y1="8.09804" x2="26.2182" y2="1.86666" gradientUnits="userSpaceOnUse">
<stop offset="0.0592" stop-color="#0FA8E0"/>
<stop offset="0.5385" stop-color="#0099F9"/>
<stop offset="0.9234" stop-color="#0291EB"/>
</linearGradient>
<linearGradient id="paint2_linear_564_13394" x1="25.5881" y1="50.313" x2="44.9844" y2="45.9096" gradientUnits="userSpaceOnUse">
<stop offset="0.1226" stop-color="#A3CD39"/>
<stop offset="0.2846" stop-color="#86C339"/>
<stop offset="0.8693" stop-color="#21A038"/>
</linearGradient>
<linearGradient id="paint3_linear_564_13394" x1="26.0618" y1="4.72247" x2="42.1923" y2="9.72206" gradientUnits="userSpaceOnUse">
<stop offset="0.0566" stop-color="#0291EB"/>
<stop offset="0.79" stop-color="#0C8ACB"/>
</linearGradient>
<linearGradient id="paint4_linear_564_13394" x1="8.78163" y1="47.6569" x2="26.1115" y2="54.1614" gradientUnits="userSpaceOnUse">
<stop offset="0.1324" stop-color="#F2E913"/>
<stop offset="0.2977" stop-color="#EBE716"/>
<stop offset="0.5306" stop-color="#D9E01F"/>
<stop offset="0.8023" stop-color="#BBD62D"/>
<stop offset="0.9829" stop-color="#A3CD39"/>
</linearGradient>
<linearGradient id="paint5_linear_564_13394" x1="4.96861" y1="28.9869" x2="11.9326" y2="10.7888" gradientUnits="userSpaceOnUse">
<stop offset="0.0698" stop-color="#A3CD39"/>
<stop offset="0.2599" stop-color="#81C55F"/>
<stop offset="0.9216" stop-color="#0FA8E0"/>
</linearGradient>
<clipPath id="clip0_564_13394">
<rect width="200" height="56" fill="white"/>
</clipPath>
</defs>
</svg>
