<svg width="600" height="600" viewBox="0 0 600 600" fill="none" xmlns="http://www.w3.org/2000/svg">
<path d="M15.6003 510H570" stroke="#282828" stroke-width="1.2" stroke-linecap="round" stroke-linejoin="round"/>
<path d="M527.123 65.34C527.123 65.004 527.123 64.68 527.123 64.332C527.129 59.0298 525.212 53.9054 521.729 49.9079C518.246 45.9104 513.432 43.3106 508.179 42.5901C502.926 41.8696 497.59 43.0772 493.159 45.9892C488.728 48.9012 485.502 53.3203 484.079 58.428C480.651 58.7798 477.474 60.3877 475.16 62.9421C472.847 65.4964 471.56 68.8165 471.548 72.2628C471.536 75.7092 472.8 79.0381 475.096 81.6084C477.392 84.1786 480.558 85.8085 483.983 86.184V86.268H526.907C529.683 86.2903 532.353 85.2092 534.331 83.2626C536.309 81.3159 537.433 78.6632 537.455 75.888C537.478 73.1128 536.397 70.4424 534.45 68.4642C532.503 66.4861 529.851 65.3623 527.075 65.34H527.123Z" fill="white" stroke="#282828" stroke-width="1.2" stroke-linecap="round" stroke-linejoin="round"/>
<path d="M516.767 81.8991L503.795 64.3311L490.823 81.8991H495.887V90.5511H511.703V81.8991H516.767Z" fill="#282828" stroke="#282828" stroke-width="1.2" stroke-linecap="round" stroke-linejoin="round"/>
<path d="M89.9043 127.932H84.8883C84.3715 125.771 83.4996 123.711 82.3083 121.836L85.9923 118.14C86.85 117.282 87.3318 116.119 87.3318 114.906C87.3318 113.693 86.85 112.529 85.9923 111.672C85.1346 110.814 83.9713 110.332 82.7583 110.332C81.5453 110.332 80.382 110.814 79.5243 111.672L75.7923 115.404C73.93 114.295 71.9054 113.485 69.7923 113.004V107.508C69.7322 106.334 69.2236 105.228 68.3717 104.419C67.5197 103.61 66.3894 103.158 65.2143 103.158C64.0391 103.158 62.9088 103.61 62.0569 104.419C61.2049 105.228 60.6964 106.334 60.6363 107.508V112.968C58.5688 113.451 56.5919 114.261 54.7803 115.368L50.8443 111.432C49.9847 110.573 48.8193 110.09 47.6043 110.09C46.3892 110.09 45.2238 110.573 44.3643 111.432C43.512 112.292 43.0339 113.455 43.0339 114.666C43.0339 115.877 43.512 117.039 44.3643 117.9L48.2283 121.752C47.0727 123.548 46.2099 125.517 45.6723 127.584H40.2603C39.0445 127.584 37.8786 128.067 37.0189 128.926C36.1592 129.786 35.6763 130.952 35.6763 132.168C35.6794 133.381 36.1638 134.544 37.0231 135.401C37.8824 136.258 39.0466 136.74 40.2603 136.74H45.5043C45.9615 138.891 46.7725 140.951 47.9043 142.836L44.1603 146.52C43.3026 147.377 42.8207 148.541 42.8207 149.754C42.8207 150.967 43.3026 152.13 44.1603 152.988C45.018 153.845 46.1813 154.327 47.3943 154.327C48.6073 154.327 49.7706 153.845 50.6283 152.988L54.1563 149.472C56.0458 150.715 58.1308 151.632 60.3243 152.184V157.2C60.2925 157.821 60.3873 158.442 60.603 159.025C60.8187 159.608 61.1508 160.141 61.579 160.592C62.0073 161.042 62.5227 161.401 63.094 161.646C63.6653 161.892 64.2805 162.018 64.9023 162.018C65.524 162.018 66.1392 161.892 66.7105 161.646C67.2818 161.401 67.7973 161.042 68.2255 160.592C68.6537 160.141 68.9858 159.608 69.2015 159.025C69.4172 158.442 69.5121 157.821 69.4803 157.2V152.4C71.7268 151.923 73.8743 151.062 75.8283 149.856L79.2723 153.3C79.6969 153.725 80.201 154.062 80.7559 154.292C81.3108 154.522 81.9056 154.64 82.5063 154.64C83.1069 154.64 83.7017 154.522 84.2566 154.292C84.8115 154.062 85.3157 153.725 85.7403 153.3C86.5991 152.44 87.0815 151.275 87.0815 150.06C87.0815 148.845 86.5991 147.679 85.7403 146.82L82.3323 143.412C83.5495 141.482 84.4301 139.36 84.9363 137.136H89.9043C91.0779 137.076 92.1836 136.567 92.993 135.715C93.8025 134.863 94.2538 133.733 94.2538 132.558C94.2538 131.383 93.8025 130.252 92.993 129.4C92.1836 128.548 91.0779 128.04 89.9043 127.98V127.932ZM65.2563 143.532C63.0889 143.532 60.9702 142.889 59.1682 141.684C57.3662 140.48 55.962 138.768 55.1331 136.766C54.3042 134.763 54.088 132.559 54.5117 130.434C54.9354 128.308 55.98 126.356 57.5135 124.824C59.0469 123.293 61.0002 122.25 63.1262 121.829C65.2523 121.407 67.4555 121.626 69.4573 122.457C71.459 123.288 73.1693 124.694 74.3717 126.498C75.5741 128.301 76.2146 130.42 76.2123 132.588C76.217 134.029 75.937 135.457 75.3884 136.79C74.8398 138.122 74.0334 139.334 73.0154 140.354C71.9974 141.374 70.7879 142.183 69.4564 142.735C68.1249 143.286 66.6975 143.569 65.2563 143.568V143.532Z" fill="#86CBE8" stroke="#282828" stroke-width="1.2" stroke-linecap="round" stroke-linejoin="round"/>
<path d="M120.168 82.0431H115.2C114.683 79.8823 113.811 77.8223 112.62 75.9471L116.316 72.2511C117.173 71.3918 117.655 70.2269 117.654 69.0128C117.652 67.7987 117.169 66.6348 116.31 65.7771C115.45 64.9194 114.286 64.4381 113.072 64.4393C111.857 64.4404 110.693 64.9238 109.836 65.7831L106.104 69.5151C104.244 68.4014 102.219 67.5912 100.104 67.1151V61.6191C100.044 60.4454 99.5351 59.3397 98.6831 58.5303C97.8312 57.7209 96.7009 57.2695 95.5258 57.2695C94.3506 57.2695 93.2203 57.7209 92.3684 58.5303C91.5164 59.3397 91.0079 60.4454 90.9478 61.6191V67.0791C88.8803 67.5619 86.9034 68.3721 85.0918 69.4791L81.1558 65.5431C80.7312 65.1182 80.227 64.7811 79.6721 64.5512C79.1172 64.3212 78.5224 64.2029 77.9218 64.2029C77.3211 64.2029 76.7263 64.3212 76.1714 64.5512C75.6165 64.7811 75.1123 65.1182 74.6878 65.5431C74.2629 65.9677 73.9258 66.4718 73.6959 67.0267C73.4659 67.5816 73.3475 68.1764 73.3475 68.7771C73.3475 69.3777 73.4659 69.9725 73.6959 70.5274C73.9258 71.0823 74.2629 71.5865 74.6878 72.0111L78.5398 75.8631C77.3842 77.6594 76.5214 79.6279 75.9838 81.6951H70.5238C69.3205 81.7108 68.1717 82.1991 67.3253 83.0544C66.4789 83.9098 66.0028 85.0637 65.9998 86.2671C66.0029 87.4807 66.4873 88.6436 67.3466 89.5007C68.2059 90.3578 69.3701 90.8391 70.5838 90.8391H75.8278C76.2902 92.9883 77.1009 95.0474 78.2278 96.9351L74.3998 100.631C73.9751 101.057 73.6383 101.562 73.4088 102.117C73.1792 102.673 73.0614 103.268 73.0619 103.869C73.0625 104.47 73.1815 105.066 73.412 105.621C73.6426 106.176 73.9803 106.68 74.4058 107.105C74.8312 107.53 75.3362 107.866 75.8918 108.096C76.4474 108.326 77.0428 108.443 77.644 108.443C78.2452 108.442 78.8403 108.323 79.3955 108.093C79.9507 107.862 80.4551 107.525 80.8798 107.099L84.4078 103.583C86.2918 104.828 88.3733 105.745 90.5638 106.295V111.263C90.532 111.884 90.6268 112.505 90.8425 113.088C91.0582 113.671 91.3903 114.204 91.8185 114.655C92.2467 115.106 92.7622 115.465 93.3335 115.71C93.9048 115.955 94.52 116.082 95.1418 116.082C95.7635 116.082 96.3787 115.955 96.95 115.71C97.5213 115.465 98.0368 115.106 98.465 114.655C98.8932 114.204 99.2253 113.671 99.441 113.088C99.6567 112.505 99.7516 111.884 99.7198 111.263V106.463C101.967 105.989 104.115 105.128 106.068 103.919L109.512 107.363C109.936 107.788 110.44 108.125 110.995 108.355C111.55 108.585 112.145 108.703 112.746 108.703C113.346 108.703 113.941 108.585 114.496 108.355C115.051 108.125 115.555 107.788 115.98 107.363C116.839 106.504 117.321 105.338 117.321 104.123C117.321 102.908 116.839 101.743 115.98 100.883L112.572 97.4751C113.797 95.5473 114.686 93.425 115.2 91.1991H120.168C121.341 91.139 122.447 90.6304 123.257 89.7785C124.066 88.9265 124.517 87.7962 124.517 86.6211C124.517 85.4459 124.066 84.3156 123.257 83.4637C122.447 82.6117 121.341 82.1032 120.168 82.0431ZM95.5318 97.6431C93.3638 97.6454 91.244 97.0046 89.4404 95.8017C87.6369 94.5987 86.2308 92.8877 85.4 90.8853C84.5693 88.8829 84.3513 86.679 84.7737 84.5526C85.1961 82.4262 86.2398 80.473 87.7727 78.94C89.3056 77.4071 91.2589 76.3634 93.3853 75.941C95.5117 75.5187 97.7155 75.7366 99.718 76.5673C101.72 77.3981 103.431 78.8042 104.634 80.6077C105.837 82.4113 106.478 84.5312 106.476 86.6991C106.48 88.1393 106.201 89.5663 105.653 90.8982C105.105 92.2302 104.3 93.4409 103.283 94.4609C102.266 95.481 101.058 96.2903 99.7282 96.8426C98.398 97.3948 96.972 97.6791 95.5318 97.6791V97.6431Z" stroke="#282828" stroke-width="1.2" stroke-linecap="round" stroke-linejoin="round"/>
<path d="M22.4046 258.217H66.9846C67.9394 258.217 68.855 258.596 69.5302 259.271C70.2053 259.946 70.5846 260.862 70.5846 261.817V314.281C70.5846 315.996 69.9031 317.641 68.6901 318.854C67.4772 320.067 65.832 320.749 64.1166 320.749H25.3086C23.5932 320.749 21.948 320.067 20.735 318.854C19.522 317.641 18.8406 315.996 18.8406 314.281V261.781C18.85 260.838 19.2285 259.937 19.8948 259.271C20.5612 258.605 21.4623 258.226 22.4046 258.217Z" fill="white" stroke="#282828" stroke-width="1.2" stroke-linecap="round" stroke-linejoin="round"/>
<path d="M22.4043 258.217H66.9843C67.9391 258.217 68.8547 258.596 69.5299 259.271C70.205 259.946 70.5843 260.862 70.5843 261.817V264.565H18.8523V261.817C18.8522 260.87 19.2249 259.962 19.8897 259.288C20.5545 258.614 21.4579 258.229 22.4043 258.217Z" fill="#282828" stroke="#282828" stroke-width="1.2" stroke-linecap="round" stroke-linejoin="round"/>
<path d="M57.9486 261.493C57.9486 261.16 57.8501 260.835 57.6655 260.559C57.4809 260.283 57.2185 260.068 56.9115 259.94C56.6046 259.813 56.2668 259.78 55.9409 259.845C55.615 259.91 55.3156 260.07 55.0807 260.305C54.8457 260.54 54.6857 260.839 54.6209 261.165C54.5561 261.491 54.5894 261.828 54.7165 262.135C54.8437 262.442 55.059 262.705 55.3353 262.889C55.6115 263.074 55.9364 263.173 56.2686 263.173C56.7142 263.173 57.1415 262.996 57.4566 262.68C57.7716 262.365 57.9486 261.938 57.9486 261.493Z" fill="white" stroke="#282828" stroke-width="1.2" stroke-linecap="round" stroke-linejoin="round"/>
<path d="M63.3241 261.493C63.3241 261.16 63.2256 260.835 63.041 260.559C62.8564 260.283 62.594 260.068 62.287 259.94C61.98 259.813 61.6422 259.78 61.3164 259.845C60.9905 259.91 60.6911 260.07 60.4562 260.305C60.2212 260.54 60.0612 260.839 59.9964 261.165C59.9316 261.491 59.9648 261.828 60.092 262.135C60.2191 262.442 60.4345 262.705 60.7108 262.889C60.987 263.074 61.3118 263.173 61.6441 263.173C62.0897 263.173 62.517 262.996 62.8321 262.68C63.1471 262.365 63.3241 261.938 63.3241 261.493Z" fill="white" stroke="#282828" stroke-width="1.2" stroke-linecap="round" stroke-linejoin="round"/>
<path d="M68.7128 261.493C68.7152 261.158 68.618 260.83 68.4335 260.55C68.249 260.27 67.9856 260.051 67.6767 259.921C67.3677 259.791 67.0271 259.756 66.6981 259.82C66.3691 259.884 66.0665 260.044 65.8287 260.28C65.5909 260.517 65.4285 260.818 65.3623 261.147C65.296 261.475 65.3288 261.816 65.4565 262.126C65.5842 262.436 65.8011 262.701 66.0796 262.887C66.3581 263.074 66.6857 263.173 67.0208 263.173C67.4675 263.173 67.896 262.996 68.213 262.682C68.53 262.367 68.7096 261.94 68.7128 261.493Z" fill="white" stroke="#282828" stroke-width="1.2" stroke-linecap="round" stroke-linejoin="round"/>
<path d="M38.4849 271.705L29.6289 278.713L38.4849 285.721" stroke="#282828" stroke-width="3.6" stroke-linecap="round" stroke-linejoin="round"/>
<path d="M50.6406 271.705L59.4966 278.713L50.6406 285.721" stroke="#282828" stroke-width="3.6" stroke-linecap="round" stroke-linejoin="round"/>
<path d="M45.697 270.06L43.021 286.956" stroke="#282828" stroke-width="3.6" stroke-linecap="round" stroke-linejoin="round"/>
<path d="M55.4524 294.96H65.2324" stroke="#282828" stroke-width="1.2" stroke-linecap="round" stroke-linejoin="round"/>
<path d="M40.9446 294.96H53.6646" stroke="#282828" stroke-width="1.2" stroke-linecap="round" stroke-linejoin="round"/>
<path d="M30.2522 294.96H38.1482" stroke="#282828" stroke-width="1.2" stroke-linecap="round" stroke-linejoin="round"/>
<path d="M24.7808 294.96H28.4768" stroke="#282828" stroke-width="1.2" stroke-linecap="round" stroke-linejoin="round"/>
<path d="M59.521 300.732H65.233" stroke="#282828" stroke-width="1.2" stroke-linecap="round" stroke-linejoin="round"/>
<path d="M31.021 300.732H56.725" stroke="#282828" stroke-width="1.2" stroke-linecap="round" stroke-linejoin="round"/>
<path d="M24.7808 300.732H27.9608" stroke="#282828" stroke-width="1.2" stroke-linecap="round" stroke-linejoin="round"/>
<path d="M45.7808 306.517H65.2328" stroke="#282828" stroke-width="1.2" stroke-linecap="round" stroke-linejoin="round"/>
<path d="M29.4963 306.517H42.2163" stroke="#282828" stroke-width="1.2" stroke-linecap="round" stroke-linejoin="round"/>
<path d="M24.7808 306.517H27.4568" stroke="#282828" stroke-width="1.2" stroke-linecap="round" stroke-linejoin="round"/>
<path d="M59.7729 312.301H65.2329" stroke="#282828" stroke-width="1.2" stroke-linecap="round" stroke-linejoin="round"/>
<path d="M41.1965 312.301H56.7245" stroke="#282828" stroke-width="1.2" stroke-linecap="round" stroke-linejoin="round"/>
<path d="M24.7808 312.301H38.1488" stroke="#282828" stroke-width="1.2" stroke-linecap="round" stroke-linejoin="round"/>
<path d="M40.2242 269.641H84.8042C85.7589 269.641 86.6746 270.02 87.3497 270.695C88.0249 271.37 88.4042 272.286 88.4042 273.241V325.753C88.4042 327.468 87.7227 329.113 86.5097 330.326C85.2967 331.539 83.6516 332.221 81.9362 332.221H43.1282C41.4127 332.221 39.7676 331.539 38.5546 330.326C37.3416 329.113 36.6602 327.468 36.6602 325.753V273.205C36.6695 272.262 37.048 271.361 37.7144 270.695C38.3808 270.029 39.2818 269.65 40.2242 269.641Z" fill="white" stroke="#282828" stroke-width="1.2" stroke-linecap="round" stroke-linejoin="round"/>
<path d="M40.2242 269.641H84.8042C85.759 269.641 86.6746 270.02 87.3498 270.695C88.0249 271.37 88.4042 272.286 88.4042 273.241V276.001H36.6602V273.253C36.657 272.302 37.0299 271.389 37.6976 270.712C38.3653 270.035 39.2736 269.65 40.2242 269.641Z" fill="#282828" stroke="#282828" stroke-width="1.2" stroke-linecap="round" stroke-linejoin="round"/>
<path d="M74.0882 274.596C75.016 274.596 75.7682 273.844 75.7682 272.916C75.7682 271.988 75.016 271.236 74.0882 271.236C73.1604 271.236 72.4082 271.988 72.4082 272.916C72.4082 273.844 73.1604 274.596 74.0882 274.596Z" fill="white" stroke="#282828" stroke-width="1.2" stroke-linecap="round" stroke-linejoin="round"/>
<path d="M81.1447 272.916C81.1447 272.584 81.0461 272.259 80.8615 271.983C80.6769 271.707 80.4146 271.491 80.1076 271.364C79.8006 271.237 79.4628 271.204 79.1369 271.269C78.811 271.333 78.5117 271.493 78.2767 271.728C78.0418 271.963 77.8818 272.263 77.817 272.589C77.7521 272.914 77.7854 273.252 77.9125 273.559C78.0397 273.866 78.255 274.129 78.5313 274.313C78.8076 274.498 79.1324 274.596 79.4647 274.596C79.9102 274.596 80.3376 274.419 80.6526 274.104C80.9677 273.789 81.1447 273.362 81.1447 272.916Z" fill="white" stroke="#282828" stroke-width="1.2" stroke-linecap="round" stroke-linejoin="round"/>
<path d="M84.8401 274.596C85.768 274.596 86.5202 273.844 86.5202 272.916C86.5202 271.988 85.768 271.236 84.8401 271.236C83.9123 271.236 83.1602 271.988 83.1602 272.916C83.1602 273.844 83.9123 274.596 84.8401 274.596Z" fill="white" stroke="#282828" stroke-width="1.2" stroke-linecap="round" stroke-linejoin="round"/>
<path d="M56.3048 283.129L47.4368 290.137L56.3048 297.145" stroke="#282828" stroke-width="3.6" stroke-linecap="round" stroke-linejoin="round"/>
<path d="M68.4602 283.129L77.3162 290.137L68.4602 297.145" stroke="#282828" stroke-width="3.6" stroke-linecap="round" stroke-linejoin="round"/>
<path d="M63.5169 281.485L60.8289 298.381" stroke="#282828" stroke-width="3.6" stroke-linecap="round" stroke-linejoin="round"/>
<path d="M73.26 306.386H83.052" stroke="#282828" stroke-width="1.2" stroke-linecap="round" stroke-linejoin="round"/>
<path d="M58.7639 306.386H71.4839" stroke="#282828" stroke-width="1.2" stroke-linecap="round" stroke-linejoin="round"/>
<path d="M48.073 306.386H55.957" stroke="#282828" stroke-width="1.2" stroke-linecap="round" stroke-linejoin="round"/>
<path d="M42.5886 306.386H46.2966" stroke="#282828" stroke-width="1.2" stroke-linecap="round" stroke-linejoin="round"/>
<path d="M77.3406 312.17H83.0526" stroke="#282828" stroke-width="1.2" stroke-linecap="round" stroke-linejoin="round"/>
<path d="M48.8406 312.17H74.5326" stroke="#282828" stroke-width="1.2" stroke-linecap="round" stroke-linejoin="round"/>
<path d="M42.5886 312.17H45.7806" stroke="#282828" stroke-width="1.2" stroke-linecap="round" stroke-linejoin="round"/>
<path d="M63.6003 317.94H83.0523" stroke="#282828" stroke-width="1.2" stroke-linecap="round" stroke-linejoin="round"/>
<path d="M47.3042 317.94H60.0362" stroke="#282828" stroke-width="1.2" stroke-linecap="round" stroke-linejoin="round"/>
<path d="M42.5886 317.94H45.2766" stroke="#282828" stroke-width="1.2" stroke-linecap="round" stroke-linejoin="round"/>
<path d="M77.5925 323.725H83.0525" stroke="#282828" stroke-width="1.2" stroke-linecap="round" stroke-linejoin="round"/>
<path d="M59.0171 323.725H74.5331" stroke="#282828" stroke-width="1.2" stroke-linecap="round" stroke-linejoin="round"/>
<path d="M42.5886 323.725H55.9566" stroke="#282828" stroke-width="1.2" stroke-linecap="round" stroke-linejoin="round"/>
<path d="M61.1998 462.229C51.0367 462.229 41.2896 466.265 34.1021 473.45C26.9145 480.636 22.875 490.381 22.8718 500.545H99.5278C99.5247 490.381 95.4851 480.636 88.2976 473.45C81.11 466.265 71.363 462.229 61.1998 462.229Z" fill="white" stroke="#282828" stroke-width="1.2" stroke-linecap="round" stroke-linejoin="round"/>
<path d="M68.7718 492.9L87.5998 472.8C82.1686 467.632 75.3407 464.171 67.9619 462.846C60.5831 461.52 52.9775 462.389 46.0873 465.343C39.1972 468.298 33.3251 473.209 29.1986 479.468C25.072 485.727 22.8723 493.059 22.8718 500.556H68.6398L68.7718 492.9Z" fill="#86CBE8" stroke="#282828" stroke-width="1.2" stroke-linecap="round" stroke-linejoin="round"/>
<path d="M61.2003 477.602C58.1809 477.602 55.1911 478.196 52.4016 479.352C49.6121 480.507 47.0775 482.201 44.9425 484.336C42.8075 486.471 41.1139 489.005 39.9584 491.795C38.803 494.584 38.2083 497.574 38.2083 500.594H84.1923C84.1923 497.574 83.5975 494.584 82.4421 491.795C81.2866 489.005 79.5931 486.471 77.4581 484.336C75.323 482.201 72.7884 480.507 69.9989 479.352C67.2094 478.196 64.2196 477.602 61.2003 477.602Z" stroke="#282828" stroke-width="1.2" stroke-linecap="round" stroke-linejoin="round"/>
<path d="M61.2001 489.602C58.2976 489.602 55.5139 490.755 53.4615 492.807C51.4091 494.859 50.2561 497.643 50.2561 500.546H72.1441C72.1441 497.643 70.9911 494.859 68.9387 492.807C66.8863 490.755 64.1026 489.602 61.2001 489.602Z" fill="#282828" stroke="#282828" stroke-width="1.2" stroke-linecap="round" stroke-linejoin="round"/>
<path d="M63.3473 499.802L60.7913 497.258L83.2313 476.102L84.5033 477.374L63.3473 499.802Z" fill="#282828" stroke="#282828" stroke-width="1.2" stroke-linecap="round" stroke-linejoin="round"/>
<path d="M540.504 378.516C537.418 378.516 534.402 379.431 531.837 381.145C529.271 382.859 527.272 385.295 526.091 388.146C524.91 390.996 524.601 394.133 525.203 397.159C525.805 400.185 527.291 402.965 529.473 405.146C531.654 407.328 534.434 408.814 537.46 409.416C540.486 410.018 543.623 409.709 546.473 408.528C549.324 407.347 551.76 405.348 553.474 402.783C555.189 400.217 556.104 397.201 556.104 394.116C556.104 389.978 554.46 386.01 551.534 383.085C548.609 380.159 544.641 378.516 540.504 378.516ZM540.504 403.524C538.647 403.524 536.832 402.973 535.289 401.941C533.745 400.91 532.543 399.443 531.833 397.728C531.123 396.013 530.938 394.125 531.301 392.304C531.664 390.484 532.559 388.812 533.872 387.5C535.186 386.188 536.859 385.295 538.68 384.934C540.501 384.574 542.389 384.761 544.103 385.473C545.817 386.186 547.282 387.39 548.312 388.935C549.342 390.48 549.89 392.295 549.888 394.152C549.888 395.383 549.645 396.603 549.173 397.741C548.701 398.879 548.01 399.912 547.138 400.783C546.267 401.653 545.232 402.343 544.094 402.814C542.955 403.284 541.735 403.525 540.504 403.524Z" stroke="#282828" stroke-width="1.2" stroke-linecap="round" stroke-linejoin="round"/>
<path d="M549.119 407.184L545.423 402.12C543.947 403.04 542.242 403.527 540.503 403.524C538.074 403.437 535.773 402.411 534.086 400.662C532.398 398.913 531.455 396.577 531.455 394.146C531.455 391.716 532.398 389.38 534.086 387.631C535.773 385.881 538.074 384.855 540.503 384.768C542.193 384.758 543.853 385.21 545.303 386.076L548.567 380.748C546.174 379.317 543.44 378.554 540.652 378.537C537.863 378.521 535.121 379.253 532.711 380.656C530.301 382.059 528.311 384.083 526.949 386.516C525.587 388.95 524.902 391.704 524.965 394.492C525.028 397.28 525.838 400 527.309 402.369C528.781 404.737 530.86 406.669 533.332 407.961C535.803 409.253 538.575 409.86 541.36 409.717C544.145 409.574 546.841 408.687 549.167 407.148L549.119 407.184Z" fill="#86CBE8" stroke="#282828" stroke-width="1.2" stroke-linecap="round" stroke-linejoin="round"/>
<path d="M540.504 421.2C537.418 421.2 534.402 422.115 531.837 423.829C529.271 425.543 527.272 427.98 526.091 430.83C524.91 433.681 524.601 436.817 525.203 439.844C525.805 442.87 527.291 445.649 529.473 447.831C531.654 450.013 534.434 451.499 537.46 452.1C540.486 452.702 543.623 452.393 546.473 451.213C549.324 450.032 551.76 448.032 553.474 445.467C555.189 442.902 556.104 439.886 556.104 436.8C556.104 432.663 554.46 428.695 551.534 425.769C548.609 422.844 544.641 421.2 540.504 421.2ZM540.504 446.196C538.65 446.194 536.84 445.642 535.3 444.611C533.76 443.58 532.561 442.115 531.854 440.402C531.146 438.69 530.962 436.806 531.325 434.988C531.688 433.171 532.582 431.502 533.893 430.193C535.204 428.883 536.874 427.992 538.692 427.631C540.509 427.271 542.393 427.457 544.105 428.167C545.817 428.876 547.28 430.078 548.309 431.619C549.338 433.16 549.888 434.971 549.888 436.824C549.892 438.059 549.653 439.283 549.183 440.425C548.714 441.567 548.023 442.605 547.151 443.479C546.279 444.353 545.243 445.046 544.102 445.519C542.961 445.991 541.738 446.234 540.504 446.232V446.196Z" stroke="#282828" stroke-width="1.2" stroke-linecap="round" stroke-linejoin="round"/>
<path d="M549.887 436.858C549.887 438.507 549.451 440.127 548.624 441.554C547.797 442.98 546.609 444.164 545.179 444.984C543.748 445.804 542.127 446.233 540.478 446.226C538.829 446.22 537.211 445.778 535.787 444.947L533.159 450.647C535.539 451.922 538.209 452.557 540.908 452.492C543.606 452.426 546.242 451.661 548.557 450.271C550.871 448.882 552.786 446.915 554.113 444.564C555.44 442.213 556.134 439.558 556.127 436.858C556.126 435.92 556.037 434.984 555.863 434.062L549.599 434.398C549.801 435.203 549.898 436.029 549.887 436.858Z" fill="#86CBE8" stroke="#282828" stroke-width="1.2" stroke-linecap="round" stroke-linejoin="round"/>
<path d="M528 472.98H522.396V487.608H528V472.98Z" fill="#282828" stroke="#282828" stroke-width="1.2" stroke-linecap="round" stroke-linejoin="round"/>
<path d="M538.8 474H533.196V487.596H538.8V474Z" fill="#86CBE8" stroke="#282828" stroke-width="1.2" stroke-linecap="round" stroke-linejoin="round"/>
<path d="M549.6 467.243H543.996V487.595H549.6V467.243Z" fill="#282828" stroke="#282828" stroke-width="1.2" stroke-linecap="round" stroke-linejoin="round"/>
<path d="M560.4 459.877H554.796V487.597H560.4V459.877Z" fill="#86CBE8" stroke="#282828" stroke-width="1.2" stroke-linecap="round" stroke-linejoin="round"/>
<path d="M537.492 202.198V199.438H525.6V202.198V204.058V218.806H550.632V202.198H537.492Z" fill="white" stroke="#282828" stroke-width="1.2" stroke-linecap="round" stroke-linejoin="round"/>
<path d="M568.452 202.198V199.438H556.56V202.198V204.058V218.806H581.604V202.198H568.452Z" fill="white" stroke="#282828" stroke-width="1.2" stroke-linecap="round" stroke-linejoin="round"/>
<path d="M537.492 229.872V227.1H525.6V229.872V231.732V246.48H550.632V229.872H537.492Z" fill="white" stroke="#282828" stroke-width="1.2" stroke-linecap="round" stroke-linejoin="round"/>
<path d="M568.452 229.872V227.1H556.56V229.872V231.732V246.48H581.604V229.872H568.452Z" fill="white" stroke="#282828" stroke-width="1.2" stroke-linecap="round" stroke-linejoin="round"/>
<path d="M537.492 257.542V254.77H525.6V257.542V259.402V274.15H550.632V257.542H537.492Z" fill="white" stroke="#282828" stroke-width="1.2" stroke-linecap="round" stroke-linejoin="round"/>
<path d="M568.452 257.542V254.77H556.56V257.542V259.402V274.15H581.604V257.542H568.452Z" fill="#86CBE8" stroke="#282828" stroke-width="1.2" stroke-linecap="round" stroke-linejoin="round"/>
<path d="M537.492 285.214V282.442H525.6V285.214V287.074V301.822H550.632V285.214H537.492Z" fill="white" stroke="#282828" stroke-width="1.2" stroke-linecap="round" stroke-linejoin="round"/>
<path d="M568.452 285.214V282.442H556.56V285.214V287.074V301.822H581.604V285.214H568.452Z" fill="white" stroke="#282828" stroke-width="1.2" stroke-linecap="round" stroke-linejoin="round"/>
<path d="M537.492 312.887V310.115H525.6V312.887V314.747V329.483H550.632V312.887H537.492Z" fill="white" stroke="#282828" stroke-width="1.2" stroke-linecap="round" stroke-linejoin="round"/>
<path d="M568.452 312.887V310.115H556.56V312.887V314.747V329.483H581.604V312.887H568.452Z" fill="white" stroke="#282828" stroke-width="1.2" stroke-linecap="round" stroke-linejoin="round"/>
<path d="M389.04 105.097L391.812 113.641H400.788L393.528 118.909L396.3 127.453L389.04 122.173L381.78 127.453L384.552 118.909L377.292 113.641H386.268L389.04 105.097Z" fill="#86CBE8" stroke="#282828" stroke-width="1.2" stroke-linecap="round" stroke-linejoin="round"/>
<path d="M418.669 105.097L421.441 113.641H430.417L423.157 118.909L425.929 127.453L418.669 122.173L411.409 127.453L414.181 118.909L406.921 113.641H415.897L418.669 105.097Z" fill="#86CBE8" stroke="#282828" stroke-width="1.2" stroke-linecap="round" stroke-linejoin="round"/>
<path d="M448.296 105.097L451.068 113.641H460.044L452.784 118.909L455.556 127.453L448.296 122.173L441.036 127.453L443.808 118.909L436.548 113.641H445.524L448.296 105.097Z" fill="#86CBE8" stroke="#282828" stroke-width="1.2" stroke-linecap="round" stroke-linejoin="round"/>
<path d="M477.925 105.097L480.697 113.641H489.673L482.413 118.909L485.185 127.453L477.925 122.173L470.653 127.453L473.437 118.909L466.177 113.641H475.141L477.925 105.097Z" fill="#86CBE8" stroke="#282828" stroke-width="1.2" stroke-linecap="round" stroke-linejoin="round"/>
<path d="M507.54 105.097L510.324 113.641H519.3L512.028 118.909L514.812 127.453L507.54 122.173L500.28 127.453L503.052 118.909L495.792 113.641H504.768L507.54 105.097Z" fill="#86CBE8" stroke="#282828" stroke-width="1.2" stroke-linecap="round" stroke-linejoin="round"/>
<path d="M301.8 530.399C410.821 530.399 499.2 527.444 499.2 523.799C499.2 520.154 410.821 517.199 301.8 517.199C192.779 517.199 104.4 520.154 104.4 523.799C104.4 527.444 192.779 530.399 301.8 530.399Z" fill="#282828" stroke="#282828" stroke-width="1.2" stroke-linecap="round" stroke-linejoin="round"/>
<path d="M493.199 154.799H110.099C104.479 154.799 99.9231 159.355 99.9231 164.975V447.215C99.9231 452.835 104.479 457.391 110.099 457.391H493.199C498.819 457.391 503.375 452.835 503.375 447.215V164.975C503.375 159.355 498.819 154.799 493.199 154.799Z" fill="#282828" stroke="#282828" stroke-width="1.2" stroke-linecap="round" stroke-linejoin="round"/>
<path d="M351.84 480.718V446.638H251.448V480.718C251.447 491.842 247.693 502.641 240.792 511.366L236.4 516.91H366.9L362.496 511.366C355.594 502.641 351.84 491.842 351.84 480.718Z" fill="white" stroke="#282828" stroke-width="1.2" stroke-linecap="round" stroke-linejoin="round"/>
<path d="M351.827 446.638H251.447V473.998H351.827V446.638Z" fill="#282828" stroke="#282828" stroke-width="1.2" stroke-linecap="round" stroke-linejoin="round"/>
<path d="M366.924 516.91H236.4V522.994H366.924V516.91Z" fill="white" stroke="#282828" stroke-width="1.2" stroke-linecap="round" stroke-linejoin="round"/>
<path d="M99.9231 410.398H503.375V447.25C503.375 449.949 502.303 452.538 500.395 454.446C498.486 456.354 495.898 457.426 493.199 457.426H110.099C107.4 457.426 104.812 456.354 102.904 454.446C100.995 452.538 99.9231 449.949 99.9231 447.25V410.398Z" fill="white" stroke="#282828" stroke-width="1.2" stroke-linecap="round" stroke-linejoin="round"/>
<path d="M483.083 173.626H120.215V387.406H483.083V173.626Z" fill="white" stroke="#282828" stroke-width="1.2" stroke-linecap="round" stroke-linejoin="round"/>
<g opacity="0.2">
<path d="M185.039 245.013C185.039 245.013 183.011 248.613 180.239 246.381C177.467 244.149 170.639 239.517 166.343 241.113C162.047 242.709 160.523 247.989 162.551 249.585C164.579 251.181 165.071 253.017 161.783 255.309C158.495 257.601 160.019 260.577 162.803 261.309C165.587 262.041 167.603 260.853 167.351 262.509C167.099 264.165 167.351 265.017 163.055 266.853C158.759 268.689 159.011 270.285 164.567 268.689C170.123 267.093 170.891 263.421 173.411 260.901C175.931 258.381 186.815 263.421 189.851 268.689C192.887 273.957 192.635 279.213 192.635 283.341C192.635 287.469 198.443 287.913 199.703 291.585C200.963 295.257 203.303 298.677 203.747 297.765C204.191 296.853 203.495 295.701 203.495 294.561C203.495 293.421 207.287 297.069 207.803 299.589C208.319 302.109 212.603 305.085 214.871 305.085C217.411 305.098 219.885 305.899 221.951 307.377C223.475 308.745 227.015 311.961 228.275 311.961C229.535 311.961 229.535 311.265 230.303 311.961C231.071 312.657 231.059 314.709 230.555 316.761C230.051 318.813 228.023 319.509 230.807 323.637C233.591 327.765 237.599 329.721 237.599 333.597C237.599 337.473 233.303 351.681 233.303 355.809C233.303 359.937 237.347 364.737 238.871 364.281C240.395 363.825 239.123 361.533 239.123 359.481C239.123 357.429 241.655 355.821 241.655 353.985C241.655 352.149 243.419 350.097 244.931 348.717C246.443 347.337 248.975 346.437 250.499 344.145C252.023 341.853 254.543 339.789 255.551 338.145C256.644 336.482 257.825 334.88 259.091 333.345C261.371 330.369 261.371 328.077 262.691 326.013C264.011 323.949 264.215 319.833 261.179 318.921C258.143 318.009 253.847 316.629 252.779 315.261C251.711 313.893 246.215 311.589 245.195 311.361C244.175 311.133 242.675 309.309 240.647 309.081C239.306 308.911 237.955 308.834 236.603 308.853C235.064 309.03 233.543 309.335 232.055 309.765H228.767L225.983 307.929C225.983 307.929 227.003 304.953 224.975 304.497C223.98 304.245 222.963 304.092 221.939 304.041C221.939 304.041 223.463 301.293 221.939 301.065C220.415 300.837 217.643 302.661 216.887 302.661C216.131 302.661 213.599 298.773 214.859 296.937C216.119 295.101 217.139 293.505 219.659 293.049C222.179 292.593 224.459 290.757 225.971 293.049C227.483 295.341 231.035 299.457 231.035 296.937C231.035 294.417 229.259 293.049 229.511 291.453C229.763 289.857 233.051 290.529 233.051 287.325C233.051 284.121 234.323 282.285 235.835 281.601C237.347 280.917 241.655 281.373 241.391 278.169C241.127 274.965 239.123 277.941 237.599 276.789C236.075 275.637 239.123 272.901 242.159 272.901C245.195 272.901 247.715 272.217 246.959 269.925C246.203 267.633 242.915 266.265 241.391 263.289C239.867 260.313 238.367 263.517 236.591 261.909C234.815 260.301 231.791 258.309 231.539 261.225C231.287 264.141 233.051 267.861 232.295 269.697C231.539 271.533 227.999 273.357 226.991 271.305C225.983 269.253 226.991 268.329 224.207 266.721C221.423 265.113 218.387 263.745 218.135 260.721C217.883 257.697 219.911 255.681 222.431 253.857C224.951 252.033 228.251 250.413 227.999 247.437C227.747 244.461 225.719 243.321 225.215 245.613C225.111 246.078 224.863 246.5 224.507 246.817C224.151 247.134 223.705 247.332 223.23 247.383C222.756 247.433 222.278 247.333 221.863 247.098C221.449 246.862 221.118 246.502 220.919 246.069C219.911 244.233 217.631 243.321 217.631 244.929C217.631 246.537 217.127 248.133 215.099 248.133C213.071 248.133 210.047 246.525 208.787 246.753C207.527 246.981 207.011 248.133 205.499 248.133C203.987 248.133 201.455 248.589 200.951 246.933C200.447 245.277 197.159 244.881 194.879 244.413C192.808 243.919 190.683 243.689 188.555 243.729C187.455 244.334 186.27 244.767 185.039 245.013Z" fill="#282828"/>
<path d="M238.126 302.013C238.126 302.013 236.854 302.013 232.81 300.189C228.766 298.365 225.478 298.989 227.506 299.949C229.534 300.909 233.314 302.241 233.314 302.241C233.314 302.241 229.018 302.013 232.81 303.165C236.602 304.317 241.666 303.393 238.126 302.013Z" fill="#282828"/>
<path d="M287.927 290.108C287.422 291.852 286.743 293.541 285.899 295.148C285.143 296.06 282.107 297.44 281.351 299.948C280.715 302.861 281.259 305.907 282.863 308.42C284.387 310.712 285.647 310.94 289.187 311.864C292.727 312.788 298.031 311.864 300.059 312.092C302.087 312.32 299.303 315.98 299.303 317.12C299.303 318.26 304.355 320.564 304.607 322.616C304.859 324.668 302.591 329.036 304.607 331.772C306.623 334.508 307.391 336.356 307.391 337.964C307.391 339.572 306.635 342.08 311.687 342.764C316.739 343.448 320.279 341.396 321.047 338.42C321.815 335.444 321.803 332.42 324.071 331.316C325.192 330.709 326.091 329.761 326.637 328.609C327.183 327.456 327.347 326.16 327.107 324.908C326.603 322.388 326.099 318.728 328.115 317.348C330.131 315.968 334.187 313.46 334.439 310.94C334.691 308.42 332.423 310.712 329.135 308.42C325.847 306.128 322.307 299.264 321.551 297.44C320.795 295.616 320.795 293.996 323.567 297.44C326.339 300.884 327.107 307.736 331.403 307.736C335.699 307.736 341.771 302.936 342.023 300.644C342.275 298.352 339.503 299.72 336.467 297.668C333.431 295.616 331.403 290.564 335.195 291.944C338.987 293.324 344.051 297.944 346.067 297.944C348.083 297.944 354.155 295.88 354.407 299.54C354.659 303.2 353.207 309.14 356.687 309.392C360.167 309.644 359.219 305.72 360.227 304.352C361.235 302.984 366.803 298.856 368.063 299.768C369.323 300.68 368.567 304.352 371.855 304.568C375.143 304.784 376.403 305.48 375.395 306.632C374.387 307.784 374.135 311.66 375.395 311.204C376.655 310.748 375.143 306.86 377.423 308C379.703 309.14 383.231 306.86 383.231 305.708C383.231 304.556 378.935 303.2 380.195 301.136C381.455 299.072 385.511 298.616 388.283 298.388C391.055 298.16 393.599 294.26 392.339 291.98C391.079 289.7 390.059 288.08 391.571 287.624C393.083 287.168 390.563 285.8 390.563 285.104C390.563 284.408 392.843 282.584 394.355 283.964C395.867 285.344 395.111 287.168 396.383 288.548C397.655 289.928 399.155 289.688 399.155 287.852C399.055 286.232 398.802 284.625 398.399 283.052C398.399 283.052 400.679 281.216 401.939 281.444C403.199 281.672 406.739 277.556 407.759 274.58C408.779 271.604 408.011 269.78 406.487 269.78C404.963 269.78 402.443 266.576 405.227 264.74C408.011 262.904 412.307 261.536 414.323 262.22C416.339 262.904 417.923 261.992 419.123 260.168C420.323 258.344 423.419 258.332 424.931 258.332C426.443 258.332 427.967 254.9 428.219 256.736C428.471 258.572 422.915 262.46 421.895 264.968C420.875 267.476 419.879 271.388 422.147 271.616C424.415 271.844 425.435 267.944 425.939 266.12C426.443 264.296 426.707 261.08 428.219 260.852C429.731 260.624 430.499 261.536 432.767 259.94C435.035 258.344 438.083 258.104 438.587 255.812C439.091 253.52 440.099 248.492 437.315 245.972C434.531 243.452 432.767 245.06 429.731 245.972C426.695 246.884 423.167 241.616 423.167 241.616C421.24 241.325 419.295 241.173 417.347 241.16C414.311 241.16 413.051 237.956 411.023 237.728C408.995 237.5 409.259 240.476 407.231 241.16C405.203 241.844 404.711 241.388 403.187 241.388C401.663 241.388 400.163 241.844 399.647 240.476C399.131 239.108 397.883 236.816 396.119 236.588C394.355 236.36 392.327 237.272 391.319 237.272C390.311 237.272 386.771 236.072 385.763 236.072C384.755 236.072 380.963 236.768 380.963 236.768C380.963 236.768 386.519 229.664 385.511 227.84C384.503 226.016 380.447 225.548 378.179 226.232C375.911 226.916 373.631 226.688 372.107 227.612C370.583 228.536 366.299 229.208 365.027 231.044C363.755 232.88 364.019 233.564 362.255 234.704C360.491 235.844 360.479 237.68 360.731 239.504C360.983 241.328 358.463 237.44 356.687 238.58C354.911 239.72 353.903 240.416 354.407 242.012C354.911 243.608 356.939 245.456 356.435 247.052C355.931 248.648 352.139 250.028 352.139 247.736C352.139 245.444 354.155 236.528 351.383 236.756C348.611 236.984 347.843 240.188 348.599 242.48C349.355 244.772 349.859 245.684 348.347 245.684C346.835 245.684 344.747 242.708 343.295 244.304C341.843 245.9 337.475 246.14 335.447 246.368C333.419 246.596 330.395 249.572 328.883 250.712C327.371 251.852 326.855 253.7 324.083 253.928C321.311 254.156 319.535 249.128 320.807 249.128C322.079 249.128 326.615 251.42 326.615 248.672C326.615 245.924 319.535 243.176 315.995 242.672C312.455 242.168 306.899 243.584 305.891 246.56C304.883 249.536 305.375 253.892 302.099 256.868C298.823 259.844 296.783 263.276 299.315 263.276C301.847 263.276 303.359 259.844 303.611 262.592C303.621 263.063 303.781 263.518 304.069 263.89C304.357 264.262 304.757 264.532 305.21 264.66C305.664 264.788 306.146 264.767 306.586 264.6C307.026 264.432 307.401 264.128 307.655 263.732C308.411 262.364 308.411 259.616 308.411 257.096C308.411 254.576 312.959 249.992 313.727 252.056C314.495 254.12 311.195 257.324 311.195 259.376C311.195 261.428 314.987 259.844 317.015 259.844C319.043 259.844 320.543 261.212 317.267 261.668C313.991 262.124 313.727 262.124 312.959 264.188C312.191 266.252 313.223 267.62 310.187 268.316C307.151 269.012 299.819 267.848 298.307 270.368C296.795 272.888 296.027 274.268 294.515 274.724C293.003 275.18 289.955 274.952 290.459 277.016C290.963 279.08 292.487 277.928 291.731 279.992C290.975 282.056 288.443 278.792 287.435 280.448C286.427 282.104 288.947 289.376 291.227 287.312C292.741 285.806 293.944 284.016 294.767 282.044C294.767 282.044 297.035 281.816 297.539 280.844C298.043 279.872 301.331 277.868 302.339 280.844C303.347 283.82 304.859 283.136 304.859 284.504C304.859 285.872 302.339 287.48 304.607 286.568C306.875 285.656 308.207 285.884 307.391 283.136C306.575 280.388 303.791 277.136 305.363 277.868C307.127 278.97 308.535 280.557 309.419 282.44C310.175 284.048 313.967 288.632 314.471 286.796C314.975 284.96 313.967 281.756 314.723 281.756C315.479 281.756 317.003 279.932 317.507 278.156C318.011 276.38 324.323 278.384 325.595 279.992C326.867 281.6 324.323 283.196 321.599 283.196C318.875 283.196 315.275 285.02 317.555 286.628C319.835 288.236 323.363 284.792 323.867 287.312C324.371 289.832 323.111 292.112 321.095 292.112C319.079 292.112 316.535 291.188 314.771 291.188C313.007 291.188 312.743 293.48 309.467 292.796C306.191 292.112 305.411 289.364 302.891 287.756C300.371 286.148 298.091 287.3 296.063 287.984C294.035 288.668 289.199 288.272 287.927 290.108Z" fill="#282828"/>
<path d="M349.859 225.32C349.098 226.929 347.972 228.339 346.571 229.436C344.555 230.816 339.239 235.16 339.239 237.68C339.239 240.2 341.519 242.48 337.979 241.568C334.439 240.656 338.735 231.5 341.267 229.208C343.799 226.916 343.799 228.068 345.815 226.916C347.831 225.764 349.607 223.484 349.859 225.32Z" fill="#282828"/>
<path d="M388.031 313.004C388.031 313.004 385.007 313.004 383.987 315.296C382.967 317.588 387.023 319.64 388.283 318.044C389.543 316.448 389.051 314.372 389.555 313.244C390.059 312.116 389.555 311.624 388.031 313.004Z" fill="#282828"/>
<path d="M379.198 317.348C379.198 317.348 377.434 308.948 376.666 311.348C376.203 312.763 376.203 314.289 376.666 315.704C376.666 315.704 369.85 310.664 370.606 313.64C371.362 316.616 376.666 318.44 379.198 320.288C381.73 322.136 381.982 321.884 385.522 323.024C389.062 324.164 391.33 322.34 388.558 321.824C385.786 321.308 381.226 319.076 380.158 318.62C379.902 318.51 379.678 318.335 379.51 318.112C379.341 317.888 379.234 317.625 379.198 317.348Z" fill="#282828"/>
<path d="M409.271 318.502C409.271 318.502 397.895 314.614 399.155 316.894C400.415 319.174 404.471 318.502 405.227 319.642C405.983 320.782 406.487 323.074 408.263 323.074C410.039 323.074 411.551 322.39 412.559 323.542C413.567 324.694 415.847 326.29 416.603 325.138C417.359 323.986 415.595 322.618 414.323 321.022C413.051 319.426 409.271 318.502 409.271 318.502Z" fill="#282828"/>
<path d="M409.271 325.593C409.271 325.593 409.019 329.037 406.487 328.797C403.955 328.557 405.983 325.137 402.695 325.593C399.407 326.049 399.923 328.341 398.147 328.341C396.371 328.341 393.347 329.265 393.095 330.177C392.843 331.089 390.815 332.013 389.303 332.013C387.791 332.013 386.267 334.989 386.771 336.585C387.275 338.181 388.283 340.245 388.283 341.853C388.283 343.461 388.283 344.829 391.067 344.145C393.851 343.461 398.147 340.245 401.435 341.397C404.723 342.549 407.507 346.437 409.523 347.577C411.539 348.717 412.811 349.869 414.575 346.893C416.339 343.917 418.883 340.893 418.883 337.293C418.883 333.693 416.099 333.405 413.819 329.973C411.539 326.541 410.027 323.769 409.271 325.593Z" fill="#282828"/>
<path d="M433.799 349.87C433.799 349.87 434.555 350.326 432.023 351.466C429.491 352.606 428.987 354.214 430.823 355.138C432.659 356.062 434.867 352.618 435.623 351.466C436.379 350.314 437.075 347.578 433.799 349.87Z" fill="#282828"/>
<path d="M333.935 326.745C333.935 326.745 332.735 326.516 330.899 328.112C329.063 329.708 330.647 330.633 330.143 332.697C329.639 334.76 330.143 337.041 332.171 335.673C334.199 334.305 336.215 329.492 336.215 327.656C336.215 325.82 335.699 324.225 333.935 326.745Z" fill="#282828"/>
<path d="M313.966 214.33C313.966 214.33 314.218 215.242 310.93 214.558C307.642 213.874 306.634 215.698 305.878 215.926C305.122 216.154 301.318 213.874 301.57 216.622C301.822 219.37 305.11 223.03 306.37 220.966C307.63 218.902 306.622 220.966 305.098 223.03C303.574 225.094 306.874 227.83 308.386 226.006C309.898 224.182 309.91 217.99 310.666 220.006C311.422 222.022 312.682 225.73 314.266 224.122C315.85 222.514 311.734 218.122 311.734 216.802C311.734 215.482 312.49 217.714 314.518 216.346C316.546 214.978 316.234 214.102 313.966 214.33Z" fill="#282828"/>
<path d="M379.439 220.052C379.439 220.052 380.447 216.848 377.927 217.076C375.407 217.304 372.611 219.14 374.891 220.676C377.171 222.212 379.439 220.052 379.439 220.052Z" fill="#282828"/>
<path d="M374.891 213.873C374.387 212.949 372.359 206.541 370.847 208.377C369.335 210.213 371.603 215.013 371.603 215.013C371.603 215.013 370.595 216.849 372.863 217.077C375.131 217.305 374.891 213.873 374.891 213.873Z" fill="#282828"/>
<path d="M255.598 204.945C254.398 205.161 249.286 201.741 246.502 204.021C243.718 206.301 243.466 207.693 241.954 210.897C240.442 214.101 241.954 216.165 241.438 216.897C240.922 217.629 241.702 216.441 238.666 218.265C235.63 220.089 235.066 219.465 236.89 221.937C238.714 224.409 236.134 224.445 238.918 226.737C241.702 229.029 242.71 224.913 245.746 227.661C248.782 230.409 247.258 233.841 249.346 240.705C251.434 247.569 252.37 258.561 253.894 260.397C255.418 262.233 257.938 262.689 259.198 259.713C260.458 256.737 262.798 251.469 266.53 249.633C270.262 247.797 275.638 245.517 275.638 242.997C275.638 240.477 273.61 239.337 274.366 237.501C275.122 235.665 276.898 237.045 276.898 234.069V227.889C276.898 225.369 276.394 219.417 276.898 218.721C277.849 217.383 278.612 215.922 279.166 214.377C279.166 213.693 280.942 211.629 281.446 210.945C282.004 210.043 282.349 209.025 282.454 207.969C282.454 207.273 283.726 205.677 281.446 206.589C279.166 207.501 279.166 209.565 277.402 210.717C275.638 211.869 273.358 212.541 273.358 210.261C273.358 207.981 275.89 205.221 273.358 204.993C271.564 204.909 269.769 205.141 268.054 205.677C268.054 205.677 270.574 204.477 271.33 204.069C272.086 203.661 274.618 203.385 275.374 202.701C275.918 202.045 276.27 201.252 276.394 200.409C275.773 199.754 274.985 199.281 274.114 199.041C272.602 198.573 272.602 196.977 271.078 196.521C269.097 196.15 267.092 195.921 265.078 195.837C265.078 195.837 260.278 197.205 259.258 197.661C258.25 198.117 257.269 198.63 256.318 199.197C256.318 199.197 255.562 201.477 256.318 202.401C257.074 203.325 258.094 204.489 255.598 204.945Z" fill="#282828"/>
<path d="M239.639 206.77C239.639 206.77 238.439 209.29 237.611 210.898C236.74 212.652 235.729 214.334 234.587 215.926C233.315 217.762 232.559 218.674 232.559 219.37C232.559 220.066 233.759 221.422 231.803 223.03C230.292 224.158 228.686 225.154 227.003 226.006C226.815 226.556 226.416 227.009 225.894 227.265C225.372 227.522 224.77 227.561 224.219 227.374C222.191 226.69 223.463 223.258 224.219 222.118C224.975 220.978 224.219 217.762 222.707 218.446C221.195 219.13 220.175 220.51 218.651 218.674C217.127 216.838 216.635 213.19 216.635 211.354C216.635 209.518 216.635 206.998 218.147 207.922C219.659 208.846 224.471 211.522 225.227 211.126C225.983 210.73 224.219 208.834 223.211 207.466C222.203 206.098 219.923 204.49 222.707 203.11C225.491 201.73 228.515 201.502 230.543 200.362C232.571 199.222 233.819 198.298 236.351 198.994C238.883 199.69 241.151 198.994 241.919 200.818C242.392 202.065 242.648 203.384 242.675 204.718L239.639 206.77Z" fill="#282828"/>
<path d="M225.227 229.436C224.175 229.073 223.159 228.615 222.191 228.068C219.419 226.688 217.895 221.648 217.139 224.624C216.383 227.6 220.175 231.044 221.939 231.956C223.703 232.868 231.047 232.868 230.027 230.348C229.007 227.828 225.227 229.436 225.227 229.436Z" fill="#282828"/>
<path d="M235.342 239.996C233.028 239.201 230.819 238.125 228.766 236.792C227.002 235.412 223.966 233.12 222.766 234.956C221.566 236.792 222.25 242.288 224.278 243.428C226.306 244.568 229.33 242.048 231.106 244.34C232.882 246.632 235.15 248.924 234.706 250.52C234.262 252.116 233.182 253.496 235.21 255.788C237.238 258.08 240.01 258.308 240.01 255.332C240.01 252.356 237.478 250.532 239.506 250.292C241.534 250.052 243.55 252.356 242.542 249.152C241.834 247.115 240.715 245.244 239.254 243.656C238.061 242.323 236.752 241.098 235.342 239.996Z" fill="#282828"/>
<path d="M212.087 243.86C211.323 243.611 210.661 243.119 210.204 242.457C209.746 241.796 209.519 241.003 209.555 240.2C209.555 237.224 207.023 233.564 206.267 235.616C205.511 237.668 203.735 238.364 201.719 236.816C199.703 235.268 197.675 231.776 195.647 233.372C193.619 234.968 187.559 238.412 192.623 240.02C197.687 241.628 199.439 238.412 199.943 239.096C200.447 239.78 199.439 239.564 199.943 242.312C200.447 245.06 203.231 246.428 205.511 246.428C207.791 246.428 208.295 244.136 209.303 245.06C210.311 245.984 213.095 247.064 212.087 243.86Z" fill="#282828"/>
</g>
<path d="M309.084 433.87C309.084 432.398 308.647 430.96 307.83 429.736C307.012 428.513 305.85 427.559 304.491 426.996C303.131 426.433 301.635 426.286 300.192 426.573C298.749 426.86 297.423 427.568 296.383 428.609C295.342 429.649 294.634 430.975 294.347 432.418C294.06 433.861 294.207 435.357 294.77 436.717C295.333 438.076 296.287 439.238 297.51 440.056C298.734 440.873 300.172 441.31 301.644 441.31C303.617 441.31 305.509 440.526 306.904 439.131C308.3 437.735 309.084 435.843 309.084 433.87Z" fill="#282828" stroke="#282828" stroke-width="1.2" stroke-linecap="round" stroke-linejoin="round"/>
<path d="M461.255 203.519H145.079C143.886 203.521 142.705 203.287 141.603 202.832C140.501 202.377 139.5 201.709 138.656 200.866C137.812 200.024 137.143 199.023 136.686 197.921C136.23 196.82 135.995 195.639 135.995 194.447C135.998 192.04 136.956 189.732 138.66 188.031C140.363 186.33 142.671 185.375 145.079 185.375H461.255C463.66 185.378 465.965 186.335 467.666 188.036C469.367 189.736 470.323 192.042 470.327 194.447C470.327 196.853 469.371 199.161 467.67 200.862C465.968 202.563 463.661 203.519 461.255 203.519Z" fill="white" stroke="#282828" stroke-width="1.2" stroke-linecap="round" stroke-linejoin="round"/>
<path d="M461.255 203.519H445.475V185.375H461.255C463.66 185.378 465.966 186.335 467.666 188.036C469.367 189.736 470.324 192.042 470.327 194.447C470.327 196.853 469.371 199.161 467.67 200.862C465.969 202.563 463.661 203.519 461.255 203.519Z" fill="#282828" stroke="#282828" stroke-width="1.2" stroke-linecap="round" stroke-linejoin="round"/>
<path d="M457.74 187.68C456.988 186.976 456.044 186.512 455.028 186.345C454.012 186.177 452.969 186.315 452.032 186.74C451.094 187.165 450.303 187.859 449.76 188.734C449.216 189.608 448.944 190.624 448.977 191.653C449.011 192.682 449.348 193.678 449.948 194.515C450.547 195.352 451.381 195.993 452.345 196.356C453.308 196.72 454.358 196.789 455.361 196.556C456.364 196.323 457.275 195.798 457.98 195.048C458.45 194.549 458.817 193.963 459.059 193.322C459.302 192.681 459.415 191.998 459.393 191.314C459.37 190.629 459.213 189.955 458.929 189.332C458.645 188.708 458.241 188.146 457.74 187.68ZM457.2 194.4C456.634 195.005 455.901 195.428 455.094 195.616C454.287 195.804 453.442 195.749 452.667 195.457C451.892 195.166 451.22 194.65 450.738 193.977C450.255 193.303 449.983 192.502 449.956 191.674C449.929 190.845 450.149 190.028 450.587 189.325C451.024 188.621 451.661 188.064 452.416 187.722C453.171 187.381 454.01 187.271 454.827 187.406C455.645 187.542 456.403 187.917 457.008 188.484C457.814 189.245 458.287 190.294 458.323 191.402C458.359 192.51 457.955 193.588 457.2 194.4Z" fill="white"/>
<path d="M461.651 196.931C461.534 196.834 461.394 196.771 461.243 196.747C461.093 196.724 460.94 196.742 460.799 196.799L458.915 195.035C458.819 194.941 458.69 194.889 458.555 194.889C458.421 194.889 458.292 194.941 458.195 195.035L458.027 195.215C457.98 195.261 457.942 195.316 457.916 195.377C457.89 195.438 457.877 195.503 457.877 195.569C457.877 195.635 457.89 195.7 457.916 195.761C457.942 195.822 457.98 195.877 458.027 195.923L459.887 197.675C459.831 197.834 459.822 198.007 459.863 198.171C459.903 198.335 459.991 198.484 460.115 198.599L463.307 201.731C463.518 201.939 463.803 202.056 464.099 202.056C464.396 202.056 464.68 201.939 464.891 201.731C464.996 201.626 465.079 201.502 465.136 201.365C465.193 201.228 465.222 201.081 465.222 200.933C465.222 200.785 465.193 200.638 465.136 200.501C465.079 200.364 464.996 200.24 464.891 200.135L461.651 196.931Z" fill="white"/>
<path d="M468.492 377.868C465.43 377.875 462.457 376.834 460.068 374.917C457.68 373 456.02 370.323 455.364 367.331L452.532 354.216C451.761 350.687 449.804 347.53 446.987 345.27C444.17 343.01 440.664 341.784 437.052 341.795C433.639 341.786 430.314 342.883 427.576 344.92C424.837 346.958 422.832 349.827 421.86 353.1L419.94 359.604C419.213 362.034 417.738 364.174 415.726 365.719C413.713 367.264 411.265 368.135 408.729 368.21C406.193 368.284 403.698 367.558 401.598 366.133C399.498 364.709 397.901 362.659 397.032 360.276L390.696 342.72C389.028 338.162 386.16 334.141 382.396 331.079C378.631 328.017 374.109 326.029 369.308 325.324C364.506 324.62 359.604 325.226 355.118 327.077C350.633 328.929 346.731 331.958 343.824 335.844L331.716 352.08C330.516 353.687 328.957 354.992 327.163 355.889C325.369 356.787 323.39 357.254 321.384 357.252C319.703 357.258 318.037 356.933 316.481 356.295C314.925 355.658 313.51 354.72 312.316 353.535C311.123 352.351 310.175 350.943 309.525 349.392C308.876 347.841 308.539 346.177 308.532 344.495V332.988H294V344.495C293.973 347.188 293.102 349.804 291.511 351.975C289.919 354.147 287.687 355.765 285.128 356.602C282.569 357.439 279.812 357.453 277.245 356.642C274.678 355.831 272.429 354.235 270.816 352.08L258.708 335.844C255.802 331.958 251.9 328.929 247.414 327.077C242.928 325.226 238.026 324.62 233.225 325.324C228.423 326.029 223.902 328.017 220.137 331.079C216.372 334.141 213.504 338.162 211.836 342.72L205.5 360.276C204.629 362.658 203.029 364.705 200.929 366.128C198.828 367.551 196.334 368.276 193.798 368.202C191.262 368.127 188.814 367.257 186.801 365.714C184.788 364.17 183.311 362.033 182.58 359.604L180.672 353.1C179.661 349.741 177.565 346.813 174.712 344.772C171.859 342.732 168.411 341.694 164.906 341.822C161.401 341.949 158.037 343.235 155.34 345.477C152.643 347.72 150.765 350.793 150 354.216L147.168 367.331C146.511 370.322 144.85 372.998 142.462 374.915C140.074 376.831 137.102 377.873 134.04 377.868H120.24V387.408H482.292V377.868H468.492Z" fill="#F2F2F2" stroke="#282828" stroke-width="1.2" stroke-linecap="round" stroke-linejoin="round"/>
<path d="M303.313 62.2199C315.303 62.2937 327.002 65.9213 336.93 72.6438C346.858 79.3664 354.57 88.8821 359.09 99.9876C363.611 111.093 364.736 123.29 362.325 135.035C359.914 146.78 354.074 157.546 345.543 165.973C337.013 174.399 326.176 180.106 314.402 182.373C302.628 184.64 290.446 183.365 279.397 178.709C268.348 174.053 258.928 166.225 252.327 156.214C245.727 146.204 242.243 134.462 242.317 122.472C242.366 114.511 243.982 106.637 247.074 99.3002C250.165 91.9636 254.672 85.3078 260.336 79.7129C266 74.1179 272.711 69.6934 280.085 66.692C287.459 63.6905 295.352 62.1709 303.313 62.2199ZM302.641 171.492C312.266 171.553 321.692 168.759 329.729 163.463C337.766 158.166 344.051 150.605 347.79 141.736C351.529 132.867 352.554 123.089 350.735 113.637C348.916 104.185 344.335 95.4856 337.571 88.6379C330.808 81.7902 322.165 77.1022 312.736 75.1668C303.308 73.2314 293.517 74.1356 284.603 77.765C275.689 81.3945 268.051 87.5861 262.655 95.5567C257.26 103.527 254.35 112.919 254.293 122.544C254.252 128.933 255.47 135.267 257.878 141.186C260.285 147.104 263.836 152.489 268.326 157.035C272.815 161.58 278.157 165.197 284.045 167.677C289.933 170.158 296.252 171.454 302.641 171.492Z" fill="#86CBE8" stroke="#282828" stroke-width="1.2" stroke-linecap="round" stroke-linejoin="round"/>
<path d="M303.336 58.7996C315.332 58.8616 327.039 62.4807 336.976 69.1989C346.914 75.917 354.635 85.4322 359.163 96.5402C363.69 107.648 364.821 119.85 362.411 131.6C360.002 143.351 354.16 154.123 345.626 162.553C337.093 170.983 326.25 176.691 314.47 178.956C302.691 181.221 290.504 179.941 279.452 175.277C268.401 170.613 258.981 162.776 252.386 152.757C245.79 142.737 242.315 130.987 242.4 118.992C242.518 102.935 248.999 87.5803 260.423 76.2962C271.847 65.012 287.28 58.7197 303.336 58.7996ZM302.664 168C312.286 168.059 321.709 165.263 329.742 159.967C337.774 154.671 344.056 147.112 347.793 138.246C351.53 129.379 352.553 119.604 350.734 110.156C348.915 100.708 344.336 92.0113 337.574 85.166C330.813 78.3206 322.174 73.634 312.749 71.6987C303.324 69.7635 293.536 70.6664 284.625 74.2935C275.713 77.9205 268.077 84.1088 262.682 92.0756C257.287 100.042 254.376 109.43 254.316 119.052C254.277 125.44 255.496 131.774 257.905 137.691C260.313 143.609 263.863 148.994 268.353 153.539C272.842 158.084 278.183 161.701 284.07 164.182C289.958 166.663 296.276 167.96 302.664 168Z" fill="#86CBE8" stroke="#282828" stroke-width="1.2" stroke-linecap="round" stroke-linejoin="round"/>
<path d="M297.946 235.397L305.709 235.445C307.618 235.456 309.175 233.919 309.186 232.01L309.474 184.863C309.486 182.954 307.948 181.397 306.04 181.386L298.276 181.338C296.367 181.327 294.81 182.864 294.799 184.773L294.511 231.92C294.499 233.829 296.037 235.386 297.946 235.397Z" fill="#86CBE8" stroke="#282828" stroke-width="1.2" stroke-linecap="round" stroke-linejoin="round"/>
<path d="M308.569 333.576H293.941L292.117 315.948H310.393L308.569 333.576Z" fill="white" stroke="#282828" stroke-width="1.2" stroke-linecap="round" stroke-linejoin="round"/>
<path d="M290.473 258.54L277.273 277.86V306.372C277.273 306.808 277.446 307.226 277.754 307.535C278.063 307.843 278.481 308.016 278.917 308.016C279.354 308.016 279.773 307.843 280.083 307.535C280.394 307.227 280.57 306.809 280.573 306.372V298.116L290.461 294.348L290.473 258.54Z" fill="#86CBE8" stroke="#282828" stroke-width="1.2" stroke-linecap="round" stroke-linejoin="round"/>
<path d="M313.777 258.54L326.977 277.86V306.372C326.973 306.809 326.798 307.227 326.487 307.535C326.177 307.843 325.758 308.016 325.321 308.016C324.885 308.016 324.466 307.843 324.158 307.535C323.85 307.226 323.677 306.808 323.677 306.372V298.116L313.777 294.348V258.54Z" fill="#86CBE8" stroke="#282828" stroke-width="1.2" stroke-linecap="round" stroke-linejoin="round"/>
<path d="M307.216 322.7L296.128 322.634C294.123 322.622 292.205 321.815 290.795 320.388C289.386 318.962 288.601 317.035 288.613 315.03L289.166 221.875C289.175 220.306 289.807 218.805 290.923 217.702C292.039 216.599 293.548 215.985 295.117 215.994L309.516 216.08C310.293 216.084 311.062 216.242 311.778 216.544C312.494 216.845 313.143 217.285 313.689 217.837C314.235 218.39 314.667 219.045 314.96 219.764C315.253 220.484 315.402 221.254 315.397 222.031L314.844 315.173C314.84 316.169 314.639 317.154 314.253 318.072C313.867 318.99 313.303 319.823 312.594 320.522C311.885 321.221 311.045 321.774 310.122 322.148C309.199 322.521 308.211 322.709 307.216 322.7Z" fill="#282828" stroke="#282828" stroke-width="1.2" stroke-linecap="round" stroke-linejoin="round"/>
<path d="M288.624 308.063V314.915C288.616 315.921 288.807 316.919 289.185 317.851C289.563 318.783 290.122 319.631 290.829 320.347C291.535 321.062 292.377 321.632 293.304 322.022C294.231 322.412 295.226 322.615 296.232 322.619L307.116 322.691C308.123 322.698 309.121 322.506 310.054 322.126C310.987 321.747 311.835 321.187 312.552 320.48C313.268 319.772 313.839 318.93 314.23 318.002C314.621 317.074 314.825 316.078 314.832 315.071V308.063H288.624Z" fill="white" stroke="#282828" stroke-width="1.2" stroke-linecap="round" stroke-linejoin="round"/>
<path d="M301.788 308.015C301.152 308.015 300.541 307.762 300.091 307.312C299.641 306.862 299.388 306.252 299.388 305.615V260.399C299.388 259.763 299.641 259.152 300.091 258.702C300.541 258.252 301.152 257.999 301.788 257.999C302.425 257.999 303.035 258.252 303.485 258.702C303.935 259.152 304.188 259.763 304.188 260.399V305.639C304.182 306.271 303.926 306.876 303.477 307.321C303.027 307.765 302.421 308.015 301.788 308.015Z" fill="#86CBE8" stroke="#282828" stroke-width="1.2" stroke-linecap="round" stroke-linejoin="round"/>
<path d="M270.42 115.307V115.715H268.8V115.199C268.8 113.831 268.272 113.039 267.072 113.039C265.872 113.039 265.332 113.831 265.332 115.175C265.332 118.559 270.42 118.883 270.42 123.143C270.42 125.435 269.316 126.923 267 126.923C264.684 126.923 263.604 125.435 263.604 123.143V122.279H265.2V123.227C265.2 124.595 265.764 125.387 266.976 125.387C268.188 125.387 268.74 124.595 268.74 123.227C268.74 119.855 263.688 119.531 263.688 115.283C263.688 112.883 264.768 111.503 267.036 111.503C269.304 111.503 270.42 113.015 270.42 115.307Z" fill="#282828"/>
<path d="M277.285 118.368V119.88H273.601V125.268H278.137V126.804H271.921V111.672H278.137V113.208H273.601V118.368H277.285Z" fill="#282828"/>
<path d="M281.388 123.756L280.8 126.804H279.252L282.144 111.672H284.544L287.436 126.804H285.744L285.168 123.756H281.388ZM281.604 122.304H284.976L283.272 113.58L281.604 122.304Z" fill="#282828"/>
<path d="M292.165 111.672C294.565 111.672 295.537 112.872 295.537 115.128V116.328C295.537 117.996 294.961 119.028 293.665 119.436C295.045 119.844 295.561 120.972 295.561 122.592V124.992C295.513 125.615 295.616 126.241 295.861 126.816H294.157C293.923 126.234 293.828 125.605 293.881 124.98V122.58C293.881 120.864 293.077 120.324 291.673 120.324H290.473V126.792H288.781V111.672H292.165ZM291.733 118.8C293.077 118.8 293.881 118.368 293.881 116.736V115.284C293.881 113.928 293.377 113.208 292.129 113.208H290.485V118.8H291.733Z" fill="#282828"/>
<path d="M303.984 115.332V116.688H302.4V115.2C302.4 113.844 301.86 113.028 300.624 113.028C299.388 113.028 298.8 113.88 298.8 115.2V123.204C298.8 124.56 299.364 125.376 300.576 125.376C301.788 125.376 302.352 124.56 302.352 123.204V121.236H303.948V123.108C303.948 125.4 302.868 126.912 300.528 126.912C298.188 126.912 297.144 125.4 297.144 123.108V115.332C297.144 113.04 298.224 111.528 300.528 111.528C302.832 111.528 303.984 113.04 303.984 115.332Z" fill="#282828"/>
<path d="M307.201 120V126.816H305.521V111.672H307.201V118.476H310.921V111.672H312.601V126.804H310.921V120H307.201Z" fill="#282828"/>
<path d="M316.009 111.672V126.804H314.329V111.672H316.009Z" fill="#282828"/>
<path d="M319.2 126.804H317.688V111.672H319.824L323.328 122.604V111.672H324.816V126.804H323.064L319.2 114.576V126.804Z" fill="#282828"/>
<path d="M333.252 115.332V116.628H331.656V115.2C331.656 113.844 331.116 113.028 329.88 113.028C328.644 113.028 328.104 113.844 328.104 115.2V123.204C328.104 124.56 328.668 125.376 329.88 125.376C331.092 125.376 331.656 124.56 331.656 123.204V120.18H330.096V118.692H333.252V123.144C333.252 125.436 332.172 126.948 329.832 126.948C327.492 126.948 326.448 125.436 326.448 123.144V115.332C326.448 113.04 327.528 111.528 329.832 111.528C332.136 111.528 333.252 113.04 333.252 115.332Z" fill="#282828"/>
<path d="M336.252 124.703V126.803H334.632V124.703H336.252Z" fill="#282828"/>
<path d="M339.6 124.703V126.803H337.98V124.703H339.6Z" fill="#282828"/>
<path d="M342.949 124.703V126.803H341.329V124.703H342.949Z" fill="#282828"/>
</svg>
