<svg width="65" height="66" viewBox="0 0 65 66" fill="none" xmlns="http://www.w3.org/2000/svg">
<path d="M62.5479 9.90456C62.3604 8.71724 61.347 7.82064 60.1447 7.82064C56.2757 7.80026 52.9664 7.92932 50.1163 7.44434V36.8421H45.6523V51.4404H41.8526L20.4482 56.5076C24.4911 59.6267 28.9714 62.1222 33.2316 64.5566C33.9842 64.9914 34.9107 64.9914 35.6633 64.5566C42.8158 60.4594 50.6339 56.2766 55.9035 49.0658C65.7906 35.5447 64.4008 21.6175 62.5479 9.90456Z" fill="#282828"/>
<path d="M34.447 65.5621C33.909 65.5621 33.371 65.4236 32.8915 65.1478L31.9881 64.6316C27.9765 62.3412 23.8276 59.9747 20.0334 57.0458C19.9319 56.9674 19.8548 56.8619 19.8108 56.7415C19.7668 56.621 19.7578 56.4906 19.7848 56.3653C19.8118 56.24 19.8737 56.1249 19.9633 56.0333C20.053 55.9416 20.1668 55.8773 20.2915 55.8476L41.6959 50.7818C41.747 50.7695 41.7995 50.7631 41.8521 50.7627H44.9725V36.8436C44.9725 36.6635 45.0441 36.4907 45.1715 36.3633C45.2989 36.236 45.4716 36.1644 45.6518 36.1644H49.4365V7.44591C49.4358 7.34678 49.4569 7.2487 49.4984 7.15863C49.5398 7.06856 49.6004 6.98868 49.6761 6.92466C49.7518 6.86063 49.8407 6.81403 49.9363 6.78813C50.032 6.76224 50.1323 6.75769 50.2299 6.77482C52.4605 7.15519 54.9873 7.15112 57.9176 7.14297C58.639 7.14025 59.3848 7.14025 60.1482 7.14297C61.6833 7.14297 62.9739 8.25965 63.2184 9.80017C65.1339 21.8975 66.347 35.9375 56.4518 49.4681C51.4199 56.3516 44.2566 60.4366 37.3297 64.3898L36.0011 65.1478C35.5283 65.4198 34.9924 65.5627 34.447 65.5621ZM22.0154 56.8352C25.4225 59.3212 29.0959 61.416 32.6605 63.451L33.568 63.97C34.1114 64.2824 34.7825 64.2824 35.3245 63.97L36.6572 63.2092C43.4605 59.328 50.4948 55.315 55.3541 48.6666C64.9424 35.5572 63.7482 21.8391 61.8762 10.0121C61.7404 9.15082 60.9959 8.50146 60.1442 8.50146H57.9203C55.2631 8.50825 52.9279 8.51504 50.795 8.23519V36.845C50.795 37.0252 50.7235 37.1979 50.5961 37.3253C50.4687 37.4527 50.2959 37.5243 50.1158 37.5243H46.331V51.442C46.331 51.6221 46.2595 51.7949 46.1321 51.9223C46.0047 52.0497 45.8319 52.1212 45.6518 52.1212H41.9322L22.0154 56.8352Z" fill="#282828"/>
<path d="M51.5601 49.0664C46.2892 56.2773 38.4724 60.4601 31.32 64.5573C30.5674 64.992 29.6409 64.992 28.8883 64.5573C21.7209 60.4601 13.8892 56.2474 8.64812 49.0664C-1.24033 35.5453 0.122232 21.6181 2.00374 9.90518C2.08303 9.33067 2.3665 8.80391 2.8023 8.42125C3.23809 8.03858 3.79709 7.8256 4.37702 7.82125C18.7974 7.7479 25.6754 3.66563 28.4821 1.29099C28.9285 0.898865 29.5024 0.682617 30.0966 0.682617C30.6909 0.682617 31.2648 0.898865 31.7112 1.29099C34.5056 3.66563 41.3823 7.7479 55.8013 7.82125C57.0036 7.82125 58.0157 8.71786 58.2059 9.90518C60.0575 21.6181 61.4472 35.5453 51.5601 49.0664Z" fill="#86CBE8"/>
<path d="M30.1043 65.5617C29.5663 65.5617 29.0283 65.4231 28.5488 65.1473L27.3329 64.4545C20.3503 60.4741 13.1313 56.3606 8.09943 49.4676C-1.842 35.8732 -0.605777 21.8631 1.33279 9.79834C1.43332 9.06238 1.79714 8.38777 2.35689 7.89946C2.91663 7.41116 3.63436 7.14223 4.37717 7.1425C18.4987 7.0705 25.2667 3.12136 28.0434 0.772534C28.6129 0.273158 29.345 -0.00149427 30.1024 6.11488e-06C30.8598 0.0015065 31.5908 0.279057 32.1583 0.780685C34.9133 3.12136 41.6596 7.0705 55.8042 7.1425C57.3393 7.1425 58.6312 8.25918 58.8744 9.7997C60.7898 21.8971 62.003 35.9371 52.1091 49.4676C47.0786 56.3511 39.9153 60.4361 32.9897 64.3879L31.6584 65.1487C31.1855 65.4202 30.6495 65.5626 30.1043 65.5617ZM30.1002 1.36484C29.6831 1.36484 29.2674 1.51155 28.9251 1.80634C26.0043 4.2788 18.9348 8.42627 4.38124 8.50099C3.5186 8.50099 2.80268 9.13404 2.67498 10.0035C0.778525 21.8074 -0.435965 35.4942 9.19573 48.6661C14.0564 55.3254 21.1477 59.3656 28.0054 63.2726L29.2253 63.9695C29.7687 64.282 30.4398 64.282 30.9805 63.9695L32.3159 63.2088C39.1178 59.3275 46.1521 55.3146 51.0114 48.6661C60.5997 35.5553 59.4055 21.8386 57.5335 10.0116C57.3977 9.15035 56.6519 8.50099 55.8015 8.50099C41.2221 8.42627 34.1743 4.27608 31.2712 1.80906C30.948 1.52323 30.5316 1.36526 30.1002 1.36484Z" fill="#282828"/>
<path d="M52.6167 32.9527H30.0889V7.45792L30.1025 7.44434C34.2594 10.2374 40.9622 12.9734 51.5299 13.5969C52.254 13.6404 52.8762 14.1757 52.9631 14.8997C53.7307 20.8363 54.0065 26.9006 52.6167 32.9527Z" fill="#F2F2F2"/>
<path d="M52.6155 33.6317H30.0904C29.9102 33.6317 29.7375 33.5601 29.6101 33.4327C29.4827 33.3053 29.4111 33.1326 29.4111 32.9524V7.45763C29.4125 7.3332 29.4472 7.21141 29.5116 7.10492C29.576 6.99843 29.6677 6.91112 29.7772 6.85205C29.8867 6.79299 30.0101 6.76433 30.1344 6.76906C30.2588 6.77378 30.3796 6.81171 30.4843 6.87891C35.6738 10.3689 42.7678 12.3998 51.5722 12.9188C52.6454 12.984 53.5148 13.7828 53.6398 14.8179C54.2824 19.7954 54.8244 26.3787 53.2798 33.1046C53.2454 33.2545 53.161 33.3883 53.0406 33.4841C52.9201 33.5798 52.7694 33.6319 52.6155 33.6317ZM30.7683 32.2732H52.0694C53.4225 25.9399 52.9022 19.7275 52.2895 14.9864C52.2433 14.5965 51.9064 14.299 51.4893 14.2745C43.0123 13.776 36.0474 11.8931 30.7683 8.67619V32.2732Z" fill="#282828"/>
<path d="M30.0906 7.45898V32.9538H7.57634C6.17166 26.8881 6.44607 20.8225 7.22856 14.8994C7.28073 14.5505 7.4519 14.2303 7.7131 13.9931C7.97429 13.756 8.30944 13.6164 8.66177 13.598C19.2444 12.9595 25.9472 10.2249 30.0879 7.45898H30.0906Z" fill="white"/>
<path d="M30.0895 33.6318H7.57384C7.42021 33.6317 7.27114 33.5795 7.15098 33.4838C7.03083 33.3881 6.94667 33.2544 6.91226 33.1047C5.34592 26.3394 5.89882 19.7752 6.55361 14.8099C6.62728 14.3051 6.873 13.8411 7.24924 13.4966C7.62549 13.152 8.10917 12.948 8.61852 12.9189C17.4202 12.3891 24.5156 10.3622 29.7091 6.89261C29.8116 6.82513 29.9304 6.78657 30.053 6.78098C30.1756 6.77539 30.2974 6.80298 30.4056 6.86085C30.5138 6.91871 30.6044 7.0047 30.6678 7.10975C30.7313 7.21481 30.7652 7.33503 30.766 7.45774V32.9525C30.766 33.1327 30.6944 33.3054 30.567 33.4328C30.4397 33.5602 30.2669 33.6318 30.0867 33.6318H30.0895ZM8.11995 32.2733H29.4089V8.69532C24.127 11.8891 17.1689 13.7652 8.70275 14.2746C8.50663 14.2839 8.31974 14.3606 8.17369 14.4918C8.02764 14.623 7.93139 14.8006 7.90124 14.9946C6.9829 21.9474 7.04946 27.3094 8.11995 32.2733Z" fill="#282828"/>
<path d="M30.0938 32.9525V58.4514L30.0992 58.4541C36.3075 54.9057 42.6775 51.2066 46.7882 45.5851C49.8367 41.4146 51.6299 37.1869 52.6094 32.9512L30.0938 32.9525Z" fill="white"/>
<path d="M30.0987 59.1368C29.918 59.1347 29.7453 59.0621 29.6174 58.9344C29.4895 58.8068 29.4165 58.6342 29.4141 58.4535V32.9546C29.4141 32.7745 29.4856 32.6017 29.613 32.4743C29.7404 32.347 29.9132 32.2754 30.0933 32.2754H52.6089C52.7111 32.2755 52.8119 32.2986 52.9038 32.343C52.9958 32.3873 53.0767 32.4518 53.1403 32.5317C53.204 32.6115 53.2489 32.7047 53.2717 32.8042C53.2944 32.9038 53.2945 33.0072 53.2719 33.1068C52.1851 37.7949 50.2452 42.009 47.3366 45.988C43.0669 51.8281 36.356 55.6632 30.437 59.0472C30.3339 59.1056 30.2173 59.136 30.0987 59.1355V59.1368ZM30.7726 33.6339V57.2893C36.3152 54.1104 42.3768 50.4697 46.239 45.1851C48.8649 41.5946 50.6704 37.8085 51.7449 33.6339H30.7726Z" fill="#282828"/>
<path d="M7.58008 32.9525C8.56227 37.1802 10.3609 41.4091 13.4134 45.5851C17.5093 51.1903 23.8738 54.9017 30.093 58.45V32.9512L7.58008 32.9525Z" fill="#F2F2F2"/>
<path d="M30.0941 59.1314C29.976 59.1317 29.8599 59.1013 29.7572 59.0431C23.8478 55.6713 17.1504 51.8485 12.8671 45.988C9.95312 42.0022 8.00777 37.7909 6.91962 33.1095C6.896 33.0098 6.8953 32.906 6.91756 32.806C6.93982 32.706 6.98447 32.6123 7.04815 32.532C7.11182 32.4517 7.19287 32.3869 7.2852 32.3425C7.37753 32.298 7.47873 32.2751 7.5812 32.2754H30.0941C30.2743 32.2754 30.447 32.347 30.5744 32.4743C30.7018 32.6017 30.7734 32.7745 30.7734 32.9546V58.4535C30.773 58.6335 30.7013 58.8061 30.574 58.9334C30.4467 59.0607 30.2741 59.131 30.0941 59.1314ZM8.44792 33.6339C9.5252 37.8045 11.3347 41.5892 13.9634 45.1865C17.8364 50.486 23.8844 54.1172 29.4149 57.2825V33.6339H8.44792Z" fill="#282828"/>
</svg>
