<svg width="200" height="100" viewBox="0 0 200 100" fill="none" xmlns="http://www.w3.org/2000/svg">
<g clip-path="url(#clip0_564_13441)">
<path d="M172.942 28.4548V53.0054H164.175V35.7837H155.734V53.0054H146.968V28.4531H172.942V28.4548Z" fill="black"/>
<path fill-rule="evenodd" clip-rule="evenodd" d="M128.963 53.8842C136.811 53.8842 142.638 49.0725 142.638 41.7779C142.638 34.7177 138.339 30.1336 131.153 30.1336C127.837 30.1336 125.1 31.3009 123.039 33.3152C123.531 29.152 127.052 26.1126 130.928 26.1126C131.822 26.1126 138.557 26.0984 138.557 26.0984L142.365 18.8105C142.365 18.8105 133.91 19.003 129.98 19.003C120.999 19.1595 114.933 27.3227 114.933 37.2373C114.933 48.788 120.849 53.8842 128.963 53.8842ZM129.011 36.5888C131.924 36.5888 133.945 38.5034 133.945 41.7771C133.945 44.7235 132.15 47.1511 129.011 47.1578C126.008 47.1578 123.988 44.9085 123.988 41.8273C123.988 38.5528 126.008 36.5888 129.011 36.5888Z" fill="black"/>
<path d="M107.797 44.7852C107.797 44.7852 105.727 45.9785 102.635 46.2044C99.0802 46.3098 95.9129 44.0647 95.9129 40.0755C95.9129 36.1843 98.7078 33.9542 102.545 33.9542C104.899 33.9542 108.012 35.5852 108.012 35.5852C108.012 35.5852 110.289 31.4052 111.469 29.3149C109.309 27.6772 106.431 26.7793 103.084 26.7793C94.6359 26.7793 88.0928 32.2872 88.0928 40.0262C88.0928 47.8638 94.2426 53.2437 103.084 53.0814C105.555 52.9893 108.964 52.1216 111.042 50.7868L107.797 44.7852Z" fill="black"/>
<path d="M0 21.6484L12.1607 43.3848V56.6434L0.0142259 78.3371L0 21.6484Z" fill="#5B57A2"/>
<path d="M46.6924 35.4766L58.0874 28.4925L81.4079 28.4707L46.6924 49.7376V35.4766Z" fill="#D90751"/>
<path d="M46.6276 21.5207L46.6921 50.299L34.5029 42.8094V-0.208984L46.6276 21.5207Z" fill="#FAB718"/>
<path d="M81.4075 28.4697L58.0862 28.4914L46.6276 21.5207L34.5029 -0.208984L81.4075 28.4697Z" fill="#ED6F26"/>
<path d="M46.6921 78.4581V64.4957L34.5029 57.1484L34.5096 100.21L46.6921 78.4581Z" fill="#63B22F"/>
<path d="M58.0586 71.5371L12.1598 43.3848L0 21.6484L81.3582 71.5087L58.0586 71.5371Z" fill="#1487C9"/>
<path d="M34.5107 100.21L46.6915 78.4587L58.058 71.5382L81.3576 71.5098L34.5107 100.21Z" fill="#017F36"/>
<path d="M0.0136719 78.3386L34.602 57.1504L22.9735 50.0156L12.1601 56.6449L0.0136719 78.3386Z" fill="#984995"/>
<path d="M95.915 69.5279C95.6473 69.8693 95.295 70.127 94.8724 70.3011C94.4388 70.4776 93.9748 70.5674 93.5067 70.5655C93.0411 70.5718 92.5782 70.4942 92.1402 70.3362C91.7467 70.1933 91.3872 69.9705 91.0841 69.6819C90.7848 69.3927 90.5499 69.0437 90.3945 68.6576C90.2264 68.2347 90.1425 67.783 90.1477 67.3279C90.1477 66.876 90.2255 66.4576 90.387 66.0609C90.5418 65.6634 90.7669 65.3229 91.0489 65.0367C91.3309 64.7446 91.669 64.522 92.0489 64.348C92.4364 64.1806 92.859 64.0902 93.3234 64.0902C93.8238 64.0902 94.2883 64.153 94.7109 64.2777C95.1335 64.4032 95.4925 64.6124 95.7878 64.9053L95.274 65.7756C95.0255 65.5504 94.7329 65.3794 94.4146 65.2735C94.1121 65.176 93.7961 65.1269 93.4782 65.1279C93.1971 65.1279 92.9293 65.1831 92.669 65.2877C92.4126 65.391 92.1782 65.5424 91.9786 65.7337C91.7747 65.9305 91.6139 66.1676 91.5067 66.43C91.387 66.7011 91.3309 67.0007 91.3309 67.3346C91.3309 67.676 91.3937 67.9823 91.5134 68.2467C91.6339 68.5187 91.7954 68.7488 91.9996 68.9429C92.2037 69.1388 92.4431 69.2844 92.7176 69.3823C92.9929 69.4869 93.2816 69.5354 93.5912 69.5354C93.9711 69.5354 94.3167 69.4584 94.6121 69.312C94.9048 69.1706 95.1678 68.9746 95.387 68.7346L95.915 69.5279ZM97.3653 70.4191V64.2224H98.4782V68.8392L102.097 64.2224H103.21V70.4199H102.097V65.8032L98.4782 70.4199L97.3653 70.4191ZM110.583 69.5279C110.309 69.8722 109.95 70.1388 109.541 70.3011C109.107 70.4775 108.643 70.5674 108.174 70.5655C107.709 70.5718 107.247 70.4941 106.809 70.3362C106.415 70.1934 106.055 69.9706 105.752 69.6819C105.453 69.3927 105.218 69.0437 105.062 68.6576C104.894 68.2347 104.81 67.783 104.815 67.3279C104.815 66.876 104.893 66.4576 105.055 66.0609C105.21 65.6634 105.436 65.3229 105.717 65.0367C105.999 64.7446 106.337 64.522 106.717 64.348C107.118 64.1712 107.553 64.0833 107.991 64.0902C108.492 64.0902 108.956 64.153 109.379 64.2777C109.801 64.4032 110.16 64.6124 110.456 64.9053L109.942 65.7756C109.694 65.5502 109.401 65.3792 109.083 65.2735C108.781 65.1761 108.465 65.1269 108.147 65.1279C107.587 65.1297 107.05 65.3466 106.646 65.7337C106.444 65.932 106.284 66.1687 106.174 66.43C106.055 66.7011 105.999 67.0007 105.999 67.3346C105.999 67.676 106.062 67.9823 106.182 68.2467C106.302 68.5187 106.463 68.7488 106.667 68.9429C106.872 69.1388 107.112 69.2844 107.386 69.3823C107.661 69.4793 107.949 69.5354 108.259 69.5354C108.64 69.5354 108.978 69.4584 109.28 69.312C109.573 69.1706 109.836 68.9746 110.055 68.7346L110.583 69.5279ZM111.154 64.2224H116.864V65.3229H114.569V70.4191H113.456V65.3229H111.16V64.2224H111.154Z" fill="black"/>
<path fill-rule="evenodd" clip-rule="evenodd" d="M122.062 70.3577C122.484 70.2255 122.843 70.0229 123.153 69.7451L122.815 68.8815C122.611 69.0631 122.336 69.2162 122.006 69.3418C121.674 69.4673 121.301 69.5292 120.893 69.5292C120.28 69.5292 119.773 69.3694 119.371 69.0422C118.971 68.7142 118.752 68.2556 118.703 67.6698H123.52C123.569 67.4539 123.59 67.2104 123.59 66.925C123.59 66.4999 123.512 66.1175 123.357 65.7694C123.213 65.4313 123.003 65.1257 122.738 64.8706C122.47 64.618 122.154 64.4216 121.808 64.2932C121.447 64.153 121.062 64.082 120.674 64.084C120.153 64.084 119.695 64.1744 119.294 64.3418C118.915 64.5012 118.573 64.7358 118.287 65.0313C118.009 65.3253 117.796 65.6738 117.661 66.0547C117.512 66.4604 117.438 66.8896 117.443 67.3217C117.443 67.8096 117.527 68.2547 117.682 68.6522C117.833 69.0373 118.063 69.3861 118.358 69.6757C118.647 69.9602 118.998 70.1769 119.414 70.3301C119.859 70.488 120.329 70.5656 120.802 70.5593C121.229 70.5567 121.654 70.4881 122.062 70.3577ZM119.245 65.5878C119.59 65.2748 120.048 65.1217 120.625 65.1217C121.167 65.1217 121.604 65.2681 121.921 65.561C122.238 65.8531 122.407 66.2573 122.435 66.7719H118.633C118.686 66.3162 118.904 65.8948 119.245 65.5878Z" fill="black"/>
<path d="M125.104 64.2227H126.118L128.526 67.2938L130.807 64.2227H131.793V70.4202H130.681V65.9013L128.512 68.7766H128.469L126.216 65.9005V70.4193H125.104V64.2227Z" fill="black"/>
<path fill-rule="evenodd" clip-rule="evenodd" d="M134.821 64.2434C134.483 64.3316 134.16 64.4698 133.863 64.6535L134.159 65.5321C134.412 65.4066 134.666 65.302 134.919 65.2116C135.173 65.1204 135.497 65.0786 135.884 65.0786C136.194 65.0786 136.441 65.1279 136.631 65.225C136.821 65.3154 136.961 65.4551 137.06 65.6225C137.159 65.7899 137.222 65.9982 137.257 66.2417C137.293 66.4853 137.307 66.7497 137.307 67.0359C137.079 66.8772 136.819 66.7701 136.546 66.7221C136.282 66.6695 136.013 66.6415 135.744 66.6384C135.412 66.6384 135.103 66.6878 134.806 66.7706C134.511 66.8543 134.257 66.9798 134.053 67.1472C133.845 67.3142 133.676 67.5258 133.56 67.7664C133.436 68.0298 133.374 68.318 133.377 68.6091C133.377 69.215 133.554 69.6886 133.905 70.0233C134.257 70.3572 134.722 70.5238 135.299 70.5238C135.821 70.5238 136.236 70.4334 136.553 70.2526C136.87 70.071 137.124 69.8627 137.307 69.6258V70.4267H138.349V66.625C138.349 65.8166 138.173 65.1907 137.814 64.7514C137.462 64.3129 136.835 64.0903 135.948 64.0903C135.553 64.0903 135.18 64.1455 134.821 64.2434ZM136.681 69.2643C136.427 69.4451 136.096 69.5279 135.688 69.5279C135.329 69.5279 135.047 69.4376 134.85 69.2635C134.652 69.0827 134.554 68.8459 134.554 68.553C134.554 68.3798 134.589 68.2334 134.667 68.1012C134.744 67.9689 134.85 67.8643 134.97 67.7807C135.1 67.6931 135.246 67.6294 135.399 67.5924C135.561 67.5505 135.723 67.5296 135.892 67.5296C136.442 67.5296 136.913 67.6618 137.3 67.9405V68.7271C137.118 68.9317 136.909 69.1128 136.681 69.2643ZM148.173 62.0426C148.398 61.9388 148.609 61.7648 148.806 61.507L148.201 60.6367C148.046 60.8459 147.87 60.9915 147.672 61.0685C147.463 61.1503 147.246 61.2109 147.025 61.2493L146.814 61.2869C146.631 61.3187 146.434 61.3539 146.222 61.389C145.883 61.4518 145.552 61.5546 145.236 61.6953C144.736 61.9112 144.335 62.2032 144.032 62.5723C143.729 62.9413 143.49 63.3589 143.328 63.8191C143.163 64.2854 143.052 64.7688 142.997 65.2602C142.94 65.7622 142.913 66.2417 142.913 66.7012C142.913 67.2936 142.99 67.8292 143.144 68.3095C143.3 68.7907 143.518 69.194 143.806 69.5212C144.095 69.856 144.441 70.107 144.849 70.2878C145.257 70.4685 145.715 70.5589 146.229 70.5589C146.701 70.5589 147.138 70.4685 147.532 70.3012C147.912 70.1403 148.257 69.9063 148.546 69.6124C148.827 69.3263 149.053 68.9848 149.208 68.6024C149.37 68.2191 149.447 67.8083 149.447 67.3765C149.447 66.9104 149.377 66.4861 149.243 66.1095C149.12 65.7505 148.923 65.4211 148.666 65.1422C148.408 64.8679 148.093 64.6536 147.743 64.5145C147.357 64.3627 146.946 64.2871 146.532 64.2919C146.264 64.2919 146.004 64.3271 145.75 64.3965C145.504 64.4661 145.267 64.5667 145.046 64.6961C144.831 64.8191 144.635 64.9711 144.462 65.148C144.293 65.3229 144.152 65.5179 144.053 65.7405H144.025C144.047 65.4551 144.082 65.1631 144.144 64.8635C144.208 64.5639 144.299 64.2777 144.42 64.0066C144.539 63.7355 144.694 63.4911 144.884 63.2685C145.088 63.0438 145.338 62.8657 145.616 62.7463C145.923 62.6003 146.247 62.4951 146.581 62.4334L146.802 62.3932C147.022 62.353 147.232 62.3145 147.433 62.2727C147.701 62.2175 147.947 62.1463 148.173 62.0426ZM144.257 67.9965C144.149 67.645 144.096 67.2783 144.103 66.9104C144.15 66.6992 144.236 66.4986 144.356 66.3187C144.476 66.1304 144.631 65.9639 144.814 65.8166C145.227 65.4926 145.739 65.3186 146.264 65.3229C146.919 65.3229 147.412 65.5246 147.757 65.9221C148.103 66.3254 148.272 66.8267 148.272 67.4325C148.272 67.7321 148.215 68.0041 148.117 68.2543C148.022 68.5011 147.878 68.7263 147.694 68.9165C147.51 69.1066 147.29 69.258 147.047 69.3614C146.793 69.4727 146.518 69.5288 146.208 69.5288C145.898 69.5288 145.616 69.466 145.356 69.3405C145.098 69.2175 144.869 69.0392 144.687 68.8183C144.496 68.5721 144.35 68.2938 144.257 67.9965ZM157.982 64.2225H156.869V70.42H157.982V64.2225ZM151.052 64.2225H152.165V66.0819H153.194C153.679 66.0819 154.073 66.1447 154.39 66.2627C154.708 66.3815 154.961 66.5413 155.151 66.7363C155.341 66.9313 155.475 67.1614 155.553 67.4183C155.63 67.676 155.672 67.9405 155.672 68.2191C155.672 68.4978 155.63 68.7631 155.539 69.0275C155.454 69.2919 155.306 69.5212 155.108 69.7304C154.912 69.9396 154.644 70.107 154.306 70.2325C153.968 70.3572 153.56 70.4267 153.067 70.4267H151.046V64.2225H151.052ZM152.165 67.1187V69.389H152.975C153.532 69.389 153.926 69.2919 154.151 69.0961C154.377 68.9012 154.489 68.6233 154.489 68.2543C154.489 67.8777 154.37 67.5932 154.144 67.3974C153.912 67.2024 153.524 67.1045 152.99 67.1045H152.165V67.1187Z" fill="black"/>
<path d="M165.341 69.5279C165.073 69.8693 164.721 70.127 164.298 70.3011C163.865 70.4775 163.401 70.5674 162.932 70.5655C162.467 70.5718 162.004 70.4942 161.566 70.3363C161.172 70.1936 160.813 69.9707 160.51 69.6819C160.211 69.3925 159.975 69.0436 159.819 68.6576C159.652 68.2345 159.568 67.7829 159.573 67.3279C159.573 66.876 159.65 66.4576 159.813 66.0609C159.968 65.6635 160.193 65.3229 160.475 65.0367C160.757 64.7446 161.094 64.522 161.475 64.348C161.876 64.1712 162.311 64.0833 162.749 64.0902C163.249 64.0902 163.714 64.153 164.137 64.2777C164.559 64.4032 164.918 64.6124 165.214 64.9053L164.7 65.7756C164.451 65.5504 164.159 65.3794 163.84 65.2735C163.538 65.176 163.222 65.1269 162.904 65.1279C162.623 65.1279 162.355 65.1831 162.094 65.2877C161.838 65.391 161.604 65.5424 161.404 65.7337C161.202 65.9318 161.041 66.1686 160.932 66.43C160.813 66.7011 160.757 67.0007 160.757 67.3346C160.757 67.676 160.819 67.9823 160.939 68.2467C161.059 68.5187 161.221 68.7488 161.425 68.943C161.63 69.1388 161.869 69.2844 162.143 69.3823C162.419 69.4793 162.707 69.5354 163.017 69.5354C163.397 69.5354 163.735 69.4584 164.038 69.312C164.331 69.1706 164.594 68.9746 164.813 68.7346L165.341 69.5279ZM165.911 64.2224H171.622V65.3229H169.326V70.4191H168.214V65.3229H165.918V64.2224H165.911Z" fill="black"/>
<path fill-rule="evenodd" clip-rule="evenodd" d="M173.946 64.2242H172.833V73.1782H173.946V70.1355C174.171 70.2819 174.439 70.3865 174.748 70.456C175.058 70.5254 175.382 70.5598 175.713 70.5598C176.206 70.5598 176.65 70.4694 177.051 70.3028C177.437 70.1381 177.786 69.8992 178.079 69.5999C178.368 69.2995 178.586 68.9514 178.741 68.5405C178.896 68.1305 178.974 67.6911 178.974 67.225C178.974 66.7648 178.903 66.3405 178.769 65.9572C178.643 65.5933 178.447 65.2575 178.192 64.969C177.942 64.6875 177.631 64.4661 177.283 64.3213C176.903 64.1579 176.493 64.0772 176.079 64.0844C175.643 64.0844 175.235 64.1681 174.847 64.3355C174.46 64.5028 174.157 64.7037 173.946 64.9547V64.2242ZM174.721 65.3731C175.038 65.2058 175.383 65.1221 175.756 65.1221C176.08 65.1221 176.369 65.1706 176.63 65.2752C176.883 65.3798 177.094 65.5263 177.271 65.7213C177.446 65.9162 177.58 66.1397 177.665 66.4033C177.756 66.6677 177.799 66.9539 177.799 67.2669C177.799 67.6016 177.742 67.9003 177.644 68.179C177.552 68.4432 177.405 68.6852 177.214 68.8895C177.022 69.0913 176.789 69.2501 176.531 69.3556C176.243 69.476 175.934 69.5353 175.622 69.5296C175.32 69.5296 175.038 69.4953 174.77 69.4259C174.477 69.3461 174.199 69.2189 173.947 69.0493V65.9782C174.143 65.7422 174.405 65.5405 174.721 65.3731ZM187.508 64.2233H186.395V70.4208H187.508V64.2233ZM180.572 64.2233H181.685V66.0828H182.713C183.199 66.0828 183.593 66.1455 183.91 66.2635C184.227 66.3823 184.481 66.5422 184.671 66.7372C184.861 66.9321 184.995 67.1623 185.072 67.4192C185.149 67.6769 185.191 67.9413 185.191 68.22C185.191 68.4987 185.149 68.7639 185.058 69.0284C184.974 69.2928 184.825 69.5221 184.628 69.7313C184.431 69.9405 184.164 70.1079 183.825 70.2334C183.487 70.3581 183.079 70.4275 182.586 70.4275H180.565V64.2233H180.572ZM181.692 67.1196V69.3899H182.502C183.058 69.3899 183.453 69.2928 183.678 69.097C183.903 68.902 184.016 68.6242 184.016 68.2551C184.016 67.8786 183.897 67.5941 183.672 67.3982C183.439 67.2033 183.051 67.1054 182.517 67.1054H181.692V67.1196Z" fill="black"/>
<path d="M192.847 67.2101L195.226 70.4202H193.861L192.022 67.913L190.156 70.4202H188.861L191.226 67.2653L189.001 64.2227H190.368L192.065 66.5624L193.79 64.2227H195.086L192.847 67.2101ZM95.0918 78.0796H91.6767V83.2461H90.5637V77.0494H96.2039V83.2461H95.0918V78.0796ZM102.52 78.149H100.324L100.252 79.1934C100.175 80.0779 100.07 80.7883 99.9219 81.3306C99.7738 81.8745 99.5905 82.2921 99.3796 82.5842C99.1687 82.8771 98.9219 83.0787 98.6399 83.1766C98.349 83.2821 98.0413 83.334 97.7319 83.3298L97.6474 82.257C97.7671 82.2637 97.9077 82.236 98.0625 82.1666C98.2181 82.0971 98.3729 81.944 98.5202 81.7147C98.6683 81.4771 98.8022 81.1432 98.9219 80.7114C99.0415 80.2729 99.1194 79.7022 99.1612 78.9842L99.2742 77.0553H103.633V83.2528H102.52V78.149Z" fill="black"/>
<path fill-rule="evenodd" clip-rule="evenodd" d="M106.633 77.0633C106.273 77.1604 105.949 77.2993 105.675 77.4733L105.971 78.3512C106.225 78.2256 106.478 78.121 106.731 78.0307C106.985 77.9403 107.309 77.8984 107.696 77.8984C108.006 77.8984 108.252 77.947 108.442 78.0441C108.633 78.1353 108.774 78.2742 108.872 78.4415C108.97 78.6089 109.034 78.8181 109.069 79.0608C109.104 79.3051 109.118 79.5696 109.118 79.8549C108.891 79.6965 108.631 79.5897 108.358 79.542C108.093 79.4894 107.825 79.4613 107.555 79.4583C107.225 79.4583 106.914 79.5068 106.619 79.5905C106.323 79.6742 106.069 79.7997 105.865 79.9671C105.656 80.1341 105.488 80.3457 105.372 80.5863C105.248 80.8498 105.186 81.1379 105.19 81.429C105.19 82.034 105.365 82.5085 105.718 82.8424C106.069 83.1763 106.534 83.3436 107.112 83.3436C107.633 83.3436 108.048 83.2533 108.365 83.0717C108.682 82.8909 108.935 82.6817 109.118 82.4449V83.2457H110.161V79.444C110.161 78.6365 109.985 78.0097 109.626 77.5712C109.273 77.1319 108.647 76.9102 107.759 76.9102C107.379 76.9105 107 76.9625 106.633 77.0633ZM108.499 82.0825C108.247 82.2641 107.915 82.3478 107.507 82.3478C107.14 82.3478 106.866 82.2574 106.669 82.0825C106.472 81.9018 106.373 81.665 106.373 81.3729C106.373 81.1989 106.408 81.0524 106.486 80.9202C106.563 80.788 106.669 80.6834 106.789 80.5997C106.908 80.516 107.056 80.4533 107.218 80.4114C107.379 80.3698 107.545 80.349 107.711 80.3495C108.26 80.3495 108.732 80.4817 109.119 80.7595V81.5461C108.936 81.7508 108.728 81.931 108.499 82.0825Z" fill="black"/>
<path d="M111.251 77.0488H116.962V78.1484H114.666V83.2455H113.554V78.1492H111.259V77.0488H111.251Z" fill="black"/>
<path fill-rule="evenodd" clip-rule="evenodd" d="M122.16 83.1849C122.583 83.0527 122.942 82.8502 123.251 82.5724L122.913 81.7088C122.709 81.8903 122.435 82.0435 122.103 82.169C121.773 82.2945 121.4 82.3565 120.991 82.3565C120.379 82.3565 119.872 82.1966 119.47 81.8694C119.068 81.5422 118.851 81.0828 118.801 80.497H123.618C123.667 80.282 123.688 80.0376 123.688 79.7523C123.688 79.328 123.61 78.9447 123.456 78.5966C123.311 78.2587 123.101 77.9533 122.836 77.6987C122.568 77.4456 122.252 77.2489 121.907 77.1205C121.545 76.9803 121.161 76.9093 120.773 76.9113C120.251 76.9113 119.794 77.0016 119.393 77.169C119.014 77.3281 118.671 77.5627 118.385 77.8586C118.108 78.1527 117.895 78.5012 117.759 78.882C117.61 79.2877 117.536 79.7169 117.54 80.1489C117.54 80.6368 117.625 81.082 117.78 81.4795C117.935 81.8761 118.167 82.2175 118.456 82.5029C118.744 82.7883 119.097 83.0042 119.513 83.1573C119.958 83.3155 120.427 83.3934 120.899 83.3874C121.315 83.3874 121.738 83.3171 122.16 83.1849ZM119.337 78.4083C119.682 78.0954 120.139 77.9422 120.717 77.9422C121.267 77.9422 121.696 78.0954 122.013 78.3807C122.329 78.6736 122.498 79.077 122.527 79.5924H118.724C118.778 79.1365 118.996 78.7156 119.337 78.4083ZM124.231 77.051H125.639L127.786 80.0385L125.491 83.2477H124.125L126.533 80.0376L124.231 77.051ZM128.061 77.051H129.174V83.2477H128.061V77.051ZM133.152 83.2477L130.702 80.0376L132.99 77.0502H131.61L129.448 80.0376L131.772 83.2477H133.152ZM138.236 83.1849C138.659 83.0527 139.018 82.8502 139.328 82.5724L138.99 81.7088C138.785 81.8903 138.511 82.0435 138.18 82.169C137.849 82.2945 137.476 82.3565 137.067 82.3565C136.455 82.3565 135.948 82.1966 135.546 81.8694C135.145 81.5422 134.927 81.0828 134.877 80.497H139.694C139.744 80.282 139.764 80.0376 139.764 79.7523C139.764 79.328 139.687 78.9447 139.532 78.5966C139.388 78.2589 139.177 77.9535 138.913 77.6987C138.645 77.4456 138.328 77.2489 137.983 77.1205C137.621 76.9802 137.237 76.9092 136.849 76.9113C136.328 76.9113 135.871 77.0016 135.469 77.169C135.09 77.3283 134.748 77.5629 134.462 77.8586C134.184 78.1523 133.971 78.5009 133.836 78.882C133.687 79.2876 133.613 79.7169 133.617 80.1489C133.617 80.6368 133.702 81.082 133.857 81.4795C134.011 81.8761 134.244 82.2175 134.533 82.5029C134.821 82.7883 135.173 83.0042 135.589 83.1573C136.034 83.3155 136.504 83.3934 136.976 83.3874C137.404 83.3842 137.829 83.316 138.236 83.1849ZM135.413 78.4083C135.759 78.0954 136.216 77.9422 136.794 77.9422C137.336 77.9422 137.772 78.0954 138.089 78.3807C138.406 78.6736 138.575 79.077 138.603 79.5924H134.8C134.854 79.1365 135.072 78.7156 135.413 78.4083ZM144.279 74.969C143.624 74.969 143.265 74.6067 143.209 73.8828H142.159C142.159 74.1606 142.209 74.4117 142.3 74.6485C142.392 74.8853 142.526 75.087 142.702 75.2544C142.877 75.4217 143.103 75.5539 143.364 75.6577C143.624 75.7623 143.927 75.8108 144.272 75.8108C144.589 75.8108 144.871 75.7623 145.124 75.6577C145.378 75.5606 145.589 75.4217 145.772 75.2544C145.948 75.087 146.089 74.8853 146.187 74.6485C146.286 74.4117 146.335 74.1606 146.335 73.8828H145.293C145.244 74.6067 144.898 74.969 144.279 74.969ZM141.272 77.0502V83.2477H142.385L146.004 78.6309V83.2477H147.117V77.0502H146.004L142.385 81.6669V77.0502H141.272Z" fill="black"/>
</g>
<defs>
<clipPath id="clip0_564_13441">
<rect width="200" height="100.418" fill="white" transform="translate(0 -0.208984)"/>
</clipPath>
</defs>
</svg>
