<svg width="200" height="45" viewBox="0 0 200 45" fill="none" xmlns="http://www.w3.org/2000/svg">
<mask id="mask0_564_13311" style="mask-type:luminance" maskUnits="userSpaceOnUse" x="0" y="0" width="200" height="45">
<path d="M199.651 0H0V44.586H199.651V0Z" fill="white"/>
</mask>
<g mask="url(#mask0_564_13311)">
<path d="M64.3126 23.2784L58.7886 11.6387H53.6592L61.7478 28.605L55.8294 40.2448H61.156L75.3603 11.6387H70.0337L64.3126 23.2784Z" fill="black"/>
<path d="M105.15 0.591797H100.612V31.9598H105.15V0.591797Z" fill="black"/>
<path d="M86.0132 15.3861C87.1991 15.41 88.3572 15.7505 89.367 16.3726C90.3499 17.0259 91.1617 17.9054 91.7345 18.9372H96.2719C95.6867 16.4068 94.1272 14.2092 91.9317 12.8216C89.7559 11.4528 87.1936 10.8295 84.6322 11.046C82.094 11.3727 79.7708 12.6399 78.1219 14.5971C76.4215 16.4897 75.5047 18.9582 75.5572 21.5019C75.5201 22.9041 75.7824 24.2981 76.3267 25.5909C76.871 26.8836 77.6848 28.0454 78.7137 28.9988C79.6988 29.961 80.8309 30.7602 82.0676 31.3661C83.374 31.9296 84.7884 32.199 86.2105 32.1552C88.5592 32.161 90.8453 31.3989 92.7208 29.9851C94.5825 28.474 95.8989 26.3956 96.4693 24.0667H91.9317C91.4968 25.1289 90.7372 26.0265 89.7616 26.6314C88.7964 27.2274 87.7242 27.6296 86.6051 27.8151C85.4615 27.8105 84.3272 27.6103 83.2513 27.2232C82.2657 26.67 81.3952 25.9334 80.6866 25.053C80.0645 24.1159 79.7224 23.021 79.7002 21.8966C79.6555 20.7905 79.9294 19.6949 80.4893 18.74C81.069 17.766 81.8828 16.9523 82.8566 16.3726C83.8449 15.8664 84.9126 15.5328 86.0132 15.3861Z" fill="black"/>
<path d="M114.62 11.6387H110.082V31.9588H114.62V11.6387Z" fill="black"/>
<path d="M112.253 3.55166C111.911 3.50019 111.562 3.56999 111.266 3.74894C110.872 3.94622 110.674 4.1435 110.28 4.34079C110.04 4.64174 109.84 4.97349 109.688 5.3272C109.545 5.63578 109.478 5.97383 109.491 6.31362C109.46 6.71834 109.527 7.12456 109.688 7.49731C109.885 7.89189 110.083 8.08917 110.28 8.48373C110.581 8.7241 110.913 8.92315 111.266 9.07558C112.034 9.33862 112.866 9.33862 113.634 9.07558C114.028 8.87829 114.226 8.68102 114.62 8.48373C114.86 8.18278 115.06 7.85103 115.212 7.49731C115.373 7.12456 115.44 6.71834 115.409 6.31362C115.461 5.97186 115.391 5.62288 115.212 5.3272C114.972 5.02624 114.773 4.6945 114.62 4.34079C114.319 4.10042 113.987 3.90138 113.634 3.74894C113.189 3.60168 112.721 3.53487 112.253 3.55166Z" fill="black"/>
<path d="M170.846 5.13086H166.506V27.6212C166.494 28.22 166.605 28.8148 166.829 29.3701C167.053 29.9255 167.387 30.43 167.81 30.8535C168.234 31.277 168.739 31.6108 169.294 31.8351C169.85 32.0593 170.443 32.1693 171.043 32.1586H177.355V27.8184H171.634C171.437 27.8184 171.437 27.6212 171.239 27.6212C171.043 27.6212 171.043 27.4238 171.043 27.2265V16.3759H177.553V12.0358H171.043V5.13086H170.846Z" fill="black"/>
<path d="M123.3 19.53C123.734 18.3104 124.538 17.2563 125.598 16.5138C126.659 15.7714 127.924 15.3777 129.219 15.3871C130.471 15.383 131.699 15.7244 132.77 16.3735C133.766 17.1749 134.574 18.1851 135.137 19.3327H123.3V19.53ZM129.416 11.2441C128.002 11.2059 126.594 11.4477 125.273 11.9556C123.953 12.4634 122.746 13.2273 121.722 14.2034C119.923 16.2847 118.941 18.949 118.96 21.7002C118.922 23.1144 119.164 24.5223 119.671 25.8426C120.179 27.163 120.943 28.37 121.919 29.3942C123.91 31.3857 126.601 32.5188 129.416 32.5508C132.298 32.5578 135.063 31.4228 137.11 29.3942C137.945 28.5377 138.614 27.5345 139.082 26.435L133.954 26.6322C133.379 27.2019 132.712 27.6689 131.98 28.0132C131.235 28.3346 130.423 28.47 129.614 28.4077C128.777 28.4305 127.944 28.2851 127.164 27.9801C126.385 27.6751 125.675 27.2168 125.076 26.6322C124.295 25.8828 123.747 24.9237 123.498 23.8703H140.07V23.4758C140.07 23.0811 140.267 22.4893 140.267 21.8974C140.235 19.0475 139.076 16.3261 137.042 14.3293C135.009 12.3325 132.266 11.2231 129.416 11.2441Z" fill="black"/>
<path d="M153.485 11.2452C151.671 11.1636 149.897 11.8018 148.552 13.0209V11.6398H144.212V31.96H148.552V20.3202C148.519 19.0698 148.975 17.8555 149.822 16.9349C150.669 16.0142 151.841 15.4596 153.09 15.3882C153.729 15.3848 154.362 15.5117 154.952 15.7609C155.541 16.01 156.073 16.3765 156.516 16.8378C156.958 17.2992 157.304 17.8458 157.528 18.4445C157.753 19.0433 157.854 19.6814 157.825 20.3202V31.96H162.165V19.9257C162.189 18.7791 161.981 17.6395 161.553 16.5754C161.125 15.5113 160.487 14.5447 159.676 13.7338C158.865 12.9229 157.899 12.2844 156.835 11.8567C155.77 11.429 154.631 11.221 153.485 11.2452Z" fill="black"/>
<path d="M193.532 19.53H187.22C186.99 19.5365 186.76 19.4859 186.554 19.3827C186.348 19.2794 186.169 19.1267 186.037 18.9381C185.863 18.7905 185.722 18.6097 185.62 18.4064C185.518 18.203 185.458 17.9813 185.444 17.7545C185.438 17.5236 185.489 17.2948 185.592 17.0883C185.695 16.8817 185.848 16.704 186.037 16.5708C186.183 16.3978 186.364 16.2564 186.568 16.1547C186.772 16.0529 186.993 15.9932 187.22 15.9789H198.662V11.6387H187.22C185.614 11.722 184.084 12.348 182.88 13.4142C182.018 14.2696 181.43 15.3622 181.192 16.5527C180.953 17.7431 181.074 18.9778 181.54 20.0992C182.005 21.2206 182.793 22.178 183.806 22.8496C184.818 23.5212 186.006 23.8765 187.22 23.8703H193.532C193.641 23.8574 193.749 23.8683 193.851 23.9025C193.954 23.9366 194.047 23.9929 194.125 24.0674C194.322 24.0674 194.52 24.2648 194.717 24.4621C194.914 24.6593 194.914 24.8566 195.111 25.0539C195.308 25.2511 195.308 25.4485 195.308 25.6458C195.314 25.8766 195.265 26.1054 195.162 26.3119C195.058 26.5184 194.906 26.6962 194.717 26.8295C194.569 27.0024 194.388 27.1439 194.185 27.2455C193.982 27.3472 193.76 27.4071 193.532 27.4213H181.695V31.7616H193.532C194.335 31.7269 195.13 31.5943 195.9 31.3669C197.378 30.6787 198.565 29.491 199.255 28.0132C199.576 27.2677 199.711 26.4552 199.648 25.6458C199.614 24.8435 199.481 24.0485 199.255 23.2784C198.909 22.5468 198.443 21.8796 197.874 21.3055C197.263 20.7801 196.602 20.3174 195.9 19.9245C195.13 19.6971 194.335 19.5646 193.532 19.53Z" fill="black"/>
<path d="M36.2988 0H8.08726C7.00797 0.00506069 5.93853 0.205581 4.93072 0.59185C3.93244 0.943713 3.04678 1.55685 2.36604 2.3674C1.60136 3.08873 0.996489 3.96243 0.590492 4.93208C0.186756 5.93487 -0.0143965 7.00768 -0.00135748 8.08861V36.4973C0.00370321 37.5767 0.204223 38.6461 0.590492 39.6539C0.942356 40.6522 1.5555 41.5378 2.36604 42.2186C3.08737 42.9833 3.96108 43.5882 4.93072 43.9941C5.93351 44.3978 7.00633 44.599 8.08726 44.586H36.496C37.5754 44.5809 38.6448 44.3804 39.6526 43.9941C40.6508 43.6423 41.5365 43.0292 42.2173 42.2186C42.9819 41.4972 43.5868 40.6236 43.9928 39.6539C44.3965 38.6511 44.5976 37.5783 44.5847 36.4973V8.08861C44.5796 7.00932 44.3791 5.93989 43.9928 4.93208C43.641 3.9338 43.0277 3.04814 42.2173 2.3674C41.4959 1.60271 40.6222 0.997846 39.6526 0.59185C38.5765 0.204673 37.4422 0.00450051 36.2988 0Z" fill="#FFCB05"/>
<path d="M35.5088 11.64H25.8419C25.7349 11.6271 25.6262 11.6381 25.5239 11.6722C25.4215 11.7063 25.328 11.7627 25.25 11.8373C25.0528 12.0346 24.8555 12.0346 24.6582 12.2318L14.0049 28.8036C13.8769 28.9743 13.8076 29.1821 13.8076 29.3955C13.8076 29.609 13.8769 29.8166 14.0049 29.9873L18.7397 37.4841C18.7397 37.5364 18.7605 37.5865 18.7976 37.6236C18.8345 37.6606 18.8847 37.6813 18.937 37.6813H19.3316L19.5289 37.4841L35.7061 12.2318C36.1006 12.0346 35.9034 11.64 35.5088 11.64Z" fill="black"/>
<path d="M15.5839 21.3055L21.305 12.4278C21.5023 12.0332 21.305 11.8359 20.9105 11.8359H9.46806C9.07348 11.8359 8.87621 12.0332 9.07348 12.4278L14.7947 21.3055C14.7947 21.3579 14.8155 21.4081 14.8525 21.445C14.8895 21.4821 14.9397 21.5028 14.992 21.5028H15.1892C15.3407 21.4884 15.4815 21.4181 15.5839 21.3055Z" fill="black"/>
</g>
</svg>
