<svg width="200" height="47" viewBox="0 0 200 47" fill="none" xmlns="http://www.w3.org/2000/svg">
<g clip-path="url(#clip0_564_13414)">
<path d="M51.692 22.2229L52.3714 20.0439L50.1221 20.1155C49.9333 20.1155 48.5509 20.0742 47.2127 19.1025C47.3133 19.1108 47.4111 19.1259 47.5159 19.1259C48.8941 19.1259 50.2297 18.2935 50.763 17.1027L51.7305 14.9527C50.5177 14.9692 49.4082 14.8162 49.4082 14.8162C49.3985 14.8162 48.5247 14.7018 47.5145 13.6668C46.7895 12.9267 45.8923 12.5339 44.9206 12.5339C44.5359 12.5354 44.1538 12.5963 43.7877 12.7144C43.8387 12.5408 43.8869 12.363 43.9159 12.1811C44.2232 10.1688 42.9318 8.63621 42.9318 8.63621L41.2407 6.53851L40.1919 9.0028C40.1878 9.01107 39.9231 9.58991 39.4504 9.87107C39.307 9.1461 38.9556 8.33157 38.2058 7.55285C36.7904 6.0864 35.0689 5.86587 34.1676 5.86587C33.75 5.86587 33.4509 5.91273 33.3792 5.92376L31.338 6.32621C31.4552 5.87001 31.7074 5.07199 32.165 4.35671L33.2924 2.59945L30.4573 2.92334L29.5546 1.00206L27.8055 1.90483L26.1889 0.304688L24.5763 1.90347L22.8246 1.00211L21.9232 2.92203L19.0895 2.59814L20.2183 4.35816C20.6772 5.07349 20.9267 5.86735 21.0439 6.32353L19.0964 5.93763L19.0289 5.92798C18.7599 5.8856 18.488 5.86487 18.2157 5.86596C17.3143 5.86596 15.5929 6.08648 14.1816 7.55293C13.4305 8.33025 13.0776 9.14618 12.9343 9.87116C12.4643 9.59137 12.201 9.02355 12.201 9.02355L11.1508 6.54271L9.43215 8.65696C9.22265 8.92847 8.18758 10.3701 8.46739 12.1853C8.49771 12.3658 8.54457 12.5422 8.59556 12.7159C8.23051 12.5974 7.84921 12.5364 7.46538 12.5354C6.49233 12.5354 5.59509 12.9282 4.86876 13.6683C3.86262 14.6992 2.99299 14.8163 2.99987 14.8163C2.99987 14.8163 2.08057 14.9817 0.656857 14.9542L1.62026 17.1042C2.15503 18.295 3.49191 19.1275 4.8674 19.1275C4.97215 19.1275 5.07 19.1123 5.17199 19.104C3.83511 20.0771 2.45409 20.117 2.28732 20.117L-0.00195312 20.044L0.691299 22.2216C1.04137 23.3463 2.20737 25.2055 4.44013 25.4054C4.19755 26.4253 3.65868 27.5692 2.47612 28.0627L0.769837 28.7656L1.70016 30.3891C2.22527 31.2643 3.45878 32.2883 5.21332 32.2883C5.59234 32.2883 5.95896 32.2484 6.31318 32.1739C6.40277 32.5736 6.51578 32.9733 6.64948 33.373C7.17047 34.9304 6.72114 36.0165 6.71563 36.0289L5.87491 37.7958L7.75345 38.2919C7.77688 38.3002 8.34609 38.4573 9.05589 38.4573C9.3784 38.4573 9.68714 38.4229 9.97655 38.354C10.1943 38.303 10.4038 38.234 10.6064 38.1527C10.8504 38.5896 11.1453 38.9893 11.4899 39.3463C12.6945 40.5853 14.4034 41.2125 16.5644 41.2125H16.5713L18.1149 41.1918L14.9256 42.5204L17.3472 43.6933C18.2279 44.1233 19.2698 44.6305 20.3338 45.0192L20.0306 45.8475L20.8644 46.2292C20.9389 46.2637 22.5459 46.9818 25.2128 47.1348C25.2128 47.1348 25.8564 47.1651 26.2106 47.1651C26.5662 47.1651 27.203 47.1334 27.203 47.1334C29.8519 46.9763 31.4452 46.2637 31.5196 46.2293L32.3562 45.8475L32.0516 45.0178C33.1432 44.6181 34.2251 44.0888 35.07 43.6767L37.4461 42.519L34.2665 41.1917L35.817 41.2124C37.9808 41.2124 39.6899 40.5839 40.8929 39.3449C41.2361 38.9893 41.5297 38.591 41.775 38.1527C42.267 38.3562 42.7946 38.4592 43.327 38.4559C44.0257 38.4559 44.6004 38.3016 44.6156 38.296L46.5038 37.7958L45.681 36.0606C45.6617 36.0165 45.2124 34.9304 45.7333 33.3702C45.867 32.9733 45.9787 32.5722 46.0696 32.1739C46.4239 32.2484 46.7946 32.2869 47.1764 32.2883C49.4119 32.2883 50.4842 30.713 50.6909 30.3712L51.6129 28.7641L49.9067 28.0626C48.7214 27.5706 48.1838 26.4266 47.9441 25.4081C50.1479 25.2151 51.329 23.3545 51.6929 22.2244L51.692 22.2229Z" fill="white"/>
<path d="M33.9648 29.1027H18.425V34.9588C18.425 37.3543 20.1547 38.8524 22.7086 38.8524C24.8407 38.8524 25.4031 38.9351 26.1956 39.7248C26.7427 39.1777 27.1948 38.9751 28.1251 38.8979L28.1458 38.8083L28.635 37.2909C28.6075 37.2564 27.8081 36.3454 27.8081 36.3454C27.4911 36.4515 27.2237 36.4694 26.7744 36.4694C26.3154 36.4694 25.7958 36.4143 25.2321 36.3096C25.1793 36.297 25.1252 36.2906 25.0709 36.2903C25.0019 36.2903 24.9978 36.2958 24.9785 36.3302L24.882 36.4915L24.7029 36.7864L24.368 36.7079L22.8767 36.3564L22.6713 36.6941L22.703 36.7313L22.8836 36.9312L22.8036 37.193C22.6934 37.5334 22.3378 37.9318 22.2289 38.042L21.8567 38.4417L21.5163 38.0131L21.2613 37.692C20.9926 37.3915 20.9306 36.9312 21.0822 36.4488C21.0777 36.452 21.0725 36.454 21.067 36.4543L20.6467 36.6294L20.4578 36.2159L20.3241 35.9251C20.1958 35.6275 20.1727 35.2951 20.2586 34.9827C20.3446 34.6703 20.5344 34.3965 20.7969 34.2064L21.9959 33.5269L23.1399 33.7516C23.1675 33.6413 23.2088 33.2499 23.2405 33.1493C23.2184 33.1465 23.1978 33.1424 23.1757 33.1424L22.5169 33.3877L21.8829 32.9495C21.8829 32.9495 21.6349 32.7097 21.8595 32.4698L22.4728 31.5368L20.9154 29.5796L23.3094 30.5637L23.4693 30.3666L23.7918 29.978L24.1584 30.328C24.2548 30.4223 24.3218 30.5424 24.3514 30.674C25.0102 30.9317 26.1927 31.6911 26.2974 32.926L25.9281 33.0735V33.0832C26.0121 33.1838 26.0824 33.2251 26.1045 33.2292L27.8135 33.3974C27.8576 33.3891 27.91 33.3698 27.9706 33.3533C28.1843 33.2802 28.5026 33.1741 28.8803 33.1741C29.189 33.1741 29.4867 33.2458 29.772 33.3809C29.8781 33.3395 30.0063 33.3106 30.1579 33.3009L30.2406 33.2982C31.1544 33.2982 31.6092 33.9832 31.9744 34.5303C32.0351 34.6254 32.0957 34.7136 32.1591 34.8018C32.4789 35.2539 32.8965 35.914 32.913 35.943L33.1018 36.2366L32.8703 36.5067C32.6939 36.7134 32.4251 36.9546 31.9675 36.9546C31.8638 36.9538 31.7605 36.9431 31.6588 36.9229C31.565 36.9049 31.4735 36.8767 31.3859 36.8389C31.3719 36.9361 31.3558 37.0331 31.3377 37.1297L31.0386 38.6967C32.8303 38.2557 33.9687 36.8995 33.9687 34.9589L33.9648 29.1027ZM18.425 28.6313H30.5121C29.9085 28.0056 29.9181 27.2159 30.0711 26.7018C29.9081 26.6235 29.7564 26.5233 29.6204 26.4041C29.1477 26.7528 27.706 27.8044 27.3298 28.069L27.2485 28.1242L22.5043 27.2641H22.4079C22.2948 27.2641 22.1281 27.26 21.9461 27.2366C21.9267 27.3237 21.8824 27.4033 21.8186 27.4657C21.7548 27.5282 21.6743 27.5708 21.5868 27.5885C21.4993 27.6061 21.4086 27.598 21.3256 27.5652C21.2426 27.5323 21.1709 27.4761 21.1192 27.4033C21.0829 27.3536 21.0568 27.2972 21.0426 27.2373C21.0284 27.1774 21.0264 27.1153 21.0365 27.0546L21.0544 26.9513C20.5665 26.6067 20.1131 25.8349 20.3143 25.0217L20.3336 24.9363L20.4025 24.8867C20.4721 24.8392 20.5438 24.7951 20.6175 24.7544L20.273 24.6992C20.2118 24.6887 20.1571 24.6548 20.1205 24.6046C20.084 24.5544 20.0685 24.4919 20.0773 24.4305C20.0993 24.3009 20.2192 24.21 20.3474 24.2334L21.1674 24.3629L21.2432 21.4672L22.4644 20.1717L23.2279 21.7801L22.4231 24.567L23.148 24.6814C23.2099 24.6915 23.2653 24.7258 23.302 24.7767C23.3387 24.8276 23.3537 24.8909 23.3437 24.9529C23.3349 25.0078 23.3066 25.0577 23.2642 25.0936C23.2217 25.1295 23.1678 25.149 23.1122 25.1486L23.075 25.1472L22.4837 25.0508C22.492 25.07 22.503 25.0797 22.5113 25.099C22.5771 25.2131 22.6761 25.3045 22.7952 25.3609L26.4103 25.4201C26.5633 25.2699 26.9423 24.8978 27.3337 24.5036C26.993 24.3785 26.6939 24.161 26.47 23.8755C26.246 23.5899 26.106 23.2476 26.0657 22.8869C25.5696 22.6746 25.225 22.3577 25.0348 21.9442C24.8033 21.4315 24.886 20.9188 24.948 20.6693C24.4656 20.4942 23.9584 20.1717 23.4402 19.6562H17.9932C18.2275 20.2847 18.4246 20.9656 18.4246 21.6423V28.6301L18.425 28.6313Z" fill="#FFE52B"/>
<path d="M26.195 9.63622L22.7398 8.26903C23.0333 7.57165 24.3881 6.97901 26.195 6.9776C28.0033 6.97896 29.3581 7.5716 29.6517 8.26903L26.195 9.63622ZM28.771 13.9212L26.4486 15.1478V10.1806L29.6007 9.10834L28.771 13.9186V13.9212ZM30.2099 15.2388L31.2711 15.8562H31.2863L31.5537 16.012C30.9541 16.1774 30.4952 16.4792 30.1106 16.8734L30.0693 16.9147C29.9786 17.0115 29.8917 17.1117 29.8088 17.2152L29.7606 17.2786C29.6779 17.3847 29.5993 17.4936 29.5263 17.6066L29.4863 17.6631C29.3969 17.7996 29.3119 17.9388 29.2313 18.0807C28.4733 19.3859 27.2673 20.166 26.1951 20.1688C25.1228 20.166 23.9154 19.3859 23.1601 18.0807C23.0799 17.9415 22.9958 17.8046 22.9079 17.67L22.8583 17.5969C22.7863 17.4905 22.7118 17.3857 22.635 17.2827C22.6157 17.2551 22.5978 17.2345 22.5785 17.211C22.4976 17.1105 22.4135 17.0126 22.3263 16.9175C22.3084 16.9037 22.296 16.8858 22.2794 16.8706C21.8857 16.4582 21.3867 16.1613 20.8364 16.0119L21.1066 15.8562H21.1176L22.183 15.2388L23.2732 14.6117L26.1895 16.2022L26.195 16.1967L26.2033 16.2022L29.1183 14.6117L30.2099 15.2388ZM34.3998 19.6547C34.1613 20.2832 33.9642 20.964 33.9642 21.6407L33.967 26.0097C33.056 25.8581 32.9471 24.8741 32.9443 24.8313L32.9278 24.6315L32.7307 24.6136C32.3965 24.5841 32.0842 24.4348 31.8514 24.1932C31.4034 23.7453 31.4034 23.0204 31.4034 23.0135C31.3979 23.0507 30.9128 23.7301 31.4751 24.4744C31.7122 24.7886 32.0567 24.983 32.5005 25.0588C32.6052 25.6032 33.0104 26.3736 33.9669 26.4921V28.6284H31.278C30.0376 27.9379 30.5627 26.7223 30.5875 26.6699L30.6923 26.4384L30.4552 26.3488C29.1114 25.8499 29.4821 24.5075 29.5001 24.4496L29.5552 24.2539L29.3705 24.1684C28.2624 23.653 28.4127 22.2665 28.4278 22.2085C28.086 22.4856 27.9633 23.0493 28.1976 23.6047C28.0708 23.7508 27.8999 23.9258 27.7138 24.1188C27.3901 24.0481 27.0986 23.8728 26.8844 23.62C26.6702 23.3672 26.5451 23.0508 26.5286 22.7199L26.5272 22.5572L26.3756 22.4994C25.9277 22.334 25.6203 22.0831 25.4673 21.7482C25.2978 21.3775 25.3571 20.9902 25.4039 20.8014C25.6615 20.8548 25.9238 20.8825 26.1868 20.8841H26.2047C26.3384 20.8841 26.4693 20.8758 26.5989 20.8634C27.3156 20.7917 28.115 20.4844 28.9502 19.6547L34.3998 19.6547ZM31.0396 38.695L31.34 37.1279L31.3883 36.8385C31.5737 36.9111 31.7708 36.9499 31.9699 36.9529C32.4275 36.9529 32.6949 36.7103 32.8727 36.505L33.1015 36.2362L32.914 35.9413C32.8975 35.9123 32.4799 35.2521 32.1601 34.8001C32.0966 34.7108 32.0355 34.6198 31.9768 34.5272C31.6116 33.9814 31.1554 33.2964 30.2402 33.2964L30.1589 33.2992C30.0271 33.3062 29.8971 33.3327 29.773 33.3777C29.4945 33.2446 29.19 33.1749 28.8813 33.1737C28.5708 33.1812 28.2638 33.2409 27.9731 33.3502C27.9124 33.3681 27.8573 33.3874 27.8146 33.3956L26.1055 33.2275C26.0835 33.222 26.0145 33.1806 25.9291 33.0814V33.0718L26.2985 32.9243C26.1951 31.6894 25.0112 30.9299 24.3524 30.6722C24.3232 30.5402 24.2561 30.4195 24.1595 30.3249L23.7928 29.9762L23.4703 30.3635L23.3118 30.562L20.9164 29.5765L22.4738 31.535L21.8605 32.4681C21.6345 32.7065 21.8839 32.9477 21.8839 32.9477L22.5179 33.386L23.1767 33.1393C23.1988 33.1393 23.2181 33.1448 23.2415 33.1476C23.2098 33.2482 23.1685 33.6409 23.1409 33.7499L21.9983 33.5252L20.7993 34.2047C20.1804 34.6595 20.0964 35.4093 20.3266 35.9233L20.4589 36.2155L20.6477 36.6276L21.0681 36.4539C21.0749 36.4512 21.0805 36.4498 21.0846 36.4457C20.933 36.9295 20.995 37.3884 21.2638 37.6902L21.5187 38.0114L21.8578 38.4414L22.2299 38.0403C22.3402 37.9301 22.6958 37.5317 22.8047 37.1899L22.8846 36.9295L22.704 36.7296L22.6737 36.6924L22.8777 36.3547L24.369 36.7076L24.7053 36.7847L24.8845 36.4884L24.9809 36.3285C24.9988 36.2941 25.003 36.2886 25.0719 36.2886C25.1256 36.2886 25.178 36.2941 25.2345 36.3079C25.7431 36.4083 26.2598 36.4613 26.7782 36.4664C27.2233 36.4664 27.4921 36.4498 27.8091 36.3437C27.8091 36.3437 28.6098 37.2534 28.6374 37.2892L28.1467 38.8052L28.1247 38.8962C27.1971 38.972 26.745 39.176 26.1979 39.7231C25.404 38.9348 24.843 38.8507 22.7109 38.8507C20.157 38.8507 18.4259 37.3525 18.4259 34.9558V29.101H33.9672L33.9699 34.9558C33.9699 36.8977 32.8313 38.2526 31.0396 38.695ZM21.4679 35.3844L21.5492 35.587C21.4941 35.7635 20.8876 36.0143 20.8876 36.0143L20.7581 35.7262C20.6753 35.5288 20.6612 35.3094 20.7179 35.103C20.7746 34.8966 20.8989 34.7152 21.0709 34.5878L22.0536 33.9883L23.097 34.2088C23.0763 34.541 23.2748 34.789 23.2748 34.789L22.1832 34.5795L21.5285 35.0316C21.4183 35.1088 21.41 35.2521 21.4679 35.3844ZM30.8746 37.0383L30.5397 38.7901C30.3247 38.8204 30.0987 38.8369 29.8671 38.8452L30.22 37.1638C30.3247 36.6621 28.9851 36.5064 28.3221 35.5236C27.9982 35.8875 27.3904 35.9964 26.7785 35.9964C26.2189 35.9964 25.6621 35.9068 25.3217 35.8392C25.2397 35.825 25.1568 35.8172 25.0736 35.8158C24.8765 35.8158 24.6987 35.8765 24.5747 36.0846L24.4782 36.25L22.6507 35.8186L22.1958 36.5725C22.1324 36.6951 22.1269 36.7971 22.2303 36.9115L22.3543 37.0466C22.2689 37.3126 21.8885 37.7164 21.8885 37.7164L21.617 37.376C21.402 37.1362 21.4378 36.6951 21.6611 36.2872L22.3861 35.0606L23.9338 35.2852L23.694 34.7353C23.3701 34.009 23.8635 33.0855 23.9159 32.5535C23.898 32.7148 23.7505 32.7506 23.5796 32.7506C23.4225 32.7506 23.2488 32.7217 23.1331 32.7217C23.0876 32.7217 23.0476 32.7258 23.0269 32.741L22.6079 32.996L22.2772 32.7038C22.2372 32.6486 22.2248 32.515 22.3213 32.4157L23.0876 31.5557L22.1835 30.4972L23.4487 31.1354L23.836 30.6654C23.9421 30.7701 23.8952 31.0417 23.8952 31.0417C24.2908 31.0527 25.4003 31.666 25.4582 33.0994C25.4623 33.1435 25.4623 33.1917 25.4623 33.24L25.4912 33.2868C25.5698 33.3957 25.7862 33.6727 26.0604 33.6975L27.8108 33.8712H27.8177C28.0107 33.8712 28.3925 33.6452 28.8817 33.6452C29.1505 33.6452 29.4468 33.7141 29.7638 33.9139C29.7638 33.9139 29.9237 33.7871 30.1814 33.7733C30.2007 33.7706 30.2228 33.7706 30.2407 33.7706C31.0263 33.7706 31.3529 34.4817 31.7747 35.073C32.0917 35.5223 32.5148 36.1894 32.5148 36.1894C32.3591 36.3755 32.213 36.4789 31.969 36.4789C31.8931 36.4791 31.8174 36.4718 31.743 36.4568C30.9022 36.3011 30.7796 34.5686 30.3 34.4308C30.2748 34.4242 30.2488 34.4209 30.2228 34.4211C30.0684 34.4211 30.0009 34.559 30.0009 34.559C30.2214 35.1503 30.0918 35.3887 30.3289 35.8449C30.5053 36.1825 30.8182 36.4596 30.9477 36.5919C30.9477 36.5919 30.9133 36.8482 30.8747 37.0398L30.8746 37.0383ZM29.2635 38.8576C29.0292 38.8576 28.8114 38.8604 28.6157 38.8687L29.1284 37.2685C29.2083 37.0466 28.8031 36.7613 28.6364 36.5105C28.8886 36.6704 29.5432 37.0204 29.8588 37.1583C29.6543 37.7226 29.4559 38.2891 29.2635 38.8576ZM21.6388 24.4382L21.7119 21.6569L22.3348 20.9968L22.7263 21.8182L21.9544 24.4879L21.6374 24.4396L21.6388 24.4382ZM22.0868 25.301C22.1814 25.4822 22.3245 25.6335 22.5002 25.7379C22.4954 26.0023 22.4701 26.2659 22.4244 26.5263C22.4107 26.587 22.3969 26.6435 22.379 26.7C22.3707 26.7358 22.3597 26.7648 22.3528 26.7882C22.1612 26.7882 21.7877 26.7648 21.4831 26.6531C21.144 26.5291 20.6382 25.9061 20.7554 25.2197C20.9015 25.1302 21.2405 24.9386 21.5589 24.9386C21.8029 24.9386 21.9696 25.0543 22.0868 25.301ZM29.3033 26.048C28.825 26.4022 27.5901 27.305 27.1422 27.6192L22.831 26.8419L22.8613 26.7275C22.9165 26.5028 22.9757 26.1968 22.9785 25.8372L26.6019 25.895L26.6708 25.8261C26.7259 25.771 27.874 24.6587 28.4584 24.0206C28.5976 24.1957 28.7713 24.3611 29.0001 24.5071C28.9229 24.9344 28.9546 25.5381 29.3033 26.048ZM23.4415 19.6544C23.9611 20.1699 24.4669 20.491 24.9493 20.6674C24.8873 20.9155 24.8046 21.431 25.0361 21.9423C25.2263 22.3558 25.5709 22.6728 26.0684 22.885C26.1235 23.395 26.4447 24.1627 27.3364 24.5017C26.945 24.8959 26.5645 25.268 26.413 25.4169L22.7965 25.3604C22.677 25.3032 22.5779 25.2109 22.5125 25.0957C22.5056 25.0778 22.4932 25.0682 22.485 25.0489L23.0763 25.1454L23.1135 25.1467C23.1691 25.1471 23.223 25.1276 23.2654 25.0917C23.3079 25.0558 23.3361 25.0059 23.345 24.951C23.355 24.8893 23.3402 24.8261 23.3038 24.7752C23.2674 24.7244 23.2123 24.69 23.1507 24.6795L22.4244 24.5637L23.2292 21.7783L22.467 20.1699L21.2445 21.4654L21.1701 24.3611L20.3487 24.2302C20.2219 24.2054 20.1006 24.2991 20.0772 24.4273C20.068 24.4893 20.0835 24.5525 20.1204 24.6032C20.1572 24.654 20.2125 24.6883 20.2743 24.6988L20.6188 24.7512C20.4948 24.8214 20.4135 24.878 20.4038 24.8848L20.3349 24.9345L20.3156 25.0199C20.1158 25.8331 20.5679 26.6049 21.0557 26.9494L21.0378 27.0528C21.0185 27.1768 21.0461 27.3009 21.1205 27.4015C21.1629 27.4626 21.2196 27.5124 21.2857 27.5465C21.3517 27.5807 21.4252 27.5981 21.4995 27.5972C21.604 27.5964 21.7051 27.5602 21.7864 27.4947C21.8677 27.4291 21.9245 27.338 21.9475 27.2361C22.1294 27.2568 22.2962 27.2623 22.4092 27.2623H22.507L27.2498 28.121L27.3311 28.0672C27.7087 27.8026 29.1504 26.751 29.6217 26.4023C29.7526 26.514 29.8974 26.6159 30.0724 26.7C29.9194 27.2141 29.9098 28.0039 30.5134 28.6295H18.4263V21.6417C18.4263 20.9636 18.2292 20.2828 17.9949 19.6543L23.4415 19.6544ZM22.7882 9.11083L25.943 10.1817V15.1461L23.6207 13.9195L22.7882 9.10928V9.11083ZM30.4846 8.51129C30.4846 7.29981 28.4489 6.20961 26.2024 6.20961H26.1886C23.9421 6.20961 21.9078 7.29981 21.9078 8.51129L21.9519 8.80899L22.8491 13.9679L21.9477 14.4916L19.6171 15.856H19.6254C19.6254 15.856 19.1017 16.1262 18.8577 16.2916C17.9702 16.909 17.7813 17.8104 18.2968 18.1825C18.4236 17.4479 19.0038 16.6802 20.0885 16.6802C20.8713 16.6802 21.4667 17.0854 21.9491 17.6905C22.0732 17.8435 22.1903 18.0075 22.2992 18.1825C22.4343 18.4044 22.5707 18.6001 22.7044 18.7876H16.6978C17.1389 19.6766 17.5592 20.6179 17.5592 21.6405V34.9573C17.5592 38.1797 20.0332 39.7179 22.7096 39.7179C24.7784 39.7179 25.0568 39.6241 26.198 40.7626C27.3336 39.6241 27.6134 39.7179 29.6835 39.7179C32.3615 39.7179 34.8312 38.1797 34.8312 34.9573V21.6405C34.8312 20.6179 35.2515 19.6765 35.6953 18.7876H29.6859C29.821 18.6001 29.9561 18.4044 30.0911 18.1825C30.2014 18.0075 30.3186 17.8435 30.4398 17.6905C30.925 17.0827 31.5204 16.6802 32.3032 16.6802C33.3879 16.6802 33.9668 17.4479 34.0949 18.1825C34.6104 17.8104 34.4243 16.909 33.5299 16.2916C33.2928 16.1262 32.7663 15.856 32.7663 15.856H32.776L30.4398 14.4916L29.544 13.9679L30.4398 8.80899L30.4846 8.51129ZM6.03189 14.8042C6.51704 14.3039 7.02838 14.1523 7.46938 14.1523C8.14749 14.1523 8.66155 14.5147 8.66155 14.5147C6.82847 15.4933 6.45087 17.0617 5.4034 17.4159C5.2328 17.4751 5.0533 17.5045 4.87275 17.5028C4.10232 17.5028 3.35668 17.0039 3.10307 16.4346C3.10307 16.4346 4.51446 16.3478 6.03189 14.8042ZM4.8728 18.1313C5.12502 18.1313 5.37172 18.0927 5.60602 18.0127C6.26207 17.795 6.68105 17.2726 7.1221 16.7268C7.57278 16.1714 8.07997 15.5415 8.9593 15.0729L9.86343 14.5864L9.02271 13.9938C8.95379 13.9511 8.32392 13.5252 7.46943 13.5252C6.76928 13.5252 6.11872 13.8105 5.58259 14.359C4.27739 15.6945 3.10724 15.802 3.06455 15.8035L2.1549 15.8572L2.52703 16.6938C2.90466 17.5276 3.8915 18.1313 4.8728 18.1313ZM8.98409 25.4415C8.88762 23.0695 9.49403 21.1469 10.445 19.5619C9.91577 21.213 9.98743 23.2336 11.7957 25.1219C11.7957 25.1219 8.20124 20.808 13.225 16.3895C15.2344 14.7066 17.4327 13.6674 18.5628 12.9314C14.475 14.2683 12.478 12.7964 12.478 12.7964C13.7832 13.9307 15.4743 13.9128 16.5232 13.7474C16.2393 13.8866 15.9415 14.0313 15.6246 14.2036C12.1748 16.0793 9.07772 19.1679 8.54585 23.4435V23.4118C7.7451 27.6099 5.96165 28.6878 5.96165 28.6878C7.38123 27.9849 8.27435 26.1242 8.49211 25.4544C8.72916 29.1454 10.5264 31.7061 12.6268 34.1719C13.7184 35.4495 14.1016 36.6913 14.1016 36.6913C14.1016 36.6913 13.8893 35.2841 12.9425 34.1388C10.9854 31.7779 9.122 28.8393 8.98414 25.442L8.98409 25.4415ZM25.0146 16.7901V17.6391C25.3067 17.2822 25.8691 17.3552 25.8691 17.3552V18.5777C25.8691 18.5777 25.8511 19.1786 25.6375 19.4391H26.8586C26.6464 19.1786 26.6257 18.5777 26.6257 18.5777V17.3552C26.6257 17.3552 27.1908 17.2822 27.4802 17.6391V16.7901H25.0132H25.0146ZM24.4908 11.7625C24.8809 12.0726 25.1069 12.1249 25.1138 12.1291L25.2654 12.1994V11.4014L23.832 10.7977C23.832 10.7977 23.8444 11.2608 24.4908 11.7625ZM27.9006 11.7625C28.5484 11.2608 28.5622 10.7977 28.5622 10.7977L27.1274 11.4014V12.2008L27.279 12.1291C27.2859 12.125 27.5106 12.0726 27.9006 11.7625ZM44.9259 14.1537C45.3642 14.1537 45.8769 14.3039 46.3593 14.8042C47.8781 16.3478 49.2908 16.4347 49.2908 16.4347C49.0345 17.0039 48.2902 17.5042 47.5198 17.5042C47.342 17.5042 47.1615 17.4767 46.9864 17.4146C45.9404 17.0618 45.5668 15.492 43.7324 14.5148C43.7324 14.5148 44.2423 14.1537 44.9259 14.1537ZM43.4333 15.0716C44.3112 15.5402 44.8239 16.1701 45.2733 16.7269C45.7143 17.2713 46.1319 17.795 46.7893 18.0128C47.0209 18.0927 47.2676 18.1313 47.5198 18.1313C48.5025 18.1313 49.4907 17.5277 49.8656 16.6924L50.2418 15.8572L49.3308 15.8021C49.2881 15.8021 48.1152 15.6932 46.8114 14.359C46.2738 13.8105 45.6247 13.5238 44.926 13.5238C44.0715 13.5238 43.4374 13.9511 43.3686 13.9952L42.5306 14.5865L43.4333 15.0716ZM43.8454 23.4113V23.443C43.3162 19.1677 40.2178 16.0803 36.7681 14.2031C36.4511 14.0322 36.1548 13.8861 35.8695 13.7483C36.9183 13.9109 38.6095 13.9302 39.916 12.7973C39.916 12.7973 37.9176 14.2679 33.8284 12.931C34.9586 13.667 37.1596 14.7062 39.1691 16.3877C44.1901 20.8091 40.5983 25.1201 40.5983 25.1201C42.4038 23.2332 42.4782 21.2128 41.9462 19.5615C42.8972 21.1465 43.5036 23.0691 43.4099 25.4411C43.2721 28.8384 41.4073 31.7771 39.4461 34.1379C38.5034 35.2818 38.2939 36.6904 38.2939 36.6904C38.2939 36.6904 38.6743 35.4486 39.7645 34.171C41.8663 31.7039 43.6649 29.1447 43.8992 25.4535C44.117 26.1248 45.0128 27.9854 46.4324 28.6869C46.4324 28.6869 44.6475 27.6096 43.8454 23.4113ZM16.5286 39.5866C11.2953 39.5866 11.4293 35.0921 11.4293 35.0921C11.4293 35.0921 11.0627 36.4235 9.60584 36.7694C9.42788 36.8142 9.24491 36.836 9.06142 36.8342C8.59281 36.8342 8.18485 36.724 8.18485 36.724C8.18485 36.724 8.94703 35.1086 8.18761 32.8497C7.56189 30.9753 7.6639 29.5847 7.6639 29.5847C7.6639 29.5847 6.95964 30.6528 5.21062 30.6638H5.1927C3.73867 30.6638 3.10329 29.5571 3.10329 29.5571C6.59026 28.1058 6.24846 23.424 6.24846 23.424C6.24846 23.424 5.79364 23.7631 4.91159 23.7961H4.81924C2.8952 23.7961 2.24328 21.7343 2.24328 21.7343H2.28325C2.63884 21.7343 5.49319 21.6516 7.5124 19.0784C8.84239 17.3873 9.93395 15.9002 12.0826 15.3158L12.299 15.2772L12.3445 15.0609C12.4051 14.7328 12.1791 14.4227 11.6692 14.0906C8.69905 12.1417 10.7154 9.65673 10.7154 9.65673C10.7154 9.65673 11.5589 11.6428 13.4623 11.6428L13.6001 11.6414C13.8151 11.6304 14.026 11.6207 14.2341 11.5766L14.5841 11.5091C14.5841 11.5091 14.0411 10.0343 15.3504 8.68092C16.3345 7.65824 17.5295 7.48463 18.2199 7.48463C18.5714 7.48463 18.7878 7.53011 18.7878 7.53011C18.1345 8.38878 17.6604 9.81525 18.4157 10.6945C19.0717 11.4512 20.6691 11.487 20.6691 12.6131C20.6691 13.0913 20.2239 13.6481 19.4259 14.1484C17.0209 15.6645 14.6349 17.6767 13.6429 20.3738C12.4052 23.7368 13.8028 25.9694 15.7971 27.2511C15.7971 27.2511 15.17 27.8272 14.2631 27.9002C14.0854 27.9173 13.9069 27.9261 13.7284 27.9264C11.8153 27.9264 10.8258 27.0278 10.8258 27.0278C10.8258 27.0278 10.9912 28.2696 11.9808 29.4245C12.9042 30.4886 14.1101 31.1156 15.9501 31.1418C15.9501 31.1418 16.0094 31.9963 15.1948 32.7379C14.6725 33.2065 13.4692 33.3581 13.4692 33.3581C13.4692 33.3581 15.7254 33.8156 15.9735 37.151C16.1086 38.9592 16.5661 39.5864 16.5661 39.5864L16.5286 39.5866ZM17.084 39.2283C17.0827 39.2214 16.7174 38.6494 16.6003 37.1058C16.4624 35.2561 15.765 34.1756 15.0745 33.5554C15.2744 33.4617 15.4604 33.3445 15.6148 33.2039C16.6278 32.2915 16.5851 31.2193 16.5782 31.1007L16.5396 30.5219L15.9594 30.5136C14.413 30.4888 13.3338 30.0257 12.4586 29.0085C12.27 28.7883 12.102 28.5512 11.9569 28.3001C12.4393 28.4476 13.0292 28.5565 13.728 28.5565C13.914 28.5565 14.1098 28.5454 14.3151 28.5317C15.0185 28.4614 15.6837 28.1776 16.2212 27.7185L16.8235 27.1631L16.1371 26.722C14.599 25.7366 13.0264 23.8691 14.2352 20.5931C15.0166 18.4638 16.8235 16.5356 19.7619 14.6859C20.7542 14.0588 21.2972 13.3187 21.2972 12.6131C21.2972 11.5229 20.3876 11.0929 19.7205 10.7855C19.3953 10.6298 19.0562 10.4754 18.8922 10.2838C18.3754 9.68429 18.8095 8.53621 19.2905 7.91325L19.9053 7.10697L18.9088 6.90988C18.8812 6.90576 18.6193 6.85751 18.2196 6.85751C17.4768 6.85751 16.0558 7.03806 14.8981 8.24125C13.9319 9.24186 13.8051 10.3072 13.8547 10.995C13.761 11.0033 13.6673 11.0074 13.5681 11.0115H13.4619C12.0065 11.0115 11.3201 9.46791 11.2939 9.40863L10.8846 8.44387L10.223 9.25704C10.1858 9.30666 9.2169 10.514 9.45396 12.0287C9.6097 13.0348 10.2409 13.9031 11.3243 14.617C11.4428 14.6928 11.5241 14.7576 11.5834 14.8114C9.53805 15.4771 8.39822 16.9366 7.19367 18.4706L7.02001 18.6884C5.17868 21.0355 2.5724 21.1058 2.26087 21.1058L1.37329 21.0782L1.64343 21.9245C1.67513 22.0265 2.46072 24.4287 4.81892 24.4287L4.93194 24.4246C5.1814 24.4177 5.40607 24.3833 5.60452 24.3447C5.50805 25.654 5.02566 28.0756 2.85907 28.9756L2.19749 29.2512L2.55584 29.8756C2.58892 29.9321 3.3938 31.2924 5.21587 31.2924C5.868 31.2989 6.51204 31.1476 7.09305 30.8514C7.16334 31.444 7.30943 32.2035 7.59333 33.0538C8.25214 35.0192 7.63881 36.3988 7.61538 36.454L7.29011 37.1403L8.0247 37.3347C8.07431 37.3484 8.52638 37.4615 9.06115 37.4615C9.79693 37.4634 10.509 37.2012 11.0679 36.7227C11.2677 37.3388 11.6109 38.0348 12.205 38.6509C13.2166 39.6915 14.6707 40.2166 16.5699 40.2166L17.7207 40.2014L17.084 39.2283ZM23.4032 31.6411C23.3822 31.6394 23.3611 31.6419 23.3411 31.6486C23.3212 31.6552 23.3027 31.6658 23.2869 31.6796C23.2711 31.6935 23.2582 31.7104 23.2491 31.7294C23.2399 31.7483 23.2347 31.7689 23.2336 31.7899C23.232 31.811 23.2346 31.8321 23.2413 31.8521C23.248 31.8721 23.2587 31.8905 23.2728 31.9062C23.2868 31.9219 23.3039 31.9346 23.323 31.9435C23.3421 31.9525 23.3628 31.9574 23.3839 31.9581C23.426 31.9608 23.4675 31.9468 23.4994 31.9192C23.5314 31.8917 23.5513 31.8527 23.5548 31.8106C23.557 31.7681 23.5424 31.7263 23.514 31.6946C23.4855 31.6628 23.4457 31.6436 23.4032 31.6411ZM30.6061 43.9213L29.8963 41.9642C30.7411 41.7065 32.1924 41.1524 32.8444 40.7844L32.4102 42.2081L33.8808 42.6974C32.9904 43.144 31.9126 43.5616 30.6061 43.9199L30.6061 43.9213ZM26.1984 45.6786C24.488 45.6786 22.5364 45.2844 21.9603 45.079L22.8341 42.7112C23.5591 42.9235 25.0669 43.1481 26.1626 43.1413H26.2315C27.3258 43.1481 28.8323 42.9221 29.5614 42.7112L30.4338 45.079C29.8577 45.2858 27.9061 45.6786 26.1984 45.6786ZM18.5133 42.6974L19.9853 42.2081L19.5498 40.7844C20.1989 41.1524 21.6544 41.7079 22.4965 41.9642L21.7867 43.9213C20.4842 43.563 19.4023 43.144 18.5133 42.6974ZM33.9468 42.2633L33.0509 41.9187L33.299 40.9925L33.5705 39.9823C33.5705 39.9823 31.9855 40.845 29.7486 41.4914C29.1147 41.6734 28.635 41.7574 28.635 41.7574V42.4452C28.635 42.4452 27.4387 42.6519 26.2313 42.6519H26.1624C24.9523 42.6519 23.7588 42.4452 23.7588 42.4452V41.756C23.7588 41.756 23.2778 41.6733 22.6438 41.4914C20.4097 40.8436 18.8247 39.9822 18.8247 39.9822L19.092 40.9925L19.3456 41.9187L18.447 42.2632L17.4506 42.6354C18.5918 43.188 20.174 43.9916 21.6211 44.3885L21.2807 45.323C21.2807 45.323 23.1165 46.1609 26.1748 46.1692V46.1706H26.2161V46.1692C29.2786 46.1609 31.1145 45.323 31.1145 45.323L30.7699 44.3885C32.2184 43.9916 33.8034 43.1894 34.9391 42.6354L33.9468 42.2633ZM22.459 4.55849L22.8656 4.6026L23.0406 4.23047L23.5533 3.13202L24.5043 3.62541L24.8737 3.81423L26.194 2.50214L27.2236 3.52205L27.5185 3.81424L27.8879 3.62542L28.8333 3.13203L29.3543 4.23048L29.5266 4.60261L29.9332 4.55851L30.3219 4.51303C30.1441 4.91409 30.0131 5.29587 29.918 5.61288C28.8912 5.03814 27.5571 4.71288 26.1954 4.71288C24.8392 4.71288 23.5051 5.03815 22.4741 5.61288C22.3629 5.23827 22.2285 4.87094 22.0717 4.51303L22.4576 4.55851L22.459 4.55849ZM26.194 5.28483C28.0175 5.28483 29.4743 5.89125 30.2805 6.53488C30.2805 6.53488 30.5204 5.09186 31.3363 3.81974L29.8684 3.98513L29.1007 2.3519L27.626 3.11409L26.194 1.69727L24.7675 3.11409L23.2901 2.3519L22.5237 3.98649L21.0559 3.81834C21.8732 5.09182 22.1116 6.53348 22.1116 6.53348C22.922 5.88985 24.3747 5.28483 26.194 5.28483ZM49.2906 29.5571C49.2906 29.5571 48.6566 30.6638 47.2012 30.6638H47.1833C45.4356 30.6528 44.73 29.5847 44.73 29.5847C44.73 29.5847 44.832 30.974 44.2035 32.8497C43.4455 35.11 44.209 36.7226 44.209 36.7226C44.209 36.7226 43.8011 36.8342 43.3311 36.8342C43.1519 36.8342 42.9645 36.8163 42.7867 36.7695C41.3271 36.4235 40.9632 35.0921 40.9632 35.0921C40.9632 35.0921 41.0983 39.5866 35.8653 39.5866H35.8239C35.8239 39.5866 36.2857 38.9595 36.4221 37.1512C36.6702 33.8159 38.925 33.3569 38.925 33.3569C38.925 33.3569 37.7218 33.2053 37.1994 32.7381C36.3849 31.9979 36.4414 31.142 36.4414 31.142C38.2828 31.1159 39.4901 30.4888 40.4094 29.4234C41.0018 28.7418 41.4014 27.9144 41.5671 27.0266C41.5671 27.0266 40.5775 27.9266 38.6631 27.9266C38.495 27.9266 38.3158 27.9184 38.1311 27.9004C37.2242 27.8274 36.5985 27.2499 36.5985 27.2499C38.5914 25.9695 39.989 23.7354 38.75 20.3727C37.7576 17.6782 35.3705 15.6646 32.9683 14.1487C32.1689 13.6484 31.7224 13.0916 31.7224 12.6133C31.7224 11.4873 33.3212 11.4515 33.9772 10.6948C34.7352 9.81549 34.2598 8.38901 33.6037 7.53039C33.6037 7.53039 33.8242 7.4849 34.1729 7.4849C34.8648 7.4849 36.0611 7.65856 37.0452 8.6812C38.3504 10.0346 37.8087 11.5094 37.8087 11.5094L38.1588 11.5783C38.3683 11.621 38.5764 11.6306 38.7928 11.6417L38.9334 11.643C40.8312 11.643 41.6788 9.65559 41.6788 9.65559C41.6788 9.65559 43.6966 12.142 40.7264 14.0908C40.2151 14.4229 39.9891 14.7331 40.0483 15.0611L40.0952 15.2775L40.306 15.3147C42.4589 15.9004 43.5491 17.3889 44.8791 19.0787C46.8996 21.6519 49.7582 21.7345 50.1096 21.7345H50.1482C50.1482 21.7345 49.4963 23.7978 47.5737 23.7978C47.5419 23.7978 47.5144 23.7978 47.4827 23.795C46.6006 23.7633 46.1458 23.4242 46.1458 23.4242C46.1458 23.4242 45.8026 28.1061 49.291 29.5573L49.2906 29.5571ZM47.5733 24.4287C49.9301 24.4287 50.7184 22.0264 50.7515 21.9244L51.0134 21.0768L50.1313 21.1044H50.1285C49.8156 21.1044 47.2163 21.0355 45.3736 18.6883L45.1985 18.4705C43.9939 16.9366 42.8514 15.477 40.8088 14.8113C40.8905 14.7398 40.9776 14.6749 41.0693 14.617C42.1526 13.9031 42.7839 13.0361 42.941 12.0286C43.1739 10.5139 42.2077 9.30662 42.1664 9.25699L41.5104 8.44383L41.0997 9.40859C41.0722 9.46785 40.383 11.0115 38.9331 11.0115H38.8256C38.7264 11.0074 38.6313 11.0032 38.5376 10.995C38.5886 10.3058 38.4631 9.24181 37.4984 8.24121C36.3393 7.03802 34.9169 6.85747 34.1727 6.85747C33.7757 6.85747 33.5111 6.90708 33.4822 6.90984L32.4912 7.10693L33.1018 7.91321C33.5814 8.53617 34.0169 9.68425 33.5015 10.2838C33.3361 10.4767 32.997 10.6297 32.6732 10.7855C32.0061 11.0928 31.0937 11.5228 31.0937 12.613C31.0937 13.3187 31.6408 14.0588 32.6332 14.6859C35.5661 16.5341 37.3773 18.4637 38.1585 20.5931C39.3686 23.8678 37.7905 25.7365 36.2565 26.7206L35.5702 27.163L36.1724 27.7171C36.2538 27.7887 36.9884 28.4379 38.0758 28.5316C38.2826 28.5454 38.4796 28.5564 38.6643 28.5564C39.3604 28.5564 39.9544 28.4461 40.4368 28.3C40.2926 28.5517 40.1246 28.7889 39.9351 29.0085C39.0599 30.0256 37.9821 30.4887 36.4316 30.5135L35.8555 30.5218L35.8114 31.1007C35.8059 31.2178 35.7631 32.2915 36.7761 33.2039C36.9319 33.3444 37.1193 33.4616 37.3164 33.5553C36.6273 34.1755 35.9299 35.2561 35.7948 37.1057C35.6804 38.6493 35.3124 39.2213 35.3083 39.2282L34.6716 40.2012L35.8224 40.2164C37.723 40.2164 39.1784 39.6927 40.1859 38.6507C40.7078 38.1034 41.0972 37.4438 41.3244 36.7225C41.884 37.1998 42.5956 37.4617 43.3311 37.4613C43.8686 37.4613 44.3179 37.3469 44.3676 37.3359L45.1021 37.1402L44.7783 36.4538C44.7535 36.3987 44.1415 35.0204 44.8003 33.0536C45.0842 32.2033 45.229 31.4425 45.2992 30.8484C45.7623 31.091 46.3811 31.2895 47.1819 31.2922C49.0012 31.2922 49.802 29.9319 49.8378 29.8754L50.1961 29.2497L49.5318 28.9768C47.3652 28.0754 46.8856 25.6552 46.7891 24.3459C46.9862 24.3831 47.2095 24.4175 47.4617 24.4244L47.5733 24.4287Z" fill="black"/>
<path d="M148.721 17.2277C143.345 17.2277 140.12 20.2598 140.12 24.1743C140.12 28.0885 143.345 31.1209 148.721 31.1209C154.068 31.1209 157.293 28.0887 157.293 24.1743C157.293 20.2601 154.068 17.2277 148.721 17.2277ZM148.721 27.9231C146.047 27.9231 144.338 26.3243 144.338 24.1743C144.338 22.0242 146.047 20.453 148.721 20.453C151.367 20.453 153.103 22.0242 153.103 24.1743C153.103 26.3243 151.367 27.9231 148.721 27.9231ZM170.604 18.1649V16.8418H166.607V18.1649C161.591 18.2752 158.586 20.3977 158.586 24.1466C158.586 27.8956 161.59 29.8523 166.607 29.9629V31.286H170.604V29.9629C175.649 29.8527 178.653 27.8955 178.653 24.1466C178.653 20.3977 175.648 18.2755 170.604 18.1649ZM166.607 27.1508C163.851 27.0406 162.638 25.9104 162.638 24.1462C162.638 22.3821 163.851 21.1141 166.607 21.0038V27.1508ZM170.604 27.1508V21.0037C173.388 21.114 174.574 22.382 174.574 24.1461C174.574 25.9103 173.388 27.0406 170.604 27.1508ZM191.951 18.1649V16.8418H187.954V18.1649C182.937 18.2752 179.932 20.3977 179.932 24.1466C179.932 27.8956 182.937 29.8523 187.954 29.9629V31.286H191.951V29.9629C196.995 29.8527 199.999 27.8955 199.999 24.1466C199.999 20.3977 196.995 18.2755 191.951 18.1649ZM187.954 27.1508C185.197 27.0406 183.984 25.9104 183.984 24.1462C183.984 22.3821 185.197 21.1141 187.954 21.0038V27.1508ZM191.951 27.1508V21.0037C194.735 21.114 195.92 22.382 195.92 24.1461C195.92 25.9103 194.735 27.0406 191.951 27.1508ZM62.8551 30.7067H66.9898V21.0867H72.6683V17.586H57.1768V21.0867H62.8553L62.8551 30.7067ZM85.2103 17.5858L78.319 25.2212V17.5858H74.3221V30.7067H77.8504L84.7417 23.0713V30.7067H88.7386V17.5858H85.2103ZM95.7637 25.8276H102.186V30.7067H106.183V17.5858H102.186V22.382H95.7637V17.5858H91.7668V30.7067H95.7637V25.8276ZM117.314 30.7067C118.223 30.7067 119.05 30.624 119.822 30.4035C121.89 29.8246 123.24 28.1432 123.24 25.8553C123.24 23.6776 122.083 22.1615 120.236 21.4725C119.354 21.1417 118.306 21.1141 117.314 21.1141H113.207V17.5858H109.21V30.7067L117.314 30.7067ZM113.207 24.2015H116.625C117.176 24.2015 117.7 24.2015 118.168 24.3669C118.83 24.5875 119.216 25.1388 119.216 25.8003C119.216 26.4894 118.83 27.0683 118.196 27.3439C117.755 27.5369 117.314 27.5369 116.625 27.5369H113.207V24.2015ZM129.305 25.7452H130.407L135.176 30.7067H140.496L133.853 23.8708L140.248 17.5858H135.231L130.407 22.5198H129.305V17.5858H125.308V30.7067H129.305V25.7452Z" fill="black"/>
</g>
<defs>
<clipPath id="clip0_564_13414">
<rect width="200" height="46.3918" fill="white" transform="translate(0 0.304688)"/>
</clipPath>
</defs>
</svg>
