<svg width="62" height="64" viewBox="0 0 62 64" fill="none" xmlns="http://www.w3.org/2000/svg">
<path d="M57.8211 50.0631H58.0385C53.6506 39.4669 51.2325 28.3408 50.8113 16.7121C50.6483 11.6993 46.6 7.69177 41.5736 7.69177H39.6717C39.3728 4.29554 36.5064 1.64648 33.0287 1.64648C31.8111 1.64725 30.6173 1.98331 29.5781 2.6178V61.973C30.6486 62.2175 31.8101 62.3574 33.0287 62.3574C38.2861 62.3574 42.5381 59.8714 42.5381 56.8012H57.8211C58.2637 56.8016 58.7019 56.7147 59.1109 56.5455C59.5198 56.3763 59.8913 56.1281 60.2042 55.8152C60.5171 55.5023 60.7653 55.1308 60.9345 54.7219C61.1037 54.3129 61.1906 53.8747 61.1902 53.4321C61.1902 51.571 59.6687 50.0631 57.8211 50.0631Z" fill="#282828"/>
<path d="M33.0283 63.0349C31.8166 63.0371 30.6086 62.9031 29.4269 62.6355C29.2767 62.6013 29.1426 62.517 29.0465 62.3966C28.9505 62.2761 28.8983 62.1266 28.8984 61.9725V2.61736C28.8986 2.5007 28.9288 2.38604 28.9862 2.28444C29.0435 2.18284 29.126 2.09772 29.2258 2.03729C30.3713 1.33891 31.6867 0.968613 33.0283 0.966797C36.6554 0.966797 39.6645 3.52348 40.2676 7.01208H41.5732C46.9569 7.01208 51.3135 11.2642 51.4901 16.69C51.9004 28.0361 54.2655 39.0548 58.5176 49.4432C59.4559 49.6082 60.306 50.0984 60.9188 50.8278C61.5317 51.5572 61.8681 52.4791 61.869 53.4317C61.869 54.5144 61.4465 55.5346 60.6776 56.3022C59.9176 57.0557 58.891 57.479 57.8207 57.48H43.1585C42.6219 60.6453 38.3644 63.0362 33.0269 63.0362L33.0283 63.0349ZM30.2569 61.421C31.1708 61.592 32.0986 61.6775 33.0283 61.6764C37.8142 61.6764 41.8584 59.443 41.8584 56.7994C41.8584 56.6193 41.93 56.4465 42.0574 56.3191C42.1848 56.1917 42.3575 56.1202 42.5377 56.1202H57.8207C58.1743 56.1214 58.5246 56.0527 58.8515 55.918C59.1784 55.7832 59.4755 55.5852 59.7255 55.3351C59.9755 55.0851 60.1736 54.7881 60.3083 54.4612C60.4431 54.1343 60.5118 53.7839 60.5105 53.4303C60.5105 51.9482 59.3042 50.7405 57.8207 50.7405C57.7086 50.7404 57.5982 50.7126 57.4995 50.6595C57.4008 50.6064 57.3167 50.5297 57.2548 50.4362C57.193 50.3427 57.1552 50.2353 57.1449 50.1237C57.1346 50.0121 57.1521 49.8996 57.1958 49.7964C52.9233 39.3075 50.5473 28.1869 50.1316 16.7362C49.9795 12.0439 46.2192 8.37057 41.5732 8.37057H39.6713C39.5015 8.37055 39.3379 8.30694 39.2126 8.19228C39.0874 8.07762 39.0097 7.92022 38.9947 7.7511C38.7271 4.70808 36.1066 2.32529 33.0283 2.32529C32.0624 2.32609 31.1112 2.56202 30.2569 3.01268V61.421Z" fill="#282828"/>
<path d="M28.9597 62.3623C34.2094 62.3623 38.4651 59.8723 38.4651 56.8007C38.4651 53.7291 34.2094 51.239 28.9597 51.239C23.71 51.239 19.4543 53.7291 19.4543 56.8007C19.4543 59.8723 23.71 62.3623 28.9597 62.3623Z" fill="#F2F2F2"/>
<path d="M28.96 63.0414C23.2489 63.0414 18.7754 60.2999 18.7754 56.8005C18.7754 53.301 23.2489 50.5596 28.96 50.5596C34.6711 50.5596 39.1446 53.2996 39.1446 56.8005C39.1446 60.3013 34.6711 63.0414 28.96 63.0414ZM28.96 51.9181C24.1754 51.9181 20.1339 54.1528 20.1339 56.8005C20.1339 59.4482 24.1754 61.6815 28.96 61.6815C33.7446 61.6815 37.7861 59.4468 37.7861 56.8005C37.7861 54.1541 33.7446 51.9181 28.96 51.9181Z" fill="#282828"/>
<path d="M28.9598 14.9909C32.6466 14.9909 35.6354 12.0021 35.6354 8.31527C35.6354 4.62843 32.6466 1.63965 28.9598 1.63965C25.273 1.63965 22.2842 4.62843 22.2842 8.31527C22.2842 12.0021 25.273 14.9909 28.9598 14.9909Z" fill="#86CBE8"/>
<path d="M28.9594 15.6683C27.0096 15.6662 25.1403 14.8908 23.7615 13.5122C22.3827 12.1337 21.607 10.2646 21.6045 8.31483C21.6066 6.36486 22.3822 4.49537 23.7611 3.11653C25.1399 1.7377 27.0094 0.962118 28.9594 0.959961C30.9093 0.962118 32.7788 1.7377 34.1577 3.11653C35.5365 4.49537 36.3121 6.36486 36.3142 8.31483C36.3117 10.2646 35.536 12.1337 34.1572 13.5122C32.7784 14.8908 30.9091 15.6662 28.9594 15.6683ZM28.9594 2.31845C27.3696 2.32025 25.8454 2.95259 24.7213 4.07674C23.5971 5.20088 22.9648 6.72504 22.963 8.31483C22.9651 9.90438 23.5976 11.4282 24.7217 12.552C25.8459 13.6759 27.3698 14.3081 28.9594 14.3098C30.5489 14.3081 32.0729 13.6759 33.197 12.552C34.3211 11.4282 34.9536 9.90438 34.9557 8.31483C34.9539 6.72504 34.3216 5.20088 33.1975 4.07674C32.0733 2.95259 30.5491 2.32025 28.9594 2.31845Z" fill="#282828"/>
<path d="M53.9603 50.06H4.39844C8.80402 39.4651 11.2113 28.3404 11.6324 16.7158C11.8049 11.7003 15.8505 7.68457 20.8837 7.68457H37.4913C42.5231 7.68457 46.5701 11.7003 46.7426 16.7158C47.1637 28.3404 49.5696 39.4651 53.9603 50.06Z" fill="white"/>
<path d="M53.9603 50.7388H4.39845C4.28663 50.7388 4.17651 50.7113 4.07789 50.6586C3.97926 50.6059 3.89517 50.5297 3.83308 50.4367C3.77099 50.3437 3.73282 50.2368 3.72196 50.1255C3.7111 50.0142 3.72789 49.902 3.77083 49.7987C8.11935 39.3438 10.5361 28.2055 10.9532 16.6909C11.1393 11.2597 15.5014 7.00488 20.8824 7.00488H37.4926C42.8723 7.00488 47.2344 11.2597 47.4205 16.6909C47.8375 28.1905 50.2489 39.3302 54.5879 49.7987C54.6308 49.902 54.6476 50.0142 54.6367 50.1255C54.6259 50.2368 54.5877 50.3437 54.5256 50.4367C54.4635 50.5297 54.3794 50.6059 54.2808 50.6586C54.1822 50.7113 54.0721 50.7388 53.9603 50.7388ZM5.41052 49.3803H52.9495C48.7898 39.034 46.4736 28.0588 46.062 16.7398C45.9031 12.0422 42.1387 8.36202 37.494 8.36202H20.8824C16.2363 8.36202 12.4733 12.0408 12.3103 16.7371C11.9 28.0724 9.57973 39.0476 5.40917 49.3789L5.41052 49.3803Z" fill="#282828"/>
<path d="M57.1105 53.43C57.1117 53.8729 57.0256 54.3117 56.8571 54.7212C56.6885 55.1308 56.4409 55.5031 56.1283 55.8169C55.4928 56.4464 54.6346 56.7999 53.7401 56.8004H4.181C3.73783 56.8024 3.29867 56.7166 2.88886 56.5479C2.47905 56.3792 2.10671 56.131 1.79334 55.8177C1.47998 55.5043 1.23179 55.132 1.06311 54.7221C0.89443 54.3123 0.808602 53.8732 0.81058 53.43C0.81058 52.5076 1.18824 51.6612 1.79277 51.0418C2.1067 50.729 2.47923 50.4813 2.88904 50.3128C3.29885 50.1442 3.73788 50.0582 4.181 50.0596H53.7387C54.6324 50.0599 55.4894 50.4149 56.1216 51.0466C56.7538 51.6783 57.1094 52.535 57.1105 53.4286V53.43Z" fill="#86CBE8"/>
<path d="M53.7398 57.4802H4.18074C3.38026 57.4796 2.59787 57.2421 1.93216 56.7975C1.26644 56.353 0.747178 55.7214 0.439794 54.9823C0.132411 54.2432 0.0506568 53.4296 0.204833 52.6441C0.359009 51.8586 0.742219 51.1363 1.30618 50.5682C1.68276 50.1898 2.13081 49.8899 2.62429 49.6861C3.11776 49.4822 3.64683 49.3785 4.18074 49.3809H53.7385C54.8118 49.3824 55.8408 49.8093 56.6 50.5681C57.3591 51.327 57.7863 52.3559 57.7881 53.4292C57.7881 54.5187 57.3684 55.5376 56.6063 56.2984C55.8431 57.0535 54.8134 57.478 53.7398 57.4802ZM4.18074 50.7394C3.45395 50.7394 2.77742 51.0165 2.27207 51.5219C1.76942 52.0381 1.48957 52.7174 1.48957 53.4306C1.48957 54.9385 2.67146 56.1204 4.17939 56.1204H53.7412C54.453 56.1204 55.1323 55.8405 55.6539 55.3325C56.1539 54.8325 56.431 54.156 56.431 53.4306C56.4303 52.7173 56.1467 52.0334 55.6425 51.5289C55.1382 51.0244 54.4545 50.7405 53.7412 50.7394H4.18074ZM4.23101 32.7992C4.14186 32.7991 4.0536 32.7815 3.9713 32.7472C3.88901 32.7129 3.81429 32.6627 3.75146 32.5995C-0.659558 28.1898 -0.659558 21.0116 3.75146 16.6019C3.81412 16.537 3.88907 16.4853 3.97194 16.4497C4.05481 16.4141 4.14394 16.3953 4.23413 16.3946C4.32432 16.3938 4.41376 16.411 4.49724 16.4451C4.58072 16.4793 4.65656 16.5297 4.72033 16.5935C4.78411 16.6573 4.83455 16.7331 4.8687 16.8166C4.90285 16.9 4.92004 16.9895 4.91925 17.0797C4.91847 17.1699 4.89973 17.259 4.86413 17.3419C4.82854 17.4247 4.77679 17.4997 4.71191 17.5623C0.830707 21.4436 0.830707 27.7578 4.71191 31.639C4.80715 31.734 4.87204 31.8552 4.89835 31.9871C4.92466 32.119 4.91121 32.2558 4.8597 32.38C4.80819 32.5043 4.72094 32.6105 4.60901 32.6851C4.49709 32.7597 4.36553 32.7994 4.23101 32.7992Z" fill="#282828"/>
<path d="M6.73727 30.2928C6.64812 30.2927 6.55986 30.275 6.47757 30.2408C6.39527 30.2065 6.32056 30.1563 6.25772 30.0931C4.79191 28.6286 3.98633 26.6778 3.98633 24.6007C3.98633 22.5236 4.79191 20.5741 6.25772 19.1083C6.32038 19.0434 6.39533 18.9917 6.4782 18.9561C6.56108 18.9205 6.65021 18.9018 6.7404 18.901C6.83059 18.9002 6.92003 18.9174 7.0035 18.9515C7.08698 18.9857 7.16282 19.0361 7.2266 19.0999C7.29037 19.1637 7.34081 19.2395 7.37496 19.323C7.40912 19.4065 7.4263 19.4959 7.42552 19.5861C7.42473 19.6763 7.406 19.7654 7.3704 19.8483C7.3348 19.9312 7.28305 20.0061 7.21818 20.0688C6.00912 21.2778 5.34346 22.8876 5.34346 24.6007C5.34346 26.3137 6.00912 27.9249 7.21818 29.1326C7.31342 29.2276 7.3783 29.3487 7.40461 29.4807C7.43092 29.6126 7.41747 29.7494 7.36596 29.8736C7.31445 29.9979 7.2272 30.1041 7.11528 30.1787C7.00335 30.2533 6.87179 30.293 6.73727 30.2928ZM58.0801 32.7992C57.9451 32.8005 57.8128 32.7614 57.7002 32.6869C57.5876 32.6124 57.4999 32.5059 57.4483 32.3811C57.3968 32.2564 57.3837 32.119 57.4108 31.9868C57.4379 31.8545 57.504 31.7334 57.6005 31.639C61.4817 27.7578 61.4817 21.4436 57.6005 17.5623C57.5356 17.4997 57.4839 17.4247 57.4483 17.3419C57.4127 17.259 57.394 17.1699 57.3932 17.0797C57.3924 16.9895 57.4096 16.9 57.4437 16.8166C57.4779 16.7331 57.5283 16.6573 57.5921 16.5935C57.6559 16.5297 57.7317 16.4793 57.8152 16.4451C57.8987 16.411 57.9881 16.3938 58.0783 16.3946C58.1685 16.3953 58.2576 16.4141 58.3405 16.4497C58.4234 16.4853 58.4983 16.537 58.561 16.6019C62.9706 21.0129 62.9706 28.1898 58.561 32.5995C58.498 32.6629 58.423 32.7132 58.3405 32.7475C58.258 32.7817 58.1694 32.7993 58.0801 32.7992Z" fill="#282828"/>
<path d="M55.575 30.2922C55.4399 30.2938 55.3074 30.2549 55.1946 30.1805C55.0818 30.1061 54.9939 29.9996 54.9422 29.8748C54.8904 29.75 54.8772 29.6125 54.9043 29.4801C54.9314 29.3478 54.9975 29.2265 55.0941 29.1321C56.294 27.929 56.9678 26.2993 56.9678 24.6001C56.9678 22.901 56.294 21.2712 55.0941 20.0682C55.0292 20.0056 54.9775 19.9306 54.9419 19.8477C54.9063 19.7649 54.8875 19.6757 54.8867 19.5855C54.886 19.4953 54.9031 19.4059 54.9373 19.3224C54.9715 19.239 55.0219 19.1631 55.0857 19.0993C55.1494 19.0356 55.2253 18.9851 55.3088 18.951C55.3922 18.9168 55.4817 18.8996 55.5719 18.9004C55.6621 18.9012 55.7512 18.9199 55.8341 18.9555C55.9169 18.9911 55.9919 19.0429 56.0545 19.1078C57.5088 20.5657 58.3254 22.5409 58.3254 24.6001C58.3254 26.6594 57.5088 28.6346 56.0545 30.0925C55.9917 30.1558 55.917 30.206 55.8347 30.2402C55.7524 30.2745 55.6641 30.2922 55.575 30.2922Z" fill="#282828"/>
</svg>
