<svg width="66" height="67" viewBox="0 0 66 67" fill="none" xmlns="http://www.w3.org/2000/svg">
<path d="M58.5464 10.9353V59.1074C58.5457 60.9627 57.8084 62.7418 56.4965 64.0537C55.1846 65.3655 53.4055 66.1029 51.5502 66.1036H12.0045C11.0847 66.1048 10.1737 65.9248 9.32346 65.5739C8.47324 65.2229 7.7005 64.7079 7.0494 64.0581C6.3983 63.4084 5.8816 62.6368 5.52882 61.7873C5.17604 60.9378 4.99409 60.0272 4.99338 59.1074V10.9353C4.99698 9.07841 5.73705 7.29879 7.05122 5.98691C8.36538 4.67504 10.1463 3.93807 12.0032 3.93771H51.5489C53.4036 3.94059 55.1816 4.67857 56.4932 5.98995C57.8049 7.30134 58.5432 9.07918 58.5464 10.9339V10.9353Z" fill="#282828"/>
<path d="M51.5502 66.7829H12.0045C7.76334 66.7829 4.31277 63.3391 4.31277 59.1074V10.9353C4.31277 6.7036 7.76334 3.25983 12.0045 3.25983H51.5502C53.5851 3.26234 55.5359 4.07181 56.9748 5.5107C58.4137 6.94959 59.2232 8.90041 59.2257 10.9353V59.1074C59.2232 61.1423 58.4137 63.0931 56.9748 64.532C55.5359 65.9709 53.5851 66.7803 51.5502 66.7829ZM12.0045 4.61832C10.3276 4.61795 8.71893 5.28285 7.5316 6.46713C6.34427 7.6514 5.67522 9.25832 5.67127 10.9353V59.1074C5.67127 62.5905 8.51187 65.4244 12.0045 65.4244H51.5502C53.2249 65.4222 54.8304 64.756 56.0146 63.5718C57.1988 62.3876 57.865 60.7821 57.8672 59.1074V10.9353C57.865 9.26059 57.1988 7.6551 56.0146 6.4709C54.8304 5.2867 53.2249 4.62047 51.5502 4.61832H12.0045Z" fill="#282828"/>
<path d="M54.471 10.9353V59.1074C54.4703 60.9627 53.7329 62.7418 52.421 64.0537C51.1091 65.3655 49.33 66.1029 47.4747 66.1036H7.92772C7.00791 66.1048 6.09686 65.9248 5.24663 65.5739C4.39641 65.2229 3.62367 64.7079 2.97257 64.0581C2.32147 63.4084 1.80477 62.6368 1.45199 61.7873C1.09921 60.9378 0.917263 60.0272 0.91655 59.1074V10.9353C0.920148 9.07841 1.66022 7.29879 2.97439 5.98691C4.28856 4.67504 6.06947 3.93807 7.92636 3.93771H47.472C49.3268 3.94059 51.1048 4.67857 52.4164 5.98995C53.7281 7.30134 54.4664 9.07918 54.4696 10.9339L54.471 10.9353Z" fill="#DBF0F9"/>
<path d="M47.4747 66.7829H7.92908C3.68787 66.7829 0.237305 63.3391 0.237305 59.1074V10.9353C0.237305 6.7036 3.68787 3.25983 7.92908 3.25983H47.4747C49.5096 3.26234 51.4605 4.07181 52.8993 5.5107C54.3382 6.94959 55.1477 8.90041 55.1502 10.9353V59.1074C55.1477 61.1423 54.3382 63.0931 52.8993 64.532C51.4605 65.9709 49.5096 66.7803 47.4747 66.7829ZM7.92908 4.61832C6.2521 4.61795 4.64346 5.28285 3.45613 6.46713C2.2688 7.6514 1.59975 9.25832 1.5958 10.9353V59.1074C1.5958 62.5905 4.4364 65.4244 7.92908 65.4244H47.4747C49.1494 65.4222 50.7549 64.756 51.9391 63.5718C53.1233 62.3876 53.7896 60.7821 53.7917 59.1074V10.9353C53.7896 9.26059 53.1233 7.6551 51.9391 6.4709C50.7549 5.2867 49.1494 4.62047 47.4747 4.61832H7.92908Z" fill="#282828"/>
<path d="M7.40742 61.1655C6.61406 61.1655 5.96742 60.5256 5.96742 59.7391V10.3036C5.96742 9.51837 6.61406 8.87717 7.40742 8.87717H47.995C48.7694 8.87717 49.4215 9.52924 49.4215 10.3036V59.7418C49.4215 60.527 48.7802 61.1668 47.995 61.1668L7.40742 61.1655Z" fill="white"/>
<path d="M47.9951 61.845H7.4088C6.24049 61.845 5.28955 60.9009 5.28955 59.7394V10.3025C5.28955 9.14239 6.24049 8.19824 7.4088 8.19824H47.9951C49.1362 8.19824 50.1007 9.16277 50.1007 10.3025V59.7394C50.1007 60.9009 49.1552 61.845 47.9951 61.845ZM7.4088 9.55673C7.20906 9.55492 7.01677 9.63244 6.87414 9.77227C6.73151 9.9121 6.65019 10.1028 6.64804 10.3025V59.7394C6.64804 60.151 6.98902 60.4865 7.4088 60.4865H47.9951C48.1932 60.4865 48.3833 60.4078 48.5234 60.2677C48.6635 60.1276 48.7422 59.9375 48.7422 59.7394V10.3025C48.7371 10.1061 48.6566 9.91922 48.5176 9.78042C48.3785 9.64162 48.1915 9.56154 47.9951 9.55673H7.4088Z" fill="#282828"/>
<path d="M16.9155 14.9456H10.6528C10.4727 14.9456 10.2999 14.874 10.1725 14.7466C10.0452 14.6192 9.9736 14.4465 9.9736 14.2663C9.9736 14.0862 10.0452 13.9134 10.1725 13.786C10.2999 13.6586 10.4727 13.5871 10.6528 13.5871H16.9141C17.0943 13.5871 17.267 13.6586 17.3944 13.786C17.5218 13.9134 17.5934 14.0862 17.5934 14.2663C17.5934 14.4465 17.5218 14.6192 17.3944 14.7466C17.267 14.874 17.0956 14.9456 16.9155 14.9456ZM13.5478 18.1326H10.6542C10.4741 18.1326 10.3013 18.061 10.1739 17.9336C10.0465 17.8062 9.97496 17.6335 9.97496 17.4533C9.97496 17.2732 10.0465 17.1004 10.1739 16.973C10.3013 16.8456 10.4741 16.7741 10.6542 16.7741H13.5478C13.7279 16.7741 13.9007 16.8456 14.0281 16.973C14.1555 17.1004 14.227 17.2732 14.227 17.4533C14.227 17.6335 14.1555 17.8062 14.0281 17.9336C13.9007 18.061 13.7279 18.1326 13.5478 18.1326Z" fill="#282828"/>
<path d="M39.5209 5.56969V7.67535C39.5209 9.22403 38.2711 10.4738 36.7225 10.4738H18.6681C17.1194 10.4738 15.8696 9.22403 15.8696 7.67535V5.56969C15.8696 2.98856 17.9617 0.896484 20.5428 0.896484H34.8477C37.4289 0.896484 39.5209 2.98856 39.5209 5.56969Z" fill="#86CBE8"/>
<path d="M36.7223 11.1526H18.668C17.7459 11.1516 16.862 10.7848 16.21 10.1328C15.558 9.48088 15.1913 8.59693 15.1902 7.67491V5.56925C15.192 4.15024 15.7565 2.78987 16.7599 1.78648C17.7633 0.783089 19.1237 0.218594 20.5427 0.216797H34.8462C36.2652 0.218594 37.6256 0.783089 38.629 1.78648C39.6324 2.78987 40.1969 4.15024 40.1987 5.56925V7.67491C40.1976 8.59693 39.8308 9.48088 39.1789 10.1328C38.5269 10.7848 37.6443 11.1516 36.7223 11.1526ZM20.5427 1.57529C19.4838 1.57673 18.4688 1.99798 17.7201 2.74668C16.9714 3.49538 16.5501 4.51043 16.5487 5.56925V7.67491C16.5487 8.84321 17.4996 9.79416 18.668 9.79416H36.7223C37.8906 9.79416 38.8415 8.84321 38.8415 7.67491V5.56925C38.8415 3.36714 37.0483 1.57529 34.8449 1.57529H20.5427Z" fill="#282828"/>
<path d="M33.5216 5.6851C33.5216 6.4051 32.951 6.97566 32.2446 6.97566H23.1563C22.4363 6.97566 21.8657 6.4051 21.8657 5.6851C21.8657 4.9651 22.4363 4.39453 23.1563 4.39453H32.2446C32.951 4.39453 33.5216 4.9651 33.5216 5.6851Z" fill="white"/>
<path d="M44.3202 50.9255H24.9685C24.7883 50.9255 24.6156 50.854 24.4882 50.7266C24.3608 50.5992 24.2892 50.4264 24.2892 50.2463C24.2892 50.0661 24.3608 49.8934 24.4882 49.766C24.6156 49.6386 24.7883 49.567 24.9685 49.567H44.3202C44.5003 49.567 44.6731 49.6386 44.8005 49.766C44.9279 49.8934 44.9994 50.0661 44.9994 50.2463C44.9994 50.4264 44.9279 50.5992 44.8005 50.7266C44.6731 50.854 44.5003 50.9255 44.3202 50.9255ZM22.0233 50.9255H11.0684C10.8883 50.9255 10.7155 50.854 10.5881 50.7266C10.4607 50.5992 10.3892 50.4264 10.3892 50.2463C10.3892 50.0661 10.4607 49.8934 10.5881 49.766C10.7155 49.6386 10.8883 49.567 11.0684 49.567H22.0246C22.2048 49.567 22.3775 49.6386 22.5049 49.766C22.6323 49.8934 22.7039 50.0661 22.7039 50.2463C22.7039 50.4264 22.6323 50.5992 22.5049 50.7266C22.3775 50.854 22.2034 50.9255 22.0233 50.9255ZM33.872 56.3975H11.0684C10.8883 56.3975 10.7155 56.326 10.5881 56.1986C10.4607 56.0712 10.3892 55.8984 10.3892 55.7183C10.3892 55.5381 10.4607 55.3654 10.5881 55.238C10.7155 55.1106 10.8883 55.039 11.0684 55.039H33.872C34.0522 55.039 34.2249 55.1106 34.3523 55.238C34.4797 55.3654 34.5513 55.5381 34.5513 55.7183C34.5513 55.8984 34.4797 56.0712 34.3523 56.1986C34.2249 56.326 34.0522 56.3975 33.872 56.3975ZM44.3202 39.9815H17.2686C17.0884 39.9815 16.9156 39.91 16.7883 39.7826C16.6609 39.6552 16.5893 39.4824 16.5893 39.3023C16.5893 39.1221 16.6609 38.9494 16.7883 38.822C16.9156 38.6946 17.0884 38.623 17.2686 38.623H44.3188C44.499 38.623 44.6717 38.6946 44.7991 38.822C44.9265 38.9494 44.9981 39.1221 44.9981 39.3023C44.9981 39.4824 44.9265 39.6552 44.7991 39.7826C44.6717 39.91 44.5003 39.9815 44.3202 39.9815ZM14.7798 39.9815H11.0684C10.8883 39.9815 10.7155 39.91 10.5881 39.7826C10.4607 39.6552 10.3892 39.4824 10.3892 39.3023C10.3892 39.1221 10.4607 38.9494 10.5881 38.822C10.7155 38.6946 10.8883 38.623 11.0684 38.623H14.7798C14.9599 38.623 15.1327 38.6946 15.2601 38.822C15.3875 38.9494 15.459 39.1221 15.459 39.3023C15.459 39.4824 15.3875 39.6552 15.2601 39.7826C15.1327 39.91 14.9599 39.9815 14.7798 39.9815ZM44.3202 45.4549H33.459C33.2789 45.4549 33.1061 45.3833 32.9788 45.2559C32.8514 45.1286 32.7798 44.9558 32.7798 44.7757C32.7798 44.5955 32.8514 44.4227 32.9788 44.2954C33.1061 44.168 33.2789 44.0964 33.459 44.0964H44.3202C44.5003 44.0964 44.6731 44.168 44.8005 44.2954C44.9279 44.4227 44.9994 44.5955 44.9994 44.7757C44.9994 44.9558 44.9279 45.1286 44.8005 45.2559C44.6731 45.3833 44.5003 45.4549 44.3202 45.4549ZM30.795 45.4549H11.0698C10.8896 45.4549 10.7168 45.3833 10.5895 45.2559C10.4621 45.1286 10.3905 44.9558 10.3905 44.7757C10.3905 44.5955 10.4621 44.4227 10.5895 44.2954C10.7168 44.168 10.8896 44.0964 11.0698 44.0964H30.795C30.9752 44.0964 31.148 44.168 31.2753 44.2954C31.4027 44.4227 31.4743 44.5955 31.4743 44.7757C31.4743 44.9558 31.4027 45.1286 31.2753 45.2559C31.148 45.3833 30.9752 45.4549 30.795 45.4549Z" fill="#282828"/>
<path d="M28.5006 35.0216C34.2319 35.0216 38.8781 30.3755 38.8781 24.6441C38.8781 18.9128 34.2319 14.2666 28.5006 14.2666C22.7692 14.2666 18.123 18.9128 18.123 24.6441C18.123 30.3755 22.7692 35.0216 28.5006 35.0216Z" fill="#86CBE8"/>
<path d="M28.5007 35.7006C22.4051 35.7006 17.4439 30.7407 17.4439 24.6438C17.4439 18.5469 22.4051 13.5871 28.5021 13.5871C34.599 13.5871 39.5574 18.5469 39.5574 24.6438C39.5574 30.7407 34.5962 35.7006 28.5007 35.7006ZM28.5007 14.9456C23.1537 14.9456 18.8024 19.2954 18.8024 24.6438C18.8024 29.9922 23.1537 34.3421 28.5021 34.3421C33.8504 34.3421 38.199 29.9908 38.199 24.6438C38.199 19.2968 33.8491 14.9456 28.5007 14.9456Z" fill="#282828"/>
<path d="M34.6084 24.1348L30.5221 25.4648L33.0625 28.9996C33.131 29.0992 33.158 29.2217 33.1377 29.3409C33.1174 29.4601 33.0514 29.5667 32.9538 29.6381L31.6456 30.5781C31.596 30.6126 31.5401 30.6368 31.4812 30.6494C31.4222 30.662 31.3613 30.6628 31.302 30.6517C31.2427 30.6406 31.1862 30.6178 31.1358 30.5846C31.0854 30.5515 31.0421 30.5086 31.0084 30.4586L28.5441 26.7947L26.0581 30.4695C25.9884 30.5689 25.8825 30.637 25.7632 30.6594C25.6439 30.6817 25.5205 30.6565 25.4196 30.589L24.057 29.6381C24.0075 29.6037 23.9654 29.5597 23.933 29.5088C23.9007 29.4579 23.8788 29.4011 23.8687 29.3416C23.8586 29.2822 23.8604 29.2213 23.8741 29.1626C23.8878 29.1039 23.913 29.0484 23.9484 28.9996L26.5227 25.4648L22.3929 24.124C22.3361 24.1058 22.2835 24.0763 22.2384 24.0374C22.1933 23.9984 22.1565 23.9507 22.1302 23.8972C22.104 23.8437 22.0888 23.7854 22.0856 23.7258C22.0824 23.6663 22.0913 23.6067 22.1117 23.5507L22.6306 22.1025C22.6501 22.0468 22.6804 21.9955 22.7199 21.9517C22.7594 21.9078 22.8072 21.8723 22.8606 21.8471C22.9139 21.8219 22.9718 21.8077 23.0307 21.8051C23.0897 21.8025 23.1485 21.8117 23.2039 21.8322L27.2794 23.3021V19.0772C27.2785 19.0182 27.2892 18.9596 27.311 18.9048C27.3328 18.8499 27.3652 18.8 27.4063 18.7577C27.4475 18.7154 27.4966 18.6817 27.5508 18.6584C27.605 18.6351 27.6632 18.6228 27.7222 18.6221H29.2356C29.4842 18.6221 29.6893 18.8272 29.6893 19.0758V23.26L33.7974 21.8213C33.9108 21.7846 34.034 21.7935 34.1409 21.846C34.2479 21.8984 34.3303 21.9904 34.3707 22.1025L34.8896 23.5507C34.9096 23.6075 34.9182 23.6677 34.9149 23.7278C34.9115 23.788 34.8964 23.8468 34.8702 23.9011C34.8441 23.9554 34.8075 24.0039 34.7626 24.044C34.7177 24.0842 34.6653 24.115 34.6084 24.1348Z" fill="#282828"/>
<path d="M64.8974 16.4589L51.7132 44.8663L43.3205 40.9715L56.5019 12.5655C56.612 12.3275 56.7679 12.1136 56.9607 11.936C57.1535 11.7583 57.3795 11.6204 57.6257 11.5302C57.8719 11.44 58.1334 11.3992 58.3954 11.4102C58.6573 11.4212 58.9145 11.4837 59.1523 11.5942L63.9247 13.8085C64.1625 13.9187 64.3763 14.0747 64.5538 14.2676C64.7313 14.4605 64.8691 14.6865 64.9591 14.9326C65.0492 15.1788 65.0899 15.4403 65.0788 15.7022C65.0678 15.9641 65.0052 16.2212 64.8947 16.4589H64.8974Z" fill="#86CBE8"/>
<path d="M51.7132 45.5455C51.6147 45.5456 51.5174 45.5243 51.4279 45.4831L43.0325 41.5883C42.8693 41.5122 42.7431 41.3744 42.6814 41.2053C42.6198 41.0361 42.6278 40.8495 42.7037 40.6862L55.8879 12.2775C56.1877 11.635 56.7298 11.1375 57.3956 10.8938C58.0614 10.6501 58.7966 10.6802 59.4403 10.9774L64.2127 13.1917C64.8558 13.4912 65.3538 14.0337 65.5972 14.7C65.8407 15.3663 65.8099 16.102 65.5114 16.7455L52.3286 45.1516C52.2745 45.2693 52.1878 45.369 52.0787 45.4388C51.9696 45.5086 51.8427 45.5457 51.7132 45.5455ZM44.2211 40.6414L51.3831 43.9643L64.2806 16.1736C64.4272 15.8567 64.442 15.4946 64.3218 15.1668C64.2015 14.839 63.9561 14.5723 63.6394 14.4252L58.8684 12.2109C58.5517 12.0653 58.1902 12.0507 57.8628 12.1702C57.5353 12.2898 57.2684 12.5339 57.12 12.8494L44.2211 40.6414Z" fill="#282828"/>
<path d="M62.5226 21.5755L64.8959 16.4594C65.0062 16.2218 65.0687 15.9647 65.0796 15.703C65.0906 15.4412 65.0499 15.1799 64.9598 14.9339C64.8697 14.6879 64.732 14.462 64.5547 14.2693C64.3773 14.0765 64.1636 13.9205 63.926 13.8103L59.1536 11.5946C58.916 11.4843 58.6589 11.4219 58.3972 11.4109C58.1354 11.4 57.8741 11.4407 57.6281 11.5308C57.3821 11.6208 57.1562 11.7585 56.9635 11.9359C56.7707 12.1133 56.6147 12.3269 56.5045 12.5646L54.1299 17.6793L62.5226 21.5755Z" fill="white"/>
<path d="M62.5227 22.2542C62.4242 22.2536 62.3269 22.2319 62.2375 22.1904L53.8433 18.2956C53.6802 18.2195 53.5539 18.0817 53.4923 17.9126C53.4307 17.7435 53.4387 17.5568 53.5146 17.3935L55.8879 12.2775C56.1877 11.635 56.7298 11.1375 57.3956 10.8938C58.0614 10.6501 58.7966 10.6802 59.4403 10.9774L64.2127 13.1917C64.8607 13.4933 65.3538 14.0286 65.5984 14.6997C65.8429 15.3708 65.813 16.0962 65.5114 16.7455L63.1381 21.8603C63.0838 21.9777 62.997 22.0772 62.8879 22.147C62.7789 22.2168 62.6522 22.254 62.5227 22.2542ZM55.032 17.3501L62.1913 20.6729L64.2806 16.1736C64.4272 15.8567 64.442 15.4946 64.3218 15.1668C64.2015 14.839 63.9561 14.5723 63.6394 14.4252L58.8684 12.2109C58.5517 12.0653 58.1902 12.0507 57.8628 12.1702C57.5353 12.2898 57.2684 12.5339 57.12 12.8494L55.032 17.3501Z" fill="#282828"/>
<path d="M51.6983 44.8364L47.3348 48.5628L45.6584 50.0082C44.7387 50.8002 43.311 50.1508 43.311 48.9323L43.3082 46.6799L43.2906 40.9783L51.6983 44.8364Z" fill="white"/>
<path d="M44.7374 51.0352C44.4412 51.0352 44.1396 50.9714 43.8544 50.841C43.4879 50.6754 43.1773 50.4071 42.9603 50.0685C42.7433 49.73 42.6292 49.3357 42.6317 48.9336L42.6127 40.9797C42.6127 40.8657 42.6412 40.7535 42.6958 40.6534C42.7504 40.5534 42.8293 40.4686 42.9251 40.4069C43.021 40.3453 43.1308 40.3087 43.2445 40.3005C43.3582 40.2923 43.4722 40.3129 43.5759 40.3602L51.9822 44.2183C52.0856 44.2665 52.1753 44.3398 52.243 44.4315C52.3107 44.5233 52.3543 44.6306 52.3699 44.7436C52.3854 44.8566 52.3724 44.9716 52.332 45.0783C52.2915 45.1849 52.225 45.2797 52.1384 45.354L46.1013 50.5231C45.7087 50.8613 45.2292 51.0352 44.7374 51.0352ZM43.9739 42.0379L43.9889 48.9323C43.9889 49.2311 44.1519 49.4825 44.4222 49.6061C44.5509 49.6673 44.6948 49.6892 44.8359 49.6692C44.977 49.6491 45.109 49.588 45.2156 49.4933L50.4485 45.0103L43.9739 42.0379Z" fill="#282828"/>
<path d="M47.5264 42.8979L58.3264 19.6269L47.5264 42.8979Z" fill="#282828"/>
<path d="M47.5264 43.5771C47.4124 43.5769 47.3003 43.5481 47.2004 43.4932C47.1006 43.4384 47.0161 43.3593 46.9548 43.2632C46.8935 43.1672 46.8574 43.0572 46.8497 42.9435C46.842 42.8298 46.8631 42.716 46.911 42.6126L57.711 19.3416C57.7453 19.2561 57.7967 19.1784 57.862 19.1133C57.9273 19.0482 58.0052 18.9971 58.0909 18.9631C58.1767 18.9291 58.2684 18.913 58.3606 18.9156C58.4527 18.9182 58.5434 18.9395 58.6271 18.9783C58.7107 19.0171 58.7856 19.0725 58.8472 19.1411C58.9087 19.2098 58.9556 19.2903 58.9851 19.3776C59.0145 19.465 59.0259 19.5575 59.0184 19.6494C59.011 19.7413 58.9849 19.8307 58.9418 19.9122L48.1418 43.1832C48.0877 43.3008 48.0009 43.4005 47.8918 43.4704C47.7827 43.5402 47.6559 43.5772 47.5264 43.5771Z" fill="#282828"/>
<path d="M47.3347 48.5631L45.6583 50.0085C44.7386 50.8005 43.3108 50.1511 43.3108 48.9326L43.3081 46.6802C44.0866 46.5328 44.8917 46.634 45.6094 46.9695C46.3674 47.3214 46.9584 47.8784 47.3347 48.5631Z" fill="#282828"/>
<path d="M44.7374 51.0352C44.4412 51.0352 44.1396 50.9714 43.8544 50.841C43.4879 50.6754 43.1773 50.4071 42.9603 50.0685C42.7433 49.73 42.6292 49.3358 42.6317 48.9336L42.629 46.6799C42.6288 46.5213 42.6842 46.3677 42.7854 46.2456C42.8866 46.1235 43.0274 46.0407 43.1833 46.0115C44.1004 45.8389 45.0486 45.9576 45.8948 46.3511C46.7724 46.7587 47.4775 47.4108 47.9312 48.2354C48.0063 48.3719 48.0322 48.5301 48.0045 48.6835C47.9768 48.8368 47.8972 48.976 47.779 49.0776L46.1013 50.5231C45.7087 50.8613 45.2291 51.0352 44.7374 51.0352ZM43.9875 47.2926L43.9888 48.9323C43.9888 49.2311 44.1519 49.4825 44.4222 49.6061C44.5509 49.6673 44.6948 49.6892 44.8359 49.6692C44.977 49.6491 45.109 49.588 45.2156 49.4933L46.4382 48.4405C46.1401 48.0801 45.7658 47.7902 45.3423 47.5917C44.9188 47.3932 44.4552 47.2911 43.9875 47.2926Z" fill="#282828"/>
</svg>
