<svg width="56" height="68" viewBox="0 0 56 68" fill="none" xmlns="http://www.w3.org/2000/svg">
<path d="M28.7252 62.0586V34.4106C28.7252 33.9 28.5224 33.4104 28.1614 33.0494C27.8004 32.6884 27.3108 32.4856 26.8002 32.4856C26.2897 32.4856 25.8001 32.6884 25.4391 33.0494C25.0781 33.4104 24.8752 33.9 24.8752 34.4106V62.0586H28.7252Z" fill="#F2F2F2"/>
<path d="M28.7257 62.7374H24.8758C24.6956 62.7374 24.5229 62.6658 24.3955 62.5384C24.2681 62.4111 24.1965 62.2383 24.1965 62.0581V34.4101C24.1965 32.9742 25.3648 31.8059 26.8008 31.8059C28.2367 31.8059 29.405 32.9742 29.405 34.4101V62.0581C29.405 62.2383 29.3334 62.4111 29.206 62.5384C29.0787 62.6658 28.9059 62.7374 28.7257 62.7374ZM25.555 61.3789H28.0465V34.4101C28.0315 34.0898 27.8937 33.7876 27.6618 33.5662C27.4298 33.3448 27.1214 33.2212 26.8008 33.2212C26.4801 33.2212 26.1717 33.3448 25.9397 33.5662C25.7078 33.7876 25.57 34.0898 25.555 34.4101V61.3789Z" fill="#282828"/>
<path d="M51.1755 62.3071V62.7309C51.1755 63.6764 50.4079 64.4426 49.461 64.4426H4.14044C3.91548 64.4428 3.69268 64.3986 3.48478 64.3127C3.27687 64.2268 3.08793 64.1008 2.92873 63.9418C2.76953 63.7829 2.6432 63.5941 2.55694 63.3864C2.47069 63.1786 2.4262 62.9559 2.42603 62.7309V62.3071C2.42603 61.3602 3.19357 60.594 4.14044 60.594H49.461C50.4079 60.594 51.1741 61.3602 51.1741 62.3071H51.1755Z" fill="#F2F2F2"/>
<path d="M49.4612 65.1235H4.14059C2.8215 65.1235 1.74829 64.0503 1.74829 62.7299V62.3074C1.74829 60.9883 2.8215 59.9151 4.13923 59.9151H49.4612C50.7817 59.9151 51.8549 60.9883 51.8549 62.306V62.7299C51.8549 64.0503 50.7817 65.1235 49.4612 65.1235ZM4.14059 61.2736C3.57003 61.2736 3.10678 61.7368 3.10678 62.306V62.7299C3.10678 63.3004 3.56867 63.765 4.13923 63.765H49.4612C50.0318 63.765 50.4964 63.3004 50.4964 62.7299V62.3074C50.496 62.0331 50.3868 61.7701 50.1927 61.5763C49.9986 61.3824 49.7355 61.2736 49.4612 61.2736H4.14059ZM54.7675 23.0361V28.917C54.7701 29.1147 54.7064 29.3076 54.5864 29.4647C54.4665 29.6218 54.2973 29.7342 54.1059 29.7837L50.2396 30.8135C49.746 32.9048 48.9224 34.9042 47.7998 36.7365L49.7981 40.1776C49.9897 40.5308 49.9448 40.9709 49.6514 41.2644L45.4917 45.4254C45.3507 45.5644 45.1683 45.6538 44.9721 45.6803C44.7759 45.7068 44.5763 45.6688 44.4035 45.5721L42.2123 44.2938L40.9625 43.5738C40.2289 44.0289 39.4491 44.4256 38.6558 44.7937C37.4925 45.316 36.2814 45.7246 35.0395 46.0136L34.0097 49.8799C33.9602 50.0713 33.8478 50.2405 33.6907 50.3604C33.5335 50.4804 33.3407 50.5441 33.143 50.5415H27.6303V38.5012C33.7598 37.6046 38.4493 32.3418 38.4493 25.9759C38.4493 19.6114 33.7598 14.3472 27.6303 13.4506V1.39673H33.143C33.3421 1.39727 33.5353 1.46406 33.6922 1.58655C33.8492 1.70904 33.9609 1.88027 34.0097 2.07326L35.0395 5.93952C36.3029 6.23295 37.5092 6.64594 38.6558 7.15945C39.4491 7.52624 40.2289 7.92428 40.9638 8.37937L42.2136 7.65937L44.4035 6.39462C44.5736 6.29248 44.7729 6.25011 44.9698 6.27423C45.1667 6.29835 45.3499 6.38758 45.4903 6.52775L49.6514 10.6874C49.7901 10.8284 49.8793 11.0105 49.9058 11.2064C49.9322 11.4023 49.8945 11.6016 49.7981 11.7742L47.7998 15.2153C48.9225 17.048 49.7461 19.0478 50.2396 21.1397L54.1059 22.1681C54.2975 22.2177 54.4669 22.3302 54.5868 22.4876C54.7068 22.6451 54.7704 22.8382 54.7675 23.0361Z" fill="#282828"/>
<path d="M33.1421 51.2203H27.6307C27.4505 51.2203 27.2777 51.1487 27.1504 51.0213C27.023 50.894 26.9514 50.7212 26.9514 50.541V38.5007C26.9513 38.3377 27.0098 38.18 27.1163 38.0566C27.2228 37.9331 27.3702 37.8521 27.5315 37.8283C33.3689 36.9738 37.7704 31.8795 37.7704 25.9755C37.7704 20.0715 33.3689 14.9771 27.5315 14.1226C27.3704 14.0989 27.2232 14.018 27.1168 13.8948C27.0103 13.7717 26.9516 13.6143 26.9514 13.4515V1.39629C26.9514 1.21614 27.023 1.04337 27.1504 0.915987C27.2777 0.788604 27.4505 0.717041 27.6307 0.717041H33.1421C33.8593 0.717041 34.487 1.20474 34.6676 1.903L35.5914 5.37395C36.7325 5.66331 37.8547 6.05455 38.9333 6.53953C39.7239 6.90632 40.3801 7.24323 40.971 7.591L44.0643 5.80595C44.3643 5.63072 44.7137 5.55919 45.0585 5.60241C45.4032 5.64562 45.7242 5.80118 45.9716 6.04504L50.1327 10.2061C50.6299 10.7074 50.7359 11.4654 50.3976 12.0958L48.5867 15.2094C49.5722 16.8899 50.3184 18.6996 50.8038 20.5863L54.2815 21.5115C54.9662 21.6894 55.4471 22.317 55.4471 23.0357V28.9166C55.4471 29.6366 54.9662 30.2615 54.2761 30.4408L50.8038 31.3646C50.3184 33.2513 49.5722 35.061 48.5867 36.7415L50.3867 39.8348C50.7372 40.4869 50.6313 41.2449 50.1327 41.7448L45.9716 45.9059C45.7278 46.1491 45.4114 46.3064 45.0702 46.3539C44.7291 46.4014 44.3817 46.3367 44.0806 46.1694L40.9724 44.3613C40.3828 44.7063 39.728 45.0446 38.9415 45.4087C37.8609 45.8937 36.7405 46.2845 35.5928 46.577L34.6663 50.0547C34.4897 50.738 33.8621 51.2203 33.1421 51.2203ZM28.3099 49.8618H33.1421C33.2467 49.8618 33.3282 49.8034 33.3513 49.7096L34.3837 45.8379C34.4155 45.7189 34.4791 45.6108 34.5676 45.5251C34.6562 45.4394 34.7663 45.3795 34.8864 45.3516C36.0852 45.072 37.2544 44.6775 38.3777 44.1738C39.2648 43.7622 39.9753 43.3859 40.6056 42.996C40.7099 42.9308 40.83 42.8952 40.953 42.893C41.0761 42.8909 41.1973 42.9222 41.3039 42.9838L44.7463 44.9848C44.7892 45.0064 44.8378 45.0141 44.8853 45.0068C44.9327 44.9995 44.9768 44.9776 45.0112 44.9441L49.1722 40.7844C49.2592 40.6974 49.2429 40.5752 49.2008 40.4991L47.2119 37.0784C47.1503 36.9726 47.1184 36.8521 47.1196 36.7297C47.1208 36.6073 47.155 36.4874 47.2187 36.3829C48.3036 34.6115 49.1006 32.6793 49.5798 30.6582C49.6075 30.5383 49.6673 30.4283 49.7527 30.3397C49.8381 30.2512 49.946 30.1875 50.0648 30.1555L53.931 29.1272C54.0302 29.1013 54.0886 29.0212 54.0886 28.9166V23.0357C54.0886 22.9311 54.0302 22.8496 53.9365 22.8251L50.0648 21.7967C49.946 21.7647 49.8381 21.7011 49.7527 21.6125C49.6673 21.524 49.6075 21.4139 49.5798 21.2941C49.1014 19.2723 48.3044 17.3395 47.2187 15.5681C47.155 15.4635 47.1208 15.3437 47.1196 15.2212C47.1184 15.0988 47.1503 14.9783 47.2119 14.8725L49.2116 11.4328C49.2335 11.3895 49.2413 11.3405 49.234 11.2925C49.2267 11.2445 49.2046 11.2001 49.1709 11.1652L45.0112 7.00685C44.9256 6.91991 44.8169 6.93893 44.7463 6.98104L41.3039 8.96715C41.1974 9.02887 41.0762 9.06047 40.9532 9.05855C40.8302 9.05664 40.7101 9.02129 40.6056 8.95629C39.9712 8.56232 39.2621 8.18874 38.3709 7.7744C37.2492 7.27241 36.0819 6.87936 34.885 6.60066C34.7648 6.57269 34.6545 6.51251 34.566 6.42659C34.4774 6.34067 34.4139 6.23224 34.3824 6.11297L33.3526 2.2467C33.3421 2.19852 33.3156 2.15533 33.2773 2.12422C33.2391 2.09312 33.1914 2.07595 33.1421 2.07553H28.3099V12.8769C34.5182 14.0724 39.1289 19.6014 39.1289 25.9755C39.1289 32.3495 34.5182 37.8799 28.3099 39.074V49.8618Z" fill="#282828"/>
<path d="M50.3539 23.042V28.9161C50.3539 29.3251 50.0876 29.6864 49.695 29.7801L45.8301 30.818C45.3275 32.9373 44.4947 34.9343 43.3957 36.7411L45.3886 40.1807C45.4821 40.3531 45.5188 40.5506 45.4934 40.745C45.4681 40.9394 45.3819 41.1209 45.2473 41.2635L42.2152 44.2956L41.0849 45.4272C40.786 45.7261 40.3459 45.7574 39.9845 45.5685L38.6491 44.7983L36.5435 43.5729C34.7109 44.693 32.7121 45.5152 30.6218 46.0087L29.6016 49.8722C29.5543 50.0656 29.4434 50.2374 29.2867 50.3601C29.13 50.4828 28.9366 50.5493 28.7376 50.5488H22.8458C22.6468 50.5493 22.4533 50.4828 22.2966 50.3601C22.1399 50.2374 22.029 50.0656 21.9818 49.8722L20.9616 46.0087C18.867 45.5124 16.8633 44.6905 15.0236 43.5729L11.5826 45.5685C11.4111 45.6662 11.2125 45.7053 11.0168 45.6798C10.8211 45.6543 10.6391 45.5656 10.4985 45.4272L6.33606 41.2635C6.20144 41.1209 6.1153 40.9394 6.08993 40.745C6.06456 40.5506 6.10125 40.3531 6.19478 40.1807L8.18904 36.7397C7.07199 34.9052 6.25048 32.9065 5.75462 30.8167L1.88972 29.7801C1.69882 29.731 1.53001 29.6191 1.41049 29.4624C1.29097 29.3056 1.22769 29.1132 1.23085 28.9161V23.042C1.22735 22.843 1.29021 22.6484 1.4095 22.489C1.5288 22.3296 1.69775 22.2145 1.88972 22.1617L5.75462 21.1401C6.25727 19.0046 7.09002 17.0239 8.18904 15.2171L6.20972 11.7774C6.10889 11.6082 6.06662 11.4104 6.08946 11.2147C6.11229 11.019 6.19896 10.8362 6.33606 10.6947L10.4985 6.53094C10.6371 6.38907 10.8194 6.29799 11.016 6.27236C11.2127 6.24673 11.4122 6.28805 11.5826 6.38966L15.0236 8.38528C16.8589 7.25659 18.8632 6.4292 20.9602 5.93456L21.9818 2.06966C22.0328 1.87969 22.1451 1.71192 22.3014 1.5925C22.4577 1.47307 22.6491 1.40871 22.8458 1.40943H28.7376C29.1451 1.40943 29.4915 1.67705 29.6016 2.06966L30.6218 5.93456C32.7587 6.4372 34.738 7.26996 36.5448 8.38528L38.6505 7.15992L39.9845 6.38966C40.1575 6.28748 40.3597 6.2459 40.5589 6.27149C40.7582 6.29708 40.9433 6.38838 41.0849 6.53094L42.2152 7.66256L45.2473 10.6947C45.3829 10.8367 45.4696 11.0183 45.495 11.213C45.5204 11.4076 45.4832 11.6054 45.3886 11.7774L43.3943 15.2185C44.5141 17.0516 45.3358 19.0508 45.8287 21.1415L49.6936 22.1617C49.8856 22.2145 50.0546 22.3296 50.1739 22.489C50.2932 22.6484 50.356 22.843 50.3525 23.042H50.3539Z" fill="#86CBE8"/>
<path d="M28.7391 51.2289H22.8473C22.4991 51.2299 22.1605 51.1146 21.8854 50.9012C21.6102 50.6878 21.4142 50.3886 21.3285 50.0511L20.4088 46.5734C18.5202 46.0861 16.7073 45.342 15.021 44.3617L11.925 46.1577C11.2757 46.5109 10.5176 46.4063 10.0204 45.9091L5.85666 41.7439C5.61783 41.4973 5.46421 41.1806 5.41825 40.8404C5.3723 40.5001 5.43643 40.1541 5.60126 39.8529L7.40262 36.7447C6.42155 35.0635 5.67818 33.2544 5.19372 31.3691L1.71598 30.4359C1.37984 30.3494 1.08248 30.1526 0.871608 29.8769C0.660734 29.6013 0.54857 29.2627 0.553111 28.9157V23.0416C0.553111 22.3175 1.01771 21.7008 1.70783 21.5065L5.19236 20.5854C5.67326 18.7094 6.41636 16.9039 7.40398 15.2113L5.62164 12.1166C5.44857 11.8172 5.37788 11.4695 5.42029 11.1263C5.4627 10.783 5.61591 10.463 5.85666 10.2147L10.0204 6.05095C10.2666 5.80416 10.5879 5.64621 10.9336 5.60194C11.2794 5.55768 11.6301 5.62961 11.9305 5.80642L15.0183 7.59556C16.7025 6.60584 18.5169 5.85683 20.4088 5.37035L21.3271 1.89533C21.416 1.56034 21.6135 1.26424 21.8885 1.05335C22.1635 0.842462 22.5007 0.728661 22.8473 0.729744H28.7391C29.4523 0.729744 30.0636 1.19435 30.2565 1.88582L31.1776 5.37035C33.0654 5.85407 34.8753 6.60279 36.5531 7.5942L39.6464 5.80099C39.9488 5.62411 40.3015 5.55268 40.6489 5.59793C40.9963 5.64317 41.3189 5.80252 41.5659 6.05095L45.7297 10.2134C46.2188 10.7024 46.3234 11.4591 45.9905 12.0935L44.1838 15.2126C45.1645 16.8932 45.9083 18.7012 46.394 20.5854L49.869 21.5051C50.5687 21.7008 51.0333 22.3175 51.0333 23.0402V28.9157C51.0333 29.6466 50.5483 30.2742 49.8514 30.4413L46.3927 31.3691C45.9077 33.2543 45.1644 35.0632 44.1838 36.7447L45.977 39.8393C46.1448 40.1382 46.2126 40.483 46.1706 40.8232C46.1286 41.1634 45.9788 41.4813 45.7433 41.7303L41.5659 45.9077C41.0755 46.3981 40.3121 46.5054 39.6722 46.1699L36.5504 44.3604C34.8705 45.3425 33.0623 46.0864 31.1776 46.5706L30.2592 50.0457C30.069 50.7534 29.4577 51.2276 28.7377 51.2276L28.7391 51.2289ZM15.0238 42.8946C15.146 42.8946 15.2669 42.9272 15.3756 42.9924C17.1552 44.0721 19.0927 44.8669 21.1179 45.348C21.2379 45.3762 21.3479 45.4365 21.4362 45.5224C21.5245 45.6083 21.5878 45.7166 21.6192 45.8357L22.6408 49.7006C22.6693 49.8066 22.7454 49.8704 22.8473 49.8704H28.7391C28.841 49.8704 28.9157 49.8066 28.9469 49.6965L29.9671 45.8357C29.9987 45.7164 30.0622 45.608 30.1508 45.5221C30.2393 45.4362 30.3496 45.376 30.4698 45.348C32.4898 44.8701 34.4215 44.0755 36.1931 42.9937C36.2977 42.93 36.4175 42.8958 36.54 42.8946C36.6624 42.8934 36.7829 42.9253 36.8887 42.987L40.3256 44.9812C40.3324 44.9839 40.4927 45.0614 40.6055 44.9486L44.7693 40.7848C44.8318 40.7196 44.8453 40.6028 44.7937 40.5091L42.8076 37.0816C42.7464 36.9761 42.7148 36.856 42.7163 36.7341C42.7177 36.6121 42.7521 36.4928 42.8158 36.3888C43.8955 34.6147 44.69 32.682 45.17 30.6614C45.1983 30.5424 45.2582 30.4333 45.3433 30.3456C45.4284 30.2578 45.5356 30.1947 45.6536 30.1628L49.5185 29.1263C49.5647 29.1147 49.6055 29.0876 49.6339 29.0495C49.6624 29.0114 49.6768 28.9646 49.6748 28.9171V23.043C49.6748 22.9288 49.615 22.846 49.5118 22.8174L45.6564 21.7986C45.5373 21.7669 45.4291 21.7034 45.3434 21.6148C45.2577 21.5263 45.1977 21.416 45.17 21.2959C44.6912 19.2762 43.8967 17.3447 42.8158 15.5726C42.7519 15.4684 42.7175 15.3488 42.7161 15.2266C42.7146 15.1044 42.7463 14.9841 42.8076 14.8784L44.8019 11.4387C44.8426 11.3599 44.8358 11.2417 44.7693 11.1752L40.6055 7.01276C40.4914 6.89865 40.3582 6.95842 40.3202 6.98152L36.8887 8.97306C36.7822 9.03511 36.6608 9.067 36.5375 9.06532C36.4143 9.06365 36.2938 9.02847 36.189 8.96355C34.4225 7.87197 32.4912 7.07285 30.4698 6.59706C30.3494 6.56898 30.239 6.5086 30.1505 6.42242C30.0619 6.33625 29.9985 6.22754 29.9671 6.10801L28.9456 2.24446C28.9334 2.19927 28.9065 2.15946 28.8691 2.13139C28.8316 2.10331 28.7859 2.0886 28.7391 2.08959H22.8473C22.7991 2.08916 22.7523 2.10503 22.7143 2.13463C22.6763 2.16423 22.6494 2.20581 22.6381 2.25261L21.6192 6.10937C21.5876 6.22865 21.5242 6.33707 21.4356 6.42299C21.3471 6.50892 21.2368 6.56909 21.1166 6.59706C19.1033 7.07118 17.1729 7.86725 15.3783 8.96491C15.2739 9.02884 15.1541 9.06335 15.0317 9.06478C14.9092 9.06622 14.7887 9.03452 14.6828 8.97306L11.2431 6.98016C11.2023 6.95426 11.1537 6.94347 11.1058 6.94968C11.0579 6.95588 11.0137 6.97869 10.9809 7.01412L6.81711 11.1765C6.75326 11.2404 6.74647 11.3491 6.80353 11.4455L8.78013 14.8825C8.84075 14.988 8.87185 15.1079 8.87018 15.2295C8.86851 15.3512 8.83412 15.4702 8.77062 15.574C7.689 17.3462 6.89443 19.2782 6.41636 21.2987C6.38842 21.4185 6.32839 21.5284 6.24271 21.6167C6.15704 21.7051 6.04894 21.7684 5.93002 21.7999L2.06511 22.8215C1.97002 22.8487 1.9116 22.9302 1.9116 23.0443V28.9184C1.9116 29.0176 1.97002 29.1032 2.04881 29.1222L5.93273 30.1642C6.05075 30.1961 6.15797 30.2592 6.24309 30.347C6.32821 30.4347 6.38807 30.5438 6.41636 30.6627C6.89514 32.6833 7.68966 34.6157 8.77062 36.3888C8.83417 36.4928 8.86847 36.6121 8.8699 36.7341C8.87134 36.856 8.83985 36.9761 8.77877 37.0816L6.78451 40.5213C6.76278 40.5666 6.75556 40.6176 6.76383 40.6672C6.77209 40.7167 6.79544 40.7626 6.8307 40.7984L10.9809 44.9486C11.0638 45.0328 11.1806 45.0138 11.2594 44.9731L14.6828 42.987C14.7863 42.9267 14.9039 42.8948 15.0238 42.8946Z" fill="#282828"/>
<path d="M40.7295 25.9806C40.7295 29.2002 39.7079 32.1699 37.9799 34.6056C36.6019 36.5573 34.7754 38.1495 32.6541 39.2485C30.5328 40.3475 28.1786 40.9211 25.7895 40.9211C23.4004 40.9211 21.0462 40.3475 18.9249 39.2485C16.8036 38.1495 14.9771 36.5573 13.5991 34.6056C11.807 32.087 10.8462 29.0717 10.8508 25.9806C10.8508 17.7332 17.5428 11.0413 25.7902 11.0413C34.0376 11.0413 40.7295 17.7332 40.7295 25.9806Z" fill="white"/>
<path d="M25.7897 41.5994C20.7361 41.5994 15.9719 39.1324 13.0444 34.9972C11.1698 32.3649 10.1652 29.2124 10.1712 25.9809C10.1712 17.368 17.1769 10.3623 25.7897 10.3623C34.4026 10.3623 41.4083 17.3694 41.4083 25.9809C41.4083 29.2304 40.4152 32.3481 38.5351 34.9985C37.0919 37.0365 35.1818 38.6993 32.9645 39.848C30.7471 40.9966 28.2869 41.5963 25.7897 41.5994ZM25.7897 11.7208C17.9268 11.7208 11.5297 18.1193 11.5297 25.9809C11.5297 28.9478 12.4371 31.7952 14.1515 34.2133C16.8251 37.9886 21.1749 40.2409 25.7897 40.2409C30.4045 40.2409 34.7544 37.9886 37.4252 34.2133C39.1369 31.8099 40.0546 28.9315 40.0498 25.9809C40.0498 18.1179 33.6527 11.7208 25.7897 11.7208Z" fill="#282828"/>
<path d="M35.0665 62.5192C35.0665 63.644 34.6087 64.6588 33.8711 65.4087C33.1045 66.1745 32.0651 66.6046 30.9816 66.6042H22.6445C21.5632 66.6017 20.5272 66.17 19.7641 65.404C19.0009 64.6381 18.573 63.6005 18.5745 62.5192C18.5745 61.393 19.0323 60.3796 19.7699 59.6283C20.1467 59.2495 20.5946 58.9488 21.0879 58.7436C21.5812 58.5385 22.1102 58.4329 22.6445 58.4329H30.9816C32.0646 58.4347 33.1028 58.8658 33.8686 59.6318C34.6343 60.3978 35.0651 61.4361 35.0665 62.5192Z" fill="#86CBE8"/>
<path d="M30.9818 67.2833H22.6474C21.706 67.2819 20.7862 67.0016 20.004 66.4777C19.2219 65.9538 18.6125 65.2099 18.2529 64.34C17.8933 63.47 17.7995 62.5129 17.9835 61.5897C18.1675 60.6665 18.6209 59.8184 19.2865 59.1528C19.7261 58.7086 20.2496 58.3561 20.8266 58.1159C21.4035 57.8757 22.0225 57.7525 22.6474 57.7535H30.9831C32.2466 57.7546 33.458 58.2571 34.3512 59.1506C35.2445 60.0441 35.7466 61.2556 35.7474 62.5191C35.7474 63.7771 35.2542 64.9725 34.359 65.8841C33.9167 66.3293 33.3904 66.6822 32.8107 66.9224C32.231 67.1626 31.6093 67.2853 30.9818 67.2833ZM22.6461 59.1134C21.7427 59.1134 20.8923 59.4666 20.2497 60.1091C19.6136 60.7501 19.2558 61.616 19.2539 62.5191C19.2532 63.4202 19.6099 64.2848 20.2458 64.9233C20.8818 65.5618 21.7449 65.922 22.6461 65.9248H30.9818C31.892 65.9248 32.7492 65.5716 33.3931 64.9277C34.0316 64.2756 34.3875 63.4198 34.3875 62.5191C34.3864 61.6162 34.0273 60.7505 33.3888 60.1121C32.7503 59.4736 31.8847 59.1144 30.9818 59.1134H22.6461ZM21.1884 31.8811C21.0993 31.881 21.011 31.8633 20.9287 31.8291C20.8464 31.7948 20.7717 31.7446 20.7089 31.6814L17.8832 28.8557C17.8159 28.7936 17.7618 28.7186 17.7242 28.6351C17.6866 28.5516 17.6663 28.4614 17.6644 28.3698C17.6626 28.2783 17.6793 28.1873 17.7135 28.1024C17.7478 28.0174 17.7988 27.9403 17.8636 27.8756C17.9284 27.8109 18.0056 27.76 18.0906 27.7259C18.1756 27.6918 18.2666 27.6752 18.3581 27.6772C18.4496 27.6791 18.5399 27.6996 18.6233 27.7373C18.7067 27.775 18.7817 27.8292 18.8437 27.8966L21.1884 30.2414L23.5345 27.8966C23.5972 27.8317 23.6721 27.78 23.755 27.7444C23.8379 27.7088 23.927 27.69 24.0172 27.6893C24.1074 27.6885 24.1968 27.7057 24.2803 27.7398C24.3638 27.774 24.4396 27.8244 24.5034 27.8882C24.5672 27.952 24.6176 28.0278 24.6518 28.1113C24.6859 28.1948 24.7031 28.2842 24.7023 28.3744C24.7015 28.4646 24.6828 28.5537 24.6472 28.6366C24.6116 28.7194 24.5598 28.7944 24.495 28.8571L21.6693 31.6827C21.6062 31.7459 21.5312 31.7959 21.4487 31.83C21.3661 31.864 21.2777 31.8814 21.1884 31.8811Z" fill="#282828"/>
<path d="M21.1883 31.4165C21.0081 31.4165 20.8354 31.345 20.708 31.2176C20.5806 31.0902 20.509 30.9174 20.509 30.7373V20.7605C20.509 20.5804 20.5806 20.4076 20.708 20.2802C20.8354 20.1529 21.0081 20.0813 21.1883 20.0813C21.3684 20.0813 21.5412 20.1529 21.6686 20.2802C21.796 20.4076 21.8675 20.5804 21.8675 20.7605V30.7373C21.8675 30.9174 21.796 31.0902 21.6686 31.2176C21.5412 31.345 21.3684 31.4165 21.1883 31.4165ZM33.215 24.2641C33.1257 24.2644 33.0373 24.247 32.9547 24.213C32.8722 24.179 32.7972 24.1289 32.7341 24.0658L30.3893 21.721L28.0446 24.0658C27.9819 24.1306 27.907 24.1824 27.8241 24.218C27.7412 24.2536 27.6521 24.2723 27.5619 24.2731C27.4717 24.2739 27.3823 24.2567 27.2988 24.2225C27.2153 24.1884 27.1395 24.1379 27.0757 24.0742C27.0119 24.0104 26.9615 23.9346 26.9273 23.8511C26.8932 23.7676 26.876 23.6782 26.8768 23.588C26.8776 23.4978 26.8963 23.4086 26.9319 23.3258C26.9675 23.2429 27.0193 23.168 27.0841 23.1053L29.9098 20.2796C30.0396 20.1575 30.2111 20.0894 30.3893 20.0894C30.5676 20.0894 30.7391 20.1575 30.8689 20.2796L33.6945 23.1053C33.7892 23.2003 33.8537 23.3212 33.8798 23.4527C33.9059 23.5843 33.8924 23.7206 33.8411 23.8446C33.7898 23.9685 33.703 24.0745 33.5916 24.1491C33.4802 24.2238 33.3491 24.2638 33.215 24.2641Z" fill="#282828"/>
<path d="M30.3895 31.8804C30.2093 31.8804 30.0365 31.8088 29.9092 31.6815C29.7818 31.5541 29.7102 31.3813 29.7102 31.2012V21.2244C29.7102 21.0443 29.7818 20.8715 29.9092 20.7441C30.0365 20.6167 30.2093 20.5452 30.3895 20.5452C30.5696 20.5452 30.7424 20.6167 30.8697 20.7441C30.9971 20.8715 31.0687 21.0443 31.0687 21.2244V31.2012C31.0687 31.3813 30.9971 31.5541 30.8697 31.6815C30.7424 31.8088 30.5696 31.8804 30.3895 31.8804Z" fill="#282828"/>
</svg>
