<svg width="382" height="278" viewBox="0 0 382 278" fill="none" xmlns="http://www.w3.org/2000/svg">
<path d="M63.8399 155.3C62.9899 156.01 43.9099 197.15 72.3399 234.41C98.4799 268.66 147.61 280.55 148.79 276C150.23 270.43 126.79 255.17 113.9 225.88C109.33 215.49 113.9 198.96 113.9 198.96L63.8399 155.3Z" fill="#86CBE8"/>
<path opacity="0.1" d="M113.89 198.941C112.642 203.847 111.971 208.881 111.89 213.941C98.3696 207.481 73.1496 195.421 56.8096 187.591C56.9796 169.161 63.3696 155.661 63.8096 155.251L113.89 198.941Z" fill="#282828"/>
<path d="M143.77 87.5304C144.61 86.8104 188.32 74.7104 220.42 108.86C249.94 140.25 253.63 190.66 248.95 191.08C243.22 191.59 232 165.96 205.21 148.46C195.71 142.26 178.65 144.05 178.65 144.05L143.77 87.5304Z" fill="#86CBE8"/>
<path opacity="0.1" d="M177.05 85.9396L194.12 144.6C189.001 143.815 183.808 143.644 178.65 144.09L143.77 87.5696C144.25 87.1196 158.74 82.9396 177.05 85.9396Z" fill="#282828"/>
<path d="M13.7336 72.5267L13.7335 72.5265C7.27526 54.5064 3.11716 37.9603 1.2583 25.3381C0.328816 19.0266 -0.0252735 13.6995 0.194224 9.66127C0.303979 7.64203 0.556988 5.94839 0.951504 4.61644C1.34652 3.28278 1.88039 2.32205 2.54423 1.75633C3.20791 1.19075 4.24082 0.81929 5.61981 0.64682C6.99704 0.474548 8.70871 0.50206 10.7188 0.724777C14.7388 1.17017 19.939 2.39462 26.0175 4.34669C38.1738 8.25053 53.8302 15.0601 70.5607 24.3476C94.7643 37.834 121.235 56.5082 142.687 79.139C164.155 101.817 177.76 127.865 185.997 148.245C190.115 158.435 192.891 167.207 194.638 173.431C195.511 176.543 196.127 179.018 196.525 180.715C196.724 181.564 196.868 182.217 196.962 182.659C197.009 182.88 197.044 183.048 197.067 183.16C197.077 183.207 197.084 183.244 197.09 183.272L149.79 223.376C149.763 223.366 149.728 223.352 149.683 223.335C149.576 223.294 149.416 223.232 149.206 223.149C148.786 222.983 148.164 222.734 147.36 222.398C145.751 221.728 143.41 220.713 140.482 219.341C134.628 216.596 126.428 212.418 117.049 206.685C98.2907 195.219 74.8191 177.537 55.9591 152.67C37.1367 127.81 23.0511 98.6896 13.7336 72.5267Z" fill="#F2F2F2" stroke="#282828" stroke-width="0.2"/>
<path d="M122.47 85.6998C127.056 91.1041 129.937 97.7474 130.747 104.789C131.558 111.831 130.261 118.955 127.021 125.26C123.782 131.565 118.745 136.767 112.548 140.208C106.352 143.65 99.2733 145.176 92.209 144.594C85.1446 144.011 78.4117 141.347 72.862 136.937C67.3124 132.527 63.1954 126.571 61.0319 119.821C58.8685 113.071 58.7558 105.83 60.7081 99.0163C62.6604 92.2021 66.59 86.1201 71.9997 81.5398C79.2475 75.4067 88.6328 72.4001 98.0952 73.18C107.558 73.96 116.324 78.4627 122.47 85.6998Z" fill="#717170"/>
<path d="M119.14 83.74C123.722 89.1454 126.599 95.7883 127.406 102.829C128.214 109.869 126.915 116.991 123.675 123.293C120.434 129.595 115.398 134.795 109.203 138.235C103.007 141.675 95.9305 143.201 88.8679 142.619C81.8053 142.037 75.0739 139.374 69.5248 134.967C63.9756 130.559 59.8581 124.605 57.6929 117.858C55.5277 111.11 55.412 103.872 57.3605 97.0586C59.309 90.2452 63.2341 84.1626 68.6395 79.58C75.889 73.4375 85.281 70.4252 94.7507 71.2053C104.22 71.9854 112.993 76.494 119.14 83.74Z" fill="#86CBE8"/>
<path d="M110.75 90.8309C113.935 94.5765 115.937 99.1826 116.503 104.066C117.069 108.95 116.173 113.892 113.93 118.267C111.686 122.642 108.195 126.253 103.899 128.643C99.6028 131.033 94.6941 132.095 89.7939 131.695C84.8938 131.294 80.2226 129.449 76.3713 126.393C72.52 123.337 69.6618 119.208 68.1583 114.527C66.6548 109.846 66.5736 104.824 67.9249 100.097C69.2763 95.3698 71.9995 91.1498 75.7499 87.9709C80.7725 83.7136 87.2794 81.6236 93.8416 82.1599C100.404 82.6961 106.485 85.8147 110.75 90.8309Z" fill="white"/>
<path d="M110.75 90.8205C112.747 93.1654 114.29 95.8612 115.3 98.7704L113.67 118.77C112.203 121.477 110.243 123.885 107.89 125.87C106.182 127.328 104.281 128.543 102.24 129.48L105.75 86.3805C107.612 87.6249 109.294 89.1188 110.75 90.8205Z" fill="#F2F2F2"/>
<path d="M78.6794 85.8196L75.4394 125.6C74.5186 124.799 73.6595 123.93 72.8694 123C68.6096 117.978 66.518 111.471 67.0543 104.908C67.5906 98.3445 70.7109 92.2629 75.7294 87.9996C76.6559 87.1991 77.6421 86.4703 78.6794 85.8196Z" fill="#F2F2F2"/>
<path d="M100.6 83.6613L96.71 131.261C95.9804 131.419 95.2426 131.536 94.5 131.611L98.5 82.9713C99.18 83.1613 99.89 83.4013 100.6 83.6613Z" fill="#F2F2F2"/>
<path d="M70.6102 24.2606L13.6102 72.5605C0.720172 36.5105 -2.99983 6.35054 2.48017 1.68054C7.96017 -2.98946 37.1402 5.64055 70.6102 24.2606Z" fill="#86CBE8"/>
<path d="M18.4498 58.3607C18.7182 58.6756 18.8871 59.063 18.9351 59.4739C18.9832 59.8848 18.9082 60.3008 18.7197 60.669C18.5311 61.0373 18.2376 61.3413 17.8761 61.5426C17.5146 61.7439 17.1016 61.8334 16.6892 61.7997C16.2769 61.766 15.8838 61.6108 15.5598 61.3535C15.2358 61.0963 14.9954 60.7487 14.8691 60.3547C14.7428 59.9607 14.7362 59.5381 14.8503 59.1404C14.9643 58.7428 15.1939 58.3879 15.5098 58.1207C15.9319 57.7637 16.4783 57.5886 17.0293 57.6336C17.5804 57.6786 18.0911 57.94 18.4498 58.3607Z" fill="white"/>
<path d="M28.59 49.7699C28.7735 49.9785 28.9135 50.2216 29.002 50.485C29.0904 50.7483 29.1254 51.0267 29.105 51.3037C29.0846 51.5808 29.0092 51.851 28.8831 52.0985C28.7571 52.3461 28.583 52.566 28.3709 52.7455C28.1589 52.925 27.9132 53.0604 27.6482 53.1438C27.3832 53.2272 27.1042 53.257 26.8276 53.2313C26.551 53.2056 26.2823 53.1251 26.0372 52.9944C25.792 52.8636 25.5754 52.6854 25.4 52.4699C25.0544 52.0455 24.889 51.5023 24.9396 50.9572C24.9902 50.4121 25.2526 49.9086 25.6704 49.5549C26.0883 49.2013 26.6282 49.0257 27.1742 49.0659C27.7201 49.1061 28.2285 49.3589 28.59 49.7699Z" fill="white"/>
<path d="M38.7202 41.1799C38.9792 41.4978 39.1389 41.8848 39.1795 42.2929C39.2201 42.7009 39.1398 43.1118 38.9486 43.4746C38.7573 43.8373 38.4636 44.1357 38.104 44.3327C37.7444 44.5298 37.3348 44.6167 36.9262 44.5826C36.5176 44.5486 36.128 44.3951 35.806 44.1412C35.4839 43.8874 35.2437 43.5445 35.1151 43.1551C34.9866 42.7657 34.9754 42.3472 35.083 41.9515C35.1906 41.5558 35.4122 41.2005 35.7202 40.9299C35.9307 40.743 36.1769 40.6009 36.4439 40.5119C36.7109 40.423 36.9932 40.3893 37.2737 40.4126C37.5542 40.436 37.827 40.5161 38.0756 40.6479C38.3242 40.7798 38.5435 40.9608 38.7202 41.1799Z" fill="white"/>
<path d="M48.86 32.5803C49.1201 32.8973 49.2812 33.2839 49.3233 33.6918C49.3653 34.0997 49.2864 34.511 49.0964 34.8744C48.9064 35.2378 48.6137 35.5373 48.2548 35.7356C47.8958 35.9339 47.4864 36.0221 47.0776 35.9894C46.6688 35.9567 46.2787 35.8045 45.9558 35.5517C45.6329 35.2989 45.3916 34.9567 45.2618 34.5677C45.132 34.1787 45.1195 33.76 45.2258 33.364C45.3322 32.9679 45.5527 32.6119 45.86 32.3403C46.0704 32.1542 46.3163 32.0125 46.5827 31.9235C46.8492 31.8346 47.1309 31.8003 47.411 31.8227C47.691 31.8452 47.9637 31.9238 48.2126 32.054C48.4616 32.1841 48.6817 32.3631 48.86 32.5803Z" fill="white"/>
<path d="M59.0001 23.9399C59.2671 24.2551 59.4348 24.6424 59.4818 25.0528C59.5289 25.4632 59.4532 25.8784 59.2645 26.2459C59.0757 26.6134 58.7823 26.9166 58.4212 27.1174C58.0602 27.3182 57.6477 27.4075 57.236 27.374C56.8242 27.3405 56.4316 27.1857 56.1078 26.9292C55.7839 26.6727 55.5434 26.326 55.4165 25.9328C55.2896 25.5397 55.282 25.1177 55.3948 24.7203C55.5076 24.3229 55.7356 23.9678 56.0501 23.6999C56.2594 23.5216 56.5018 23.3863 56.7635 23.3019C57.0251 23.2174 57.3009 23.1855 57.5749 23.2077C57.8489 23.23 58.1159 23.3062 58.3604 23.4318C58.605 23.5575 58.8224 23.7301 59.0001 23.9399Z" fill="white"/>
<path d="M148.7 211.94C149.046 212.364 149.211 212.908 149.16 213.453C149.11 213.998 148.847 214.501 148.43 214.855C148.012 215.209 147.472 215.384 146.926 215.344C146.38 215.304 145.871 215.051 145.51 214.64C145.326 214.431 145.186 214.188 145.098 213.925C145.01 213.662 144.975 213.383 144.995 213.106C145.015 212.829 145.091 212.559 145.217 212.311C145.343 212.064 145.517 211.844 145.729 211.664C145.941 211.485 146.187 211.349 146.452 211.266C146.717 211.183 146.996 211.153 147.272 211.179C147.549 211.204 147.818 211.285 148.063 211.415C148.308 211.546 148.524 211.724 148.7 211.94Z" fill="#717170"/>
<path d="M158.839 203.301C159.1 203.618 159.261 204.005 159.303 204.412C159.345 204.82 159.266 205.232 159.076 205.595C158.886 205.959 158.593 206.258 158.234 206.456C157.875 206.655 157.466 206.743 157.057 206.71C156.648 206.677 156.258 206.525 155.935 206.272C155.612 206.02 155.371 205.677 155.241 205.288C155.111 204.899 155.099 204.481 155.205 204.085C155.312 203.689 155.532 203.333 155.839 203.061C156.05 202.875 156.296 202.733 156.562 202.644C156.829 202.555 157.11 202.521 157.39 202.543C157.67 202.566 157.943 202.644 158.192 202.775C158.441 202.905 158.661 203.084 158.839 203.301Z" fill="#717170"/>
<path d="M169 194.711C169.267 195.027 169.435 195.414 169.482 195.824C169.529 196.235 169.453 196.65 169.264 197.017C169.076 197.385 168.782 197.688 168.421 197.889C168.06 198.09 167.648 198.179 167.236 198.145C166.824 198.112 166.432 197.957 166.108 197.701C165.784 197.444 165.543 197.097 165.416 196.704C165.29 196.311 165.282 195.889 165.395 195.492C165.508 195.094 165.736 194.739 166.05 194.471C166.259 194.293 166.502 194.158 166.763 194.073C167.025 193.989 167.301 193.957 167.575 193.979C167.849 194.002 168.116 194.078 168.36 194.203C168.605 194.329 168.822 194.502 169 194.711Z" fill="#717170"/>
<path d="M179.11 186.121C179.37 186.438 179.531 186.825 179.573 187.233C179.615 187.641 179.536 188.052 179.346 188.415C179.156 188.779 178.864 189.078 178.505 189.277C178.146 189.475 177.736 189.563 177.328 189.53C176.919 189.498 176.529 189.346 176.206 189.093C175.883 188.84 175.642 188.498 175.512 188.109C175.382 187.72 175.369 187.301 175.476 186.905C175.582 186.509 175.803 186.153 176.11 185.881C176.32 185.695 176.566 185.553 176.833 185.465C177.099 185.376 177.381 185.341 177.661 185.364C177.941 185.386 178.214 185.465 178.463 185.595C178.712 185.725 178.932 185.904 179.11 186.121Z" fill="#717170"/>
<path d="M189.24 177.531C189.499 177.849 189.658 178.236 189.699 178.644C189.74 179.052 189.659 179.463 189.468 179.826C189.277 180.189 188.983 180.487 188.624 180.684C188.264 180.881 187.854 180.968 187.446 180.934C187.037 180.9 186.648 180.747 186.326 180.493C186.003 180.239 185.763 179.896 185.635 179.507C185.506 179.117 185.495 178.699 185.603 178.303C185.71 177.907 185.932 177.552 186.24 177.281C186.45 177.095 186.696 176.952 186.963 176.864C187.23 176.775 187.513 176.741 187.793 176.764C188.074 176.788 188.347 176.868 188.595 176.999C188.844 177.131 189.063 177.312 189.24 177.531Z" fill="#717170"/>
<path opacity="0.2" d="M1.0698 3.94023C3.0698 31.7602 19.9098 79.9402 59.6698 130.63C89.0398 168.09 140.44 195.42 167.89 208.16L149.81 223.49C149.81 223.49 93.6198 202.49 55.8798 152.73C37.0498 127.86 22.9598 98.7302 13.6398 72.5602C2.0498 40.2502 -2.1502 12.6802 1.0698 3.94023Z" fill="#717170"/>
<path d="M204.92 201.26L166.38 233.93L152.49 221.22L194.65 185.48L204.92 201.26Z" fill="#86CBE8"/>
<path opacity="0.1" d="M194.65 185.48L199.65 193.17L157.8 226.08L152.5 221.22L194.65 185.48Z" fill="#282828"/>
<path d="M75.7596 24.7701L74.7596 39.7002L88.9796 46.7202L73.1396 46.0802L66.8596 59.6602L67.0097 44.5802L53.6396 37.7202L68.6597 38.0802L75.7596 24.7701Z" fill="white"/>
<path d="M20.61 28.4414L20.06 36.7914L28.01 40.7114L19.15 40.3514L15.64 47.9414L15.72 39.5114L8.25 35.6814L16.65 35.8814L20.61 28.4414Z" fill="white"/>
<path d="M190.13 95.9609L189.57 104.301L197.52 108.221L188.67 107.871L185.16 115.461L185.24 107.031L177.77 103.191L186.17 103.401L190.13 95.9609Z" fill="white"/>
<path d="M116.38 244.48L115.82 252.83L123.77 256.75L114.92 256.39L111.41 263.98L111.49 255.55L104.02 251.72L112.41 251.92L116.38 244.48Z" fill="white"/>
<path opacity="0.6" d="M196.32 208.441C206.53 223.591 219.56 236.961 235.13 246.721C250.778 256.735 268.815 262.393 287.38 263.111C296.79 263.351 306.185 262.202 315.26 259.701C324.503 257.127 333.328 253.234 341.46 248.141C349.737 242.925 357.312 236.671 364 229.531C370.798 222.263 376.83 214.314 382 205.811C377.808 214.983 372.677 223.696 366.69 231.811C360.603 240.023 353.485 247.417 345.51 253.811C329.006 267.064 308.952 275.143 287.87 277.031C266.56 278.911 244.69 274.411 225.18 265.091C205.67 255.771 188.34 241.841 174.18 225.381L196.32 208.441Z" fill="#86CBE8"/>
<path d="M219.55 234.35L220.65 240.31L226.93 241.64L220.65 242.97L219.54 248.93L218.09 242.99L212.16 241.64L218.09 240.28L219.55 234.35Z" fill="white"/>
<path d="M337.18 256.28L337.8 259.61L341.31 260.35L337.8 261.1L337.18 264.43L336.37 261.11L333.06 260.35L336.37 259.59L337.18 256.28Z" fill="white"/>
<path d="M306.71 258.071L307.32 261.401L310.84 262.141L307.32 262.881L306.71 266.221L305.9 262.901L302.58 262.141L305.9 261.381L306.71 258.071Z" fill="white"/>
<path d="M199.96 238.75L200.58 242.08L204.09 242.83L200.58 243.57L199.96 246.9L199.15 243.58L195.84 242.83L199.15 242.07L199.96 238.75Z" fill="white"/>
<path d="M344.78 248.401C344.838 248.613 344.964 248.8 345.138 248.933C345.312 249.066 345.526 249.139 345.745 249.139C345.965 249.139 346.178 249.066 346.353 248.933C346.527 248.8 346.653 248.613 346.71 248.401C346.653 248.189 346.527 248.002 346.353 247.869C346.178 247.735 345.965 247.663 345.745 247.663C345.526 247.663 345.312 247.735 345.138 247.869C344.964 248.002 344.838 248.189 344.78 248.401Z" fill="white"/>
<path d="M195.26 220.84C195.317 221.052 195.443 221.239 195.617 221.373C195.792 221.506 196.005 221.578 196.225 221.578C196.444 221.578 196.658 221.506 196.832 221.373C197.007 221.239 197.132 221.052 197.19 220.84C197.132 220.629 197.007 220.442 196.832 220.308C196.658 220.175 196.444 220.103 196.225 220.103C196.005 220.103 195.792 220.175 195.617 220.308C195.443 220.442 195.317 220.629 195.26 220.84Z" fill="white"/>
<path d="M281.37 272.821C281.428 273.033 281.553 273.22 281.728 273.353C281.902 273.486 282.116 273.559 282.335 273.559C282.555 273.559 282.768 273.486 282.942 273.353C283.117 273.22 283.243 273.033 283.3 272.821C283.243 272.609 283.117 272.422 282.942 272.289C282.768 272.155 282.555 272.083 282.335 272.083C282.116 272.083 281.902 272.155 281.728 272.289C281.553 272.422 281.428 272.609 281.37 272.821Z" fill="white"/>
<path d="M339.75 250.121C339.77 250.289 339.851 250.443 339.977 250.555C340.104 250.667 340.266 250.729 340.435 250.729C340.604 250.729 340.766 250.667 340.893 250.555C341.019 250.443 341.1 250.289 341.12 250.121C341.1 249.954 341.019 249.8 340.893 249.688C340.766 249.576 340.604 249.514 340.435 249.514C340.266 249.514 340.104 249.576 339.977 249.688C339.851 249.8 339.77 249.954 339.75 250.121Z" fill="white"/>
<path d="M247.63 273.17C247.63 273.35 247.702 273.523 247.829 273.65C247.957 273.778 248.13 273.85 248.31 273.85C248.49 273.85 248.663 273.778 248.791 273.65C248.918 273.523 248.99 273.35 248.99 273.17C248.99 272.989 248.918 272.816 248.791 272.689C248.663 272.561 248.49 272.49 248.31 272.49C248.13 272.49 247.957 272.561 247.829 272.689C247.702 272.816 247.63 272.989 247.63 273.17Z" fill="white"/>
<path d="M317.49 266.22C317.525 266.688 317.735 267.126 318.079 267.446C318.423 267.766 318.876 267.943 319.345 267.943C319.815 267.943 320.267 267.766 320.611 267.446C320.955 267.126 321.166 266.688 321.2 266.22C321.166 265.751 320.955 265.313 320.611 264.993C320.267 264.674 319.815 264.496 319.345 264.496C318.876 264.496 318.423 264.674 318.079 264.993C317.735 265.313 317.525 265.751 317.49 266.22Z" fill="white"/>
<path d="M241.35 264.431C241.35 264.922 241.545 265.392 241.891 265.739C242.238 266.086 242.709 266.281 243.2 266.281C243.69 266.281 244.161 266.086 244.508 265.739C244.855 265.392 245.05 264.922 245.05 264.431C245.05 263.941 244.855 263.47 244.508 263.123C244.161 262.776 243.69 262.581 243.2 262.581C242.709 262.581 242.238 262.776 241.891 263.123C241.545 263.47 241.35 263.941 241.35 264.431Z" fill="white"/>
</svg>
