<svg width="72" height="72" viewBox="0 0 72 72" fill="none" xmlns="http://www.w3.org/2000/svg">
<path d="M55.0925 39.4451C51.2615 43.9688 48.6396 49.362 46.9959 55.0677V60.9092C46.9959 62.8926 45.5694 64.55 43.6811 64.8896C43.3805 66.0368 42.7081 67.0521 41.7692 67.7767C40.8303 68.5013 39.6777 68.8943 38.4917 68.8943C37.3057 68.8943 36.1531 68.5013 35.2142 67.7767C34.2753 67.0521 33.6029 66.0368 33.3023 64.8896C32.3721 64.7171 31.5316 64.2248 30.9263 63.4979C30.3209 62.7709 29.9888 61.8552 29.9876 60.9092V55.0677H30.0011C28.2623 49.1447 25.2193 43.6971 21.3747 38.8066C18.4811 35.1251 16.7559 30.4654 16.7559 25.4118C16.7559 12.5741 27.8955 2.34468 41.0321 3.82544C50.9355 4.95299 58.9506 12.9545 60.0781 22.8443C60.7981 29.1885 58.8011 35.0571 55.0925 39.4451Z" fill="#282828"/>
<path d="M38.4922 69.5766C37.2274 69.574 35.9951 69.1757 34.968 68.4375C33.941 67.6994 33.1706 66.6584 32.7648 65.4604C31.7717 65.1819 30.8966 64.5866 30.2728 63.7651C29.649 62.9436 29.3105 61.9409 29.3088 60.9094V55.1209C27.6827 49.653 24.8326 44.3073 20.84 39.2266C17.7554 35.2817 16.0788 30.4184 16.0771 25.4107C16.0771 19.0421 18.8036 12.952 23.5584 8.70399C28.3851 4.38943 34.6178 2.41554 41.1073 3.15048C51.3286 4.31471 59.5896 12.5648 60.7525 22.7671C61.4657 29.0406 59.6385 35.1171 55.6106 39.8841C52.0758 44.0587 49.405 49.2006 47.6743 55.1644V60.9094C47.6762 61.9425 47.3388 62.9477 46.7139 63.7704C46.0891 64.5931 45.2113 65.1878 44.2156 65.4631C43.81 66.6601 43.0401 67.7003 42.0138 68.4379C40.9875 69.1756 39.7561 69.5737 38.4922 69.5766ZM30.6673 55.2024V60.9081C30.6673 62.5288 31.8275 63.9226 33.4264 64.2228C33.5527 64.2462 33.6698 64.305 33.7641 64.3923C33.8583 64.4796 33.9259 64.5918 33.959 64.7159C34.2232 65.7175 34.8109 66.6038 35.6307 67.2371C36.4504 67.8704 37.4564 68.2153 38.4922 68.2181C39.5281 68.2157 40.534 67.8709 41.3537 67.2375C42.1733 66.6042 42.7606 65.7176 43.0242 64.7159C43.0571 64.591 43.125 64.478 43.2197 64.3902C43.3145 64.3024 43.4323 64.2434 43.5594 64.2201C44.3346 64.0797 45.0357 63.6711 45.5399 63.0659C46.0441 62.4606 46.3192 61.6972 46.3172 60.9094V55.0679C46.3172 55.0041 46.3253 54.9402 46.343 54.8791C48.1253 48.6912 50.8939 43.3496 54.5727 39.0065C58.3575 34.5303 60.0719 28.8178 59.4021 22.922C58.3099 13.3405 50.5529 5.59305 40.9552 4.49946C34.8542 3.81343 28.9978 5.66641 24.4631 9.71607C22.2543 11.6911 20.4868 14.1097 19.2759 16.8141C18.065 19.5184 17.4379 22.4477 17.4356 25.4107C17.4356 30.1763 18.9816 34.662 21.9091 38.387C26.043 43.6444 28.9842 49.1924 30.6524 54.875C30.685 54.981 30.6877 55.0924 30.666 55.2011L30.6673 55.2024Z" fill="#282828"/>
<path d="M29.1201 64.3789C29.5358 66.9369 31.7393 68.8945 34.4155 68.8945C37.0917 68.8945 39.2952 66.9369 39.7136 64.3789H29.1201Z" fill="#282828"/>
<path d="M34.4155 69.576C32.9779 69.5786 31.5865 69.0676 30.4924 68.135C29.3982 67.2025 28.673 65.9098 28.4477 64.4899C28.4315 64.3926 28.4367 64.293 28.4629 64.1979C28.4891 64.1029 28.5357 64.0147 28.5994 63.9394C28.6632 63.8642 28.7425 63.8037 28.832 63.7623C28.9214 63.7208 29.0188 63.6993 29.1174 63.6992H39.7109C39.8092 63.6993 39.9064 63.7208 39.9956 63.7621C40.0848 63.8034 40.164 63.8636 40.2277 63.9386C40.2914 64.0135 40.338 64.1013 40.3645 64.196C40.3909 64.2908 40.3964 64.3901 40.3807 64.4871C40.1567 65.9074 39.4325 67.2009 38.3386 68.1341C37.2448 69.0673 35.8534 69.5787 34.4155 69.576ZM29.9868 65.0577C30.3024 65.981 30.8993 66.7823 31.6936 67.349C32.4879 67.9158 33.4398 68.2195 34.4155 68.2176C35.3913 68.2197 36.3433 67.916 37.1376 67.3493C37.932 66.7825 38.5288 65.9811 38.8442 65.0577H29.9868Z" fill="#282828"/>
<path d="M25.9219 55.0647H42.922C44.559 49.3645 47.1809 43.9659 51.0159 39.4394C54.7246 35.061 56.7297 29.1882 56.007 22.8495C54.8795 12.9515 46.8549 4.95275 36.9569 3.83063C23.8203 2.34309 12.6807 12.5684 12.6807 25.4062C12.6807 30.4652 14.4087 35.1207 17.305 38.8104C21.1413 43.6942 24.183 49.1417 25.9219 55.0647Z" fill="#86CBE8"/>
<path d="M42.9208 55.7441H25.9206C25.7736 55.7441 25.6306 55.6964 25.5131 55.6083C25.3955 55.5201 25.3097 55.3961 25.2685 55.2551C23.6519 49.7464 20.7923 44.3545 16.7698 39.2303C13.6622 35.2943 11.9808 30.4211 12.0002 25.4063C12.0002 19.0363 14.7267 12.9489 19.48 8.7023C24.3094 4.39045 30.5504 2.42064 37.0317 3.15558C47.2544 4.31437 55.5181 12.5645 56.6809 22.7722C57.3968 29.043 55.567 35.1168 51.5322 39.8783C47.9757 44.076 45.2981 49.2492 43.5742 55.2523C43.5335 55.3939 43.448 55.5185 43.3303 55.6072C43.2127 55.6959 43.0694 55.7439 42.9221 55.7441H42.9208ZM26.426 54.3856H42.4113C44.1937 48.4042 46.912 43.2297 50.4944 39.0007C54.2873 34.5286 56.003 28.8202 55.3306 22.9271C54.2384 13.3402 46.4787 5.59271 36.8782 4.50592C30.7867 3.80901 24.9208 5.66471 20.3861 9.71573C18.1772 11.6898 16.4095 14.1076 15.1985 16.8113C13.9876 19.515 13.3607 22.4438 13.3587 25.4063C13.3587 30.1705 14.9073 34.659 17.839 38.3921C21.8506 43.5014 24.7374 48.8797 26.4246 54.3856H26.426Z" fill="#282828"/>
<path d="M27.8319 11.1869C27.6763 11.1867 27.5255 11.133 27.4047 11.0349C27.284 10.9368 27.2006 10.8002 27.1684 10.648C27.1363 10.4957 27.1574 10.3371 27.2282 10.1986C27.299 10.06 27.4152 9.94999 27.5574 9.88687C29.7172 8.92951 32.0541 8.43704 34.4165 8.44144C34.5966 8.44144 34.7694 8.513 34.8968 8.64038C35.0241 8.76777 35.0957 8.94053 35.0957 9.12068C35.0957 9.30083 35.0241 9.4736 34.8968 9.60098C34.7694 9.72836 34.5966 9.79993 34.4165 9.79993C32.2225 9.79993 30.1005 10.2469 28.1063 11.1285C28.0199 11.1671 27.9264 11.187 27.8319 11.1869ZM18.1119 26.0855C17.9317 26.0855 17.7589 26.0139 17.6316 25.8866C17.5042 25.7592 17.4326 25.5864 17.4326 25.4063C17.4326 20.0402 20.026 14.9309 24.3664 11.7399C24.5114 11.6332 24.6928 11.5885 24.8708 11.6157C25.0487 11.6428 25.2086 11.7395 25.3153 11.8845C25.4219 12.0295 25.4666 12.211 25.4394 12.3889C25.4123 12.5669 25.3156 12.7268 25.1706 12.8334C23.1995 14.2856 21.5958 16.1791 20.488 18.3624C19.3802 20.5457 18.7991 22.958 18.7911 25.4063C18.7911 25.5864 18.7195 25.7592 18.5922 25.8866C18.4648 26.0139 18.292 26.0855 18.1119 26.0855Z" fill="#282828"/>
<path d="M42.9168 55.0654V60.9097C42.9175 61.4422 42.8131 61.9697 42.6096 62.4618C42.4062 62.9539 42.1076 63.4011 41.731 63.7777C41.3545 64.1542 40.9073 64.4528 40.4152 64.6563C39.923 64.8597 39.3956 64.9641 38.863 64.9634H29.9717C28.8969 64.9623 27.8665 64.5349 27.1065 63.7749C26.3465 63.0149 25.919 61.9844 25.918 60.9097V55.0654H42.9168Z" fill="white"/>
<path d="M38.8622 65.6422H29.9722C28.7175 65.6404 27.5147 65.1412 26.6275 64.254C25.7403 63.3667 25.2411 62.1639 25.2393 60.9092V55.065C25.2393 54.8848 25.3108 54.7121 25.4382 54.5847C25.5656 54.4573 25.7384 54.3857 25.9185 54.3857H42.9173C43.0974 54.3857 43.2702 54.4573 43.3976 54.5847C43.525 54.7121 43.5965 54.8848 43.5965 55.065V60.9092C43.5947 62.1639 43.0955 63.3667 42.2083 64.254C41.3211 65.1412 40.1169 65.6404 38.8622 65.6422ZM26.595 55.7442V60.9092C26.5961 61.8041 26.9522 62.662 27.5851 63.2946C28.218 63.9273 29.076 64.283 29.9709 64.2837H38.8622C39.7568 64.2826 40.6145 63.9268 41.2471 63.2942C41.8797 62.6615 42.2356 61.8039 42.2367 60.9092V55.7442H26.595Z" fill="#282828"/>
<path d="M42.915 58.9561H25.9162C25.736 58.9561 25.5633 58.8846 25.4359 58.7572C25.3085 58.6298 25.2369 58.457 25.2369 58.2769C25.2369 58.0967 25.3085 57.924 25.4359 57.7966C25.5633 57.6692 25.736 57.5976 25.9162 57.5976H42.915C43.0951 57.5976 43.2679 57.6692 43.3953 57.7966C43.5226 57.924 43.5942 58.0967 43.5942 58.2769C43.5942 58.457 43.5226 58.6298 43.3953 58.7572C43.2679 58.8846 43.0951 58.9561 42.915 58.9561ZM42.8104 62.0983H26.0466C25.8664 62.0983 25.6937 62.0267 25.5663 61.8994C25.4389 61.772 25.3673 61.5992 25.3673 61.4191C25.3673 61.2389 25.4389 61.0661 25.5663 60.9388C25.6937 60.8114 25.8664 60.7398 26.0466 60.7398H42.8104C42.9905 60.7398 43.1633 60.8114 43.2907 60.9388C43.418 61.0661 43.4896 61.2389 43.4896 61.4191C43.4896 61.5992 43.418 61.772 43.2907 61.8994C43.1633 62.0267 42.9905 62.0983 42.8104 62.0983ZM38.6588 55.5789H37.3003V53.1472C37.3003 49.0269 38.5773 45.0832 40.9954 41.744C43.236 38.6624 44.4396 34.9485 44.4324 31.1383V31.0025L42.5685 33.8417C42.1148 34.5345 40.9764 34.5345 40.5227 33.8417L37.9796 29.9659L35.4365 33.8417C34.9827 34.5345 33.8443 34.5345 33.3906 33.8417L30.8475 29.9659L28.3044 33.8417C27.8507 34.5345 26.7122 34.5345 26.2585 33.8417L24.3947 31.0025V31.1383C24.3947 34.9706 25.5833 38.6385 27.8316 41.744C30.2406 45.0575 31.5346 49.0506 31.5267 53.1472V55.5789H30.1682V53.1445C30.1682 49.3122 28.9796 45.6429 26.7313 42.5374C24.3225 39.2243 23.0286 35.2317 23.0362 31.1356V30.546C23.0362 30.0013 23.3867 29.5285 23.9097 29.3736C24.162 29.2974 24.4322 29.3052 24.6796 29.3958C24.9271 29.4865 25.1384 29.6551 25.2818 29.8763L27.2814 32.9206L29.8245 29.0462C30.2783 28.3534 31.4167 28.3534 31.8704 29.0462L34.4135 32.922L36.9566 29.0476C37.4104 28.3548 38.5488 28.3548 39.0025 29.0476L41.5456 32.922L43.5439 29.8763C43.6885 29.6562 43.9002 29.4886 44.1476 29.3985C44.395 29.3083 44.6649 29.3002 44.9172 29.3756C45.1695 29.4509 45.3907 29.6057 45.5481 29.8167C45.7055 30.0278 45.7907 30.2841 45.7909 30.5474V31.137C45.7909 35.2573 44.5139 39.1996 42.0958 42.5388C39.8549 45.6208 38.6513 49.3352 38.6588 53.1459V55.5789Z" fill="#282828"/>
</svg>
