<svg width="200" height="58" viewBox="0 0 200 58" fill="none" xmlns="http://www.w3.org/2000/svg">
<path fill-rule="evenodd" clip-rule="evenodd" d="M53.3373 18.7114C55.9149 20.258 56.4708 22.3508 55.0059 24.9895C53.541 27.6281 53.541 30.2671 55.0059 32.9054C56.4705 35.5443 55.9146 37.6368 53.3373 39.1834C50.76 40.7304 49.4515 43.0154 49.4118 46.039C49.3721 49.0626 47.8525 50.5948 44.8537 50.6348C41.8542 50.6749 39.588 51.9943 38.0537 54.5929C36.5198 57.1918 34.4444 57.7525 31.827 56.2752C29.2097 54.7979 26.593 54.7979 23.9753 56.2752C21.358 57.7525 19.2829 57.1918 17.7486 54.5929C16.2147 51.9943 13.9482 50.6749 10.949 50.6348C7.95019 50.5948 6.43061 49.0626 6.39093 46.039C6.35125 43.0154 5.04241 40.7304 2.46542 39.1834C-0.112236 37.6372 -0.668783 35.5443 0.796447 32.9054C2.26201 30.2671 2.26201 27.6281 0.796447 24.9895C-0.668449 22.3505 -0.111902 20.258 2.46542 18.7114C5.04208 17.1648 6.35125 14.8795 6.39093 11.8559C6.43061 8.83192 7.95019 7.30009 10.949 7.26004C13.9485 7.22 16.2147 5.90018 17.7486 3.30159C19.2829 0.702998 21.358 0.14236 23.9753 1.61934C26.593 3.09665 29.2097 3.09665 31.827 1.61934C34.4444 0.14236 36.5198 0.702998 38.0537 3.30159C39.588 5.90018 41.8545 7.22 44.8537 7.26004C47.8525 7.29975 49.3721 8.83192 49.4118 11.8559C49.4515 14.8798 50.76 17.1648 53.3373 18.7114ZM36.7084 37.9473C42.333 37.9473 46.8926 33.3996 46.8936 27.7902C46.8936 22.1805 42.3337 17.6332 36.709 17.6332C33.2451 17.6332 30.1857 19.3581 28.3457 21.9932L28.2902 21.9373C26.4462 19.3337 23.406 17.6332 19.9669 17.6332C14.3423 17.6332 9.7824 22.1805 9.7824 27.7902C9.7824 27.8643 9.78371 27.938 9.78534 28.0121H9.7824V37.4733H13.1308V35.3184C13.1325 35.3201 13.1341 35.3217 13.136 35.3233V28.0608H13.1435C13.1354 27.9252 13.1308 27.7886 13.1308 27.651C13.1308 23.9624 16.1289 20.9724 19.8273 20.9724C23.5258 20.9724 26.5238 23.9624 26.5238 27.651C26.5238 27.7886 26.519 27.9252 26.5111 28.0608H26.5144V35.5689L26.5238 35.5613V37.9473H30.0373V29.5119L30.038 29.2472V25.9734C30.7817 23.0927 33.4487 20.9724 36.5688 20.9724C40.2675 20.9724 43.2656 23.9624 43.2656 27.651C43.2656 31.3395 40.2675 34.3295 36.5688 34.3295C36.5485 34.3295 36.528 34.3292 36.5078 34.3289V34.3308H34.044V37.9229H36.0168C36.2452 37.9387 36.4755 37.9473 36.7084 37.9473Z" fill="#2A527A"/>
<path fill-rule="evenodd" clip-rule="evenodd" d="M115.535 17.8964H102.084V39.9674H115.535V35.1748H107.464V30.8237H115.191V26.0942H107.464V22.6259H115.535V17.8964ZM128.723 17.8018H121.246V39.9674H128.754C136.23 39.9674 139.921 34.4181 139.921 28.8688C139.921 23.288 136.199 17.7387 128.723 17.8018ZM128.723 35.1433H126.783V22.5943H128.754C132.476 22.6889 134.353 25.905 134.353 28.9634C134.353 31.9588 132.508 35.1433 128.723 35.1433ZM157.386 17.8964H143.935V39.9674H157.386V35.1748H149.316V30.8237H157.042V26.0942H149.316V22.6259H157.386V17.8964ZM161.561 35.5847C163.594 39.2738 166.879 40.3143 169.288 40.3143C172.947 40.3143 176.889 38.3279 177.108 33.8191C177.296 28.6797 173.604 27.0086 170.163 26.0942C169.131 25.8104 167.567 25.4005 167.63 24.1078C167.692 22.9096 168.631 22.4367 169.788 22.4367C171.039 22.4367 171.978 22.9412 172.854 24.0763L176.482 21.7746C174.824 18.8423 172.197 17.5811 169.569 17.5811C166.034 17.5811 162.249 19.4413 162.155 24.1078C162.093 28.7742 166.504 30.3192 168.818 30.9183H168.787C170.07 31.2651 171.665 31.9272 171.571 33.5353C171.509 34.5758 170.633 35.3956 169.381 35.364C168.412 35.364 166.754 35.2064 165.158 32.9362L161.561 35.5847ZM181.501 39.9674V17.8964H187.038V26.1376L193.658 17.8964H199.676L191.48 27.986L199.895 39.9674H193.482L187.664 31.7381L187.038 32.4002V39.9674H181.501ZM77.4675 39.9597H71.8024V17.8974H77.4972L83.9973 27.9571L90.6336 17.8974H96.2756V39.9674H90.6105V27.2363L84.3654 35.8912H83.683L77.4675 27.2705V39.9597Z" fill="#2A527A"/>
</svg>
