<svg width="174" height="174" viewBox="0 0 174 174" fill="none" xmlns="http://www.w3.org/2000/svg">
<path d="M158.874 88.8444L171.429 89.9128L170.531 100.477L157.976 99.4083L158.087 98.099L169.853 99.1003L169.465 99.4106L170.199 90.7837L170.528 91.155L158.763 90.1536L158.874 88.8444Z" fill="#282828"/>
<path d="M155.944 105.558C156.183 104.678 156.595 103.938 157.18 103.338C157.773 102.753 158.472 102.352 159.277 102.135C160.093 101.921 160.953 101.937 161.857 102.182C162.772 102.43 163.522 102.851 164.107 103.445C164.692 104.039 165.087 104.736 165.293 105.538C165.498 106.34 165.48 107.187 165.239 108.079C164.994 108.982 164.581 109.728 163.999 110.316C163.414 110.916 162.72 111.318 161.919 111.524C161.114 111.741 160.254 111.725 159.339 111.477C158.436 111.232 157.686 110.811 157.089 110.214C156.501 109.632 156.1 108.933 155.886 108.116C155.683 107.303 155.703 106.45 155.944 105.558ZM157.039 105.855C156.86 106.515 156.846 107.14 156.998 107.728C157.161 108.319 157.47 108.832 157.924 109.266C158.387 109.714 158.971 110.035 159.678 110.226C160.396 110.421 161.062 110.44 161.677 110.283C162.288 110.138 162.807 109.85 163.235 109.419C163.674 108.991 163.981 108.453 164.157 107.804C164.333 107.155 164.339 106.535 164.176 105.944C164.024 105.356 163.723 104.839 163.272 104.393C162.82 103.948 162.236 103.628 161.518 103.433C160.811 103.241 160.145 103.222 159.519 103.376C158.905 103.533 158.378 103.825 157.939 104.253C157.511 104.684 157.211 105.218 157.039 105.855Z" fill="#282828"/>
<path d="M154.463 112.581L155.413 113.138C155.366 113.209 155.316 113.271 155.263 113.326C155.216 113.396 155.179 113.458 155.153 113.512C154.987 113.858 154.984 114.197 155.144 114.527C155.3 114.868 155.568 115.197 155.948 115.514C156.329 115.83 156.779 116.14 157.299 116.444C157.829 116.752 158.362 117.056 158.898 117.354L161.861 118.96L158.857 125.205L150.343 121.105L150.897 119.953L158.746 123.733L158.265 123.861L160.496 119.222L160.72 119.67L158.318 118.353C157.598 117.966 156.924 117.568 156.295 117.159C155.661 116.761 155.132 116.353 154.707 115.935C154.277 115.528 153.986 115.108 153.835 114.676C153.694 114.248 153.733 113.807 153.951 113.353C154.014 113.223 154.09 113.093 154.179 112.963C154.263 112.844 154.357 112.716 154.463 112.581Z" fill="#282828"/>
<path d="M144.711 123.844C144.968 123.482 145.273 123.177 145.627 122.928C145.974 122.688 146.348 122.535 146.749 122.467L147.183 123.504C146.858 123.567 146.567 123.677 146.309 123.832C146.035 123.991 145.797 124.212 145.595 124.495C145.352 124.838 145.241 125.201 145.263 125.584C145.268 125.971 145.43 126.447 145.75 127.013L146.525 128.315L146.603 128.547L151.495 136.798L150.765 137.825L144.881 127.831C144.536 127.261 144.31 126.74 144.204 126.267C144.091 125.804 144.084 125.379 144.182 124.992C144.27 124.599 144.447 124.216 144.711 123.844ZM145.95 127.818L156.394 129.901L155.623 130.987L146.322 129.098L145.95 127.818Z" fill="#282828"/>
<path d="M139.696 141.826C139.912 141.264 140.167 140.732 140.46 140.229C140.754 139.743 141.094 139.303 141.481 138.91C142.265 138.115 143.063 137.664 143.877 137.556C144.699 137.457 145.49 137.782 146.25 138.532L148.455 140.706L147.571 141.603L145.417 139.48C144.905 138.974 144.356 138.762 143.771 138.843C143.187 138.923 142.616 139.246 142.061 139.81C141.724 140.152 141.413 140.553 141.128 141.014C140.851 141.482 140.609 141.993 140.401 142.547L139.696 141.826ZM136.926 138.943L143.655 145.579L142.758 146.489L136.03 139.854L136.926 138.943Z" fill="#282828"/>
<path d="M132.75 142.9L138.279 150.563L137.243 151.312L132.852 145.224L132.122 155.011L131.202 155.675L125.674 148.011L126.71 147.263L131.111 153.365L131.817 143.574L132.75 142.9Z" fill="#282828"/>
<path d="M120.019 150.235L123.924 157.983L123.481 157.823L126.968 156.064L127.47 157.06L119.933 160.864L119.431 159.867L122.918 158.107L122.783 158.559L118.878 150.811L120.019 150.235Z" fill="#282828"/>
<path d="M110.637 161.403C109.505 161.762 108.568 161.793 107.825 161.494C107.071 161.199 106.543 160.589 106.24 159.666C105.925 158.708 106.003 157.868 106.472 157.145C106.931 156.426 107.76 155.875 108.961 155.493L112.592 154.317L115.541 163.295L114.327 163.695L113.299 160.565L110.637 161.403ZM109.333 156.393C108.497 156.656 107.924 157.027 107.615 157.508C107.298 158.004 107.25 158.588 107.471 159.261C107.692 159.933 108.064 160.354 108.586 160.523C109.113 160.704 109.8 160.661 110.647 160.395L113.001 159.659L111.686 155.657L109.333 156.393Z" fill="#282828"/>
<path d="M90.3817 162.63C90.9135 162.348 91.4551 162.113 92.0063 161.926C92.5465 161.752 93.0918 161.644 93.6421 161.601C94.7548 161.515 95.6536 161.698 96.3385 162.151C97.0243 162.615 97.4083 163.38 97.4906 164.445L97.729 167.532L96.4728 167.629L96.2399 164.614C96.1844 163.896 95.9095 163.376 95.4152 163.053C94.9209 162.73 94.2789 162.599 93.4892 162.66C93.0107 162.697 92.5128 162.796 91.9956 162.956C91.4793 163.129 90.9613 163.355 90.4414 163.636L90.3817 162.63ZM90.1816 158.637L90.9094 168.059L89.6352 168.158L88.9074 158.736L90.1816 158.637Z" fill="#282828"/>
<path d="M80.3714 158.484C81.3522 158.564 82.1969 158.837 82.9054 159.304C83.613 159.783 84.147 160.398 84.5074 161.15C84.8669 161.914 85.0087 162.762 84.9331 163.695C84.8574 164.628 84.5931 165.437 84.1402 166.123C83.6753 166.807 83.0795 167.325 82.3528 167.675C81.6131 168.036 80.8068 168.181 79.9336 168.11C79.0485 168.039 78.2816 167.772 77.6329 167.31C76.9712 166.859 76.4726 166.252 76.137 165.491C75.8006 164.741 75.6707 163.894 75.7473 162.949C75.7522 162.889 75.7635 162.824 75.7813 162.753C75.7861 162.693 75.7914 162.627 75.7973 162.555L83.9963 163.221L83.9191 164.172L76.4019 163.562L76.9348 163.226C76.8795 163.907 76.98 164.524 77.2363 165.074C77.4797 165.636 77.8404 166.086 78.3185 166.426C78.7966 166.766 79.3646 166.963 80.0224 167.016C80.6683 167.069 81.2605 166.966 81.7991 166.709C82.3376 166.452 82.7723 166.066 83.103 165.551C83.4337 165.036 83.6272 164.431 83.6835 163.738L83.6995 163.54C83.7577 162.823 83.6537 162.176 83.3873 161.601C83.108 161.036 82.6999 160.576 82.163 160.219C81.6132 159.873 80.9734 159.671 80.2439 159.612C79.6697 159.565 79.1292 159.624 78.6224 159.787C78.1035 159.95 77.6477 160.226 77.2549 160.615L76.6043 159.731C77.0636 159.263 77.6209 158.923 78.2762 158.711C78.9195 158.499 79.6179 158.423 80.3714 158.484Z" fill="#282828"/>
<path d="M67.034 156.358L69.7093 161.824L68.5288 162.186L65.5647 156.002L67.034 156.358ZM73.7683 157.994L71.5413 167.177L70.2994 166.876L72.5264 157.692L73.7683 157.994ZM71.9186 161.879L71.6598 162.946L68.7037 162.228L68.9625 161.161L71.9186 161.879ZM68.5935 161.46L69.7056 161.916L64.9469 165.576L63.6 165.249L68.5935 161.46Z" fill="#282828"/>
<path d="M61.8554 158.652L61.4518 159.692L57.0557 157.985L57.4592 156.945L61.8554 158.652Z" fill="#282828"/>
<path d="M57.2028 152.863L56.5905 153.778C56.523 153.727 56.4636 153.673 56.4123 153.617C56.3448 153.566 56.2848 153.526 56.2323 153.497C55.8968 153.31 55.5595 153.287 55.2203 153.428C54.8707 153.563 54.5268 153.811 54.1887 154.172C53.8505 154.533 53.5147 154.964 53.1811 155.465C52.8418 155.976 52.5076 156.491 52.1787 157.008L50.4013 159.871L44.3466 156.5L48.9394 148.241L50.056 148.863L45.8219 156.477L45.7225 155.989L50.2203 158.493L49.7605 158.69L51.216 156.369C51.644 155.673 52.0808 155.024 52.5262 154.42C52.9612 153.811 53.3997 153.307 53.8415 152.907C54.2729 152.502 54.7088 152.236 55.1494 152.111C55.5841 151.996 56.0216 152.061 56.462 152.306C56.5878 152.376 56.713 152.459 56.8376 152.556C56.9518 152.647 57.0735 152.749 57.2028 152.863Z" fill="#282828"/>
<path d="M45.0144 145.19L39.0749 152.54L38.0814 151.736L42.799 145.898L33.1697 147.762L32.2881 147.049L38.2276 139.698L39.2211 140.502L34.4922 146.354L44.1188 144.465L45.0144 145.19Z" fill="#282828"/>
<path d="M32.5334 133.701C33.1503 134.405 33.5507 135.172 33.7344 136C33.9012 136.828 33.8525 137.637 33.5881 138.428C33.3148 139.226 32.8264 139.934 32.1228 140.552C31.4103 141.177 30.6451 141.569 29.8271 141.728C29.0091 141.887 28.2055 141.826 27.4163 141.545C26.6193 141.254 25.9123 140.757 25.2953 140.053C24.7654 139.449 24.4041 138.8 24.2115 138.107C24.0189 137.414 24.0345 136.721 24.2583 136.03L25.3741 136.32C25.2269 136.88 25.2258 137.416 25.3708 137.928C25.5159 138.439 25.7742 138.907 26.146 139.331C26.5889 139.836 27.1056 140.189 27.6961 140.389C28.2775 140.597 28.8785 140.637 29.499 140.507C30.1195 140.378 30.7094 140.068 31.2686 139.577C31.8278 139.086 32.212 138.542 32.4213 137.943C32.6305 137.344 32.6744 136.739 32.553 136.127C32.4225 135.523 32.1358 134.968 31.6929 134.463C31.3212 134.039 30.8914 133.721 30.4036 133.511C29.9159 133.3 29.3894 133.227 28.824 133.293L28.6823 132.148C29.3875 132.024 30.0754 132.099 30.746 132.372C31.4076 132.654 32.0034 133.097 32.5334 133.701Z" fill="#282828"/>
<path d="M26.671 126.852L19.3696 131.538L19.4825 131.081L21.5905 134.369L20.6513 134.972L16.0954 127.865L17.0346 127.262L19.1425 130.55L18.6799 130.462L25.9813 125.776L26.671 126.852Z" fill="#282828"/>
<path d="M6.44253 108.643L8.54424 110.572L8.27032 110.661L8.83932 107.864L9.68608 108.025L9.08885 110.792L8.94217 110.632L11.5615 109.781L11.817 110.569L9.19207 111.402L9.22213 111.203L11.3243 113.076L10.7385 113.72L8.63128 111.774L8.9052 111.685L8.34175 114.498L7.48944 114.321L8.09222 111.57L8.23335 111.714L5.61956 112.581L5.36411 111.794L7.98345 110.943L7.95894 111.159L5.85122 109.27L6.44253 108.643Z" fill="#166095"/>
<path d="M15.0708 88.138L2.48016 87.6518L2.88923 77.0577L15.4798 77.5439L15.4291 78.8569L3.62994 78.4013L4.00287 78.0734L3.66881 86.725L3.32227 86.3694L15.1215 86.825L15.0708 88.138Z" fill="#282828"/>
<path d="M16.7915 72.16C16.5934 73.0502 16.2157 73.8082 15.6584 74.4341C15.092 75.0456 14.4117 75.4782 13.6177 75.7317C12.8119 75.9827 11.9522 76.0064 11.0386 75.8031C10.1132 75.5971 9.34477 75.2109 8.73322 74.6445C8.12167 74.0781 7.69498 73.3992 7.45315 72.6078C7.21133 71.8163 7.19079 70.9696 7.39154 70.0677C7.5949 69.1541 7.97392 68.3902 8.5286 67.776C9.08589 67.1501 9.76026 66.7163 10.5517 66.4745C11.3458 66.2209 12.2055 66.1971 13.1308 66.4031C14.0445 66.6065 14.8129 66.9926 15.4362 67.5616C16.0503 68.1163 16.4829 68.7966 16.7338 69.6023C16.973 70.4055 16.9923 71.258 16.7915 72.16ZM15.6846 71.9136C15.8332 71.2459 15.8185 70.6218 15.6403 70.0412C15.4505 69.4581 15.1188 68.9601 14.6451 68.5473C14.1624 68.1202 13.5638 67.8272 12.8492 67.6682C12.123 67.5065 11.4566 67.518 10.85 67.7026C10.246 67.8755 9.74023 68.1871 9.33269 68.6373C8.91342 69.0849 8.63079 69.6367 8.48479 70.2926C8.33879 70.9486 8.36071 71.5681 8.55054 72.1513C8.72866 72.7319 9.05324 73.2344 9.52427 73.6589C9.99529 74.0833 10.5939 74.3764 11.3202 74.538C12.0347 74.6971 12.7011 74.6856 13.3194 74.5036C13.926 74.319 14.4389 74.0028 14.8582 73.5552C15.2657 73.105 15.5412 72.5578 15.6846 71.9136Z" fill="#282828"/>
<path d="M18.426 64.6276L17.4498 64.1167C17.4936 64.044 17.5405 63.9792 17.5907 63.9222C17.6344 63.8495 17.668 63.7856 17.6914 63.7303C17.8409 63.3766 17.8274 63.0386 17.6509 62.7163C17.4792 62.383 17.1956 62.0676 16.8003 61.77C16.405 61.4723 15.9404 61.1845 15.4065 60.9064C14.8616 60.6237 14.3144 60.3465 13.7648 60.0748L10.728 58.6136L13.4262 52.2305L22.1289 55.9137L21.6313 57.0908L13.6083 53.6953L14.0825 53.5442L12.0782 58.2859L11.8326 57.8497L14.2962 59.0488C15.0336 59.4 15.7262 59.7648 16.374 60.1432C17.0265 60.5105 17.575 60.8925 18.0197 61.2892C18.469 61.6748 18.7798 62.08 18.952 62.5047C19.1132 62.9248 19.0957 63.3669 18.8994 63.8311C18.8434 63.9638 18.7739 64.0972 18.6911 64.2316C18.6129 64.3549 18.5245 64.4869 18.426 64.6276Z" fill="#282828"/>
<path d="M27.4742 53.3545C27.2345 53.7283 26.9441 54.0481 26.6027 54.3138C26.2678 54.5694 25.9014 54.7406 25.5036 54.8275L25.0213 53.8121C25.3427 53.7332 25.6284 53.61 25.8784 53.4425C26.1449 53.2713 26.372 53.0393 26.5598 52.7463C26.7865 52.3927 26.8798 52.0248 26.8397 51.6426C26.8162 51.2568 26.6315 50.7889 26.2856 50.2389L25.4495 48.9751L25.3606 48.7469L20.0816 40.7387L20.7616 39.6779L27.114 49.3803C27.4865 49.9332 27.7369 50.4432 27.865 50.9104C27.9996 51.3675 28.0271 51.7916 27.9475 52.1825C27.878 52.58 27.7202 52.9706 27.4742 53.3545ZM26.0468 49.444L15.516 47.861L16.2348 46.7396L25.6151 48.183L26.0468 49.444Z" fill="#282828"/>
<path d="M32.1353 34.585C31.9436 35.1557 31.7122 35.6987 31.4411 36.2139C31.1692 36.7122 30.8483 37.1662 30.4785 37.576C29.7308 38.4045 28.9529 38.8903 28.1448 39.0334C27.3278 39.1685 26.5231 38.878 25.7307 38.162L23.4336 36.0862L24.2778 35.1508L26.5215 37.1783C27.0556 37.6611 27.6131 37.8494 28.1937 37.7433C28.7744 37.6373 29.33 37.2903 29.8607 36.7023C30.1823 36.346 30.4755 35.9316 30.7402 35.4592C30.996 34.9787 31.2158 34.4576 31.3995 33.8958L32.1353 34.585ZM35.0278 37.3444L28.0164 31.0085L28.8727 30.0597L35.884 36.3956L35.0278 37.3444Z" fill="#282828"/>
<path d="M39.0985 33.2663L33.2397 25.8516L34.2419 25.0587L38.8955 30.948L39.1968 21.1387L40.0861 20.4351L45.9449 27.8497L44.9426 28.6426L40.2779 22.7392L40.0019 32.5515L39.0985 33.2663Z" fill="#282828"/>
<path d="M50.4897 25.0755L46.2172 17.5244L46.6676 17.6624L43.269 19.5877L42.7195 18.6164L50.0647 14.4552L50.6142 15.4265L47.2157 17.3518L47.3292 16.8945L51.6016 24.4456L50.4897 25.0755Z" fill="#282828"/>
<path d="M59.4905 14.0043C60.6054 13.5938 61.5404 13.5211 62.2955 13.7863C63.0618 14.0472 63.6174 14.6321 63.962 15.541C64.3195 16.4834 64.2799 17.3264 63.8431 18.0699C63.4176 18.8091 62.6138 19.3968 61.4316 19.8329L57.8578 21.1707L54.5066 12.3349L55.7014 11.8812L56.8695 14.9611L59.4905 14.0043ZM61.0196 18.9496C61.8428 18.6498 62.3981 18.2528 62.6855 17.7586C62.9799 17.2489 63.0015 16.663 62.7505 16.001C62.4994 15.3391 62.1089 14.9354 61.5789 14.7901C61.0447 14.6335 60.3603 14.7073 59.5259 15.0113L57.2078 15.8531L58.7015 19.7914L61.0196 18.9496Z" fill="#282828"/>
<path d="M79.6607 11.4544C79.1424 11.7605 78.6122 12.0198 78.0702 12.2321C77.5386 12.431 76.999 12.5645 76.4512 12.6324C75.3436 12.7698 74.4374 12.6282 73.7323 12.2078C73.0258 11.7755 72.6069 11.0294 72.4756 9.96946L72.0951 6.89694L73.3455 6.74186L73.7172 9.74293C73.8057 10.4575 74.1043 10.9646 74.613 11.2642C75.1217 11.5639 75.7691 11.665 76.555 11.5675C77.0314 11.5084 77.5242 11.3869 78.0334 11.2028C78.5412 11.0068 79.0482 10.7565 79.5546 10.4518L79.6607 11.4544ZM80.0447 15.4334L78.8831 6.05508L80.1513 5.89778L81.313 15.2761L80.0447 15.4334Z" fill="#282828"/>
<path d="M90.1151 15.2848C89.1317 15.2506 88.2753 15.0167 87.546 14.5831C86.817 14.1375 86.2551 13.5476 85.8604 12.8135C85.466 12.0673 85.2851 11.2265 85.3176 10.2911C85.3501 9.35565 85.5767 8.53503 85.9974 7.82923C86.4302 7.12384 87.0014 6.57936 87.7111 6.19579C88.4333 5.80065 89.2321 5.6183 90.1076 5.64874C90.995 5.6796 91.7735 5.91079 92.4429 6.34231C93.1248 6.76226 93.6508 7.34489 94.0212 8.09021C94.392 8.82354 94.5609 9.66392 94.528 10.6113C94.5259 10.6713 94.5176 10.7371 94.5031 10.8086C94.5011 10.8686 94.4988 10.9345 94.4963 11.0065L86.2752 10.7206L86.3084 9.7672L93.8458 10.0293L93.329 10.3895C93.3527 9.70596 93.2238 9.09511 92.9424 8.557C92.6733 8.00732 92.2921 7.57381 91.7988 7.25648C91.3055 6.93915 90.7291 6.76901 90.0695 6.74608C89.4219 6.72356 88.835 6.85324 88.3089 7.13513C87.7828 7.41702 87.3665 7.8228 87.0599 8.35247C86.7533 8.88213 86.588 9.49476 86.5638 10.1903L86.5569 10.3882C86.532 11.1078 86.6658 11.7488 86.9584 12.3113C87.2635 12.8623 87.6925 13.3034 88.2453 13.6348C88.8105 13.9547 89.4589 14.1273 90.1905 14.1528C90.7661 14.1728 91.3034 14.0894 91.8021 13.9026C92.3129 13.7162 92.7555 13.4194 93.1298 13.0122L93.8207 13.8647C93.3834 14.3538 92.8424 14.7193 92.1976 14.961C91.5649 15.2032 90.8707 15.3111 90.1151 15.2848Z" fill="#282828"/>
<path d="M103.373 16.9499L100.43 11.6238L101.591 11.204L104.858 17.2334L103.373 16.9499ZM96.5659 15.6507L98.3354 6.36786L99.5908 6.60745L97.8213 15.8903L96.5659 15.6507ZM98.221 11.6786L98.4266 10.6L101.415 11.1703L101.209 12.2489L98.221 11.6786ZM101.563 11.9315L100.429 11.532L105.001 7.64005L106.363 7.89988L101.563 11.9315Z" fill="#282828"/>
<path d="M108.641 13.8932L108.993 12.8342L113.467 14.3247L113.115 15.3836L108.641 13.8932Z" fill="#282828"/>
<path d="M113.328 19.8189L113.895 18.8747C113.965 18.9228 114.027 18.9735 114.081 19.027C114.151 19.075 114.213 19.1124 114.266 19.139C114.61 19.3095 114.949 19.3162 115.281 19.1593C115.623 19.0077 115.955 18.7434 116.275 18.3665C116.596 17.9895 116.91 17.5428 117.219 17.0263C117.534 16.4991 117.843 15.9692 118.147 15.4366L119.784 12.4916L125.994 15.5678L121.804 24.0378L120.658 23.4705L124.522 15.662L124.644 16.1446L120.031 13.8594L120.481 13.6403L119.139 16.0287C118.745 16.7441 118.34 17.4139 117.924 18.0381C117.519 18.6677 117.105 19.1926 116.683 19.6129C116.271 20.0385 115.849 20.3246 115.415 20.4712C114.986 20.607 114.546 20.5631 114.094 20.3393C113.965 20.2754 113.836 20.1981 113.707 20.1073C113.589 20.0219 113.462 19.9257 113.328 19.8189Z" fill="#282828"/>
<path d="M126.155 26.5989L131.767 18.996L132.795 19.7556L128.337 25.7945L137.876 23.5109L138.788 24.1849L133.176 31.7878L132.148 31.0282L136.616 24.9748L127.082 27.2836L126.155 26.5989Z" fill="#282828"/>
<path d="M138.676 37.2362C138.026 36.5622 137.59 35.8157 137.368 34.9967C137.162 34.178 137.172 33.3674 137.399 32.5651C137.634 31.7544 138.089 31.024 138.762 30.3741C139.445 29.7158 140.19 29.288 141 29.0904C141.81 28.8929 142.615 28.916 143.417 29.1598C144.227 29.4122 144.956 29.8754 145.606 30.5494C146.164 31.1283 146.555 31.7594 146.78 32.4426C147.005 33.1259 147.023 33.8181 146.832 34.5192L145.703 34.2822C145.824 33.7156 145.8 33.1804 145.631 32.6764C145.462 32.1725 145.182 31.7174 144.79 31.3113C144.324 30.8275 143.791 30.4994 143.192 30.3272C142.601 30.1467 141.999 30.1358 141.385 30.2944C140.772 30.4531 140.197 30.7907 139.662 31.3073C139.126 31.8239 138.768 32.3862 138.587 32.9941C138.407 33.6021 138.391 34.2088 138.542 34.8143C138.7 35.4114 139.013 35.9519 139.479 36.4358C139.871 36.8419 140.315 37.1386 140.812 37.3259C141.309 37.5132 141.839 37.5611 142.4 37.4694L142.596 38.6063C141.897 38.7634 141.207 38.7211 140.524 38.4795C139.85 38.2295 139.234 37.8151 138.676 37.2362Z" fill="#282828"/>
<path d="M144.864 44.4267L151.934 39.3981L151.843 39.8605L149.581 36.6761L150.49 36.0293L155.379 42.9116L154.47 43.5585L152.208 40.3741L152.674 40.44L145.604 45.4685L144.864 44.4267Z" fill="#282828"/>
<path d="M167.056 64.0773L164.932 62.172L165.205 62.0799L164.668 64.8827L163.819 64.732L164.385 61.9576L164.534 62.1164L161.924 62.9966L161.66 62.212L164.275 61.3488L164.247 61.5482L162.124 59.6998L162.703 59.0488L164.832 60.9711L164.559 61.0632L165.09 58.2434L165.945 58.4112L165.373 61.1685L165.23 61.0267L167.834 60.1294L168.099 60.9141L165.489 61.7943L165.511 61.5779L167.64 63.4433L167.056 64.0773Z" fill="#166095"/>
</svg>
