<svg width="48" height="48" viewBox="0 0 48 48" fill="none" xmlns="http://www.w3.org/2000/svg">
<path fill-rule="evenodd" clip-rule="evenodd" d="M37.7024 12.9036C37.8735 12.7328 38.0092 12.53 38.1018 12.3067C38.1945 12.0834 38.2422 11.8441 38.2424 11.6024C38.2425 11.3607 38.1951 11.1213 38.1027 10.8979C38.0103 10.6745 37.8749 10.4715 37.7041 10.3004C37.5332 10.1294 37.3304 9.9937 37.1071 9.90106C36.8838 9.80842 36.6445 9.76066 36.4028 9.76051C36.1611 9.76036 35.9217 9.80782 35.6983 9.90019C35.4749 9.99256 35.2719 10.128 35.1008 10.2988L24 21.3996L12.9025 10.2988C12.557 9.95343 12.0885 9.75938 11.6001 9.75938C11.1116 9.75938 10.6431 9.95343 10.2977 10.2988C9.95223 10.6443 9.75818 11.1128 9.75818 11.6012C9.75818 12.0897 9.95223 12.5582 10.2977 12.9036L21.3984 24.0012L10.2977 35.0989C10.1266 35.2699 9.99095 35.4729 9.89838 35.6964C9.80582 35.9199 9.75818 36.1594 9.75818 36.4012C9.75818 36.6431 9.80582 36.8826 9.89838 37.1061C9.99095 37.3296 10.1266 37.5326 10.2977 37.7036C10.6431 38.0491 11.1116 38.2431 11.6001 38.2431C11.8419 38.2431 12.0814 38.1955 12.3049 38.1029C12.5284 38.0104 12.7314 37.8747 12.9025 37.7036L24 26.6028L35.1008 37.7036C35.4463 38.0486 35.9146 38.2423 36.4028 38.242C36.891 38.2417 37.3591 38.0475 37.7041 37.702C38.049 37.3566 38.2427 36.8883 38.2424 36.4001C38.2421 35.9119 38.0479 35.4438 37.7024 35.0989L26.6016 24.0012L37.7024 12.9036Z" fill="#282828"/>
</svg>
