<svg width="78" height="72" viewBox="0 0 78 72" fill="none" xmlns="http://www.w3.org/2000/svg">
<path d="M30 33.625V31.375H45.75V47.125C45.7482 47.7212 45.5106 48.2925 45.089 48.714C44.6675 49.1356 44.0962 49.3732 43.5 49.375H41.9925C41.4014 49.3745 40.816 49.4905 40.2697 49.7164C39.7234 49.9422 39.227 50.2735 38.8088 50.6912L37.875 51.625L36.9413 50.6912C36.523 50.2735 36.0266 49.9422 35.4803 49.7164C34.934 49.4905 34.3486 49.3745 33.7575 49.375H32.25C31.6538 49.3732 31.0825 49.1356 30.661 48.714C30.2394 48.2925 30.0018 47.7212 30 47.125V33.625Z" fill="white"/>
<path d="M44.625 46C41.6413 46 38.7798 44.8147 36.67 42.705C34.5603 40.5952 33.375 37.7337 33.375 34.75V31.375H30V47.125C30.0018 47.7212 30.2394 48.2925 30.661 48.714C31.0825 49.1356 31.6538 49.3732 32.25 49.375H33.7575C34.3486 49.3745 34.934 49.4905 35.4803 49.7164C36.0266 49.9422 36.523 50.2735 36.9413 50.6912L37.875 51.625L38.8088 50.6912C39.227 50.2735 39.7234 49.9422 40.2697 49.7164C40.816 49.4905 41.4014 49.3745 41.9925 49.375H43.5C44.0962 49.3732 44.6675 49.1356 45.089 48.714C45.5106 48.2925 45.7482 47.7212 45.75 47.125V46H44.625Z" fill="#F2F2F2"/>
<path d="M63.3761 59.5L61.1261 61.75L49.8761 58.375V55L52.1261 56.125L62.0036 59.4212L62.0373 59.2975C62.4706 59.4331 62.9221 59.5014 63.3761 59.5Z" fill="#282828"/>
<path d="M56.6261 20.125H49.8761L49.8423 20.0912C51.2385 18.8293 52.7573 17.71 54.3761 16.75C54.3761 16.75 56.6261 16.75 56.6261 20.125Z" fill="#282828"/>
<path d="M53.2511 16.2212C53.4351 16.2905 53.6153 16.3694 53.7911 16.4575L54.3761 16.75C52.7573 17.71 51.2385 18.8293 49.8423 20.0912C48.0873 21.7113 46.5011 23.725 46.5011 25.75C46.5011 26.9988 48.0086 28 49.8761 28C49.8761 28.8951 49.5205 29.7536 48.8875 30.3865C48.2546 31.0194 47.3962 31.375 46.5011 31.375H43.6886H40.8761V26.875C40.8761 26.0088 40.8986 25.2325 40.9436 24.5238C41.0435 22.9689 41.6361 21.4862 42.6353 20.2908C43.6346 19.0953 44.9886 18.2492 46.5011 17.875L44.2511 15.625H50.2698C51.2932 15.6249 52.3064 15.8276 53.2511 16.2212Z" fill="#282828"/>
<path fill-rule="evenodd" clip-rule="evenodd" d="M44.9261 9.94488C43.1494 9.86131 41.3874 9.58135 39.6723 9.11012C38.9883 8.91474 38.3598 8.56108 37.8378 8.07775C37.3158 7.59443 36.9148 6.99501 36.6674 6.328C36.4718 6.77638 36.3726 7.26083 36.3761 7.75C36.3927 8.97159 36.8031 10.1552 37.5461 11.125H37.5011V12.25H44.2511V11.125H44.2061C44.5372 10.7951 44.7842 10.3903 44.9261 9.94488Z" fill="#282828"/>
<path fill-rule="evenodd" clip-rule="evenodd" d="M44.2061 11.125C44.9491 10.1552 45.3594 8.97159 45.3761 7.75C45.3761 5.8825 44.2511 4.375 40.8761 4.375C40.0931 4.375 39.4313 4.45613 38.8765 4.60406C37.0396 5.0938 36.3761 6.31573 36.3761 7.75C36.3927 8.97159 36.8031 10.1552 37.5461 11.125H37.5011V12.25H44.2511V11.125H44.2061ZM54.2748 13.1613C54.3406 13.0084 54.375 12.8439 54.3761 12.6775C54.3195 12.2176 54.0856 11.7979 53.7242 11.5079C53.3627 11.2179 52.9023 11.0805 52.4411 11.125H49.5611C49.0998 11.0805 48.6394 11.2179 48.2779 11.5079C47.9165 11.7979 47.6826 12.2176 47.6261 12.6775C47.6271 12.8439 47.6616 13.0084 47.7273 13.1613L48.7511 15.625H50.2698C51.2932 15.6249 52.3064 15.8276 53.2511 16.2212V15.625L54.2748 13.1613ZM60.0011 29.125H56.6261C58.2348 28.315 58.6961 25.1987 58.8311 23.5C58.8761 22.825 58.8761 22.375 58.8761 22.375L53.2511 28C52.7859 28.445 52.4866 29.0355 52.4027 29.6738C52.3188 30.3121 52.4554 30.9599 52.7898 31.51C52.9513 31.7937 53.1808 32.0328 53.4577 32.2056C53.7347 32.3784 54.0503 32.4796 54.3761 32.5C54.3761 32.5 54.3761 39.25 48.7511 35.875V38.125H51.0011L53.2511 39.25L55.5011 37H58.8761L57.7511 33.625C60.0011 33.625 60.0011 29.125 60.0011 29.125ZM67.8761 55H61.7392C62.3019 55.9778 63.2113 56.7085 64.2873 57.0475C64.7206 57.1831 65.1721 57.2514 65.6261 57.25C66.2631 57.2481 66.9003 57.1104 67.4799 56.8461C67.1256 57.6362 66.5427 58.307 65.816 58.7779C65.0893 59.2487 64.242 59.4995 63.3761 59.5C64.5695 59.5 65.7141 59.0259 66.558 58.182C66.9475 57.7925 67.2583 57.339 67.4799 56.8461C67.7386 56.2711 67.8761 55.6427 67.8761 55Z" fill="#282828"/>
<path d="M62.0373 59.2975C62.4706 59.4331 62.9221 59.5014 63.3761 59.5C64.242 59.4995 65.0893 59.2487 65.816 58.7779C66.5427 58.307 67.1256 57.6362 67.4799 56.8461C66.9003 57.1104 66.2631 57.2481 65.6261 57.25C65.1721 57.2514 64.7206 57.1831 64.2873 57.0475C63.2113 56.7085 62.3019 55.9778 61.7392 55H58.8761C58.8758 55.9598 59.1824 56.8946 59.7512 57.6677C60.3199 58.4409 61.121 59.012 62.0373 59.2975Z" fill="#282828"/>
<path fill-rule="evenodd" clip-rule="evenodd" d="M42.247 58.1462C42.2324 58.023 42.2182 57.9038 42.2043 57.7891C42.2188 57.9081 42.2331 58.0272 42.247 58.1462ZM42.204 57.7871C42.1806 57.5943 42.158 57.4145 42.1361 57.25L42.204 57.7871ZM42.1361 57.25C42.5213 57.2928 42.9 57.376 43.2659 57.4977C43.5406 57.5949 43.8262 57.7181 44.1185 57.8633C44.1494 57.8798 44.1802 57.8965 44.2108 57.9136C44.2243 57.9211 44.2377 57.9286 44.2511 57.9362V58.9611C44.2504 59.1253 44.286 59.2876 44.3554 59.4364C44.4249 59.5852 44.5264 59.7168 44.6527 59.8218C45.7563 60.7375 48.7511 63.496 48.7511 66.25C48.7924 67.0969 48.4955 67.9255 47.9259 68.5536C47.3563 69.1817 46.5605 69.5578 45.7136 69.5991C45.6664 69.6015 45.6192 69.6064 45.572 69.6113C45.5067 69.6182 45.4414 69.625 45.3761 69.625" fill="#282828"/>
<path fill-rule="evenodd" clip-rule="evenodd" d="M42.204 57.7871C42.1806 57.5943 42.158 57.4145 42.1361 57.25C42.1594 57.4289 42.1821 57.608 42.204 57.7871ZM42.2043 57.7891C42.2182 57.9038 42.2324 58.023 42.247 58.1462C42.2559 58.2225 42.2647 58.2987 42.2733 58.375H42.0011C41.7027 58.375 41.4165 58.4935 41.2056 58.7045C40.9946 58.9155 40.8761 59.2016 40.8761 59.5V70.75L43.1261 67.375C43.1261 66.0925 42.7661 62.6275 42.4511 59.8825C42.4028 59.4836 42.358 59.0983 42.316 58.7367C42.2921 58.5316 42.2692 58.3342 42.247 58.1462C42.2331 58.0272 42.2188 57.9081 42.2043 57.7891Z" fill="#282828"/>
<path fill-rule="evenodd" clip-rule="evenodd" d="M45.876 46.875C45.876 46.875 48.8086 47.125 48.9119 47.1285C48.8583 47.1269 45.9296 46.8757 45.876 46.875ZM48.9119 47.1285C49.2409 47.1383 49.5685 47.1646 49.8937 47.207C49.4572 47.1536 49.1048 47.135 48.9119 47.1285ZM49.8761 55L52.1261 56.125L53.2511 55C54.4652 54.9822 55.6441 54.5893 56.6261 53.875C55.6361 53.875 54.3761 50.5 54.3761 50.5C54.3761 49.2862 53.6485 48.5089 52.7167 48.0112C51.8082 47.5259 50.7055 47.3064 49.8937 47.207C50.8678 47.3342 51.8195 47.6008 52.7167 48.0112C52.5844 48.5413 52.3283 49.0385 51.9695 49.4505C51.6106 49.8625 51.1592 50.1836 50.6523 50.3875C50.4194 50.4697 50.2186 50.6239 50.0791 50.8278C49.9395 51.0316 49.8684 51.2746 49.8761 51.5215V55ZM51.0011 38.125H48.7511V42.625H53.2511C53.2511 44.875 57.7511 47.125 57.7511 47.125C58.8761 46 58.8761 40.375 58.8761 40.375C60.0011 42.625 65.6261 43.75 65.6261 43.75C65.6261 41.5 62.2511 38.125 62.2511 38.125C64.8264 38.7901 67.4675 39.1674 70.1261 39.25C69.0011 37 64.5011 34.75 64.5011 34.75C66.4155 34.7887 68.315 34.4056 70.0649 33.6279C71.8147 32.8502 73.3719 31.697 74.6261 30.25H65.6261C72.3761 29.125 75.7511 22.375 75.7511 22.375L65.6261 25.75C73.5011 21.25 73.5011 15.625 73.5011 15.625L66.7511 20.125C67.7247 18.8618 68.3425 17.3609 68.5403 15.7783C68.7381 14.1957 68.5088 12.589 67.8761 11.125L58.8761 23.5H58.8311C58.6961 25.1987 58.2348 28.315 56.6261 29.125H60.0011C60.0011 29.125 60.0011 33.625 57.7511 33.625L58.8761 37H55.5011L53.2511 39.25L51.0011 38.125Z" fill="#282828"/>
<path d="M46.5011 49.375C49.8761 49.375 46.5011 55 46.5011 55C48.7511 57.25 49.8761 55 49.8761 55V51.5215C49.8684 51.2746 49.9395 51.0316 50.0791 50.8278C50.2186 50.6239 50.4194 50.4697 50.6523 50.3875C51.1592 50.1836 51.6106 49.8625 51.9695 49.4505C52.3283 49.0385 52.5844 48.5413 52.7167 48.0112C51.8195 47.6008 50.8678 47.3342 49.8937 47.207C49.4572 47.1536 49.1048 47.135 48.9119 47.1285C48.8583 47.1269 45.9296 46.8757 45.876 46.875C45.8742 47.4712 48.5117 48.2925 48.0901 48.714C47.6685 49.1356 47.0973 49.3732 46.5011 49.375Z" fill="#282828"/>
<path d="M39.7511 56.125C39.7511 56.125 39.6948 56.5525 39.6161 57.25C39.5612 57.6614 39.5021 58.1699 39.4363 58.7354L39.4362 58.7366C39.3941 59.0982 39.3493 59.4835 39.3011 59.8825C38.9861 62.6275 38.6261 66.0925 38.6261 67.375L40.8761 70.75V59.5C40.8761 59.2016 40.9946 58.9155 41.2056 58.7045C41.4165 58.4935 41.7027 58.375 42.0011 58.375H42.2733C42.2647 58.2987 42.2559 58.2225 42.247 58.1462C42.2324 58.023 42.2182 57.9038 42.2043 57.7891L42.204 57.7871C42.1821 57.608 42.1594 57.4289 42.1361 57.25C42.0573 56.5525 42.0011 56.125 42.0011 56.125L41.9561 56.0913C41.6186 56.485 41.2473 56.8787 40.8761 57.25C40.5048 56.8787 40.1336 56.485 39.7961 56.0913L39.7511 56.125Z" fill="#282828"/>
<path fill-rule="evenodd" clip-rule="evenodd" d="M67.8761 55H61.7392C61.3389 54.3176 61.1273 53.5411 61.1261 52.75C61.128 52.1129 61.2656 51.4836 61.5299 50.9039C60.7399 51.2582 60.069 51.8334 59.5982 52.5601C59.1273 53.2868 58.8766 54.1341 58.8761 55C58.8761 53.8065 59.3502 52.6619 60.1941 51.818C60.5837 51.4284 61.0375 51.1176 61.5306 50.8958C62.1054 50.6374 62.7336 50.5 63.3761 50.5C64.5695 50.5 65.7141 50.9741 66.558 51.818C67.402 52.6619 67.8761 53.8065 67.8761 55ZM63.7738 50.3352C63.6683 50.4407 63.5252 50.5 63.3761 50.5C63.2269 50.5 63.0838 50.4407 62.9783 50.3352C62.8728 50.2298 62.8136 50.0867 62.8136 49.9375V49.375H62.2511C62.1019 49.375 61.9588 49.3157 61.8533 49.2102C61.7478 49.1048 61.6886 48.9617 61.6886 48.8125C61.6886 48.6633 61.7478 48.5202 61.8533 48.4148C61.9588 48.3093 62.1019 48.25 62.2511 48.25H62.8136V47.6875C62.8136 47.5383 62.8728 47.3952 62.9783 47.2898C63.0838 47.1843 63.2269 47.125 63.3761 47.125C63.5252 47.125 63.6683 47.1843 63.7738 47.2898C63.8793 47.3952 63.9386 47.5383 63.9386 47.6875V48.25H64.5011C64.6502 48.25 64.7933 48.3093 64.8988 48.4148C65.0043 48.5202 65.0636 48.6633 65.0636 48.8125C65.0636 48.9617 65.0043 49.1048 64.8988 49.2102C64.7933 49.3157 64.6502 49.375 64.5011 49.375H63.9386V49.9375C63.9386 50.0867 63.8793 50.2298 63.7738 50.3352ZM41.4386 2.125H42.0011C42.1502 2.125 42.2933 2.18426 42.3988 2.28975C42.5043 2.39524 42.5636 2.53832 42.5636 2.6875C42.5636 2.83668 42.5043 2.97976 42.3988 3.08525C42.2933 3.19074 42.1502 3.25 42.0011 3.25H41.4386V3.8125C41.4386 3.96168 41.3793 4.10476 41.2738 4.21025C41.1683 4.31574 41.0252 4.375 40.8761 4.375C40.7269 4.375 40.5838 4.31574 40.4783 4.21025C40.3728 4.10476 40.3136 3.96168 40.3136 3.8125V3.25H39.7511C39.6019 3.25 39.4588 3.19074 39.3533 3.08525C39.2478 2.97976 39.1886 2.83668 39.1886 2.6875C39.1886 2.53832 39.2478 2.39524 39.3533 2.28975C39.4588 2.18426 39.6019 2.125 39.7511 2.125H40.3136V1.5625C40.3136 1.41332 40.3728 1.27024 40.4783 1.16475C40.5838 1.05926 40.7269 1 40.8761 1C41.0252 1 41.1683 1.05926 41.2738 1.16475C41.3793 1.27024 41.4386 1.41332 41.4386 1.5625V2.125ZM51.5636 8.875H52.1261C52.2752 8.875 52.4183 8.93426 52.5238 9.03975C52.6293 9.14524 52.6886 9.28832 52.6886 9.4375C52.6886 9.58668 52.6293 9.72976 52.5238 9.83525C52.4183 9.94074 52.2752 10 52.1261 10H51.5636V10.5625C51.5636 10.7117 51.5043 10.8548 51.3988 10.9602C51.2933 11.0657 51.1502 11.125 51.0011 11.125C50.8519 11.125 50.7088 11.0657 50.6033 10.9602C50.4978 10.8548 50.4386 10.7117 50.4386 10.5625V10H49.8761C49.7269 10 49.5838 9.94074 49.4783 9.83525C49.3728 9.72976 49.3136 9.58668 49.3136 9.4375C49.3136 9.28832 49.3728 9.14524 49.4783 9.03975C49.5838 8.93426 49.7269 8.875 49.8761 8.875H50.4386V8.3125C50.4386 8.16332 50.4978 8.02024 50.6033 7.91475C50.7088 7.80926 50.8519 7.75 51.0011 7.75C51.1502 7.75 51.2933 7.80926 51.3988 7.91475C51.5043 8.02024 51.5636 8.16332 51.5636 8.3125V8.875Z" fill="#282828"/>
<path d="M58.8761 55H61.7392C61.3389 54.3176 61.1273 53.5411 61.1261 52.75C61.128 52.1129 61.2656 51.4836 61.5299 50.9039C60.7399 51.2582 60.069 51.8334 59.5982 52.5601C59.1273 53.2868 58.8766 54.1341 58.8761 55Z" fill="#282828"/>
<path d="M45.3761 69.625C48.6948 69.625 51.0011 67.6113 51.0011 65.125C51.0011 63.3314 47.1843 59.3863 44.1185 57.8633C44.1494 57.8798 44.1802 57.8965 44.2108 57.9136L44.2511 57.9362V58.9611C44.2504 59.1253 44.286 59.2876 44.3554 59.4364C44.4249 59.5852 44.5264 59.7168 44.6527 59.8218C45.7563 60.7375 48.7511 63.496 48.7511 66.25C48.7924 67.0969 48.4955 67.9255 47.9259 68.5536C47.3563 69.1817 46.5605 69.5578 45.7136 69.5991C45.6664 69.6015 45.6192 69.6064 45.572 69.6113C45.5067 69.6182 45.4414 69.625 45.3761 69.625Z" fill="#282828"/>
<path d="M39.7511 3.25C39.6019 3.25 39.4588 3.19074 39.3533 3.08525L38.8765 4.60406C39.4313 4.45613 40.0931 4.375 40.8761 4.375C40.7269 4.375 40.5838 4.31574 40.4783 4.21025C40.3728 4.10476 40.3136 3.96168 40.3136 3.8125V3.25H39.7511Z" fill="#282828"/>
<path d="M48.2779 11.5079C48.6394 11.2179 49.0998 11.0805 49.5611 11.125H51.0011C50.8519 11.125 50.7088 11.0657 50.6033 10.9602C50.4978 10.8548 50.4386 10.7117 50.4386 10.5625V10H49.8761C49.7269 10 49.5838 9.94074 49.4783 9.83525C49.3728 9.72976 49.3136 9.58668 49.3136 9.4375L48.2779 11.5079Z" fill="#282828"/>
<path d="M39.7961 56.0913C40.1336 56.485 40.5048 56.8787 40.8761 57.25C41.2473 56.8787 41.6186 56.485 41.9561 56.0913C43.2282 54.6046 44.3762 53.0177 45.3891 51.3467C45.3341 51.4373 45.2773 51.5301 45.2186 51.625H44.9936C44.4024 51.6245 43.817 51.7405 43.2707 51.9664C42.7245 52.1922 42.228 52.5235 41.8098 52.9412L40.8761 53.875L39.7961 56.0913Z" fill="#282828"/>
<path d="M41.8098 50.6912L40.8761 51.625L39.9423 52.9412L40.8761 53.875L41.8098 52.9412C42.228 52.5235 42.7245 52.1922 43.2707 51.9664C43.817 51.7405 44.4024 51.6245 44.9936 51.625H45.2186C45.2773 51.5301 45.3341 51.4373 45.3891 51.3467C45.7801 50.7017 46.1509 50.0442 46.5011 49.375H44.9936C44.4024 49.3745 43.817 49.4905 43.2707 49.7164C42.7245 49.9422 42.228 50.2735 41.8098 50.6912Z" fill="#282828"/>
<path d="M61.5306 50.8958C62.1054 50.6374 62.7336 50.5 63.3761 50.5C63.2269 50.5 63.0838 50.4407 62.9783 50.3352C62.8728 50.2298 62.8136 50.0867 62.8136 49.9375V49.375H62.2511C62.1019 49.375 61.9588 49.3157 61.8533 49.2102C61.7478 49.1048 61.6886 48.9617 61.6886 48.8125L61.5306 50.8958Z" fill="#282828"/>
<path d="M46.5011 35.375V31.375H43.6886H45.876L46.5011 35.375Z" fill="#282828"/>
<path d="M63.3761 59.5L61.1261 61.75L49.8761 58.375V55M63.3761 59.5C62.9221 59.5014 62.4706 59.4331 62.0373 59.2975M63.3761 59.5C64.242 59.4995 65.0893 59.2487 65.816 58.7779C66.5427 58.307 67.1256 57.6362 67.4799 56.8461M63.3761 59.5C64.5695 59.5 65.7141 59.0259 66.558 58.182C66.9475 57.7925 67.2583 57.339 67.4799 56.8461M49.8761 55L52.1261 56.125M49.8761 55C49.8761 55 48.7511 57.25 46.5011 55C46.5011 55 49.8761 49.375 46.5011 49.375M49.8761 55V51.5215C49.8684 51.2746 49.9395 51.0316 50.0791 50.8278C50.2186 50.6239 50.4194 50.4697 50.6523 50.3875C51.1592 50.1836 51.6106 49.8625 51.9695 49.4505C52.3283 49.0385 52.5844 48.5413 52.7167 48.0112M52.1261 56.125L62.0036 59.4212L62.0373 59.2975M52.1261 56.125L53.2511 55C54.4652 54.9822 55.6441 54.5893 56.6261 53.875C55.6361 53.875 54.3761 50.5 54.3761 50.5C54.3761 49.2862 53.6485 48.5089 52.7167 48.0112M62.0373 59.2975C61.121 59.012 60.3199 58.4409 59.7512 57.6677C59.1824 56.8946 58.8758 55.9598 58.8761 55M49.8423 20.0912L49.8761 20.125H56.6261C56.6261 16.75 54.3761 16.75 54.3761 16.75M49.8423 20.0912C51.2385 18.8293 52.7573 17.71 54.3761 16.75M49.8423 20.0912C48.0873 21.7112 46.5011 23.725 46.5011 25.75C46.5011 26.9987 48.0086 28 49.8761 28M54.3761 16.75L53.7911 16.4575C53.6153 16.3694 53.4351 16.2905 53.2511 16.2212M39.6161 57.25C39.6948 56.5525 39.7511 56.125 39.7511 56.125L39.7961 56.0913M39.6161 57.25C39.5612 57.6614 39.5021 58.1699 39.4363 58.7354L39.4362 58.7366C39.3941 59.0982 39.3493 59.4835 39.3011 59.8825C38.9861 62.6275 38.6261 66.0925 38.6261 67.375L40.8761 70.75M39.6161 57.25C39.2712 57.2679 38.8904 57.3546 38.4862 57.4977M39.6161 57.25C39.2308 57.2928 38.8521 57.376 38.4862 57.4977M39.7961 56.0913C40.1336 56.485 40.5048 56.8787 40.8761 57.25C41.2473 56.8787 41.6186 56.485 41.9561 56.0913M39.7961 56.0913L40.8761 53.875M41.9561 56.0913L42.0011 56.125C42.0011 56.125 42.0573 56.5525 42.1361 57.25M41.9561 56.0913C43.2282 54.6046 44.3762 53.0177 45.3891 51.3467M42.1361 57.25C42.158 57.4145 42.1806 57.5943 42.204 57.7871M42.1361 57.25C42.5213 57.2928 42.9 57.376 43.2659 57.4977M42.1361 57.25C42.4809 57.2679 42.8617 57.3546 43.2659 57.4977M42.1361 57.25C42.1594 57.4289 42.1821 57.608 42.204 57.7871M42.4511 59.8825C42.7661 62.6275 43.1261 66.0925 43.1261 67.375L40.8761 70.75M42.4511 59.8825C43.4861 60.805 46.0061 63.1112 46.0061 64C46.0061 65.125 45.3761 65.125 45.3761 65.125L46.5011 66.25C46.2819 67.4211 45.9034 68.5566 45.3761 69.625M42.4511 59.8825C42.4028 59.4836 42.358 59.0983 42.316 58.7367C42.2921 58.5316 42.2692 58.3342 42.247 58.1462M40.8761 70.75V59.5C40.8761 59.2016 40.9946 58.9155 41.2056 58.7045C41.4165 58.4935 41.7027 58.375 42.0011 58.375H42.2733C42.2647 58.2987 42.2559 58.2225 42.247 58.1462M39.9423 50.6912L40.8761 51.625M40.8761 51.625L41.8098 50.6912C42.228 50.2735 42.7245 49.9422 43.2707 49.7164C43.817 49.4905 44.4024 49.3745 44.9936 49.375H46.5011M40.8761 51.625L39.9423 52.9412L40.8761 53.875M46.5011 49.375C47.0973 49.3732 47.6685 49.1356 48.0901 48.714C48.5117 48.2925 45.8742 47.4712 45.876 46.875M46.5011 49.375C46.5011 49.375 46.1016 50.1729 45.3891 51.3467M46.5011 49.375C46.1509 50.0442 45.7801 50.7017 45.3891 51.3467M67.8761 55H58.8761M67.8761 55C67.8761 53.8065 67.402 52.6619 66.558 51.818C65.7141 50.9741 64.5695 50.5 63.3761 50.5M67.8761 55H61.7392M67.8761 55C67.8761 55.6427 67.7386 56.2711 67.4799 56.8461M58.8761 55C58.8761 53.8065 59.3502 52.6619 60.1941 51.818C60.5837 51.4284 61.0375 51.1176 61.5306 50.8958M58.8761 55H61.7392M58.8761 55C58.8766 54.1341 59.1273 53.2868 59.5982 52.5601C60.069 51.8334 60.7399 51.2582 61.5299 50.9039M63.3761 50.5C63.2269 50.5 63.0838 50.4407 62.9783 50.3352C62.8728 50.2298 62.8136 50.0867 62.8136 49.9375V49.375H62.2511C62.1019 49.375 61.9588 49.3157 61.8533 49.2102C61.7478 49.1048 61.6886 48.9617 61.6886 48.8125M63.3761 50.5C63.5252 50.5 63.6683 50.4407 63.7738 50.3352C63.8793 50.2298 63.9386 50.0867 63.9386 49.9375V49.375H64.5011C64.6502 49.375 64.7933 49.3157 64.8988 49.2102C65.0043 49.1048 65.0636 48.9617 65.0636 48.8125C65.0636 48.6633 65.0043 48.5202 64.8988 48.4148C64.7933 48.3093 64.6502 48.25 64.5011 48.25H63.9386V47.6875C63.9386 47.5383 63.8793 47.3952 63.7738 47.2898C63.6683 47.1843 63.5252 47.125 63.3761 47.125C63.2269 47.125 63.0838 47.1843 62.9783 47.2898C62.8728 47.3952 62.8136 47.5383 62.8136 47.6875V48.25H62.2511C62.1019 48.25 61.9588 48.3093 61.8533 48.4148C61.7478 48.5202 61.6886 48.6633 61.6886 48.8125M63.3761 50.5C62.7336 50.5 62.1054 50.6374 61.5306 50.8958M45.876 46.875C45.876 46.875 48.8086 47.125 48.9119 47.1285M45.876 46.875C45.9296 46.8757 48.8583 47.1269 48.9119 47.1285M48.7511 38.125V42.625H53.2511C53.2511 44.875 57.7511 47.125 57.7511 47.125C58.8761 46 58.8761 40.375 58.8761 40.375C60.0011 42.625 65.6261 43.75 65.6261 43.75C65.6261 41.5 62.2511 38.125 62.2511 38.125C64.8264 38.7901 67.4675 39.1674 70.1261 39.25C69.0011 37 64.5011 34.75 64.5011 34.75C66.4155 34.7887 68.315 34.4056 70.0649 33.6279C71.8147 32.8502 73.3719 31.697 74.6261 30.25H65.6261C72.3761 29.125 75.7511 22.375 75.7511 22.375L65.6261 25.75C73.5011 21.25 73.5011 15.625 73.5011 15.625L66.7511 20.125C67.7247 18.8618 68.3425 17.3609 68.5403 15.7783C68.7381 14.1957 68.5088 12.589 67.8761 11.125L58.8761 23.5H58.8311M48.7511 38.125H51.0011L53.2511 39.25L55.5011 37H58.8761L57.7511 33.625C60.0011 33.625 60.0011 29.125 60.0011 29.125H56.6261C58.2348 28.315 58.6961 25.1988 58.8311 23.5M48.7511 38.125V35.875M58.8311 23.5C58.8761 22.825 58.8761 22.375 58.8761 22.375L53.2511 28C52.7859 28.445 52.4866 29.0355 52.4027 29.6738C52.3188 30.3121 52.4554 30.9599 52.7898 31.51C52.9513 31.7937 53.1808 32.0328 53.4577 32.2056C53.7347 32.3784 54.0503 32.4796 54.3761 32.5C54.3761 32.5 54.3761 39.25 48.7511 35.875M40.8761 53.875L41.8098 52.9412C42.228 52.5235 42.7245 52.1922 43.2707 51.9664C43.817 51.7405 44.4024 51.6245 44.9936 51.625H45.2186C45.2773 51.5301 45.3341 51.4373 45.3891 51.3467M61.7392 55C62.3019 55.9778 63.2113 56.7085 64.2873 57.0475C64.7206 57.1831 65.1721 57.2514 65.6261 57.25C66.2631 57.2481 66.9003 57.1104 67.4799 56.8461M61.7392 55C61.3389 54.3176 61.1273 53.5411 61.1261 52.75C61.128 52.1129 61.2656 51.4836 61.5299 50.9039M39.1168 20.2908C40.1161 21.4862 40.7086 22.9689 40.8086 24.5238C40.8536 25.2325 40.8761 26.0088 40.8761 26.875M40.8761 26.875V31.375H43.6886M40.8761 26.875C40.8761 26.0088 40.8986 25.2325 40.9436 24.5238C41.0435 22.9689 41.6361 21.4862 42.6353 20.2908C43.6346 19.0953 44.9886 18.2492 46.5011 17.875L44.2511 15.625M53.2511 16.2212C52.3064 15.8276 51.2932 15.6249 50.2698 15.625M53.2511 16.2212V15.625L54.2748 13.1613C54.3406 13.0084 54.375 12.8439 54.3761 12.6775C54.3195 12.2176 54.0856 11.7979 53.7242 11.5079C53.3627 11.2179 52.9023 11.0805 52.4411 11.125H49.5611M49.8761 28C49.8761 28.8951 49.5205 29.7536 48.8875 30.3865C48.2546 31.0194 47.3962 31.375 46.5011 31.375M49.8761 28H47.5833C47.0792 27.9717 46.5867 27.8378 46.1378 27.6068C45.6889 27.3758 45.2935 27.053 44.9775 26.6592C44.6614 26.2655 44.4317 25.8097 44.3033 25.3215C44.1748 24.8332 44.1505 24.3234 44.2319 23.8251C44.4569 21.9464 45.0824 20.0283 46.6721 19.4871C46.9642 19.3677 47.2125 19.1612 47.3832 18.8957C47.5539 18.6302 47.6387 18.3186 47.6261 18.0033C47.6346 17.6826 47.5451 17.3669 47.3694 17.0985C47.1936 16.8301 46.9402 16.6218 46.6428 16.5014L44.2511 15.625M46.5011 31.375V35.375M46.5011 31.375H43.6886M44.2511 15.625H50.2698M50.2698 15.625H48.7511L47.7273 13.1613C47.6616 13.0084 47.6271 12.8439 47.6261 12.6775C47.6826 12.2176 47.9165 11.7979 48.2779 11.5079M44.2061 11.125C44.9491 10.1552 45.3594 8.97159 45.3761 7.75C45.3761 5.8825 44.2511 4.375 40.8761 4.375M44.2061 11.125H44.2511V12.25H37.5011V11.125H37.5461C36.8031 10.1552 36.3927 8.97159 36.3761 7.75M44.2061 11.125C44.5372 10.7951 44.7842 10.3903 44.9261 9.94488C43.1494 9.86131 41.3874 9.58135 39.6723 9.11012C38.9883 8.91474 38.3598 8.56108 37.8378 8.07775C37.3158 7.59443 36.9148 6.99501 36.6674 6.328C36.4718 6.77638 36.3726 7.26083 36.3761 7.75M36.3761 7.75C36.3761 6.31573 37.0396 5.0938 38.8765 4.60406M40.8761 4.375C40.7269 4.375 40.5838 4.31574 40.4783 4.21025C40.3728 4.10476 40.3136 3.96168 40.3136 3.8125V3.25H39.7511C39.6019 3.25 39.4588 3.19074 39.3533 3.08525M40.8761 4.375C41.0252 4.375 41.1683 4.31574 41.2738 4.21025C41.3793 4.10476 41.4386 3.96168 41.4386 3.8125V3.25H42.0011C42.1502 3.25 42.2933 3.19074 42.3988 3.08525C42.5043 2.97976 42.5636 2.83668 42.5636 2.6875C42.5636 2.53832 42.5043 2.39524 42.3988 2.28975C42.2933 2.18426 42.1502 2.125 42.0011 2.125H41.4386V1.5625C41.4386 1.41332 41.3793 1.27024 41.2738 1.16475C41.1683 1.05926 41.0252 1 40.8761 1C40.7269 1 40.5838 1.05926 40.4783 1.16475C40.3728 1.27024 40.3136 1.41332 40.3136 1.5625V2.125H39.7511C39.6019 2.125 39.4588 2.18426 39.3533 2.28975C39.2478 2.39524 39.1886 2.53832 39.1886 2.6875C39.1886 2.83668 39.2478 2.97976 39.3533 3.08525M40.8761 4.375C40.0931 4.375 39.4313 4.45613 38.8765 4.60406M48.2779 11.5079C48.6394 11.2179 49.0998 11.0805 49.5611 11.125M48.2779 11.5079L49.3136 9.4375M49.5611 11.125H51.0011M48.7511 35.875L46.5011 35.375M45.3761 69.625C48.6948 69.625 51.0011 67.6112 51.0011 65.125C51.0011 63.3314 47.1843 59.3863 44.1185 57.8633M45.3761 69.625C45.4414 69.625 45.5067 69.6182 45.572 69.6113C45.6192 69.6064 45.6664 69.6015 45.7136 69.5991C46.5605 69.5578 47.3563 69.1817 47.9259 68.5536C48.4955 67.9255 48.7924 67.0969 48.7511 66.25C48.7511 63.496 45.7563 60.7375 44.6527 59.8218C44.5264 59.7168 44.4249 59.5852 44.3554 59.4364C44.286 59.2876 44.2504 59.1253 44.2511 58.9611V57.9362M61.5299 50.9039L61.5306 50.8958M39.3533 3.08525L38.8765 4.60406M49.3136 9.4375C49.3136 9.28832 49.3728 9.14524 49.4783 9.03975C49.5838 8.93426 49.7269 8.875 49.8761 8.875H50.4386V8.3125C50.4386 8.16332 50.4978 8.02024 50.6033 7.91475C50.7088 7.80926 50.8519 7.75 51.0011 7.75C51.1502 7.75 51.2933 7.80926 51.3988 7.91475C51.5043 8.02024 51.5636 8.16332 51.5636 8.3125V8.875H52.1261C52.2752 8.875 52.4183 8.93426 52.5238 9.03975C52.6293 9.14524 52.6886 9.28832 52.6886 9.4375C52.6886 9.58668 52.6293 9.72976 52.5238 9.83525C52.4183 9.94074 52.2752 10 52.1261 10H51.5636V10.5625C51.5636 10.7117 51.5043 10.8548 51.3988 10.9602C51.2933 11.0657 51.1502 11.125 51.0011 11.125M49.3136 9.4375C49.3136 9.58668 49.3728 9.72976 49.4783 9.83525C49.5838 9.94074 49.7269 10 49.8761 10H50.4386V10.5625C50.4386 10.7117 50.4978 10.8548 50.6033 10.9602C50.7088 11.0657 50.8519 11.125 51.0011 11.125M61.6886 48.8125L61.5306 50.8958M37.0994 59.8218C37.2257 59.7168 37.3273 59.5852 37.3967 59.4364C37.4661 59.2876 37.5018 59.1253 37.5011 58.9611V57.9362C37.545 57.9113 37.5892 57.887 37.6337 57.8633M44.2511 57.9362C44.2377 57.9286 44.2243 57.9211 44.2108 57.9136M44.2511 57.9362L44.2108 57.9136M52.7167 48.0112C51.8195 47.6008 50.8678 47.3342 49.8937 47.207M52.7167 48.0112C51.8082 47.5259 50.7055 47.3064 49.8937 47.207M37.5202 23.8251C37.6016 24.3234 37.5773 24.8332 37.4489 25.3215C37.3204 25.8097 37.0907 26.2655 36.7747 26.6592M38.4862 57.4977C38.1928 57.5952 37.9076 57.7174 37.6337 57.8633M38.4862 57.4977C38.2115 57.5949 37.926 57.7181 37.6337 57.8633M42.247 58.1462C42.2324 58.023 42.2182 57.9038 42.2043 57.7891M42.247 58.1462C42.2331 58.0272 42.2188 57.9081 42.2043 57.7891M42.2043 57.7891L42.204 57.7871M43.2659 57.4977C43.5406 57.5949 43.8262 57.7181 44.1185 57.8633M43.2659 57.4977C43.5593 57.5952 43.8446 57.7174 44.1185 57.8633M44.1185 57.8633C44.1494 57.8798 44.1802 57.8965 44.2108 57.9136M48.9119 47.1285C49.2409 47.1383 49.5685 47.1646 49.8937 47.207M48.9119 47.1285C49.1048 47.135 49.4572 47.1536 49.8937 47.207M46.5011 35.375L45.876 31.375H43.6886" stroke="#282828" stroke-width="1.089"/>
<path d="M24.375 16.75C25.9938 17.71 27.5125 18.8293 28.9088 20.0912L28.875 20.125H22.125C22.125 16.75 24.375 16.75 24.375 16.75ZM53.625 20.125H46.875L46.8413 20.0912C48.2375 18.8293 49.7562 17.71 51.375 16.75C51.375 16.75 53.625 16.75 53.625 20.125Z" fill="#86CBE8"/>
<path d="M37.875 57.25C37.5037 56.8787 37.1325 56.485 36.795 56.0913C35.0319 54.0308 33.5072 51.7778 32.25 49.375H33.7575C34.3486 49.3745 34.934 49.4905 35.4803 49.7164C36.0266 49.9422 36.523 50.2735 36.9412 50.6912L37.875 51.625L38.8088 50.6912C39.227 50.2735 39.7234 49.9422 40.2697 49.7164C40.816 49.4905 41.4014 49.3745 41.9925 49.375H43.5C42.2428 51.7778 40.7181 54.0308 38.955 56.0913C38.6175 56.485 38.2463 56.8787 37.875 57.25Z" fill="#86CBE8"/>
<path d="M32.25 17.875C33.7625 18.2492 35.1165 19.0953 36.1157 20.2908C37.115 21.4862 37.7075 22.9689 37.8075 24.5238C37.8525 25.2325 37.875 26.0088 37.875 26.875V31.375H32.25C31.3549 31.375 30.4964 31.0194 29.8635 30.3865C29.2306 29.7536 28.875 28.8951 28.875 28C30.7425 28 32.25 26.9988 32.25 25.75C32.25 23.725 30.6637 21.7113 28.9088 20.0912C27.5125 18.8293 25.9938 17.71 24.375 16.75L24.96 16.4575C25.1357 16.3694 25.316 16.2905 25.5 16.2212C26.4446 15.8276 27.4579 15.6249 28.4812 15.625H34.5L32.25 17.875ZM50.25 16.2212C50.434 16.2905 50.6143 16.3694 50.79 16.4575L51.375 16.75C49.7562 17.71 48.2375 18.8293 46.8413 20.0912C45.0863 21.7113 43.5 23.725 43.5 25.75C43.5 26.9988 45.0075 28 46.875 28C46.875 28.8951 46.5194 29.7536 45.8865 30.3865C45.2535 31.0194 44.3951 31.375 43.5 31.375H37.875V26.875C37.875 26.0088 37.8975 25.2325 37.9425 24.5238C38.0425 22.9689 38.635 21.4862 39.6343 20.2908C40.6335 19.0953 41.9875 18.2492 43.5 17.875L41.25 15.625H47.2687C48.2921 15.6249 49.3054 15.8276 50.25 16.2212Z" fill="#86CBE8"/>
<path d="M13.2679 51.6059L14.1319 49.8779C14.2647 49.611 14.2862 49.3022 14.1915 49.0195L13.0665 45.6445C13.0198 45.5041 12.9459 45.3744 12.8491 45.2626C12.7523 45.1508 12.6343 45.0591 12.5021 44.9929C12.3698 44.9267 12.2258 44.8871 12.0783 44.8766C11.9308 44.866 11.7826 44.8846 11.6423 44.9312C11.5019 44.9779 11.3721 45.0518 11.2603 45.1487C11.1485 45.2455 11.0569 45.3634 10.9907 45.4957C10.8569 45.7628 10.8347 46.0721 10.929 46.3555L11.9055 49.2884L11.3048 50.5H11.28L16.363 59.5761L16.5 59.5L17.3636 59.2121L13.2679 51.6059Z" fill="#282828"/>
<path d="M17.49 61.8175L16.2975 59.6125L16.363 59.5761L11.28 50.5H9.22687L7.31437 47.6256C7.14878 47.3774 6.89135 47.2051 6.59873 47.1466C6.3061 47.0882 6.00224 47.1484 5.754 47.314C5.50576 47.4796 5.33346 47.737 5.27502 48.0296C5.21658 48.3223 5.27678 48.6261 5.44237 48.8744L7.69238 52.2494C7.79483 52.4029 7.93349 52.5289 8.09613 52.6162C8.25878 52.7035 8.4404 52.7495 8.625 52.75H11.325L18.8805 66.7832C19.0219 67.0461 19.262 67.242 19.5479 67.3279C19.8337 67.4138 20.142 67.3826 20.4049 67.2411C20.6677 67.0997 20.8637 66.8596 20.9495 66.5738C21.0069 66.3826 21.012 66.1815 20.9668 65.9906C21.0012 66.1441 21.0029 66.3044 20.9702 66.4606C20.9175 66.7131 20.7784 66.9393 20.577 67.1005L17.5902 61.7674L17.49 61.8175Z" fill="#282828"/>
<path fill-rule="evenodd" clip-rule="evenodd" d="M41.25 11.125C41.993 10.1552 42.3583 8.97159 42.375 7.75C42.375 5.8825 41.25 4.375 37.875 4.375C35.434 4.375 34.17 5.16355 33.6573 6.30653C33.4612 6.7439 33.375 7.23316 33.375 7.75C33.3917 8.97159 33.757 10.1552 34.5 11.125V12.25H41.25V11.125ZM30 15.625L31.0238 13.1613C31.0895 13.0084 31.1239 12.8439 31.125 12.6775C31.0685 12.2176 30.8346 11.7979 30.4731 11.5079C30.1117 11.2179 29.6513 11.0805 29.19 11.125H26.31C25.8487 11.0805 25.3883 11.2179 25.0269 11.5079C24.6654 11.7979 24.4315 12.2176 24.375 12.6775C24.3761 12.8439 24.4105 13.0084 24.4762 13.1613L25.5 15.625V16.2212C26.4446 15.8276 27.4579 15.6249 28.4812 15.625H30ZM51.2738 13.1613C51.3395 13.0084 51.3739 12.8439 51.375 12.6775C51.3185 12.2176 51.0846 11.7979 50.7231 11.5079C50.3617 11.2179 49.9013 11.0805 49.44 11.125H46.56C46.0987 11.0805 45.6383 11.2179 45.2769 11.5079C44.9154 11.7979 44.6815 12.2176 44.625 12.6775C44.6261 12.8439 44.6605 13.0084 44.7262 13.1613L45.75 15.625H47.2687C48.2921 15.6249 49.3054 15.8276 50.25 16.2212V15.625L51.2738 13.1613ZM19.875 37H23.25L25.5 39.25L27.75 38.125H30V33.625C24.375 37 24.375 32.5 24.375 32.5C24.7008 32.4796 25.0164 32.3784 25.2933 32.2056C25.5702 32.0328 25.7998 31.7937 25.9613 31.51C26.2957 30.9599 26.4322 30.3121 26.3483 29.6738C26.2645 29.0355 25.9652 28.445 25.5 28L19.875 22.375C19.875 22.375 19.875 22.825 19.92 23.5C20.055 25.1987 20.5163 28.315 22.125 29.125H18.75C18.75 29.125 18.75 33.625 21 33.625L19.875 37ZM57 29.125H53.625C55.2337 28.315 55.695 25.1987 55.83 23.5C55.875 22.825 55.875 22.375 55.875 22.375L50.25 28C49.7848 28.445 49.4855 29.0355 49.4017 29.6738C49.3178 30.3121 49.4543 30.9599 49.7887 31.51C49.9502 31.7937 50.1798 32.0328 50.4567 32.2056C50.7336 32.3784 51.0492 32.4796 51.375 32.5C51.375 32.5 51.375 37 45.75 33.625V38.125H48L50.25 39.25L52.5 37H55.875L54.75 33.625C57 33.625 57 29.125 57 29.125ZM64.875 55H58.7381C59.3008 55.9778 60.2103 56.7085 61.2863 57.0475C61.7195 57.1831 62.171 57.2514 62.625 57.25C63.2621 57.2481 63.8914 57.1104 64.4711 56.8461C64.1168 57.6362 63.5416 58.307 62.8149 58.7779C62.0882 59.2487 61.2409 59.4995 60.375 59.5C61.5685 59.5 62.7131 59.0259 63.557 58.182C64.4009 57.3381 64.875 56.1935 64.875 55Z" fill="#86CBE8"/>
<path d="M59.0363 59.2975C59.4695 59.4331 59.921 59.5014 60.375 59.5C61.2409 59.4995 62.0882 59.2487 62.8149 58.7779C63.5416 58.307 64.1168 57.6362 64.4711 56.8461C63.8914 57.1104 63.2621 57.2481 62.625 57.25C62.171 57.2514 61.7195 57.1831 61.2863 57.0475C60.2103 56.7085 59.3008 55.9778 58.7381 55H55.875C55.8747 55.9598 56.1814 56.8946 56.7501 57.6677C57.3188 58.4409 58.1199 59.012 59.0363 59.2975Z" fill="#86CBE8"/>
<path fill-rule="evenodd" clip-rule="evenodd" d="M36.4351 58.7366L36.4352 58.7354C36.501 58.1699 36.5601 57.6614 36.615 57.25C36.2701 57.2679 35.8893 57.3546 35.4851 57.4977C35.1917 57.5952 34.9065 57.7174 34.6326 57.8633C31.5668 59.3862 27.75 63.3314 27.75 65.125C27.75 67.6113 30.0562 69.625 33.375 69.625C32.8477 68.5566 32.4692 67.4211 32.25 66.25L33.375 65.125C33.375 65.125 32.745 65.125 32.745 64C32.745 63.1113 35.265 60.805 36.3 59.8825C36.3482 59.4835 36.393 59.0982 36.4351 58.7366ZM39.2459 58.1462C39.2314 58.023 39.2171 57.9038 39.2032 57.7891C39.2178 57.9081 39.232 58.0272 39.2459 58.1462ZM39.203 57.7871C39.1795 57.5943 39.1569 57.4145 39.135 57.25L39.203 57.7871ZM39.135 57.25C39.5202 57.2928 39.8989 57.376 40.2648 57.4977C40.5396 57.5949 40.8251 57.7181 41.1175 57.8633C41.1484 57.8798 41.1792 57.8965 41.2098 57.9136C41.2232 57.9211 41.2366 57.9286 41.25 57.9362V58.9611C41.2493 59.1253 41.2849 59.2876 41.3544 59.4364C41.4238 59.5852 41.5253 59.7168 41.6516 59.8218C42.7552 60.7375 45.75 63.496 45.75 66.25C45.7913 67.0969 45.4945 67.9255 44.9248 68.5536C44.3552 69.1817 43.5594 69.5578 42.7125 69.5991C42.6653 69.6015 42.6181 69.6064 42.571 69.6113C42.5056 69.6182 42.4403 69.625 42.375 69.625" fill="#86CBE8"/>
<path fill-rule="evenodd" clip-rule="evenodd" d="M39.203 57.7871C39.1795 57.5943 39.1569 57.4145 39.135 57.25C39.1584 57.4289 39.181 57.608 39.203 57.7871ZM39.2032 57.7891C39.2171 57.9038 39.2314 58.023 39.2459 58.1462C39.2548 58.2225 39.2636 58.2987 39.2723 58.375H39C38.7016 58.375 38.4155 58.4935 38.2045 58.7045C37.9935 58.9155 37.875 59.2016 37.875 59.5V70.75L40.125 67.375C40.125 66.0925 39.765 62.6275 39.45 59.8825C39.4018 59.4836 39.357 59.0983 39.3149 58.7367C39.2911 58.5316 39.2681 58.3342 39.2459 58.1462C39.232 58.0272 39.2178 57.9081 39.2032 57.7891Z" fill="#86CBE8"/>
<path fill-rule="evenodd" clip-rule="evenodd" d="M25.5 55L26.625 56.125L28.875 55C28.875 55 30 57.25 32.25 55C32.25 55 28.875 49.375 32.25 49.375C31.6538 49.3732 31.0825 49.1356 30.661 48.714C30.2394 48.2925 30.0018 47.7212 30 47.125C30 47.125 29.9384 47.125 29.828 47.1289C29.5151 47.1386 29.2033 47.1633 28.8937 47.2027C27.2553 47.398 24.375 48.0849 24.375 50.5C24.375 50.5 23.1038 53.875 22.125 53.875C23.107 54.5893 24.2859 54.9822 25.5 55ZM45.75 47.125C45.75 47.125 45.8075 47.125 45.9109 47.1285C45.8573 47.1269 45.8037 47.1257 45.75 47.125ZM45.9109 47.1285C46.2398 47.1383 46.5675 47.1646 46.8927 47.207C46.6753 47.1805 46.6663 47.1759 46.5 47.1638C46.3323 47.1515 46.0077 47.1318 45.9109 47.1285ZM46.875 55L49.125 56.125L50.25 55C51.4641 54.9822 52.643 54.5893 53.625 53.875C52.635 53.875 51.375 50.5 51.375 50.5C51.375 48.1027 48.537 47.4082 46.8927 47.207C47.8667 47.3342 48.8184 47.6067 49.7156 48.0171C49.5833 48.5472 49.3273 49.0385 48.9684 49.4505C48.6096 49.8625 48.1582 50.1836 47.6512 50.3875C47.4183 50.4697 47.2175 50.6239 47.078 50.8278C46.9384 51.0316 46.8674 51.2746 46.875 51.5215V55ZM27.75 38.125L25.5 39.25L23.25 37H19.875L21 33.625C18.75 33.625 18.75 29.125 18.75 29.125H22.125C20.5163 28.315 20.055 25.1987 19.92 23.5H19.875L10.875 11.125C10.2423 12.589 10.0129 14.1957 10.2107 15.7783C10.4086 17.3609 11.0264 18.8618 12 20.125L5.25 15.625C5.25 15.625 5.25 21.25 13.125 25.75L3 22.375C3 22.375 6.375 29.125 13.125 30.25H4.125C5.37917 31.697 6.9364 32.8502 8.68621 33.6279C10.436 34.4056 12.3355 34.7887 14.25 34.75C14.25 34.75 9.75 37 8.625 39.25C11.2835 39.1674 13.9247 38.7901 16.5 38.125C16.5 38.125 13.125 41.5 13.125 43.75C13.125 43.75 18.75 42.625 19.875 40.375C19.875 40.375 19.875 46 21 47.125C21 47.125 25.5 44.875 25.5 42.625H30V38.125H27.75ZM48 38.125H45.75V42.625H46.5234H46.875H50.25C50.25 44.875 54.75 47.125 54.75 47.125C55.875 46 55.875 40.375 55.875 40.375C57 42.625 62.625 43.75 62.625 43.75C62.625 41.5 59.25 38.125 59.25 38.125C61.8253 38.7901 64.4665 39.1674 67.125 39.25C66 37 61.5 34.75 61.5 34.75C63.4145 34.7887 65.314 34.4056 67.0638 33.6279C68.8136 32.8502 70.3708 31.697 71.625 30.25H62.625C69.375 29.125 72.75 22.375 72.75 22.375L62.625 25.75C70.5 21.25 70.5 15.625 70.5 15.625L63.75 20.125C64.7236 18.8618 65.3414 17.3609 65.5393 15.7783C65.7371 14.1957 65.5077 12.589 64.875 11.125L55.875 23.5H55.83C55.695 25.1987 55.2337 28.315 53.625 29.125H57C57 29.125 57 33.625 54.75 33.625L55.875 37H52.5L50.25 39.25L48 38.125Z" fill="#86CBE8"/>
<path d="M43.5 49.375C46.875 49.375 43.5 55 43.5 55C45.75 57.25 46.875 55 46.875 55V51.5215C46.8674 51.2746 46.9384 51.0316 47.078 50.8278C47.2175 50.6239 47.4183 50.4697 47.6512 50.3875C48.1582 50.1836 48.6096 49.8625 48.9684 49.4505C49.3273 49.0385 49.5833 48.5472 49.7156 48.0171C48.8184 47.6067 47.8667 47.3342 46.8927 47.207C46.6753 47.1805 46.6663 47.1759 46.5 47.1638C46.3323 47.1515 46.0077 47.1318 45.9109 47.1285C45.8573 47.1269 45.8037 47.1257 45.75 47.125C45.7482 47.7212 45.5106 48.2925 45.089 48.714C44.6675 49.1356 44.0962 49.3732 43.5 49.375Z" fill="#86CBE8"/>
<path d="M36.75 56.125C36.75 56.125 36.6937 56.5525 36.615 57.25C36.5601 57.6614 36.501 58.1699 36.4352 58.7354L36.4351 58.7366C36.393 59.0982 36.3482 59.4835 36.3 59.8825C35.985 62.6275 35.625 66.0925 35.625 67.375L37.875 70.75V59.5C37.875 59.2016 37.9935 58.9155 38.2045 58.7045C38.4155 58.4935 38.7016 58.375 39 58.375H39.2723C39.2636 58.2987 39.2548 58.2225 39.2459 58.1462C39.2314 58.023 39.2171 57.9038 39.2032 57.7891L39.203 57.7871C39.181 57.608 39.1584 57.4289 39.135 57.25C39.0562 56.5525 39 56.125 39 56.125L38.955 56.0913C38.6175 56.485 38.2463 56.8787 37.875 57.25C37.5037 56.8787 37.1325 56.485 36.795 56.0913L36.75 56.125Z" fill="#86CBE8"/>
<path d="M55.875 55H58.7381C58.3378 54.3176 58.1262 53.5411 58.125 52.75C58.1269 52.1129 58.2646 51.4836 58.5289 50.9039C57.7388 51.2582 57.068 51.8334 56.5971 52.5601C56.1263 53.2868 55.8755 54.1341 55.875 55Z" fill="#86CBE8"/>
<path d="M42.375 69.625C45.6937 69.625 48 67.6113 48 65.125C48 63.3314 44.1833 59.3863 41.1175 57.8633C41.1484 57.8798 41.1792 57.8965 41.2098 57.9136L41.25 57.9362V58.9611C41.2493 59.1253 41.2849 59.2876 41.3544 59.4364C41.4238 59.5852 41.5253 59.7168 41.6516 59.8218C42.7552 60.7375 45.75 63.496 45.75 66.25C45.7913 67.0969 45.4945 67.9255 44.9248 68.5536C44.3552 69.1817 43.5594 69.5578 42.7125 69.5991C42.6653 69.6015 42.6181 69.6064 42.571 69.6113C42.5056 69.6182 42.4403 69.625 42.375 69.625Z" fill="#86CBE8"/>
<path d="M61.5 48.25H60.9375V47.6875C60.9375 47.5383 60.8782 47.3952 60.7727 47.2898C60.6673 47.1843 60.5242 47.125 60.375 47.125C60.2258 47.125 60.0827 47.1843 59.9773 47.2898C59.8718 47.3952 59.8125 47.5383 59.8125 47.6875V48.25H59.25C59.1008 48.25 58.9577 48.3093 58.8523 48.4148C58.7468 48.5202 58.6875 48.6633 58.6875 48.8125C58.6875 48.9617 58.7468 49.1048 58.8523 49.2102C58.9577 49.3157 59.1008 49.375 59.25 49.375H59.8125V49.9375C59.8125 50.0867 59.8718 50.2298 59.9773 50.3352C60.0827 50.4407 60.2258 50.5 60.375 50.5C60.5242 50.5 60.6673 50.4407 60.7727 50.3352C60.8782 50.2298 60.9375 50.0867 60.9375 49.9375V49.375H61.5C61.6492 49.375 61.7923 49.3157 61.8977 49.2102C62.0032 49.1048 62.0625 48.9617 62.0625 48.8125C62.0625 48.6633 62.0032 48.5202 61.8977 48.4148C61.7923 48.3093 61.6492 48.25 61.5 48.25Z" fill="#282828"/>
<path d="M49.125 8.875H48.5625V8.3125C48.5625 8.16332 48.5032 8.02024 48.3977 7.91475C48.2923 7.80926 48.1492 7.75 48 7.75C47.8508 7.75 47.7077 7.80926 47.6023 7.91475C47.4968 8.02024 47.4375 8.16332 47.4375 8.3125V8.875H46.875C46.7258 8.875 46.5827 8.93426 46.4773 9.03975C46.3718 9.14524 46.3125 9.28832 46.3125 9.4375C46.3125 9.58668 46.3718 9.72976 46.4773 9.83525C46.5827 9.94074 46.7258 10 46.875 10H47.4375V10.5625C47.4375 10.7117 47.4968 10.8548 47.6023 10.9602C47.7077 11.0657 47.8508 11.125 48 11.125C48.1492 11.125 48.2923 11.0657 48.3977 10.9602C48.5032 10.8548 48.5625 10.7117 48.5625 10.5625V10H49.125C49.2742 10 49.4173 9.94074 49.5227 9.83525C49.6282 9.72976 49.6875 9.58668 49.6875 9.4375C49.6875 9.28832 49.6282 9.14524 49.5227 9.03975C49.4173 8.93426 49.2742 8.875 49.125 8.875Z" fill="#282828"/>
<path d="M39 2.125H38.4375V1.5625C38.4375 1.41332 38.3782 1.27024 38.2727 1.16475C38.1673 1.05926 38.0242 1 37.875 1C37.7258 1 37.5827 1.05926 37.4773 1.16475C37.3718 1.27024 37.3125 1.41332 37.3125 1.5625V2.125H36.75C36.6008 2.125 36.4577 2.18426 36.3523 2.28975C36.2468 2.39524 36.1875 2.53832 36.1875 2.6875C36.1875 2.83668 36.2468 2.97976 36.3523 3.08525C36.4577 3.19074 36.6008 3.25 36.75 3.25H37.3125V3.8125C37.3125 3.96168 37.3718 4.10476 37.4773 4.21025C37.5827 4.31574 37.7258 4.375 37.875 4.375C38.0242 4.375 38.1673 4.31574 38.2727 4.21025C38.3782 4.10476 38.4375 3.96168 38.4375 3.8125V3.25H39C39.1492 3.25 39.2923 3.19074 39.3977 3.08525C39.5032 2.97976 39.5625 2.83668 39.5625 2.6875C39.5625 2.53832 39.5032 2.39524 39.3977 2.28975C39.2923 2.18426 39.1492 2.125 39 2.125Z" fill="#282828"/>
<path fill-rule="evenodd" clip-rule="evenodd" d="M64.875 55H58.7381C58.3378 54.3176 58.1262 53.5411 58.125 52.75C58.1269 52.1129 58.2646 51.4836 58.5289 50.9039C57.7388 51.2582 57.068 51.8334 56.5971 52.5601C56.1263 53.2868 55.8755 54.1341 55.875 55C55.875 53.8065 56.3491 52.6619 57.193 51.818C58.0369 50.9741 59.1815 50.5 60.375 50.5C61.5685 50.5 62.7131 50.9741 63.557 51.818C64.4009 52.6619 64.875 53.8065 64.875 55Z" fill="#86CBE8"/>
<path d="M28.875 8.875H28.3125V8.3125C28.3125 8.16332 28.2532 8.02024 28.1477 7.91475C28.0423 7.80926 27.8992 7.75 27.75 7.75C27.6008 7.75 27.4577 7.80926 27.3523 7.91475C27.2468 8.02024 27.1875 8.16332 27.1875 8.3125V8.875H26.625C26.4758 8.875 26.3327 8.93426 26.2273 9.03975C26.1218 9.14524 26.0625 9.28832 26.0625 9.4375C26.0625 9.58668 26.1218 9.72976 26.2273 9.83525C26.3327 9.94074 26.4758 10 26.625 10H27.1875V10.5625C27.1875 10.7117 27.2468 10.8548 27.3523 10.9602C27.4577 11.0657 27.6008 11.125 27.75 11.125C27.8992 11.125 28.0423 11.0657 28.1477 10.9602C28.2532 10.8548 28.3125 10.7117 28.3125 10.5625V10H28.875C29.0242 10 29.1673 9.94074 29.2727 9.83525C29.3782 9.72976 29.4375 9.58668 29.4375 9.4375C29.4375 9.28832 29.3782 9.14524 29.2727 9.03975C29.1673 8.93426 29.0242 8.875 28.875 8.875Z" fill="#282828"/>
<path fill-rule="evenodd" clip-rule="evenodd" d="M36.1157 20.2908C37.115 21.4862 37.7075 22.9689 37.8075 24.5238C37.8525 25.2325 37.875 26.0088 37.875 26.875C37.875 26.0088 37.8975 25.2325 37.9425 24.5238C38.0425 22.9689 38.635 21.4862 39.6343 20.2908C40.6335 19.0953 41.9875 18.2492 43.5 17.875L41.25 15.625L43.6418 16.5014C43.9391 16.6218 44.1926 16.8301 44.3683 17.0985C44.544 17.3669 44.6336 17.6826 44.625 18.0033C44.6376 18.3186 44.5528 18.6302 44.3821 18.8957C44.2114 19.1612 43.9632 19.3677 43.671 19.4871C42.0814 20.0282 41.4559 21.9464 41.2309 23.8251C41.1495 24.3234 41.1738 24.8332 41.3022 25.3215C41.4306 25.8097 41.6604 26.2655 41.9764 26.6592C42.2925 27.053 42.6878 27.3758 43.1367 27.6068C43.5857 27.8378 44.0782 27.9717 44.5823 28H46.875C46.875 28.8951 46.5194 29.7536 45.8865 30.3865C45.2535 31.0194 44.3951 31.375 43.5 31.375H37.875H32.25C31.3549 31.375 30.4964 31.0194 29.8635 30.3865C29.2306 29.7536 28.875 28.8951 28.875 28H31.1677C31.6718 27.9717 32.1643 27.8378 32.6133 27.6068C33.0622 27.3758 33.4575 27.053 33.7736 26.6592C34.0897 26.2655 34.3194 25.8097 34.4478 25.3215C34.5762 24.8332 34.6005 24.3234 34.5191 23.8251C34.2986 21.9464 33.6686 20.0282 32.079 19.4871C31.7868 19.3677 31.5386 19.1612 31.3679 18.8957C31.1972 18.6302 31.1124 18.3186 31.125 18.0033C31.1164 17.6826 31.206 17.3669 31.3817 17.0985C31.5574 16.8301 31.8109 16.6218 32.1082 16.5014L34.5 15.625L32.25 17.875C33.7625 18.2492 35.1165 19.0953 36.1157 20.2908ZM36.6712 9.11012C38.3863 9.58135 40.1483 9.86131 41.925 9.94488C41.7831 10.3903 41.5812 10.7951 41.25 11.125V12.25H34.5V11.125C33.757 10.1552 33.3917 8.97159 33.375 7.75C33.3715 7.26083 33.4618 6.75491 33.6573 6.30653C33.9047 6.97354 34.3147 7.59443 34.8367 8.07775C35.3587 8.56108 35.9872 8.91474 36.6712 9.11012ZM18.5765 61.4646L20.8661 65.7168C20.9119 65.8038 20.9456 65.896 20.9668 65.9906C21.0012 66.1441 21.0029 66.3044 20.9702 66.4606C20.9175 66.7131 20.7784 66.9393 20.577 67.1005L17.5902 61.7674L17.625 61.75L18.5765 61.4646ZM17.3636 59.2121L18.5765 61.4646L28.875 58.375V55L26.625 56.125L17.3636 59.2121ZM16.363 59.5761L16.2975 59.6125L17.49 61.8175L17.5902 61.7674L16.363 59.5761ZM37.875 53.875L36.9412 52.9412C36.0969 52.0978 34.9521 51.6244 33.7586 51.625H33.5336C32.7135 50.3009 32.25 49.375 32.25 49.375H33.7575C34.3486 49.3745 34.934 49.4905 35.4803 49.7164C36.0266 49.9422 36.523 50.2735 36.9412 50.6912L37.875 51.625L38.8088 50.6912C39.227 50.2735 39.7234 49.9422 40.2697 49.7164C40.816 49.4905 41.4014 49.3745 41.9925 49.375H43.5C43.5 49.375 43.0365 50.3009 42.2175 51.625H41.9925C41.4014 51.6245 40.816 51.7405 40.2697 51.9664C39.7234 52.1922 39.227 52.5235 38.8088 52.9412L37.875 53.875ZM58.125 61.75L60.375 59.5C59.921 59.5014 59.4695 59.4331 59.0363 59.2975L59.0025 59.4212L49.125 56.125L46.875 55V58.375L58.125 61.75Z" fill="#86CBE8"/>
<path d="M16.5 59.5L16.363 59.5761L17.5902 61.7674L17.625 61.75L18.5765 61.4646L17.3636 59.2121L16.5 59.5Z" fill="#282828"/>
<path d="M26.625 56.125L28.875 55M26.625 56.125L25.5 55C24.2859 54.9822 23.107 54.5893 22.125 53.875C23.1037 53.875 24.375 50.5 24.375 50.5C24.375 48.0849 27.2553 47.398 28.8937 47.2027M26.625 56.125L17.3636 59.2121M28.875 55V58.375L18.5765 61.4646M28.875 55C28.875 55 30 57.25 32.25 55C32.25 55 28.875 49.375 32.25 49.375M28.875 55V51.5215C28.8826 51.2746 28.8116 51.0316 28.672 50.8278C28.5325 50.6239 28.3317 50.4697 28.0987 50.3875C27.5919 50.1838 27.1406 49.8628 26.7818 49.451C26.423 49.0392 26.1668 48.5482 26.0344 48.0182C26.9427 47.6024 27.907 47.328 28.8937 47.2027M60.375 59.5L58.125 61.75L46.875 58.375V55M60.375 59.5C59.921 59.5014 59.4695 59.4331 59.0363 59.2975M60.375 59.5C61.2409 59.4995 62.0882 59.2487 62.8149 58.7779C63.5416 58.307 64.1168 57.6362 64.4711 56.8461C63.8914 57.1104 63.2621 57.2481 62.625 57.25C62.171 57.2514 61.7195 57.1831 61.2863 57.0475C60.2103 56.7085 59.3008 55.9778 58.7381 55M60.375 59.5C61.5685 59.5 62.7131 59.0259 63.557 58.182C64.4009 57.3381 64.875 56.1935 64.875 55M46.875 55L49.125 56.125M46.875 55C46.875 55 45.75 57.25 43.5 55C43.5 55 46.875 49.375 43.5 49.375M46.875 55V51.5215C46.8674 51.2746 46.9384 51.0316 47.078 50.8278C47.2175 50.6239 47.4183 50.4697 47.6512 50.3875C48.1582 50.1836 48.6096 49.8625 48.9684 49.4505C49.3273 49.0385 49.5833 48.5472 49.7156 48.0171C48.8184 47.6067 47.8667 47.3342 46.8927 47.207M49.125 56.125L59.0025 59.4212L59.0363 59.2975M49.125 56.125L50.25 55C51.4641 54.9822 52.643 54.5893 53.625 53.875C52.635 53.875 51.375 50.5 51.375 50.5C51.375 48.1027 48.537 47.4082 46.8927 47.207M59.0363 59.2975C58.1199 59.012 57.3188 58.4409 56.7501 57.6677C56.1814 56.8946 55.8747 55.9598 55.875 55M24.375 16.75C25.9938 17.71 27.5125 18.8293 28.9088 20.0912M24.375 16.75C24.375 16.75 22.125 16.75 22.125 20.125H28.875L28.9088 20.0912M24.375 16.75L24.96 16.4575C25.1357 16.3694 25.316 16.2905 25.5 16.2212M28.9088 20.0912C30.6638 21.7112 32.25 23.725 32.25 25.75C32.25 26.9987 30.7425 28 28.875 28M46.8413 20.0912L46.875 20.125H53.625C53.625 16.75 51.375 16.75 51.375 16.75M46.8413 20.0912C48.2375 18.8293 49.7562 17.71 51.375 16.75M46.8413 20.0912C45.0863 21.7112 43.5 23.725 43.5 25.75C43.5 26.9987 45.0075 28 46.875 28M51.375 16.75L50.79 16.4575C50.6143 16.3694 50.434 16.2905 50.25 16.2212M36.3 59.8825C35.985 62.6275 35.625 66.0925 35.625 67.375L37.875 70.75M36.3 59.8825C35.265 60.805 32.745 63.1112 32.745 64C32.745 65.125 33.375 65.125 33.375 65.125L32.25 66.25C32.4692 67.4211 32.8477 68.5566 33.375 69.625M36.3 59.8825C36.3482 59.4835 36.393 59.0982 36.4351 58.7366L36.4352 58.7354C36.501 58.1699 36.5601 57.6614 36.615 57.25M36.615 57.25C36.6937 56.5525 36.75 56.125 36.75 56.125L36.795 56.0913M36.615 57.25C36.2701 57.2679 35.8893 57.3546 35.4851 57.4977M36.615 57.25C36.2297 57.2928 35.8511 57.376 35.4851 57.4977M36.795 56.0913C37.1325 56.485 37.5037 56.8787 37.875 57.25C38.2463 56.8787 38.6175 56.485 38.955 56.0913M36.795 56.0913C35.0319 54.0308 33.5072 51.7778 32.25 49.375M38.955 56.0913L39 56.125C39 56.125 39.0562 56.5525 39.135 57.25M38.955 56.0913C40.7181 54.0308 42.2428 51.7778 43.5 49.375M39.135 57.25C39.1569 57.4145 39.1795 57.5943 39.203 57.7871M39.135 57.25C39.5202 57.2928 39.8989 57.376 40.2648 57.4977M39.135 57.25C39.4799 57.2679 39.8607 57.3546 40.2648 57.4977M39.135 57.25C39.1584 57.4289 39.181 57.608 39.203 57.7871M39.45 59.8825C39.765 62.6275 40.125 66.0925 40.125 67.375L37.875 70.75M39.45 59.8825C40.485 60.805 43.005 63.1112 43.005 64C43.005 65.125 42.375 65.125 42.375 65.125L43.5 66.25C43.2808 67.4211 42.9023 68.5566 42.375 69.625M39.45 59.8825C39.4018 59.4836 39.357 59.0983 39.3149 58.7367C39.2911 58.5316 39.2681 58.3342 39.2459 58.1462M37.875 70.75V59.5C37.875 59.2016 37.9935 58.9155 38.2045 58.7045C38.4155 58.4935 38.7016 58.375 39 58.375H39.2723C39.2636 58.2987 39.2548 58.2225 39.2459 58.1462M32.25 49.375H33.7575C34.3486 49.3745 34.934 49.4905 35.4803 49.7164C36.0266 49.9422 36.523 50.2735 36.9412 50.6912L37.875 51.625L38.8088 50.6912C39.227 50.2735 39.7234 49.9422 40.2697 49.7164C40.816 49.4905 41.4014 49.3745 41.9925 49.375H43.5M32.25 49.375C31.6538 49.3732 31.0825 49.1356 30.661 48.714C30.2394 48.2925 30.0018 47.7212 30 47.125M32.25 49.375C32.25 49.375 32.7135 50.3009 33.5336 51.625H33.7586C34.9521 51.6244 36.0969 52.0978 36.9412 52.9412L37.875 53.875L38.8088 52.9412C39.227 52.5235 39.7234 52.1922 40.2697 51.9664C40.816 51.7405 41.4014 51.6245 41.9925 51.625H42.2175C43.0365 50.3009 43.5 49.375 43.5 49.375M43.5 49.375C44.0962 49.3732 44.6675 49.1356 45.089 48.714C45.5106 48.2925 45.7482 47.7212 45.75 47.125M64.875 55H55.875M64.875 55C64.875 53.8065 64.4009 52.6619 63.557 51.818C62.7131 50.9741 61.5685 50.5 60.375 50.5M64.875 55H58.7381M55.875 55C55.875 53.8065 56.3491 52.6619 57.193 51.818C58.0369 50.9741 59.1815 50.5 60.375 50.5M55.875 55H58.7381M55.875 55C55.8755 54.1341 56.1263 53.2868 56.5971 52.5601C57.068 51.8334 57.7388 51.2582 58.5289 50.9039C58.2646 51.4836 58.1269 52.1129 58.125 52.75C58.1262 53.5411 58.3378 54.3176 58.7381 55M60.375 50.5C60.2258 50.5 60.0827 50.4407 59.9773 50.3352C59.8718 50.2298 59.8125 50.0867 59.8125 49.9375V49.375H59.25C59.1008 49.375 58.9577 49.3157 58.8523 49.2102C58.7468 49.1048 58.6875 48.9617 58.6875 48.8125C58.6875 48.6633 58.7468 48.5202 58.8523 48.4148C58.9577 48.3093 59.1008 48.25 59.25 48.25H59.8125V47.6875C59.8125 47.5383 59.8718 47.3952 59.9773 47.2898C60.0827 47.1843 60.2258 47.125 60.375 47.125C60.5242 47.125 60.6673 47.1843 60.7727 47.2898C60.8782 47.3952 60.9375 47.5383 60.9375 47.6875V48.25H61.5C61.6492 48.25 61.7923 48.3093 61.8977 48.4148C62.0032 48.5202 62.0625 48.6633 62.0625 48.8125C62.0625 48.9617 62.0032 49.1048 61.8977 49.2102C61.7923 49.3157 61.6492 49.375 61.5 49.375H60.9375V49.9375C60.9375 50.0867 60.8782 50.2298 60.7727 50.3352C60.6673 50.4407 60.5242 50.5 60.375 50.5ZM30 47.125C30 47.125 29.9384 47.125 29.828 47.1289M30 47.125C29.9426 47.1258 29.8853 47.1271 29.828 47.1289M45.75 47.125C45.75 47.125 45.8075 47.125 45.9109 47.1285M45.75 47.125C45.8037 47.1257 45.8573 47.1269 45.9109 47.1285M45.75 47.125V42.625M30 38.125H27.75L25.5 39.25L23.25 37H19.875L21 33.625C18.75 33.625 18.75 29.125 18.75 29.125H22.125C20.5163 28.315 20.055 25.1988 19.92 23.5M30 38.125V42.625H25.5C25.5 44.875 21 47.125 21 47.125C19.875 46 19.875 40.375 19.875 40.375C18.75 42.625 13.125 43.75 13.125 43.75C13.125 41.5 16.5 38.125 16.5 38.125C13.9247 38.7901 11.2835 39.1674 8.625 39.25C9.75 37 14.25 34.75 14.25 34.75C12.3355 34.7887 10.436 34.4056 8.68621 33.6279C6.9364 32.8502 5.37917 31.697 4.125 30.25H13.125C6.375 29.125 3 22.375 3 22.375L13.125 25.75C5.25 21.25 5.25 15.625 5.25 15.625L12 20.125C11.0264 18.8618 10.4086 17.3609 10.2107 15.7783C10.0129 14.1957 10.2423 12.589 10.875 11.125L19.875 23.5H19.92M30 38.125V33.625C24.375 37 24.375 32.5 24.375 32.5C24.7008 32.4796 25.0164 32.3784 25.2933 32.2056C25.5702 32.0328 25.7998 31.7937 25.9613 31.51C26.2957 30.9599 26.4322 30.3121 26.3483 29.6738C26.2645 29.0355 25.9652 28.445 25.5 28L19.875 22.375C19.875 22.375 19.875 22.825 19.92 23.5M45.75 42.625V38.125M45.75 42.625H46.5234M45.75 38.125H48L50.25 39.25L52.5 37H55.875L54.75 33.625C57 33.625 57 29.125 57 29.125H53.625C55.2337 28.315 55.695 25.1988 55.83 23.5M45.75 38.125V33.625C51.375 37 51.375 32.5 51.375 32.5C51.0492 32.4796 50.7336 32.3784 50.4567 32.2056C50.1798 32.0328 49.9502 31.7937 49.7887 31.51C49.4543 30.9599 49.3178 30.3121 49.4017 29.6738C49.4855 29.0355 49.7848 28.445 50.25 28L55.875 22.375C55.875 22.375 55.875 22.825 55.83 23.5M55.83 23.5H55.875L64.875 11.125C65.5077 12.589 65.7371 14.1957 65.5393 15.7783C65.3414 17.3609 64.7236 18.8618 63.75 20.125L70.5 15.625C70.5 15.625 70.5 21.25 62.625 25.75L72.75 22.375C72.75 22.375 69.375 29.125 62.625 30.25H71.625C70.3708 31.697 68.8136 32.8502 67.0638 33.6279C65.314 34.4056 63.4145 34.7887 61.5 34.75C61.5 34.75 66 37 67.125 39.25C64.4665 39.1674 61.8253 38.7901 59.25 38.125C59.25 38.125 62.625 41.5 62.625 43.75C62.625 43.75 57 42.625 55.875 40.375C55.875 40.375 55.875 46 54.75 47.125C54.75 47.125 50.25 44.875 50.25 42.625H46.875H46.5234M20.8661 65.7168H20.8628C20.9096 65.8039 20.9444 65.896 20.9668 65.9906M20.8661 65.7168C20.9119 65.8038 20.9456 65.896 20.9668 65.9906M20.8661 65.7168L18.5765 61.4646M11.3048 50.5L11.9055 49.2884L10.929 46.3555C10.8347 46.0721 10.8569 45.7628 10.9907 45.4957C11.0569 45.3634 11.1485 45.2455 11.2603 45.1487C11.3721 45.0518 11.5019 44.9779 11.6423 44.9312C11.7826 44.8846 11.9308 44.866 12.0783 44.8766C12.2258 44.8871 12.3698 44.9267 12.5021 44.9929C12.6343 45.0591 12.7523 45.1508 12.8491 45.2626C12.9459 45.3744 13.0198 45.5041 13.0665 45.6445L14.1915 49.0195C14.2862 49.3022 14.2647 49.611 14.1319 49.8779L13.2679 51.6059L17.3636 59.2121M11.3048 50.5H9.22687M11.3048 50.5H11.28M9.22687 50.5L7.31437 47.6256C7.14878 47.3774 6.89135 47.2051 6.59873 47.1466C6.3061 47.0882 6.00224 47.1484 5.754 47.314C5.50576 47.4796 5.33346 47.737 5.27502 48.0296C5.21658 48.3223 5.27678 48.6261 5.44237 48.8744L7.69238 52.2494C7.79483 52.4029 7.93349 52.5289 8.09613 52.6162C8.25878 52.7035 8.44041 52.7495 8.625 52.75H11.325L18.8805 66.7832C19.0219 67.0461 19.262 67.242 19.5479 67.3279C19.8337 67.4138 20.142 67.3826 20.4049 67.2411C20.6677 67.0997 20.8637 66.8596 20.9495 66.5738C21.0069 66.3826 21.012 66.1815 20.9668 65.9906M9.22687 50.5H11.28M37.875 26.875C37.875 26.0088 37.8525 25.2325 37.8075 24.5238C37.7075 22.9689 37.115 21.4862 36.1157 20.2908C35.1165 19.0953 33.7625 18.2492 32.25 17.875L34.5 15.625M37.875 26.875V31.375M37.875 26.875C37.875 26.0088 37.8975 25.2325 37.9425 24.5238C38.0425 22.9689 38.635 21.4862 39.6343 20.2908C40.6335 19.0953 41.9875 18.2492 43.5 17.875L41.25 15.625M37.875 31.375H32.25C31.3549 31.375 30.4964 31.0194 29.8635 30.3865C29.2306 29.7536 28.875 28.8951 28.875 28M37.875 31.375H43.5C44.3951 31.375 45.2535 31.0194 45.8865 30.3865C46.5194 29.7536 46.875 28.8951 46.875 28M28.875 28H31.1677C31.6718 27.9717 32.1643 27.8378 32.6133 27.6068C33.0622 27.3758 33.4575 27.053 33.7736 26.6592C34.0897 26.2655 34.3194 25.8097 34.4478 25.3215C34.5762 24.8332 34.6005 24.3234 34.5191 23.8251C34.2986 21.9464 33.6686 20.0283 32.079 19.4871C31.7868 19.3677 31.5386 19.1612 31.3679 18.8957C31.1972 18.6302 31.1124 18.3186 31.125 18.0033C31.1164 17.6826 31.206 17.3669 31.3817 17.0985C31.5574 16.8301 31.8109 16.6218 32.1082 16.5014L34.5 15.625M25.5 16.2212C26.4446 15.8276 27.4579 15.6249 28.4812 15.625M25.5 16.2212V15.625L24.4762 13.1613C24.4105 13.0084 24.3761 12.8439 24.375 12.6775C24.4315 12.2176 24.6654 11.7979 25.0269 11.5079C25.3883 11.2179 25.8487 11.0805 26.31 11.125H29.19C29.6513 11.0805 30.1117 11.2179 30.4731 11.5079C30.8346 11.7979 31.0685 12.2176 31.125 12.6775C31.1239 12.8439 31.0895 13.0084 31.0238 13.1613L30 15.625H28.4812M28.4812 15.625H34.5M50.25 16.2212C49.3054 15.8276 48.2921 15.6249 47.2687 15.625M50.25 16.2212V15.625L51.2738 13.1613C51.3395 13.0084 51.3739 12.8439 51.375 12.6775C51.3185 12.2176 51.0846 11.7979 50.7231 11.5079C50.3617 11.2179 49.9013 11.0805 49.44 11.125H46.56C46.0987 11.0805 45.6383 11.2179 45.2769 11.5079C44.9154 11.7979 44.6815 12.2176 44.625 12.6775C44.6261 12.8439 44.6605 13.0084 44.7262 13.1613L45.75 15.625H47.2687M46.875 28H44.5823C44.0782 27.9717 43.5857 27.8378 43.1367 27.6068C42.6878 27.3758 42.2925 27.053 41.9764 26.6592C41.6603 26.2655 41.4306 25.8097 41.3022 25.3215C41.1738 24.8332 41.1495 24.3234 41.2309 23.8251C41.4559 21.9464 42.0814 20.0283 43.671 19.4871C43.9632 19.3677 44.2114 19.1612 44.3821 18.8957C44.5528 18.6302 44.6376 18.3186 44.625 18.0033C44.6336 17.6826 44.544 17.3669 44.3683 17.0985C44.1926 16.8301 43.9391 16.6218 43.6418 16.5014L41.25 15.625M41.25 15.625H47.2687M41.25 11.125C41.993 10.1552 42.3583 8.97159 42.375 7.75C42.375 5.8825 41.25 4.375 37.875 4.375M41.25 11.125V12.25H34.5V11.125C33.757 10.1552 33.3917 8.97159 33.375 7.75M41.25 11.125C41.5812 10.7951 41.7831 10.3903 41.925 9.94488C40.1483 9.86131 38.3863 9.58135 36.6712 9.11012C35.9872 8.91474 35.3587 8.56108 34.8367 8.07775C34.3147 7.59443 33.9047 6.97354 33.6573 6.30653M33.375 7.75C33.3715 7.26083 33.4618 6.75491 33.6573 6.30653M33.375 7.75C33.375 7.23316 33.4612 6.7439 33.6573 6.30653M37.875 4.375C37.7258 4.375 37.5827 4.31574 37.4773 4.21025C37.3718 4.10476 37.3125 3.96168 37.3125 3.8125V3.25H36.75C36.6008 3.25 36.4577 3.19074 36.3523 3.08525C36.2468 2.97976 36.1875 2.83668 36.1875 2.6875C36.1875 2.53832 36.2468 2.39524 36.3523 2.28975C36.4577 2.18426 36.6008 2.125 36.75 2.125H37.3125V1.5625C37.3125 1.41332 37.3718 1.27024 37.4773 1.16475C37.5827 1.05926 37.7258 1 37.875 1C38.0242 1 38.1673 1.05926 38.2727 1.16475C38.3782 1.27024 38.4375 1.41332 38.4375 1.5625V2.125H39C39.1492 2.125 39.2923 2.18426 39.3977 2.28975C39.5032 2.39524 39.5625 2.53832 39.5625 2.6875C39.5625 2.83668 39.5032 2.97976 39.3977 3.08525C39.2923 3.19074 39.1492 3.25 39 3.25H38.4375V3.8125C38.4375 3.96168 38.3782 4.10476 38.2727 4.21025C38.1673 4.31574 38.0242 4.375 37.875 4.375ZM37.875 4.375C35.434 4.375 34.17 5.16355 33.6573 6.30653M33.375 69.625C30.0562 69.625 27.75 67.6112 27.75 65.125C27.75 63.3314 31.5668 59.3862 34.6326 57.8633M33.375 69.625C33.2625 69.625 33.15 69.6048 33.0375 69.5991C32.1906 69.5578 31.3948 69.1817 30.8252 68.5536C30.2555 67.9255 29.9587 67.0969 30 66.25C30 63.496 32.9948 60.7431 34.0984 59.8218C34.2247 59.7168 34.3262 59.5852 34.3956 59.4364C34.4651 59.2876 34.5007 59.1253 34.5 58.9611V57.9362C34.5439 57.9113 34.5881 57.887 34.6326 57.8633M42.375 69.625C45.6938 69.625 48 67.6112 48 65.125C48 63.3314 44.1833 59.3863 41.1175 57.8633M42.375 69.625C42.4403 69.625 42.5056 69.6182 42.571 69.6113C42.6181 69.6064 42.6653 69.6015 42.7125 69.5991C43.5594 69.5578 44.3552 69.1817 44.9248 68.5536C45.4945 67.9255 45.7913 67.0969 45.75 66.25C45.75 63.496 42.7552 60.7375 41.6516 59.8218C41.5253 59.7168 41.4238 59.5852 41.3544 59.4364C41.2849 59.2876 41.2493 59.1253 41.25 58.9611V57.9362M41.25 57.9362C41.2366 57.9286 41.2232 57.9211 41.2098 57.9136M41.25 57.9362L41.2098 57.9136M11.28 50.5L16.363 59.5761M17.3636 59.2121L16.5 59.5L16.363 59.5761M17.3636 59.2121L18.5765 61.4646M20.9668 65.9906C21.0012 66.1442 21.0029 66.3044 20.9702 66.4606C20.9175 66.7131 20.7784 66.9393 20.577 67.1005L17.5902 61.7674M16.363 59.5761L16.2975 59.6125L17.49 61.8175L17.5902 61.7674M16.363 59.5761L17.5902 61.7674M17.5902 61.7674L17.625 61.75L18.5765 61.4646M35.4851 57.4977C35.1917 57.5952 34.9065 57.7174 34.6326 57.8633M35.4851 57.4977C35.2104 57.5949 34.9249 57.7181 34.6326 57.8633M39.2459 58.1462C39.2314 58.023 39.2171 57.9038 39.2032 57.7891M39.2459 58.1462C39.232 58.0272 39.2178 57.9081 39.2032 57.7891M39.2032 57.7891L39.203 57.7871M40.2648 57.4977C40.5396 57.5949 40.8251 57.7181 41.1175 57.8633M40.2648 57.4977C40.5583 57.5952 40.8435 57.7174 41.1175 57.8633M41.1175 57.8633C41.1484 57.8798 41.1792 57.8965 41.2098 57.9136M29.828 47.1289C29.5151 47.1386 29.2033 47.1633 28.8937 47.2027M29.828 47.1289C29.6385 47.1355 29.3053 47.1536 28.8937 47.2027M45.9109 47.1285C46.2398 47.1383 46.5675 47.1646 46.8927 47.207M45.9109 47.1285C46.0077 47.1318 46.3323 47.1515 46.5 47.1638M46.8927 47.207C46.6753 47.1805 46.6663 47.1759 46.5 47.1638M46.5234 42.625L46.5 47.1638M49.125 8.875H48.5625V8.3125C48.5625 8.16332 48.5032 8.02024 48.3977 7.91475C48.2923 7.80926 48.1492 7.75 48 7.75C47.8508 7.75 47.7077 7.80926 47.6023 7.91475C47.4968 8.02024 47.4375 8.16332 47.4375 8.3125V8.875H46.875C46.7258 8.875 46.5827 8.93426 46.4773 9.03975C46.3718 9.14524 46.3125 9.28832 46.3125 9.4375C46.3125 9.58668 46.3718 9.72976 46.4773 9.83525C46.5827 9.94074 46.7258 10 46.875 10H47.4375V10.5625C47.4375 10.7117 47.4968 10.8548 47.6023 10.9602C47.7077 11.0657 47.8508 11.125 48 11.125C48.1492 11.125 48.2923 11.0657 48.3977 10.9602C48.5032 10.8548 48.5625 10.7117 48.5625 10.5625V10H49.125C49.2742 10 49.4173 9.94074 49.5227 9.83525C49.6282 9.72976 49.6875 9.58668 49.6875 9.4375C49.6875 9.28832 49.6282 9.14524 49.5227 9.03975C49.4173 8.93426 49.2742 8.875 49.125 8.875ZM28.875 8.875H28.3125V8.3125C28.3125 8.16332 28.2532 8.02024 28.1477 7.91475C28.0423 7.80926 27.8992 7.75 27.75 7.75C27.6008 7.75 27.4577 7.80926 27.3523 7.91475C27.2468 8.02024 27.1875 8.16332 27.1875 8.3125V8.875H26.625C26.4758 8.875 26.3327 8.93426 26.2273 9.03975C26.1218 9.14524 26.0625 9.28832 26.0625 9.4375C26.0625 9.58668 26.1218 9.72976 26.2273 9.83525C26.3327 9.94074 26.4758 10 26.625 10H27.1875V10.5625C27.1875 10.7117 27.2468 10.8548 27.3523 10.9602C27.4577 11.0657 27.6008 11.125 27.75 11.125C27.8992 11.125 28.0423 11.0657 28.1477 10.9602C28.2532 10.8548 28.3125 10.7117 28.3125 10.5625V10H28.875C29.0242 10 29.1673 9.94074 29.2727 9.83525C29.3782 9.72976 29.4375 9.58668 29.4375 9.4375C29.4375 9.28832 29.3782 9.14524 29.2727 9.03975C29.1673 8.93426 29.0242 8.875 28.875 8.875Z" stroke="#282828" stroke-width="0.99" stroke-linejoin="round"/>
<path d="M14.1316 49.8782L13.2676 51.6062L17.3633 59.2125L18.5762 61.4649L20.8658 65.7171C20.9116 65.8042 20.9453 65.8963 20.9665 65.991C21.0117 66.1818 21.0066 66.383 20.9492 66.5741C20.8634 66.86 20.6674 67.1 20.4046 67.2415C20.1417 67.3829 19.8334 67.4141 19.5476 67.3282C19.2617 67.2424 19.0216 67.0465 18.8802 66.7836L11.3247 52.7504H8.6247C8.4401 52.7498 8.25848 52.7039 8.09583 52.6166C7.93319 52.5293 7.79452 52.4033 7.69207 52.2497L5.44207 48.8747C5.27648 48.6265 5.21628 48.3226 5.27472 48.03C5.33316 47.7374 5.50546 47.4799 5.7537 47.3144C6.00194 47.1488 6.3058 47.0886 6.59843 47.147C6.89105 47.2054 7.14848 47.3777 7.31407 47.626L9.22657 50.5004H11.2797H11.3045L11.9052 49.2887L10.9287 46.3559C10.8344 46.0724 10.8566 45.7631 10.9904 45.496C11.0566 45.3638 11.1482 45.2458 11.26 45.149C11.3718 45.0522 11.5016 44.9783 11.642 44.9316C11.7823 44.8849 11.9305 44.8663 12.078 44.8769C12.2255 44.8875 12.3695 44.927 12.5018 44.9933C12.634 45.0595 12.752 45.1511 12.8488 45.2629C12.9456 45.3747 13.0195 45.5045 13.0662 45.6448L14.1912 49.0198C14.2859 49.3026 14.2644 49.6113 14.1316 49.8782Z" fill="#86CBE8"/>
<path d="M20.8658 65.7171H20.8625C20.9093 65.8042 20.9441 65.8963 20.9665 65.991M20.8658 65.7171C20.9116 65.8042 20.9453 65.8963 20.9665 65.991M20.8658 65.7171L18.5762 61.4649L17.3633 59.2125L13.2676 51.6062L14.1316 49.8782C14.2644 49.6113 14.2859 49.3026 14.1912 49.0198L13.0662 45.6448C13.0195 45.5045 12.9456 45.3747 12.8488 45.2629C12.752 45.1511 12.634 45.0595 12.5018 44.9933C12.3695 44.927 12.2255 44.8875 12.078 44.8769C11.9305 44.8663 11.7823 44.8849 11.6419 44.9316C11.5016 44.9783 11.3718 45.0522 11.26 45.149C11.1482 45.2458 11.0566 45.3638 10.9904 45.496C10.8566 45.7631 10.8344 46.0724 10.9287 46.3559L11.9052 49.2887L11.3045 50.5004M11.3045 50.5004H9.22657M11.3045 50.5004H11.2797H9.22657M9.22657 50.5004L7.31407 47.626C7.14848 47.3777 6.89105 47.2054 6.59843 47.147C6.3058 47.0886 6.00194 47.1488 5.7537 47.3144C5.50546 47.4799 5.33316 47.7374 5.27472 48.03C5.21628 48.3226 5.27648 48.6265 5.44207 48.8747L7.69207 52.2497C7.79452 52.4033 7.93319 52.5293 8.09583 52.6166C8.25848 52.7039 8.4401 52.7498 8.6247 52.7504H11.3247L18.8802 66.7836C19.0216 67.0465 19.2617 67.2424 19.5476 67.3282C19.8334 67.4141 20.1417 67.3829 20.4046 67.2415C20.6674 67.1 20.8634 66.86 20.9492 66.5741C21.0066 66.383 21.0117 66.1818 20.9665 65.991M20.5767 67.1009C20.7781 66.9397 20.9172 66.7134 20.9699 66.4609C21.0026 66.3047 21.0009 66.1445 20.9665 65.991" stroke="#282828" stroke-width="0.99" stroke-linejoin="round"/>
<path d="M37.875 31.375H30V47.125C30.0018 47.7212 30.2394 48.2925 30.661 48.714C31.0825 49.1356 31.6538 49.3732 32.25 49.375H33.7575C34.3486 49.3745 34.934 49.4905 35.4803 49.7164C36.0266 49.9422 36.523 50.2735 36.9413 50.6912L37.875 51.625L38.8088 50.6912C39.227 50.2735 39.7234 49.9422 40.2697 49.7164C40.816 49.4905 41.4014 49.3745 41.9925 49.375H43.5C44.0962 49.3732 44.6675 49.1356 45.089 48.714C45.5106 48.2925 45.7482 47.7212 45.75 47.125V31.375H37.875ZM45.1875 47.125C45.1875 47.5726 45.0097 48.0018 44.6932 48.3182C44.3768 48.6347 43.9476 48.8125 43.5 48.8125H41.9925C40.6505 48.8152 39.3637 49.3472 38.4116 50.293L37.875 50.8296L37.3384 50.293C36.3863 49.3472 35.0995 48.8152 33.7575 48.8125H32.25C31.8024 48.8125 31.3732 48.6347 31.0568 48.3182C30.7403 48.0018 30.5625 47.5726 30.5625 47.125V31.9375H45.1875V47.125Z" fill="#282828"/>
</svg>
