<svg width="295" height="11" viewBox="0 0 295 11" fill="none" xmlns="http://www.w3.org/2000/svg">
<path d="M2 9L11.0938 4C16.7565 0.886463 23.6185 0.886464 29.2812 4V4C34.944 7.11354 41.806 7.11354 47.4687 4V4C53.1315 0.886464 59.9935 0.886464 65.6562 4V4C71.319 7.11354 78.181 7.11354 83.8437 4V4C89.5065 0.886464 96.3685 0.886464 102.031 4V4C107.694 7.11354 114.556 7.11354 120.219 4V4C125.881 0.886464 132.744 0.886464 138.406 4V4C144.069 7.11354 150.931 7.11354 156.594 4V4C162.256 0.886464 169.119 0.886464 174.781 4V4C180.444 7.11354 187.306 7.11354 192.969 4V4C198.631 0.886464 205.494 0.886464 211.156 4V4C216.819 7.11354 223.681 7.11354 229.344 4V4C235.006 0.886464 241.869 0.886464 247.531 4V4C253.194 7.11354 260.056 7.11354 265.719 4V4C271.381 0.886464 278.244 0.886464 283.906 4L293 9" stroke="#86CBE8" stroke-width="3" stroke-linecap="round"/>
</svg>
