<svg width="200" height="36" viewBox="0 0 200 36" fill="none" xmlns="http://www.w3.org/2000/svg">
<path d="M4.84698 22.4076V14.1748H6.8064C8.55956 14.1748 10.0033 14.3833 11.0346 15.0085C12.0659 15.6338 12.6846 16.6759 12.6846 18.3433C12.6846 21.1571 11.0346 22.4076 7.11578 22.4076H4.84698ZM0.103127 26.3677H7.01265C14.7472 26.3677 17.5316 22.9287 17.5316 18.1349C17.5316 14.9043 16.191 12.7159 13.819 11.4653C11.9628 10.4232 9.59083 10.1106 6.70327 10.1106H4.84698V3.85781H15.2628L16.5004 0.00195312H0V26.3677H0.103127ZM20.7286 26.3677H25.2662L31.1444 17.8223C32.2788 16.2591 33.1038 14.6959 33.6195 13.8622H33.7226C33.6195 15.0085 33.5163 16.4675 33.5163 17.9265V26.2635H38.1571V7.50524H33.6195L27.7412 16.0507C26.71 17.6138 25.7818 19.177 25.2662 20.0107H25.163C25.2662 18.8644 25.3693 17.4054 25.3693 15.9464V7.60946H20.7286V26.3677ZM46.0979 26.3677H50.8417V11.4653H56.4106L57.6481 7.50524H40.4259V11.4653H46.0979V26.3677ZM59.2982 35.851H63.9389V26.3677C64.867 26.6803 65.7952 26.7845 66.8264 26.7845C72.7047 26.7845 76.5204 22.7202 76.5204 16.8844C76.5204 10.84 73.0141 6.98418 66.3108 6.98418C63.7326 6.98418 61.2576 7.50524 59.195 8.13052V35.851H59.2982ZM63.9389 22.3034V11.2569C64.6608 11.0485 65.2795 10.9443 66.1046 10.9443C69.5078 10.9443 71.6734 12.8201 71.6734 16.8844C71.6734 20.5318 69.9203 22.8245 66.4139 22.8245C65.4858 22.8245 64.7639 22.616 63.9389 22.3034ZM79.3048 26.3677H83.8424L89.7207 17.8223C90.8551 16.2591 91.6801 14.6959 92.1957 13.8622H92.2989C92.1957 15.0085 92.0926 16.4675 92.0926 17.9265V26.2635H96.7333V7.50524H92.1957L86.3175 16.0507C85.2862 17.6138 84.3581 19.177 83.8424 20.0107H83.7393C83.8424 18.8644 83.9456 17.4054 83.9456 15.9464V7.60946H79.3048V26.3677ZM100.446 26.3677H105.19V18.5518H107.974C108.49 18.5518 109.005 19.0728 109.624 20.3234L111.996 26.3677H117.049L113.646 19.177C113.027 17.9265 112.409 17.197 111.481 16.8844V16.7801C113.027 15.8422 113.234 13.1327 114.162 11.778C114.471 11.3611 114.884 11.1527 115.502 11.1527C115.812 11.1527 116.224 11.1527 116.534 11.3611V7.29682C116.018 7.08839 115.09 6.98418 114.574 6.98418C112.924 6.98418 111.893 7.60946 111.171 8.65158C109.624 10.9443 109.624 14.9043 107.355 14.9043H105.19V7.50524H100.446V26.3677ZM127.568 26.7845C130.147 26.7845 132.518 25.9508 133.962 24.9087L132.622 21.6781C131.281 22.4076 130.043 22.9287 128.29 22.9287C125.093 22.9287 123.031 20.8444 123.031 16.9886C123.031 13.5496 125.093 10.84 128.6 10.84C130.456 10.84 131.797 11.3611 133.137 12.299V8.23473C132.106 7.60946 130.456 6.98418 128.084 6.98418C122.515 6.98418 118.184 11.1527 118.184 17.0928C118.184 22.5118 121.484 26.7845 127.568 26.7845Z" fill="#0BBBEF"/>
<path d="M136.478 26.4151H154.682V22.3592H142.684C144.339 15.7035 154.475 14.2475 154.475 6.86376C154.475 2.9119 151.786 0 146.097 0C142.58 0 139.477 1.03996 137.409 2.07993L138.65 5.8238C140.512 4.88783 142.684 4.05586 145.373 4.05586C147.442 4.05586 149.407 4.99183 149.407 7.38375C149.407 12.7916 137.512 13.2075 136.478 26.4151ZM155.199 19.9673H166.887V26.4151H171.541V19.9673H175.472V16.0154H171.541V0H168.128L155.199 16.8474V19.9673ZM160.474 16.2234L167.094 7.27975C167.094 8.00772 166.887 10.2956 166.887 12.3756V16.1194H163.784C162.853 16.1194 161.095 16.2234 160.474 16.2234Z" fill="#005893"/>
<path d="M190.88 20.1257C195.901 20.1257 200 16.0271 200 11.0062C200 5.98537 195.901 1.88672 190.88 1.88672C185.859 1.88672 181.761 5.98537 181.761 11.0062C181.863 16.0271 185.859 20.1257 190.88 20.1257Z" stroke="#005893" stroke-width="1.25786"/>
<path d="M196.855 10.6307H191.885V5.66016H190.566V11.9495H196.855V10.6307Z" fill="#005893"/>
</svg>
